<?xml version="1.0" encoding="UTF-8" standalone="no"?>
<!DOCTYPE svg PUBLIC "-//W3C//DTD SVG 1.1//EN"
 "http://www.w3.org/Graphics/SVG/1.1/DTD/svg11.dtd">
<!-- Generated by graphviz version 2.40.1 (20161225.0304)
 -->
<!-- Title: dependencies Pages: 1 -->
<svg width="2395pt" height="349pt"
 viewBox="0.00 0.00 2395.00 349.00" xmlns="http://www.w3.org/2000/svg" xmlns:xlink="http://www.w3.org/1999/xlink">
<g id="graph0" class="graph" transform="scale(1 1) rotate(0) translate(4 345)">
<title>dependencies</title>
<polygon fill="#ffffff" stroke="transparent" points="-4,4 -4,-345 2391,-345 2391,4 -4,4"/>
<text text-anchor="start" x="1172.5091" y="-42.4" font-family="sans-serif" font-weight="bold" font-size="14.00" fill="#000000">Legend</text>
<polygon fill="#ffffb3" stroke="transparent" points="959.5,-10 959.5,-30 979.5,-30 979.5,-10 959.5,-10"/>
<text text-anchor="start" x="983.129" y="-15.4" font-family="sans-serif" font-size="14.00" fill="#000000"> &#160;Declarations</text>
<polygon fill="#8dd3c7" stroke="transparent" points="1072.5,-10 1072.5,-30 1092.5,-30 1092.5,-10 1072.5,-10"/>
<text text-anchor="start" x="1096.2251" y="-15.4" font-family="sans-serif" font-size="14.00" fill="#000000"> &#160;Module</text>
<polygon fill="#80b1d3" stroke="transparent" points="1158.5,-10 1158.5,-30 1178.5,-30 1178.5,-10 1158.5,-10"/>
<text text-anchor="start" x="1182.2812" y="-15.4" font-family="sans-serif" font-size="14.00" fill="#000000"> &#160;Bootstrap</text>
<polygon fill="#fdb462" stroke="transparent" points="1255.5,-10 1255.5,-30 1275.5,-30 1275.5,-10 1255.5,-10"/>
<text text-anchor="start" x="1279.1732" y="-15.4" font-family="sans-serif" font-size="14.00" fill="#000000"> &#160;Providers</text>
<polygon fill="#fb8072" stroke="transparent" points="1351.5,-10 1351.5,-30 1371.5,-30 1371.5,-10 1351.5,-10"/>
<text text-anchor="start" x="1375.2258" y="-15.4" font-family="sans-serif" font-size="14.00" fill="#000000"> &#160;Exports</text>
<g id="clust1" class="cluster">
<title>cluster_GdkJsonInputModule</title>
<polygon fill="none" stroke="#000000" stroke-dasharray="1,5" points="8,-70 8,-333 2379,-333 2379,-70 8,-70"/>
</g>
<g id="clust2" class="cluster">
<title>cluster_GdkJsonInputModule_declarations</title>
<polygon fill="none" stroke="#000000" points="967,-143 967,-195 1143,-195 1143,-143 967,-143"/>
</g>
<g id="clust3" class="cluster">
<title>cluster_GdkJsonInputModule_GdkJsonInputComponent_providers</title>
<polygon fill="none" stroke="#000000" points="16,-78 16,-130 2371,-130 2371,-78 16,-78"/>
</g>
<g id="clust5" class="cluster">
<title>cluster_GdkJsonInputModule_exports</title>
<polygon fill="none" stroke="#000000" points="965,-273 965,-325 1145,-325 1145,-273 965,-273"/>
</g>
<!-- GdkJsonInputComponent -->
<g id="node1" class="node">
<title>GdkJsonInputComponent</title>
<polygon fill="#ffffb3" stroke="#000000" points="1134.8794,-187 975.1206,-187 975.1206,-151 1134.8794,-151 1134.8794,-187"/>
<text text-anchor="middle" x="1055" y="-164.8" font-family="Times,serif" font-size="14.00" fill="#000000">GdkJsonInputComponent</text>
</g>
<!-- GdkJsonInputModule -->
<g id="node2" class="node">
<title>GdkJsonInputModule</title>
<polygon fill="#8dd3c7" stroke="#000000" points="1124.0968,-252 1121.0968,-256 1100.0968,-256 1097.0968,-252 985.9032,-252 985.9032,-216 1124.0968,-216 1124.0968,-252"/>
<text text-anchor="middle" x="1055" y="-229.8" font-family="Times,serif" font-size="14.00" fill="#000000">GdkJsonInputModule</text>
</g>
<!-- GdkJsonInputComponent&#45;&gt;GdkJsonInputModule -->
<g id="edge1" class="edge">
<title>GdkJsonInputComponent&#45;&gt;GdkJsonInputModule</title>
<path fill="none" stroke="#000000" d="M1055,-187.1061C1055,-187.1061 1055,-205.991 1055,-205.991"/>
<polygon fill="#000000" stroke="#000000" points="1051.5001,-205.9909 1055,-215.991 1058.5001,-205.991 1051.5001,-205.9909"/>
</g>
<!-- GdkJsonInputComponent  -->
<g id="node6" class="node">
<title>GdkJsonInputComponent </title>
<polygon fill="#fb8072" stroke="#000000" points="1136.8798,-317 973.1202,-317 973.1202,-281 1136.8798,-281 1136.8798,-317"/>
<text text-anchor="middle" x="1055" y="-294.8" font-family="Times,serif" font-size="14.00" fill="#000000">GdkJsonInputComponent </text>
</g>
<!-- GdkJsonInputModule&#45;&gt;GdkJsonInputComponent  -->
<g id="edge5" class="edge">
<title>GdkJsonInputModule&#45;&gt;GdkJsonInputComponent </title>
<path fill="none" stroke="#000000" stroke-dasharray="5,2" d="M1055,-252.1061C1055,-252.1061 1055,-270.991 1055,-270.991"/>
<polygon fill="#000000" stroke="#000000" points="1051.5001,-270.9909 1055,-280.991 1058.5001,-270.991 1051.5001,-270.9909"/>
</g>
<!-- { provide: NG_VALUE_ACCESSOR, useExisting: forwardRef(() =&gt; GdkJsonInputComponent), multi: true } -->
<g id="node3" class="node">
<title>{ provide: NG_VALUE_ACCESSOR, useExisting: forwardRef(() =&gt; GdkJsonInputComponent), multi: true }</title>
<ellipse fill="#fdb462" stroke="#000000" cx="1924" cy="-104" rx="438.6762" ry="18"/>
<text text-anchor="middle" x="1924" y="-99.8" font-family="Times,serif" font-size="14.00" fill="#000000">{ provide: NG_VALUE_ACCESSOR, useExisting: forwardRef(() =&gt; GdkJsonInputComponent), multi: true }</text>
</g>
<!-- { provide: NG_VALUE_ACCESSOR, useExisting: forwardRef(() =&gt; GdkJsonInputComponent), multi: true }&#45;&gt;GdkJsonInputComponent -->
<g id="edge2" class="edge">
<title>{ provide: NG_VALUE_ACCESSOR, useExisting: forwardRef(() =&gt; GdkJsonInputComponent), multi: true }&#45;&gt;GdkJsonInputComponent</title>
<path fill="none" stroke="#000000" d="M1924,-122.1061C1924,-141.3391 1924,-169 1924,-169 1924,-169 1145.1958,-169 1145.1958,-169"/>
<polygon fill="#000000" stroke="#000000" points="1145.1958,-165.5001 1135.1958,-169 1145.1958,-172.5001 1145.1958,-165.5001"/>
</g>
<!-- { provide: NG_VALIDATORS, useExisting: forwardRef(() =&gt; GdkJsonInputComponent), multi: true } -->
<g id="node4" class="node">
<title>{ provide: NG_VALIDATORS, useExisting: forwardRef(() =&gt; GdkJsonInputComponent), multi: true }</title>
<ellipse fill="#fdb462" stroke="#000000" cx="1055" cy="-104" rx="412.6526" ry="18"/>
<text text-anchor="middle" x="1055" y="-99.8" font-family="Times,serif" font-size="14.00" fill="#000000">{ provide: NG_VALIDATORS, useExisting: forwardRef(() =&gt; GdkJsonInputComponent), multi: true }</text>
</g>
<!-- { provide: NG_VALIDATORS, useExisting: forwardRef(() =&gt; GdkJsonInputComponent), multi: true }&#45;&gt;GdkJsonInputComponent -->
<g id="edge3" class="edge">
<title>{ provide: NG_VALIDATORS, useExisting: forwardRef(() =&gt; GdkJsonInputComponent), multi: true }&#45;&gt;GdkJsonInputComponent</title>
<path fill="none" stroke="#000000" d="M1055,-122.1061C1055,-122.1061 1055,-140.991 1055,-140.991"/>
<polygon fill="#000000" stroke="#000000" points="1051.5001,-140.9909 1055,-150.991 1058.5001,-140.991 1051.5001,-140.9909"/>
</g>
<!-- { provide: MatFormFieldControl, useExisting: GdkJsonInputComponent } -->
<g id="node5" class="node">
<title>{ provide: MatFormFieldControl, useExisting: GdkJsonInputComponent }</title>
<ellipse fill="#fdb462" stroke="#000000" cx="324" cy="-104" rx="299.6029" ry="18"/>
<text text-anchor="middle" x="324" y="-99.8" font-family="Times,serif" font-size="14.00" fill="#000000">{ provide: MatFormFieldControl, useExisting: GdkJsonInputComponent }</text>
</g>
<!-- { provide: MatFormFieldControl, useExisting: GdkJsonInputComponent }&#45;&gt;GdkJsonInputComponent -->
<g id="edge4" class="edge">
<title>{ provide: MatFormFieldControl, useExisting: GdkJsonInputComponent }&#45;&gt;GdkJsonInputComponent</title>
<path fill="none" stroke="#000000" d="M324,-122.1061C324,-141.3391 324,-169 324,-169 324,-169 965.0292,-169 965.0292,-169"/>
<polygon fill="#000000" stroke="#000000" points="965.0292,-172.5001 975.0292,-169 965.0292,-165.5001 965.0292,-172.5001"/>
</g>
</g>
</svg>
