<svg id="Layer_1" class="logo-svg" data-name="Layer 1" xmlns="http://www.w3.org/2000/svg" xmlns:xlink="http://www.w3.org/1999/xlink" viewBox="0 0 230.58 68"><defs><style>.cls-1{fill:url(#linear-gradient);}.cls-2{fill:url(#linear-gradient-2);}.cls-3{fill:url(#linear-gradient-3);}.cls-4{fill:url(#linear-gradient-4);}.cls-5{fill:url(#linear-gradient-5);}.cls-6{fill:url(#linear-gradient-6);}.cls-7{fill:url(#linear-gradient-7);}</style><linearGradient id="linear-gradient" x1="266.85" y1="43.55" x2="33.41" y2="43.55" gradientUnits="userSpaceOnUse"><stop offset="0" stop-color="#76c47d"/><stop offset="1" stop-color="#23bec4"/></linearGradient><linearGradient id="linear-gradient-2" x1="266.85" y1="34.17" x2="33.41" y2="34.17" xlink:href="#linear-gradient"/><linearGradient id="linear-gradient-3" x1="266.85" y1="44.11" x2="33.41" y2="44.11" xlink:href="#linear-gradient"/><linearGradient id="linear-gradient-4" x1="266.85" y1="33.71" x2="33.41" y2="33.71" xlink:href="#linear-gradient"/><linearGradient id="linear-gradient-5" x1="268.01" y1="44.62" x2="34.56" y2="44.62" xlink:href="#linear-gradient"/><linearGradient id="linear-gradient-6" x1="266.85" y1="44.52" x2="33.41" y2="44.52" xlink:href="#linear-gradient"/><linearGradient id="linear-gradient-7" x1="266.85" y1="8.4" x2="33.41" y2="8.4" xlink:href="#linear-gradient"/></defs><title>logo gorila novo 68px</title><path class="cls-1" d="M88.32,20.18a23.3,23.3,0,0,0-16.91,7.25,3.2,3.2,0,0,1,.94,2.26v22.8a3.21,3.21,0,0,1-3.21,3.21h-.8a23.38,23.38,0,1,0,20-35.52Zm0,33.72A10.34,10.34,0,1,1,98.66,43.55,10.34,10.34,0,0,1,88.32,53.89Z"/><path class="cls-2" d="M69.14,28.5H63.92v0H44.66a1.21,1.21,0,0,0-1.21,1.21v6.38a1.21,1.21,0,0,0,1.21,1.21h4A14.49,14.49,0,1,1,34.56,19.67H61.73a1.32,1.32,0,0,0,1.16-2A32.77,32.77,0,1,0,34.56,66.93C48.1,66.93,57.71,58.72,61.7,47v5.47a1.18,1.18,0,0,0,1.18,1.18h6.26a1.18,1.18,0,0,0,1.18-1.18V29.68A1.18,1.18,0,0,0,69.14,28.5Z"/><path class="cls-3" d="M124.34,26.2a1,1,0,0,0,1.68.37c3.35-3.36,8.52-4.83,13.69-4.83a22.94,22.94,0,0,1,6.27.86,1,1,0,0,1,.66,1.4l-4.1,9.3a1,1,0,0,1-1.26.55A11.44,11.44,0,0,0,126,42.28a1.13,1.13,0,0,0,0,.22v23a1,1,0,0,1-1,1H114.31a1,1,0,0,1-1-1V23.87a1,1,0,0,1,1-1h8.09a1,1,0,0,1,1,.67Z"/><path class="cls-4" d="M164.66,65.57V1.85a.91.91,0,0,1,.91-.91h11.14a.91.91,0,0,1,.91.91V65.57a.91.91,0,0,1-.91.91H165.57A.91.91,0,0,1,164.66,65.57Z"/><path class="cls-5" d="M229.22,23.68v42a.83.83,0,0,1-.83.83h-9.06a.83.83,0,0,1-.83-.83V62.23a23.09,23.09,0,1,1,0-35.23l.86-3.52a.83.83,0,0,1,.81-.64h8.23A.83.83,0,0,1,229.22,23.68ZM216.46,44.62a11.78,11.78,0,0,0-3.34-8.4,11,11,0,0,0-8-3.44,11.35,11.35,0,0,0-8.1,3.44,12.22,12.22,0,0,0-3.34,8.4A12.41,12.41,0,0,0,197,53a11.35,11.35,0,0,0,8.1,3.44,11,11,0,0,0,8-3.44A12,12,0,0,0,216.46,44.62Z"/><path class="cls-6" d="M148.62,65.6V23.44a.88.88,0,0,1,.88-.88h11.3a.88.88,0,0,1,.88.88V65.6a.88.88,0,0,1-.88.88H149.5A.88.88,0,0,1,148.62,65.6Z"/><circle class="cls-7" cx="155.15" cy="8.4" r="7.01"/></svg>