<?xml version="1.0" encoding="UTF-8" standalone="no"?>
<!DOCTYPE svg PUBLIC "-//W3C//DTD SVG 1.1//EN"
 "http://www.w3.org/Graphics/SVG/1.1/DTD/svg11.dtd">
<!-- Generated by graphviz version 2.40.1 (20161225.0304)
 -->
<!-- Title: dependencies Pages: 1 -->
<svg width="593pt" height="284pt"
 viewBox="0.00 0.00 593.00 284.00" xmlns="http://www.w3.org/2000/svg" xmlns:xlink="http://www.w3.org/1999/xlink">
<g id="graph0" class="graph" transform="scale(1 1) rotate(0) translate(4 280)">
<title>dependencies</title>
<polygon fill="#ffffff" stroke="transparent" points="-4,4 -4,-280 589,-280 589,4 -4,4"/>
<text text-anchor="start" x="271.5091" y="-42.4" font-family="sans-serif" font-weight="bold" font-size="14.00" fill="#000000">Legend</text>
<polygon fill="#ffffb3" stroke="transparent" points="58.5,-10 58.5,-30 78.5,-30 78.5,-10 58.5,-10"/>
<text text-anchor="start" x="82.129" y="-15.4" font-family="sans-serif" font-size="14.00" fill="#000000"> &#160;Declarations</text>
<polygon fill="#8dd3c7" stroke="transparent" points="171.5,-10 171.5,-30 191.5,-30 191.5,-10 171.5,-10"/>
<text text-anchor="start" x="195.2251" y="-15.4" font-family="sans-serif" font-size="14.00" fill="#000000"> &#160;Module</text>
<polygon fill="#80b1d3" stroke="transparent" points="257.5,-10 257.5,-30 277.5,-30 277.5,-10 257.5,-10"/>
<text text-anchor="start" x="281.2812" y="-15.4" font-family="sans-serif" font-size="14.00" fill="#000000"> &#160;Bootstrap</text>
<polygon fill="#fdb462" stroke="transparent" points="354.5,-10 354.5,-30 374.5,-30 374.5,-10 354.5,-10"/>
<text text-anchor="start" x="378.1732" y="-15.4" font-family="sans-serif" font-size="14.00" fill="#000000"> &#160;Providers</text>
<polygon fill="#fb8072" stroke="transparent" points="450.5,-10 450.5,-30 470.5,-30 470.5,-10 450.5,-10"/>
<text text-anchor="start" x="474.2258" y="-15.4" font-family="sans-serif" font-size="14.00" fill="#000000"> &#160;Exports</text>
<g id="clust1" class="cluster">
<title>cluster_LetterheadModule</title>
<polygon fill="none" stroke="#000000" stroke-dasharray="1,5" points="8,-70 8,-268 577,-268 577,-70 8,-70"/>
</g>
<g id="clust2" class="cluster">
<title>cluster_LetterheadModule_declarations</title>
<polygon fill="none" stroke="#000000" points="16,-78 16,-130 569,-130 569,-78 16,-78"/>
</g>
<g id="clust7" class="cluster">
<title>cluster_LetterheadModule_exports</title>
<polygon fill="none" stroke="#000000" points="233,-208 233,-260 393,-260 393,-208 233,-208"/>
</g>
<!-- LetterheadComponent -->
<g id="node1" class="node">
<title>LetterheadComponent</title>
<polygon fill="#ffffb3" stroke="#000000" points="560.6853,-122 419.3147,-122 419.3147,-86 560.6853,-86 560.6853,-122"/>
<text text-anchor="middle" x="490" y="-99.8" font-family="Times,serif" font-size="14.00" fill="#000000">LetterheadComponent</text>
</g>
<!-- LetterheadModule -->
<g id="node4" class="node">
<title>LetterheadModule</title>
<polygon fill="#8dd3c7" stroke="#000000" points="372.9033,-187 369.9033,-191 348.9033,-191 345.9033,-187 253.0967,-187 253.0967,-151 372.9033,-151 372.9033,-187"/>
<text text-anchor="middle" x="313" y="-164.8" font-family="Times,serif" font-size="14.00" fill="#000000">LetterheadModule</text>
</g>
<!-- LetterheadComponent&#45;&gt;LetterheadModule -->
<g id="edge1" class="edge">
<title>LetterheadComponent&#45;&gt;LetterheadModule</title>
<path fill="none" stroke="#000000" d="M490,-122.1061C490,-141.3391 490,-169 490,-169 490,-169 382.9241,-169 382.9241,-169"/>
<polygon fill="#000000" stroke="#000000" points="382.9242,-165.5001 372.9241,-169 382.9241,-172.5001 382.9242,-165.5001"/>
</g>
<!-- LetterheadFooterComponent -->
<g id="node2" class="node">
<title>LetterheadFooterComponent</title>
<polygon fill="#ffffb3" stroke="#000000" points="401.7338,-122 224.2662,-122 224.2662,-86 401.7338,-86 401.7338,-122"/>
<text text-anchor="middle" x="313" y="-99.8" font-family="Times,serif" font-size="14.00" fill="#000000">LetterheadFooterComponent</text>
</g>
<!-- LetterheadFooterComponent&#45;&gt;LetterheadModule -->
<g id="edge2" class="edge">
<title>LetterheadFooterComponent&#45;&gt;LetterheadModule</title>
<path fill="none" stroke="#000000" d="M313,-122.1061C313,-122.1061 313,-140.991 313,-140.991"/>
<polygon fill="#000000" stroke="#000000" points="309.5001,-140.9909 313,-150.991 316.5001,-140.991 309.5001,-140.9909"/>
</g>
<!-- LetterheadHeaderComponent -->
<g id="node3" class="node">
<title>LetterheadHeaderComponent</title>
<polygon fill="#ffffb3" stroke="#000000" points="205.5966,-122 24.4034,-122 24.4034,-86 205.5966,-86 205.5966,-122"/>
<text text-anchor="middle" x="115" y="-99.8" font-family="Times,serif" font-size="14.00" fill="#000000">LetterheadHeaderComponent</text>
</g>
<!-- LetterheadHeaderComponent&#45;&gt;LetterheadModule -->
<g id="edge3" class="edge">
<title>LetterheadHeaderComponent&#45;&gt;LetterheadModule</title>
<path fill="none" stroke="#000000" d="M115,-122.1061C115,-141.3391 115,-169 115,-169 115,-169 243.0561,-169 243.0561,-169"/>
<polygon fill="#000000" stroke="#000000" points="243.0562,-172.5001 253.0561,-169 243.0561,-165.5001 243.0562,-172.5001"/>
</g>
<!-- LetterheadComponent  -->
<g id="node5" class="node">
<title>LetterheadComponent </title>
<polygon fill="#fb8072" stroke="#000000" points="385.1855,-252 240.8145,-252 240.8145,-216 385.1855,-216 385.1855,-252"/>
<text text-anchor="middle" x="313" y="-229.8" font-family="Times,serif" font-size="14.00" fill="#000000">LetterheadComponent </text>
</g>
<!-- LetterheadModule&#45;&gt;LetterheadComponent  -->
<g id="edge4" class="edge">
<title>LetterheadModule&#45;&gt;LetterheadComponent </title>
<path fill="none" stroke="#000000" stroke-dasharray="5,2" d="M313,-187.1061C313,-187.1061 313,-205.991 313,-205.991"/>
<polygon fill="#000000" stroke="#000000" points="309.5001,-205.9909 313,-215.991 316.5001,-205.991 309.5001,-205.9909"/>
</g>
</g>
</svg>
