<?xml version="1.0" encoding="UTF-8" standalone="no"?>
<!DOCTYPE svg PUBLIC "-//W3C//DTD SVG 1.1//EN"
 "http://www.w3.org/Graphics/SVG/1.1/DTD/svg11.dtd">
<!-- Generated by graphviz version 2.40.1 (20161225.0304)
 -->
<!-- Title: dependencies Pages: 1 -->
<svg width="504pt" height="284pt"
 viewBox="0.00 0.00 504.00 284.00" xmlns="http://www.w3.org/2000/svg" xmlns:xlink="http://www.w3.org/1999/xlink">
<g id="graph0" class="graph" transform="scale(1 1) rotate(0) translate(4 280)">
<title>dependencies</title>
<polygon fill="#ffffff" stroke="transparent" points="-4,4 -4,-280 500,-280 500,4 -4,4"/>
<text text-anchor="start" x="227.0091" y="-42.4" font-family="sans-serif" font-weight="bold" font-size="14.00" fill="#000000">Legend</text>
<polygon fill="#ffffb3" stroke="transparent" points="14,-10 14,-30 34,-30 34,-10 14,-10"/>
<text text-anchor="start" x="37.629" y="-15.4" font-family="sans-serif" font-size="14.00" fill="#000000"> &#160;Declarations</text>
<polygon fill="#8dd3c7" stroke="transparent" points="127,-10 127,-30 147,-30 147,-10 127,-10"/>
<text text-anchor="start" x="150.7251" y="-15.4" font-family="sans-serif" font-size="14.00" fill="#000000"> &#160;Module</text>
<polygon fill="#80b1d3" stroke="transparent" points="213,-10 213,-30 233,-30 233,-10 213,-10"/>
<text text-anchor="start" x="236.7812" y="-15.4" font-family="sans-serif" font-size="14.00" fill="#000000"> &#160;Bootstrap</text>
<polygon fill="#fdb462" stroke="transparent" points="310,-10 310,-30 330,-30 330,-10 310,-10"/>
<text text-anchor="start" x="333.6732" y="-15.4" font-family="sans-serif" font-size="14.00" fill="#000000"> &#160;Providers</text>
<polygon fill="#fb8072" stroke="transparent" points="406,-10 406,-30 426,-30 426,-10 406,-10"/>
<text text-anchor="start" x="429.7258" y="-15.4" font-family="sans-serif" font-size="14.00" fill="#000000"> &#160;Exports</text>
<g id="clust1" class="cluster">
<title>cluster_PageHeaderModule</title>
<polygon fill="none" stroke="#000000" stroke-dasharray="1,5" points="56,-70 56,-268 440,-268 440,-70 56,-70"/>
</g>
<g id="clust2" class="cluster">
<title>cluster_PageHeaderModule_declarations</title>
<polygon fill="none" stroke="#000000" points="68,-78 68,-130 428,-130 428,-78 68,-78"/>
</g>
<g id="clust6" class="cluster">
<title>cluster_PageHeaderModule_exports</title>
<polygon fill="none" stroke="#000000" points="64,-208 64,-260 432,-260 432,-208 64,-208"/>
</g>
<!-- PageHeaderBottomDirective -->
<g id="node1" class="node">
<title>PageHeaderBottomDirective</title>
<polygon fill="#ffffb3" stroke="#000000" points="419.7142,-122 242.2858,-122 242.2858,-86 419.7142,-86 419.7142,-122"/>
<text text-anchor="middle" x="331" y="-99.8" font-family="Times,serif" font-size="14.00" fill="#000000">PageHeaderBottomDirective</text>
</g>
<!-- PageHeaderModule -->
<g id="node3" class="node">
<title>PageHeaderModule</title>
<polygon fill="#8dd3c7" stroke="#000000" points="214.6727,-187 211.6727,-191 190.6727,-191 187.6727,-187 87.3273,-187 87.3273,-151 214.6727,-151 214.6727,-187"/>
<text text-anchor="middle" x="151" y="-164.8" font-family="Times,serif" font-size="14.00" fill="#000000">PageHeaderModule</text>
</g>
<!-- PageHeaderBottomDirective&#45;&gt;PageHeaderModule -->
<g id="edge1" class="edge">
<title>PageHeaderBottomDirective&#45;&gt;PageHeaderModule</title>
<path fill="none" stroke="#000000" d="M360.7023,-122.0225C360.7023,-139.3734 360.7023,-163 360.7023,-163 360.7023,-163 224.7717,-163 224.7717,-163"/>
<polygon fill="#000000" stroke="#000000" points="224.7718,-159.5001 214.7717,-163 224.7717,-166.5001 224.7718,-159.5001"/>
</g>
<!-- PageHeaderComponent -->
<g id="node2" class="node">
<title>PageHeaderComponent</title>
<polygon fill="#ffffb3" stroke="#000000" points="224.4552,-122 75.5448,-122 75.5448,-86 224.4552,-86 224.4552,-122"/>
<text text-anchor="middle" x="150" y="-99.8" font-family="Times,serif" font-size="14.00" fill="#000000">PageHeaderComponent</text>
</g>
<!-- PageHeaderComponent&#45;&gt;PageHeaderModule -->
<g id="edge2" class="edge">
<title>PageHeaderComponent&#45;&gt;PageHeaderModule</title>
<path fill="none" stroke="#000000" d="M151,-122.1061C151,-122.1061 151,-140.991 151,-140.991"/>
<polygon fill="#000000" stroke="#000000" points="147.5001,-140.9909 151,-150.991 154.5001,-140.991 147.5001,-140.9909"/>
</g>
<!-- PageHeaderBottomDirective  -->
<g id="node4" class="node">
<title>PageHeaderBottomDirective </title>
<polygon fill="#fb8072" stroke="#000000" points="423.7141,-252 242.2859,-252 242.2859,-216 423.7141,-216 423.7141,-252"/>
<text text-anchor="middle" x="333" y="-229.8" font-family="Times,serif" font-size="14.00" fill="#000000">PageHeaderBottomDirective </text>
</g>
<!-- PageHeaderModule&#45;&gt;PageHeaderBottomDirective  -->
<g id="edge3" class="edge">
<title>PageHeaderModule&#45;&gt;PageHeaderBottomDirective </title>
<path fill="none" stroke="#000000" stroke-dasharray="5,2" d="M214.8458,-175C255.8775,-175 301.5477,-175 301.5477,-175 301.5477,-175 301.5477,-205.9775 301.5477,-205.9775"/>
<polygon fill="#000000" stroke="#000000" points="298.0478,-205.9774 301.5477,-215.9775 305.0478,-205.9775 298.0478,-205.9774"/>
</g>
<!-- PageHeaderComponent  -->
<g id="node5" class="node">
<title>PageHeaderComponent </title>
<polygon fill="#fb8072" stroke="#000000" points="224.4559,-252 71.5441,-252 71.5441,-216 224.4559,-216 224.4559,-252"/>
<text text-anchor="middle" x="148" y="-229.8" font-family="Times,serif" font-size="14.00" fill="#000000">PageHeaderComponent </text>
</g>
<!-- PageHeaderModule&#45;&gt;PageHeaderComponent  -->
<g id="edge4" class="edge">
<title>PageHeaderModule&#45;&gt;PageHeaderComponent </title>
<path fill="none" stroke="#000000" stroke-dasharray="5,2" d="M151,-187.1061C151,-187.1061 151,-205.991 151,-205.991"/>
<polygon fill="#000000" stroke="#000000" points="147.5001,-205.9909 151,-215.991 154.5001,-205.991 147.5001,-205.9909"/>
</g>
</g>
</svg>
