<svg xmlns="http://www.w3.org/2000/svg" width="144" height="144" viewBox="0 0 144 144">
    <g fill="none" fill-rule="evenodd" transform="translate(3.96 27.36)">
        <path fill="#D9D9D9" stroke="#8D8D8E" stroke-width=".54" d="M25.476 60.89s37.644-21.91 79.5-.107c0 0 6.455 30.977-.731 30.977-10.514 0-75.237.04-75.237.04s-13.144-17.893-3.532-30.91z"/>
        <path fill="#D9D9D9" stroke="#8D8D8E" stroke-width=".54" d="M42.86 36.909s-1.813-7.836 2.513-14.768S53.348 9.35 53.348 9.35 59.937-2.303 71.726.925c4.954 1.354 8.698 3.79 10.756 8.524 2.262 5.197 3.847 7.879 5.677 11.487 1.241 2.447 6.604 10.62 3.302 21.584-.588 1.956.42 8.203.158 10.232-.11.76-.17 1.526-.178 2.294.046 1.516-.33 15.195-14.94 20.855a26.834 26.834 0 0 1-17.618.699c-6.743-2.086-15.029-7.283-16.3-20.193a25.48 25.48 0 0 1 .449-7.558c.426-2.062.782-5.919-.172-11.94z"/>
        <path fill="#BEBDBE" stroke="#8D8D8E" stroke-width=".54" d="M63.925 25.95s3.352 2.313 9 .53c.227-.072.445-.154.658-.24 1.477-.578 10.165-2.891 11.017 6.601 0 0-4.197 12.1-3.872 13.262.326 1.162 2.109 19.45-12.635 19.417-14.743-.033-15.928-14.886-14.204-20.856 0 0-.891-9.612-1.618-12.925-.727-3.314 4.227-9.404 11.654-5.79zM40.68 91.437s9.882-8.95 25.796-8.997c15.915-.046 25.324 9 25.324 9l-51.12-.003z"/>
        <path stroke="#8D8D8E" stroke-width=".72" d="M0 91.62h136.44"/>
        <path fill="#8D8D8E" d="M67.173 85.164c.12 1.525.05 3.059-.21 4.569-.046.268.39.384.437.112.27-1.547.345-3.118.224-4.681-.018-.272-.47-.272-.451 0zM61.196 54.766a8.425 8.425 0 0 1 11.531.257c.19.18.483-.109.29-.293a8.836 8.836 0 0 0-12.11-.254c-.2.175.092.464.29.29zM62.246 46.895c-.582 1.02-.365 2.382.493 3.104.187.163.368-.2.184-.36-.686-.604-.845-1.712-.362-2.534.132-.223-.186-.433-.315-.21zM70.64 46.84c.374.333.607.835.64 1.379a2.087 2.087 0 0 1-.467 1.468.235.235 0 0 0 .006.291c.07.08.18.083.253.007.404-.485.609-1.147.561-1.818-.048-.671-.343-1.286-.81-1.688-.19-.158-.372.204-.184.361zM63.787 48.189l1.393 1.087c.19.148.468-.113.274-.265l-1.392-1.087c-.193-.148-.471.113-.275.265zM68.402 49.285c.539-.398 1.113-.755 1.717-1.069a.176.176 0 0 0 .053-.243.219.219 0 0 0-.26-.078 13.89 13.89 0 0 0-1.803 1.116c-.204.152.089.414.293.265v.009z"/>
        <ellipse cx="62.222" cy="34.262" fill="#BEBDBE" rx="1.285" ry="1.625" transform="rotate(-73.82 62.222 34.262)"/>
        <ellipse cx="61.157" cy="37.713" fill="#BEBDBE" rx="2.494" ry="2.146" transform="rotate(-81.7 61.157 37.713)"/>
        <path fill="#BEBDBE" stroke="#8D8D8E" stroke-width=".5" d="M40.32 34.92s5.826-8.987 8.58-7.364c2.3 1.35-1.218 4.152-1.218 4.152L40.32 34.92z"/>
        <path fill="#BEBDBE" d="M58.32 32.777s5.046-4.182 6.61-.954c.878 1.814-1.044 2.737-1.044 2.737"/>
        <path fill="#BEBDBE" d="M60.12 35.28s6.096-2.548 6.12 1.94c0 0-.068 2.05-2.98 1.594"/>
        <path fill="#BEBDBE" d="M59.737 39.2s3.587-1.12 4.766.82c.805 1.327.497 4.644-7.773 4.355 0 0-5.083 5.5-10.005 7.105 0 0-6.292-7.891-4.166-14.678.874-2.8 1.122-4.597 3.815-5.184 2.693-.587 8.571-1.725 9.654-2.322 1.7-.912 5.912-2.69 6.677 1.141"/>
        <ellipse cx="56.551" cy="43.793" fill="#BEBDBE" rx="2.166" ry="1.126" transform="rotate(-21.43 56.55 43.793)"/>
        <path stroke="#8D8D8E" stroke-width=".5" d="M58.32 32.734s5.06-4.1 6.63-.935c.88 1.778-1.29 2.761-1.29 2.761"/>
        <path stroke="#8D8D8E" stroke-width=".5" d="M60.12 35.28s6.096-2.548 6.12 1.941c0 0-.068 2.046-2.98 1.594"/>
        <path stroke="#8D8D8E" stroke-width=".5" d="M59.836 39.103s3.587-1.213 4.767.72c.75 1.23-.5 4.437-6.137 4.698-1.037.05-2.065.215-2.88.91-1.555 1.322-6.833 5.92-10.036 6.049 0 0-5.026-8.003-2.91-14.767.875-2.79 1.684-4.675 4.379-5.26 2.695-.585 8.02-1.626 9.104-2.205 1.7-.912 5.934-2.598 6.696 1.22"/>
        <path fill="#D9D9D9" stroke="#8D8D8E" stroke-width=".54" d="M46.595 31.959c2.826-.4 5.81-.443 8.309.363a3.77 3.77 0 0 1 2.416 2.5c.803 2.58 1.596 7.295-2.604 8.838a9.841 9.841 0 0 0-3.08 1.757c-1.72 1.483-4.274 3.963-5.643 6.744-2.188 4.422-7.73 14.092-9.42 24.898-1.073 6.873-3.718 13.3-6.408 16.972-2.862 3.907-7.565 5.82-12.037 4.608-4.141-1.127-8.441-4.826-9.086-15.064C8.11 68.763 22.891 49.842 31.16 40.483c4.098-4.634 9.542-7.689 15.435-8.524z"/>
        <ellipse cx="73.815" cy="34.674" fill="#BEBDBE" rx="1.625" ry="1.285" transform="rotate(-15.28 73.815 34.674)"/>
        <ellipse cx="74.821" cy="38.154" fill="#BEBDBE" rx="2.146" ry="2.494" transform="rotate(-7.4 74.821 38.154)"/>
        <path fill="#BEBDBE" stroke="#8D8D8E" stroke-width=".5" d="M95.76 35.64s-5.747-8.924-8.552-7.38c-2.346 1.291 1.164 4.098 1.164 4.098l7.388 3.282z"/>
        <path fill="#BEBDBE" d="M77.76 33.22s-4.984-4.278-6.595-1.062c-.907 1.802 1 2.762 1 2.762"/>
        <path fill="#BEBDBE" d="M75.96 35.687s-6.029-2.63-6.12 1.853c0 0 .034 2.055 2.939 1.646"/>
        <path fill="#BEBDBE" d="M76.37 39.81s-3.568-1.169-4.777.737c-.824 1.318-.569 4.61 7.7 4.445 0 0 4.994 5.539 9.886 7.208 0 0 6.397-7.734 4.392-14.487-.828-2.793-1.046-4.58-3.73-5.206-2.685-.626-8.536-1.844-9.599-2.437-1.688-.935-5.868-2.762-6.692 1.028"/>
        <ellipse cx="79.335" cy="44.289" fill="#BEBDBE" rx="1.126" ry="2.166" transform="rotate(-67.67 79.335 44.29)"/>
        <path stroke="#8D8D8E" stroke-width=".5" d="M77.76 33.173s-4.998-4.188-6.616-1.041c-.907 1.77 1.234 2.788 1.234 2.788"/>
        <path stroke="#8D8D8E" stroke-width=".5" d="M75.96 35.686s-6.029-2.63-6.12 1.855c0 0 .03 2.054 2.939 1.645"/>
        <path stroke="#8D8D8E" stroke-width=".5" d="M76.265 39.88s-3.566-1.273-4.775.665c-.77 1.223.43 4.47 6.06 4.82 1.038.066 2.062.248 2.864.96 1.53 1.359 6.736 6.059 9.94 6.235 0 0 5.147-7.977 3.142-14.797-.828-2.819-1.61-4.727-4.308-5.355-2.697-.628-7.99-1.762-9.063-2.363-1.68-.954-5.882-2.716-6.697 1.113"/>
        <path fill="#D9D9D9" stroke="#8D8D8E" stroke-width=".54" d="M89.582 32.74c-2.82-.445-5.8-.534-8.31.23a3.769 3.769 0 0 0-2.453 2.461c-.843 2.562-1.708 7.255 2.467 8.861a9.868 9.868 0 0 1 3.048 1.804c1.694 1.507 4.204 4.04 5.529 6.823 2.12 4.45 7.507 14.181 9.026 25.004.964 6.88 3.504 13.337 6.136 17.047 2.798 3.957 7.468 5.936 11.953 4.785 4.154-1.055 8.51-4.67 9.316-14.893 1.16-14.764-13.31-33.892-21.434-43.37-4.013-4.702-9.403-7.829-15.278-8.752z"/>
        <circle cx="111.6" cy="13.68" r="13.68" stroke="#8D8D8D" stroke-width=".72"/>
        <rect width="1.8" height="11.16" x="109.8" y="5.04" fill="#8D8D8D" rx=".9"/>
        <path fill="#8D8D8D" d="M110.16 15.3a.9.9 0 0 1 .9-.9h5.76a.9.9 0 0 1 0 1.8h-5.76a.9.9 0 0 1-.9-.9z"/>
    </g>
</svg>
