<?xml version="1.0" encoding="UTF-8" standalone="no"?>
<!DOCTYPE svg PUBLIC "-//W3C//DTD SVG 1.1//EN"
 "http://www.w3.org/Graphics/SVG/1.1/DTD/svg11.dtd">
<!-- Generated by graphviz version 2.40.1 (20161225.0304)
 -->
<!-- Title: dependencies Pages: 1 -->
<svg width="516pt" height="284pt"
 viewBox="0.00 0.00 516.00 284.00" xmlns="http://www.w3.org/2000/svg" xmlns:xlink="http://www.w3.org/1999/xlink">
<g id="graph0" class="graph" transform="scale(1 1) rotate(0) translate(4 280)">
<title>dependencies</title>
<polygon fill="#ffffff" stroke="transparent" points="-4,4 -4,-280 512,-280 512,4 -4,4"/>
<text text-anchor="start" x="233.0091" y="-42.4" font-family="sans-serif" font-weight="bold" font-size="14.00" fill="#000000">Legend</text>
<polygon fill="#ffffb3" stroke="transparent" points="20,-10 20,-30 40,-30 40,-10 20,-10"/>
<text text-anchor="start" x="43.629" y="-15.4" font-family="sans-serif" font-size="14.00" fill="#000000"> &#160;Declarations</text>
<polygon fill="#8dd3c7" stroke="transparent" points="133,-10 133,-30 153,-30 153,-10 133,-10"/>
<text text-anchor="start" x="156.7251" y="-15.4" font-family="sans-serif" font-size="14.00" fill="#000000"> &#160;Module</text>
<polygon fill="#80b1d3" stroke="transparent" points="219,-10 219,-30 239,-30 239,-10 219,-10"/>
<text text-anchor="start" x="242.7812" y="-15.4" font-family="sans-serif" font-size="14.00" fill="#000000"> &#160;Bootstrap</text>
<polygon fill="#fdb462" stroke="transparent" points="316,-10 316,-30 336,-30 336,-10 316,-10"/>
<text text-anchor="start" x="339.6732" y="-15.4" font-family="sans-serif" font-size="14.00" fill="#000000"> &#160;Providers</text>
<polygon fill="#fb8072" stroke="transparent" points="412,-10 412,-30 432,-30 432,-10 412,-10"/>
<text text-anchor="start" x="435.7258" y="-15.4" font-family="sans-serif" font-size="14.00" fill="#000000"> &#160;Exports</text>
<g id="clust1" class="cluster">
<title>cluster_EnhancedHeaderModule</title>
<polygon fill="none" stroke="#000000" stroke-dasharray="1,5" points="8,-70 8,-268 500,-268 500,-70 8,-70"/>
</g>
<g id="clust2" class="cluster">
<title>cluster_EnhancedHeaderModule_declarations</title>
<polygon fill="none" stroke="#000000" points="300,-78 300,-130 492,-130 492,-78 300,-78"/>
</g>
<g id="clust4" class="cluster">
<title>cluster_EnhancedHeaderModule_imports</title>
<polygon fill="none" stroke="#000000" points="16,-78 16,-130 292,-130 292,-78 16,-78"/>
</g>
<g id="clust5" class="cluster">
<title>cluster_EnhancedHeaderModule_exports</title>
<polygon fill="none" stroke="#000000" points="115,-208 115,-260 311,-260 311,-208 115,-208"/>
</g>
<!-- EnhancedHeaderComponent -->
<g id="node1" class="node">
<title>EnhancedHeaderComponent</title>
<polygon fill="#ffffb3" stroke="#000000" points="484.4398,-122 307.5602,-122 307.5602,-86 484.4398,-86 484.4398,-122"/>
<text text-anchor="middle" x="396" y="-99.8" font-family="Times,serif" font-size="14.00" fill="#000000">EnhancedHeaderComponent</text>
</g>
<!-- EnhancedHeaderModule -->
<g id="node2" class="node">
<title>EnhancedHeaderModule</title>
<polygon fill="#8dd3c7" stroke="#000000" points="290.6573,-187 287.6573,-191 266.6573,-191 263.6573,-187 135.3427,-187 135.3427,-151 290.6573,-151 290.6573,-187"/>
<text text-anchor="middle" x="213" y="-164.8" font-family="Times,serif" font-size="14.00" fill="#000000">EnhancedHeaderModule</text>
</g>
<!-- EnhancedHeaderComponent&#45;&gt;EnhancedHeaderModule -->
<g id="edge1" class="edge">
<title>EnhancedHeaderComponent&#45;&gt;EnhancedHeaderModule</title>
<path fill="none" stroke="#000000" d="M396,-122.1061C396,-141.3391 396,-169 396,-169 396,-169 300.6085,-169 300.6085,-169"/>
<polygon fill="#000000" stroke="#000000" points="300.6085,-165.5001 290.6085,-169 300.6084,-172.5001 300.6085,-165.5001"/>
</g>
<!-- EnhancedHeaderComponent  -->
<g id="node5" class="node">
<title>EnhancedHeaderComponent </title>
<polygon fill="#fb8072" stroke="#000000" points="303.4403,-252 122.5597,-252 122.5597,-216 303.4403,-216 303.4403,-252"/>
<text text-anchor="middle" x="213" y="-229.8" font-family="Times,serif" font-size="14.00" fill="#000000">EnhancedHeaderComponent </text>
</g>
<!-- EnhancedHeaderModule&#45;&gt;EnhancedHeaderComponent  -->
<g id="edge4" class="edge">
<title>EnhancedHeaderModule&#45;&gt;EnhancedHeaderComponent </title>
<path fill="none" stroke="#000000" stroke-dasharray="5,2" d="M213,-187.1061C213,-187.1061 213,-205.991 213,-205.991"/>
<polygon fill="#000000" stroke="#000000" points="209.5001,-205.9909 213,-215.991 216.5001,-205.991 209.5001,-205.9909"/>
</g>
<!-- EnhancedTitleModule -->
<g id="node3" class="node">
<title>EnhancedTitleModule</title>
<polygon fill="#8dd3c7" stroke="#000000" points="283.6853,-122 280.6853,-126 259.6853,-126 256.6853,-122 142.3147,-122 142.3147,-86 283.6853,-86 283.6853,-122"/>
<text text-anchor="middle" x="213" y="-99.8" font-family="Times,serif" font-size="14.00" fill="#000000">EnhancedTitleModule</text>
</g>
<!-- EnhancedTitleModule&#45;&gt;EnhancedHeaderModule -->
<g id="edge2" class="edge">
<title>EnhancedTitleModule&#45;&gt;EnhancedHeaderModule</title>
<path fill="none" stroke="#000000" d="M213,-122.1061C213,-122.1061 213,-140.991 213,-140.991"/>
<polygon fill="#000000" stroke="#000000" points="209.5001,-140.9909 213,-150.991 216.5001,-140.991 209.5001,-140.9909"/>
</g>
<!-- TooltipModule -->
<g id="node4" class="node">
<title>TooltipModule</title>
<polygon fill="#8dd3c7" stroke="#000000" points="124.2745,-122 121.2745,-126 100.2745,-126 97.2745,-122 23.7255,-122 23.7255,-86 124.2745,-86 124.2745,-122"/>
<text text-anchor="middle" x="74" y="-99.8" font-family="Times,serif" font-size="14.00" fill="#000000">TooltipModule</text>
</g>
<!-- TooltipModule&#45;&gt;EnhancedHeaderModule -->
<g id="edge3" class="edge">
<title>TooltipModule&#45;&gt;EnhancedHeaderModule</title>
<path fill="none" stroke="#000000" d="M73.1965,-122.1061C73.1965,-141.3391 73.1965,-169 73.1965,-169 73.1965,-169 125.3305,-169 125.3305,-169"/>
<polygon fill="#000000" stroke="#000000" points="125.3305,-172.5001 135.3305,-169 125.3305,-165.5001 125.3305,-172.5001"/>
</g>
</g>
</svg>
