<?xml version="1.0" encoding="UTF-8" standalone="no"?>
<!DOCTYPE svg PUBLIC "-//W3C//DTD SVG 1.1//EN"
 "http://www.w3.org/Graphics/SVG/1.1/DTD/svg11.dtd">
<!-- Generated by graphviz version 2.40.1 (20161225.0304)
 -->
<!-- Title: dependencies Pages: 1 -->
<svg width="539pt" height="284pt"
 viewBox="0.00 0.00 539.00 284.00" xmlns="http://www.w3.org/2000/svg" xmlns:xlink="http://www.w3.org/1999/xlink">
<g id="graph0" class="graph" transform="scale(1 1) rotate(0) translate(4 280)">
<title>dependencies</title>
<polygon fill="#ffffff" stroke="transparent" points="-4,4 -4,-280 535,-280 535,4 -4,4"/>
<text text-anchor="start" x="244.5091" y="-42.4" font-family="sans-serif" font-weight="bold" font-size="14.00" fill="#000000">Legend</text>
<polygon fill="#ffffb3" stroke="transparent" points="31.5,-10 31.5,-30 51.5,-30 51.5,-10 31.5,-10"/>
<text text-anchor="start" x="55.129" y="-15.4" font-family="sans-serif" font-size="14.00" fill="#000000"> &#160;Declarations</text>
<polygon fill="#8dd3c7" stroke="transparent" points="144.5,-10 144.5,-30 164.5,-30 164.5,-10 144.5,-10"/>
<text text-anchor="start" x="168.2251" y="-15.4" font-family="sans-serif" font-size="14.00" fill="#000000"> &#160;Module</text>
<polygon fill="#80b1d3" stroke="transparent" points="230.5,-10 230.5,-30 250.5,-30 250.5,-10 230.5,-10"/>
<text text-anchor="start" x="254.2812" y="-15.4" font-family="sans-serif" font-size="14.00" fill="#000000"> &#160;Bootstrap</text>
<polygon fill="#fdb462" stroke="transparent" points="327.5,-10 327.5,-30 347.5,-30 347.5,-10 327.5,-10"/>
<text text-anchor="start" x="351.1732" y="-15.4" font-family="sans-serif" font-size="14.00" fill="#000000"> &#160;Providers</text>
<polygon fill="#fb8072" stroke="transparent" points="423.5,-10 423.5,-30 443.5,-30 443.5,-10 423.5,-10"/>
<text text-anchor="start" x="447.2258" y="-15.4" font-family="sans-serif" font-size="14.00" fill="#000000"> &#160;Exports</text>
<g id="clust1" class="cluster">
<title>cluster_GdkModule</title>
<polygon fill="none" stroke="#000000" stroke-dasharray="1,5" points="8,-70 8,-268 523,-268 523,-70 8,-70"/>
</g>
<g id="clust2" class="cluster">
<title>cluster_GdkModule_declarations</title>
<polygon fill="none" stroke="#000000" points="199,-78 199,-130 509,-130 509,-78 199,-78"/>
</g>
<g id="clust5" class="cluster">
<title>cluster_GdkModule_imports</title>
<polygon fill="none" stroke="#000000" points="37,-78 37,-130 191,-130 191,-78 37,-78"/>
</g>
<g id="clust6" class="cluster">
<title>cluster_GdkModule_exports</title>
<polygon fill="none" stroke="#000000" points="16,-208 16,-260 515,-260 515,-208 16,-208"/>
</g>
<!-- GdkCardComponent -->
<g id="node1" class="node">
<title>GdkCardComponent</title>
<polygon fill="#ffffb3" stroke="#000000" points="501.1513,-122 368.8487,-122 368.8487,-86 501.1513,-86 501.1513,-122"/>
<text text-anchor="middle" x="435" y="-99.8" font-family="Times,serif" font-size="14.00" fill="#000000">GdkCardComponent</text>
</g>
<!-- GdkModule -->
<g id="node3" class="node">
<title>GdkModule</title>
<polygon fill="#8dd3c7" stroke="#000000" points="320.6571,-187 317.6571,-191 296.6571,-191 293.6571,-187 237.3429,-187 237.3429,-151 320.6571,-151 320.6571,-187"/>
<text text-anchor="middle" x="279" y="-164.8" font-family="Times,serif" font-size="14.00" fill="#000000">GdkModule</text>
</g>
<!-- GdkCardComponent&#45;&gt;GdkModule -->
<g id="edge1" class="edge">
<title>GdkCardComponent&#45;&gt;GdkModule</title>
<path fill="none" stroke="#000000" d="M457.8585,-122.0225C457.8585,-139.3734 457.8585,-163 457.8585,-163 457.8585,-163 330.9344,-163 330.9344,-163"/>
<polygon fill="#000000" stroke="#000000" points="330.9344,-159.5001 320.9344,-163 330.9343,-166.5001 330.9344,-159.5001"/>
</g>
<!-- GdkImportComponent -->
<g id="node2" class="node">
<title>GdkImportComponent</title>
<polygon fill="#ffffb3" stroke="#000000" points="350.5421,-122 207.4579,-122 207.4579,-86 350.5421,-86 350.5421,-122"/>
<text text-anchor="middle" x="279" y="-99.8" font-family="Times,serif" font-size="14.00" fill="#000000">GdkImportComponent</text>
</g>
<!-- GdkImportComponent&#45;&gt;GdkModule -->
<g id="edge2" class="edge">
<title>GdkImportComponent&#45;&gt;GdkModule</title>
<path fill="none" stroke="#000000" d="M279,-122.1061C279,-122.1061 279,-140.991 279,-140.991"/>
<polygon fill="#000000" stroke="#000000" points="275.5001,-140.9909 279,-150.991 282.5001,-140.991 275.5001,-140.9909"/>
</g>
<!-- GdkCardComponent  -->
<g id="node5" class="node">
<title>GdkCardComponent </title>
<polygon fill="#fb8072" stroke="#000000" points="507.1509,-252 370.8491,-252 370.8491,-216 507.1509,-216 507.1509,-252"/>
<text text-anchor="middle" x="439" y="-229.8" font-family="Times,serif" font-size="14.00" fill="#000000">GdkCardComponent </text>
</g>
<!-- GdkModule&#45;&gt;GdkCardComponent  -->
<g id="edge4" class="edge">
<title>GdkModule&#45;&gt;GdkCardComponent </title>
<path fill="none" stroke="#000000" stroke-dasharray="5,2" d="M320.7267,-175C360.5079,-175 414.3915,-175 414.3915,-175 414.3915,-175 414.3915,-205.9775 414.3915,-205.9775"/>
<polygon fill="#000000" stroke="#000000" points="410.8916,-205.9774 414.3915,-215.9775 417.8916,-205.9775 410.8916,-205.9774"/>
</g>
<!-- GdkImportComponent  -->
<g id="node6" class="node">
<title>GdkImportComponent </title>
<polygon fill="#fb8072" stroke="#000000" points="352.5414,-252 205.4586,-252 205.4586,-216 352.5414,-216 352.5414,-252"/>
<text text-anchor="middle" x="279" y="-229.8" font-family="Times,serif" font-size="14.00" fill="#000000">GdkImportComponent </text>
</g>
<!-- GdkModule&#45;&gt;GdkImportComponent  -->
<g id="edge5" class="edge">
<title>GdkModule&#45;&gt;GdkImportComponent </title>
<path fill="none" stroke="#000000" stroke-dasharray="5,2" d="M279,-187.1061C279,-187.1061 279,-205.991 279,-205.991"/>
<polygon fill="#000000" stroke="#000000" points="275.5001,-205.9909 279,-215.991 282.5001,-205.991 275.5001,-205.9909"/>
</g>
<!-- GdkJsonInputComponent  -->
<g id="node7" class="node">
<title>GdkJsonInputComponent </title>
<polygon fill="#fb8072" stroke="#000000" points="187.8798,-252 24.1202,-252 24.1202,-216 187.8798,-216 187.8798,-252"/>
<text text-anchor="middle" x="106" y="-229.8" font-family="Times,serif" font-size="14.00" fill="#000000">GdkJsonInputComponent </text>
</g>
<!-- GdkModule&#45;&gt;GdkJsonInputComponent  -->
<g id="edge6" class="edge">
<title>GdkModule&#45;&gt;GdkJsonInputComponent </title>
<path fill="none" stroke="#000000" stroke-dasharray="5,2" d="M237.2731,-175C181.882,-175 90.9839,-175 90.9839,-175 90.9839,-175 90.9839,-205.9775 90.9839,-205.9775"/>
<polygon fill="#000000" stroke="#000000" points="87.484,-205.9774 90.9839,-215.9775 94.484,-205.9775 87.484,-205.9774"/>
</g>
<!-- GdkJsonInputModule -->
<g id="node4" class="node">
<title>GdkJsonInputModule</title>
<polygon fill="#8dd3c7" stroke="#000000" points="183.0968,-122 180.0968,-126 159.0968,-126 156.0968,-122 44.9032,-122 44.9032,-86 183.0968,-86 183.0968,-122"/>
<text text-anchor="middle" x="114" y="-99.8" font-family="Times,serif" font-size="14.00" fill="#000000">GdkJsonInputModule</text>
</g>
<!-- GdkJsonInputModule&#45;&gt;GdkModule -->
<g id="edge3" class="edge">
<title>GdkJsonInputModule&#45;&gt;GdkModule</title>
<path fill="none" stroke="#000000" d="M137.0161,-122.0225C137.0161,-139.3734 137.0161,-163 137.0161,-163 137.0161,-163 227.1681,-163 227.1681,-163"/>
<polygon fill="#000000" stroke="#000000" points="227.1681,-166.5001 237.1681,-163 227.1681,-159.5001 227.1681,-166.5001"/>
</g>
</g>
</svg>
