<?xml version="1.0" encoding="UTF-8" standalone="no"?>
<!DOCTYPE svg PUBLIC "-//W3C//DTD SVG 1.1//EN"
 "http://www.w3.org/Graphics/SVG/1.1/DTD/svg11.dtd">
<!-- Generated by graphviz version 2.40.1 (20161225.0304)
 -->
<!-- Title: dependencies Pages: 1 -->
<svg width="504pt" height="284pt"
 viewBox="0.00 0.00 504.00 284.00" xmlns="http://www.w3.org/2000/svg" xmlns:xlink="http://www.w3.org/1999/xlink">
<g id="graph0" class="graph" transform="scale(1 1) rotate(0) translate(4 280)">
<title>dependencies</title>
<polygon fill="#ffffff" stroke="transparent" points="-4,4 -4,-280 500,-280 500,4 -4,4"/>
<text text-anchor="start" x="227.0091" y="-42.4" font-family="sans-serif" font-weight="bold" font-size="14.00" fill="#000000">Legend</text>
<polygon fill="#ffffb3" stroke="transparent" points="14,-10 14,-30 34,-30 34,-10 14,-10"/>
<text text-anchor="start" x="37.629" y="-15.4" font-family="sans-serif" font-size="14.00" fill="#000000"> &#160;Declarations</text>
<polygon fill="#8dd3c7" stroke="transparent" points="127,-10 127,-30 147,-30 147,-10 127,-10"/>
<text text-anchor="start" x="150.7251" y="-15.4" font-family="sans-serif" font-size="14.00" fill="#000000"> &#160;Module</text>
<polygon fill="#80b1d3" stroke="transparent" points="213,-10 213,-30 233,-30 233,-10 213,-10"/>
<text text-anchor="start" x="236.7812" y="-15.4" font-family="sans-serif" font-size="14.00" fill="#000000"> &#160;Bootstrap</text>
<polygon fill="#fdb462" stroke="transparent" points="310,-10 310,-30 330,-30 330,-10 310,-10"/>
<text text-anchor="start" x="333.6732" y="-15.4" font-family="sans-serif" font-size="14.00" fill="#000000"> &#160;Providers</text>
<polygon fill="#fb8072" stroke="transparent" points="406,-10 406,-30 426,-30 426,-10 406,-10"/>
<text text-anchor="start" x="429.7258" y="-15.4" font-family="sans-serif" font-size="14.00" fill="#000000"> &#160;Exports</text>
<g id="clust1" class="cluster">
<title>cluster_DataFormatterModule</title>
<polygon fill="none" stroke="#000000" stroke-dasharray="1,5" points="85,-70 85,-268 411,-268 411,-70 85,-70"/>
</g>
<g id="clust2" class="cluster">
<title>cluster_DataFormatterModule_declarations</title>
<polygon fill="none" stroke="#000000" points="96,-78 96,-130 399,-130 399,-78 96,-78"/>
</g>
<g id="clust6" class="cluster">
<title>cluster_DataFormatterModule_exports</title>
<polygon fill="none" stroke="#000000" points="93,-208 93,-260 403,-260 403,-208 93,-208"/>
</g>
<!-- DataFormatterComponent -->
<g id="node1" class="node">
<title>DataFormatterComponent</title>
<polygon fill="#ffffb3" stroke="#000000" points="391.4636,-122 228.5364,-122 228.5364,-86 391.4636,-86 391.4636,-122"/>
<text text-anchor="middle" x="310" y="-99.8" font-family="Times,serif" font-size="14.00" fill="#000000">DataFormatterComponent</text>
</g>
<!-- DataFormatterModule -->
<g id="node3" class="node">
<title>DataFormatterModule</title>
<polygon fill="#8dd3c7" stroke="#000000" points="305.6811,-187 302.6811,-191 281.6811,-191 278.6811,-187 164.3189,-187 164.3189,-151 305.6811,-151 305.6811,-187"/>
<text text-anchor="middle" x="235" y="-164.8" font-family="Times,serif" font-size="14.00" fill="#000000">DataFormatterModule</text>
</g>
<!-- DataFormatterComponent&#45;&gt;DataFormatterModule -->
<g id="edge1" class="edge">
<title>DataFormatterComponent&#45;&gt;DataFormatterModule</title>
<path fill="none" stroke="#000000" d="M267.0544,-122.1061C267.0544,-122.1061 267.0544,-140.991 267.0544,-140.991"/>
<polygon fill="#000000" stroke="#000000" points="263.5544,-140.9909 267.0544,-150.991 270.5544,-140.991 263.5544,-140.9909"/>
</g>
<!-- GorCustomPipe -->
<g id="node2" class="node">
<title>GorCustomPipe</title>
<polygon fill="#ffffb3" stroke="#000000" points="210.2176,-122 103.7824,-122 103.7824,-86 210.2176,-86 210.2176,-122"/>
<text text-anchor="middle" x="157" y="-99.8" font-family="Times,serif" font-size="14.00" fill="#000000">GorCustomPipe</text>
</g>
<!-- GorCustomPipe&#45;&gt;DataFormatterModule -->
<g id="edge2" class="edge">
<title>GorCustomPipe&#45;&gt;DataFormatterModule</title>
<path fill="none" stroke="#000000" d="M187.2591,-122.1061C187.2591,-122.1061 187.2591,-140.991 187.2591,-140.991"/>
<polygon fill="#000000" stroke="#000000" points="183.7592,-140.9909 187.2591,-150.991 190.7592,-140.991 183.7592,-140.9909"/>
</g>
<!-- DataFormatterComponent  -->
<g id="node4" class="node">
<title>DataFormatterComponent </title>
<polygon fill="#fb8072" stroke="#000000" points="395.4642,-252 228.5358,-252 228.5358,-216 395.4642,-216 395.4642,-252"/>
<text text-anchor="middle" x="312" y="-229.8" font-family="Times,serif" font-size="14.00" fill="#000000">DataFormatterComponent </text>
</g>
<!-- DataFormatterModule&#45;&gt;DataFormatterComponent  -->
<g id="edge3" class="edge">
<title>DataFormatterModule&#45;&gt;DataFormatterComponent </title>
<path fill="none" stroke="#000000" stroke-dasharray="5,2" d="M267.1794,-187.1061C267.1794,-187.1061 267.1794,-205.991 267.1794,-205.991"/>
<polygon fill="#000000" stroke="#000000" points="263.6794,-205.9909 267.1794,-215.991 270.6794,-205.991 263.6794,-205.9909"/>
</g>
<!-- GorCustomPipe  -->
<g id="node5" class="node">
<title>GorCustomPipe </title>
<polygon fill="#fb8072" stroke="#000000" points="210.7178,-252 101.2822,-252 101.2822,-216 210.7178,-216 210.7178,-252"/>
<text text-anchor="middle" x="156" y="-229.8" font-family="Times,serif" font-size="14.00" fill="#000000">GorCustomPipe </text>
</g>
<!-- DataFormatterModule&#45;&gt;GorCustomPipe  -->
<g id="edge4" class="edge">
<title>DataFormatterModule&#45;&gt;GorCustomPipe </title>
<path fill="none" stroke="#000000" stroke-dasharray="5,2" d="M187.6341,-187.1061C187.6341,-187.1061 187.6341,-205.991 187.6341,-205.991"/>
<polygon fill="#000000" stroke="#000000" points="184.1342,-205.9909 187.6341,-215.991 191.1342,-205.991 184.1342,-205.9909"/>
</g>
</g>
</svg>
