<?xml version="1.0" encoding="UTF-8" standalone="no"?>
<!DOCTYPE svg PUBLIC "-//W3C//DTD SVG 1.1//EN"
 "http://www.w3.org/Graphics/SVG/1.1/DTD/svg11.dtd">
<!-- Generated by graphviz version 2.40.1 (20161225.0304)
 -->
<!-- Title: dependencies Pages: 1 -->
<svg width="1177pt" height="284pt"
 viewBox="0.00 0.00 1177.00 284.00" xmlns="http://www.w3.org/2000/svg" xmlns:xlink="http://www.w3.org/1999/xlink">
<g id="graph0" class="graph" transform="scale(1 1) rotate(0) translate(4 280)">
<title>dependencies</title>
<polygon fill="#ffffff" stroke="transparent" points="-4,4 -4,-280 1173,-280 1173,4 -4,4"/>
<text text-anchor="start" x="563.5091" y="-42.4" font-family="sans-serif" font-weight="bold" font-size="14.00" fill="#000000">Legend</text>
<polygon fill="#ffffb3" stroke="transparent" points="350.5,-10 350.5,-30 370.5,-30 370.5,-10 350.5,-10"/>
<text text-anchor="start" x="374.129" y="-15.4" font-family="sans-serif" font-size="14.00" fill="#000000"> &#160;Declarations</text>
<polygon fill="#8dd3c7" stroke="transparent" points="463.5,-10 463.5,-30 483.5,-30 483.5,-10 463.5,-10"/>
<text text-anchor="start" x="487.2251" y="-15.4" font-family="sans-serif" font-size="14.00" fill="#000000"> &#160;Module</text>
<polygon fill="#80b1d3" stroke="transparent" points="549.5,-10 549.5,-30 569.5,-30 569.5,-10 549.5,-10"/>
<text text-anchor="start" x="573.2812" y="-15.4" font-family="sans-serif" font-size="14.00" fill="#000000"> &#160;Bootstrap</text>
<polygon fill="#fdb462" stroke="transparent" points="646.5,-10 646.5,-30 666.5,-30 666.5,-10 646.5,-10"/>
<text text-anchor="start" x="670.1732" y="-15.4" font-family="sans-serif" font-size="14.00" fill="#000000"> &#160;Providers</text>
<polygon fill="#fb8072" stroke="transparent" points="742.5,-10 742.5,-30 762.5,-30 762.5,-10 742.5,-10"/>
<text text-anchor="start" x="766.2258" y="-15.4" font-family="sans-serif" font-size="14.00" fill="#000000"> &#160;Exports</text>
<g id="clust1" class="cluster">
<title>cluster_DirectivesModule</title>
<polygon fill="none" stroke="#000000" stroke-dasharray="1,5" points="8,-70 8,-268 554,-268 554,-70 8,-70"/>
</g>
<g id="clust2" class="cluster">
<title>cluster_DirectivesModule_declarations</title>
<polygon fill="none" stroke="#000000" points="21,-78 21,-130 541,-130 541,-78 21,-78"/>
</g>
<g id="clust7" class="cluster">
<title>cluster_DirectivesModule_exports</title>
<polygon fill="none" stroke="#000000" points="16,-208 16,-260 546,-260 546,-208 16,-208"/>
</g>
<g id="clust10" class="cluster">
<title>cluster_EnhancedTitleModule</title>
<polygon fill="none" stroke="#000000" stroke-dasharray="1,5" points="562,-70 562,-268 760,-268 760,-70 562,-70"/>
</g>
<g id="clust11" class="cluster">
<title>cluster_EnhancedTitleModule_declarations</title>
<polygon fill="none" stroke="#000000" points="572,-78 572,-130 750,-130 750,-78 572,-78"/>
</g>
<g id="clust14" class="cluster">
<title>cluster_EnhancedTitleModule_exports</title>
<polygon fill="none" stroke="#000000" points="570,-208 570,-260 752,-260 752,-208 570,-208"/>
</g>
<g id="clust17" class="cluster">
<title>cluster_SlideToggleModule</title>
<polygon fill="none" stroke="#000000" stroke-dasharray="1,5" points="768,-70 768,-268 1161,-268 1161,-70 768,-70"/>
</g>
<g id="clust18" class="cluster">
<title>cluster_SlideToggleModule_declarations</title>
<polygon fill="none" stroke="#000000" points="780,-78 780,-130 1150,-130 1150,-78 780,-78"/>
</g>
<g id="clust22" class="cluster">
<title>cluster_SlideToggleModule_exports</title>
<polygon fill="none" stroke="#000000" points="776,-208 776,-260 1153,-260 1153,-208 776,-208"/>
</g>
<!-- CancelableRouterLinkWithHrefDirective -->
<g id="node1" class="node">
<title>CancelableRouterLinkWithHrefDirective</title>
<polygon fill="#ffffb3" stroke="#000000" points="533.4578,-122 284.5422,-122 284.5422,-86 533.4578,-86 533.4578,-122"/>
<text text-anchor="middle" x="409" y="-99.8" font-family="Times,serif" font-size="14.00" fill="#000000">CancelableRouterLinkWithHrefDirective</text>
</g>
<!-- DirectivesModule -->
<g id="node4" class="node">
<title>DirectivesModule</title>
<polygon fill="#8dd3c7" stroke="#000000" points="274.5772,-187 271.5772,-191 250.5772,-191 247.5772,-187 157.4228,-187 157.4228,-151 274.5772,-151 274.5772,-187"/>
<text text-anchor="middle" x="216" y="-164.8" font-family="Times,serif" font-size="14.00" fill="#000000">DirectivesModule</text>
</g>
<!-- CancelableRouterLinkWithHrefDirective&#45;&gt;DirectivesModule -->
<g id="edge1" class="edge">
<title>CancelableRouterLinkWithHrefDirective&#45;&gt;DirectivesModule</title>
<path fill="none" stroke="#000000" d="M284.6778,-104C276.0345,-104 270.6508,-104 270.6508,-104 270.6508,-104 270.6508,-140.8939 270.6508,-140.8939"/>
<polygon fill="#000000" stroke="#000000" points="267.1509,-140.8938 270.6508,-150.8939 274.1509,-140.8939 267.1509,-140.8938"/>
</g>
<!-- TippyDirective -->
<g id="node2" class="node">
<title>TippyDirective</title>
<polygon fill="#ffffb3" stroke="#000000" points="266.5271,-122 165.4729,-122 165.4729,-86 266.5271,-86 266.5271,-122"/>
<text text-anchor="middle" x="216" y="-99.8" font-family="Times,serif" font-size="14.00" fill="#000000">TippyDirective</text>
</g>
<!-- TippyDirective&#45;&gt;DirectivesModule -->
<g id="edge2" class="edge">
<title>TippyDirective&#45;&gt;DirectivesModule</title>
<path fill="none" stroke="#000000" d="M216,-122.1061C216,-122.1061 216,-140.991 216,-140.991"/>
<polygon fill="#000000" stroke="#000000" points="212.5001,-140.9909 216,-150.991 219.5001,-140.991 212.5001,-140.9909"/>
</g>
<!-- TruncateDirective -->
<g id="node3" class="node">
<title>TruncateDirective</title>
<polygon fill="#ffffb3" stroke="#000000" points="146.8305,-122 29.1695,-122 29.1695,-86 146.8305,-86 146.8305,-122"/>
<text text-anchor="middle" x="88" y="-99.8" font-family="Times,serif" font-size="14.00" fill="#000000">TruncateDirective</text>
</g>
<!-- TruncateDirective&#45;&gt;DirectivesModule -->
<g id="edge3" class="edge">
<title>TruncateDirective&#45;&gt;DirectivesModule</title>
<path fill="none" stroke="#000000" d="M146.8578,-104C155.3849,-104 161.3492,-104 161.3492,-104 161.3492,-104 161.3492,-140.8939 161.3492,-140.8939"/>
<polygon fill="#000000" stroke="#000000" points="157.8493,-140.8938 161.3492,-150.8939 164.8493,-140.8939 157.8493,-140.8938"/>
</g>
<!-- CancelableRouterLinkWithHrefDirective  -->
<g id="node5" class="node">
<title>CancelableRouterLinkWithHrefDirective </title>
<polygon fill="#fb8072" stroke="#000000" points="537.9574,-252 286.0426,-252 286.0426,-216 537.9574,-216 537.9574,-252"/>
<text text-anchor="middle" x="412" y="-229.8" font-family="Times,serif" font-size="14.00" fill="#000000">CancelableRouterLinkWithHrefDirective </text>
</g>
<!-- DirectivesModule&#45;&gt;CancelableRouterLinkWithHrefDirective  -->
<g id="edge4" class="edge">
<title>DirectivesModule&#45;&gt;CancelableRouterLinkWithHrefDirective </title>
<path fill="none" stroke="#000000" stroke-dasharray="5,2" d="M274.6193,-169C331.6082,-169 409.625,-169 409.625,-169 409.625,-169 409.625,-205.8939 409.625,-205.8939"/>
<polygon fill="#000000" stroke="#000000" points="406.1251,-205.8938 409.625,-215.8939 413.1251,-205.8939 406.1251,-205.8938"/>
</g>
<!-- TippyDirective  -->
<g id="node6" class="node">
<title>TippyDirective </title>
<polygon fill="#fb8072" stroke="#000000" points="268.526,-252 163.474,-252 163.474,-216 268.526,-216 268.526,-252"/>
<text text-anchor="middle" x="216" y="-229.8" font-family="Times,serif" font-size="14.00" fill="#000000">TippyDirective </text>
</g>
<!-- DirectivesModule&#45;&gt;TippyDirective  -->
<g id="edge5" class="edge">
<title>DirectivesModule&#45;&gt;TippyDirective </title>
<path fill="none" stroke="#000000" stroke-dasharray="5,2" d="M216,-187.1061C216,-187.1061 216,-205.991 216,-205.991"/>
<polygon fill="#000000" stroke="#000000" points="212.5001,-205.9909 216,-215.991 219.5001,-205.991 212.5001,-205.9909"/>
</g>
<!-- TruncateDirective  -->
<g id="node7" class="node">
<title>TruncateDirective </title>
<polygon fill="#fb8072" stroke="#000000" points="145.8309,-252 24.1691,-252 24.1691,-216 145.8309,-216 145.8309,-252"/>
<text text-anchor="middle" x="85" y="-229.8" font-family="Times,serif" font-size="14.00" fill="#000000">TruncateDirective </text>
</g>
<!-- DirectivesModule&#45;&gt;TruncateDirective  -->
<g id="edge6" class="edge">
<title>DirectivesModule&#45;&gt;TruncateDirective </title>
<path fill="none" stroke="#000000" stroke-dasharray="5,2" d="M157.3335,-169C123.41,-169 87.375,-169 87.375,-169 87.375,-169 87.375,-205.8939 87.375,-205.8939"/>
<polygon fill="#000000" stroke="#000000" points="83.8751,-205.8938 87.375,-215.8939 90.8751,-205.8939 83.8751,-205.8938"/>
</g>
<!-- EnhancedTitleComponent -->
<g id="node8" class="node">
<title>EnhancedTitleComponent</title>
<polygon fill="#ffffb3" stroke="#000000" points="742.4678,-122 579.5322,-122 579.5322,-86 742.4678,-86 742.4678,-122"/>
<text text-anchor="middle" x="661" y="-99.8" font-family="Times,serif" font-size="14.00" fill="#000000">EnhancedTitleComponent</text>
</g>
<!-- EnhancedTitleModule -->
<g id="node9" class="node">
<title>EnhancedTitleModule</title>
<polygon fill="#8dd3c7" stroke="#000000" points="731.6853,-187 728.6853,-191 707.6853,-191 704.6853,-187 590.3147,-187 590.3147,-151 731.6853,-151 731.6853,-187"/>
<text text-anchor="middle" x="661" y="-164.8" font-family="Times,serif" font-size="14.00" fill="#000000">EnhancedTitleModule</text>
</g>
<!-- EnhancedTitleComponent&#45;&gt;EnhancedTitleModule -->
<g id="edge7" class="edge">
<title>EnhancedTitleComponent&#45;&gt;EnhancedTitleModule</title>
<path fill="none" stroke="#000000" d="M661,-122.1061C661,-122.1061 661,-140.991 661,-140.991"/>
<polygon fill="#000000" stroke="#000000" points="657.5001,-140.9909 661,-150.991 664.5001,-140.991 657.5001,-140.9909"/>
</g>
<!-- EnhancedTitleComponent  -->
<g id="node10" class="node">
<title>EnhancedTitleComponent </title>
<polygon fill="#fb8072" stroke="#000000" points="744.4685,-252 577.5315,-252 577.5315,-216 744.4685,-216 744.4685,-252"/>
<text text-anchor="middle" x="661" y="-229.8" font-family="Times,serif" font-size="14.00" fill="#000000">EnhancedTitleComponent </text>
</g>
<!-- EnhancedTitleModule&#45;&gt;EnhancedTitleComponent  -->
<g id="edge8" class="edge">
<title>EnhancedTitleModule&#45;&gt;EnhancedTitleComponent </title>
<path fill="none" stroke="#000000" stroke-dasharray="5,2" d="M661,-187.1061C661,-187.1061 661,-205.991 661,-205.991"/>
<polygon fill="#000000" stroke="#000000" points="657.5001,-205.9909 661,-215.991 664.5001,-205.991 657.5001,-205.9909"/>
</g>
<!-- SlideToggleComponent -->
<g id="node11" class="node">
<title>SlideToggleComponent</title>
<polygon fill="#ffffb3" stroke="#000000" points="1141.7688,-122 992.2312,-122 992.2312,-86 1141.7688,-86 1141.7688,-122"/>
<text text-anchor="middle" x="1067" y="-99.8" font-family="Times,serif" font-size="14.00" fill="#000000">SlideToggleComponent</text>
</g>
<!-- SlideToggleModule -->
<g id="node13" class="node">
<title>SlideToggleModule</title>
<polygon fill="#8dd3c7" stroke="#000000" points="945.986,-187 942.986,-191 921.986,-191 918.986,-187 818.014,-187 818.014,-151 945.986,-151 945.986,-187"/>
<text text-anchor="middle" x="882" y="-164.8" font-family="Times,serif" font-size="14.00" fill="#000000">SlideToggleModule</text>
</g>
<!-- SlideToggleComponent&#45;&gt;SlideToggleModule -->
<g id="edge9" class="edge">
<title>SlideToggleComponent&#45;&gt;SlideToggleModule</title>
<path fill="none" stroke="#000000" d="M1091.9614,-122.0225C1091.9614,-139.3734 1091.9614,-163 1091.9614,-163 1091.9614,-163 956.1362,-163 956.1362,-163"/>
<polygon fill="#000000" stroke="#000000" points="956.1363,-159.5001 946.1362,-163 956.1362,-166.5001 956.1363,-159.5001"/>
</g>
<!-- SlideToggleGroupComponent -->
<g id="node12" class="node">
<title>SlideToggleGroupComponent</title>
<polygon fill="#ffffb3" stroke="#000000" points="973.5364,-122 788.4636,-122 788.4636,-86 973.5364,-86 973.5364,-122"/>
<text text-anchor="middle" x="881" y="-99.8" font-family="Times,serif" font-size="14.00" fill="#000000">SlideToggleGroupComponent</text>
</g>
<!-- SlideToggleGroupComponent&#45;&gt;SlideToggleModule -->
<g id="edge10" class="edge">
<title>SlideToggleGroupComponent&#45;&gt;SlideToggleModule</title>
<path fill="none" stroke="#000000" d="M882,-122.1061C882,-122.1061 882,-140.991 882,-140.991"/>
<polygon fill="#000000" stroke="#000000" points="878.5001,-140.9909 882,-150.991 885.5001,-140.991 878.5001,-140.9909"/>
</g>
<!-- SlideToggleComponent  -->
<g id="node14" class="node">
<title>SlideToggleComponent </title>
<polygon fill="#fb8072" stroke="#000000" points="1144.7688,-252 991.2312,-252 991.2312,-216 1144.7688,-216 1144.7688,-252"/>
<text text-anchor="middle" x="1068" y="-229.8" font-family="Times,serif" font-size="14.00" fill="#000000">SlideToggleComponent </text>
</g>
<!-- SlideToggleModule&#45;&gt;SlideToggleComponent  -->
<g id="edge11" class="edge">
<title>SlideToggleModule&#45;&gt;SlideToggleComponent </title>
<path fill="none" stroke="#000000" stroke-dasharray="5,2" d="M946.1717,-175C990.6956,-175 1042.0386,-175 1042.0386,-175 1042.0386,-175 1042.0386,-205.9775 1042.0386,-205.9775"/>
<polygon fill="#000000" stroke="#000000" points="1038.5387,-205.9774 1042.0386,-215.9775 1045.5387,-205.9775 1038.5387,-205.9774"/>
</g>
<!-- SlideToggleGroupComponent  -->
<g id="node15" class="node">
<title>SlideToggleGroupComponent </title>
<polygon fill="#fb8072" stroke="#000000" points="973.5358,-252 784.4642,-252 784.4642,-216 973.5358,-216 973.5358,-252"/>
<text text-anchor="middle" x="879" y="-229.8" font-family="Times,serif" font-size="14.00" fill="#000000">SlideToggleGroupComponent </text>
</g>
<!-- SlideToggleModule&#45;&gt;SlideToggleGroupComponent  -->
<g id="edge12" class="edge">
<title>SlideToggleModule&#45;&gt;SlideToggleGroupComponent </title>
<path fill="none" stroke="#000000" stroke-dasharray="5,2" d="M882,-187.1061C882,-187.1061 882,-205.991 882,-205.991"/>
<polygon fill="#000000" stroke="#000000" points="878.5001,-205.9909 882,-215.991 885.5001,-205.991 878.5001,-205.9909"/>
</g>
</g>
</svg>
