<?xml version="1.0" encoding="UTF-8" standalone="no"?>
<!DOCTYPE svg PUBLIC "-//W3C//DTD SVG 1.1//EN"
 "http://www.w3.org/Graphics/SVG/1.1/DTD/svg11.dtd">
<!-- Generated by graphviz version 2.40.1 (20161225.0304)
 -->
<!-- Title: dependencies Pages: 1 -->
<svg width="4165pt" height="358pt"
 viewBox="0.00 0.00 4165.00 358.00" xmlns="http://www.w3.org/2000/svg" xmlns:xlink="http://www.w3.org/1999/xlink">
<g id="graph0" class="graph" transform="scale(1 1) rotate(0) translate(4 354)">
<title>dependencies</title>
<polygon fill="#ffffff" stroke="transparent" points="-4,4 -4,-354 4161,-354 4161,4 -4,4"/>
<text text-anchor="start" x="2057.5091" y="-42.4" font-family="sans-serif" font-weight="bold" font-size="14.00" fill="#000000">Legend</text>
<polygon fill="#ffffb3" stroke="transparent" points="1844.5,-10 1844.5,-30 1864.5,-30 1864.5,-10 1844.5,-10"/>
<text text-anchor="start" x="1868.129" y="-15.4" font-family="sans-serif" font-size="14.00" fill="#000000"> &#160;Declarations</text>
<polygon fill="#8dd3c7" stroke="transparent" points="1957.5,-10 1957.5,-30 1977.5,-30 1977.5,-10 1957.5,-10"/>
<text text-anchor="start" x="1981.2251" y="-15.4" font-family="sans-serif" font-size="14.00" fill="#000000"> &#160;Module</text>
<polygon fill="#80b1d3" stroke="transparent" points="2043.5,-10 2043.5,-30 2063.5,-30 2063.5,-10 2043.5,-10"/>
<text text-anchor="start" x="2067.2812" y="-15.4" font-family="sans-serif" font-size="14.00" fill="#000000"> &#160;Bootstrap</text>
<polygon fill="#fdb462" stroke="transparent" points="2140.5,-10 2140.5,-30 2160.5,-30 2160.5,-10 2140.5,-10"/>
<text text-anchor="start" x="2164.1732" y="-15.4" font-family="sans-serif" font-size="14.00" fill="#000000"> &#160;Providers</text>
<polygon fill="#fb8072" stroke="transparent" points="2236.5,-10 2236.5,-30 2256.5,-30 2256.5,-10 2236.5,-10"/>
<text text-anchor="start" x="2260.2258" y="-15.4" font-family="sans-serif" font-size="14.00" fill="#000000"> &#160;Exports</text>
<g id="clust1" class="cluster">
<title>cluster_ArrowVariationModule</title>
<polygon fill="none" stroke="#000000" stroke-dasharray="1,5" points="8,-70 8,-274 214,-274 214,-70 8,-70"/>
</g>
<g id="clust2" class="cluster">
<title>cluster_ArrowVariationModule_declarations</title>
<polygon fill="none" stroke="#000000" points="18,-78 18,-130 204,-130 204,-78 18,-78"/>
</g>
<g id="clust5" class="cluster">
<title>cluster_ArrowVariationModule_exports</title>
<polygon fill="none" stroke="#000000" points="16,-214 16,-266 206,-266 206,-214 16,-214"/>
</g>
<g id="clust8" class="cluster">
<title>cluster_ButtonModule</title>
<polygon fill="none" stroke="#000000" stroke-dasharray="1,5" points="222,-70 222,-274 376,-274 376,-70 222,-70"/>
</g>
<g id="clust9" class="cluster">
<title>cluster_ButtonModule_declarations</title>
<polygon fill="none" stroke="#000000" points="231,-78 231,-130 367,-130 367,-78 231,-78"/>
</g>
<g id="clust12" class="cluster">
<title>cluster_ButtonModule_exports</title>
<polygon fill="none" stroke="#000000" points="230,-214 230,-266 368,-266 368,-214 230,-214"/>
</g>
<g id="clust15" class="cluster">
<title>cluster_CardContainerModule</title>
<polygon fill="none" stroke="#000000" stroke-dasharray="1,5" points="612,-70 612,-274 960,-274 960,-70 612,-70"/>
</g>
<g id="clust16" class="cluster">
<title>cluster_CardContainerModule_declarations</title>
<polygon fill="none" stroke="#000000" points="620,-78 620,-130 800,-130 800,-78 620,-78"/>
</g>
<g id="clust18" class="cluster">
<title>cluster_CardContainerModule_imports</title>
<polygon fill="none" stroke="#000000" points="808,-78 808,-130 952,-130 952,-78 808,-78"/>
</g>
<g id="clust19" class="cluster">
<title>cluster_CardContainerModule_exports</title>
<polygon fill="none" stroke="#000000" points="694,-214 694,-266 878,-266 878,-214 694,-214"/>
</g>
<g id="clust22" class="cluster">
<title>cluster_CountdownButtonModule</title>
<polygon fill="none" stroke="#000000" stroke-dasharray="1,5" points="384,-138 384,-342 604,-342 604,-138 384,-138"/>
</g>
<g id="clust23" class="cluster">
<title>cluster_CountdownButtonModule_declarations</title>
<polygon fill="none" stroke="#000000" points="393,-146 393,-198 593,-198 593,-146 393,-146"/>
</g>
<g id="clust26" class="cluster">
<title>cluster_CountdownButtonModule_exports</title>
<polygon fill="none" stroke="#000000" points="392,-282 392,-334 596,-334 596,-282 392,-282"/>
</g>
<g id="clust29" class="cluster">
<title>cluster_DataFormatterModule</title>
<polygon fill="none" stroke="#000000" stroke-dasharray="1,5" points="1336,-70 1336,-274 1662,-274 1662,-70 1336,-70"/>
</g>
<g id="clust30" class="cluster">
<title>cluster_DataFormatterModule_declarations</title>
<polygon fill="none" stroke="#000000" points="1347,-78 1347,-130 1650,-130 1650,-78 1347,-78"/>
</g>
<g id="clust34" class="cluster">
<title>cluster_DataFormatterModule_exports</title>
<polygon fill="none" stroke="#000000" points="1344,-214 1344,-266 1654,-266 1654,-214 1344,-214"/>
</g>
<g id="clust37" class="cluster">
<title>cluster_DirectivesModule</title>
<polygon fill="none" stroke="#000000" stroke-dasharray="1,5" points="1670,-70 1670,-274 2216,-274 2216,-70 1670,-70"/>
</g>
<g id="clust38" class="cluster">
<title>cluster_DirectivesModule_declarations</title>
<polygon fill="none" stroke="#000000" points="1683,-78 1683,-130 2203,-130 2203,-78 1683,-78"/>
</g>
<g id="clust43" class="cluster">
<title>cluster_DirectivesModule_exports</title>
<polygon fill="none" stroke="#000000" points="1678,-214 1678,-266 2208,-266 2208,-214 1678,-214"/>
</g>
<g id="clust46" class="cluster">
<title>cluster_EnhancedTitleModule</title>
<polygon fill="none" stroke="#000000" stroke-dasharray="1,5" points="2224,-70 2224,-274 2422,-274 2422,-70 2224,-70"/>
</g>
<g id="clust47" class="cluster">
<title>cluster_EnhancedTitleModule_declarations</title>
<polygon fill="none" stroke="#000000" points="2234,-78 2234,-130 2412,-130 2412,-78 2234,-78"/>
</g>
<g id="clust50" class="cluster">
<title>cluster_EnhancedTitleModule_exports</title>
<polygon fill="none" stroke="#000000" points="2232,-214 2232,-266 2414,-266 2414,-214 2232,-214"/>
</g>
<g id="clust53" class="cluster">
<title>cluster_GdkModule</title>
<polygon fill="none" stroke="#000000" stroke-dasharray="1,5" points="2430,-70 2430,-274 2598,-274 2598,-70 2430,-70"/>
</g>
<g id="clust54" class="cluster">
<title>cluster_GdkModule_declarations</title>
<polygon fill="none" stroke="#000000" points="2440,-78 2440,-130 2588,-130 2588,-78 2440,-78"/>
</g>
<g id="clust57" class="cluster">
<title>cluster_GdkModule_exports</title>
<polygon fill="none" stroke="#000000" points="2438,-214 2438,-266 2590,-266 2590,-214 2438,-214"/>
</g>
<g id="clust60" class="cluster">
<title>cluster_LoadingModule</title>
<polygon fill="none" stroke="#000000" stroke-dasharray="1,5" points="2606,-70 2606,-274 2770,-274 2770,-70 2606,-70"/>
</g>
<g id="clust61" class="cluster">
<title>cluster_LoadingModule_declarations</title>
<polygon fill="none" stroke="#000000" points="2616,-78 2616,-130 2760,-130 2760,-78 2616,-78"/>
</g>
<g id="clust64" class="cluster">
<title>cluster_LoadingModule_exports</title>
<polygon fill="none" stroke="#000000" points="2614,-214 2614,-266 2762,-266 2762,-214 2614,-214"/>
</g>
<g id="clust67" class="cluster">
<title>cluster_PageHeaderModule</title>
<polygon fill="none" stroke="#000000" stroke-dasharray="1,5" points="2778,-70 2778,-274 3162,-274 3162,-70 2778,-70"/>
</g>
<g id="clust68" class="cluster">
<title>cluster_PageHeaderModule_declarations</title>
<polygon fill="none" stroke="#000000" points="2790,-78 2790,-130 3150,-130 3150,-78 2790,-78"/>
</g>
<g id="clust72" class="cluster">
<title>cluster_PageHeaderModule_exports</title>
<polygon fill="none" stroke="#000000" points="2786,-214 2786,-266 3154,-266 3154,-214 2786,-214"/>
</g>
<g id="clust75" class="cluster">
<title>cluster_PopupConfirmModule</title>
<polygon fill="none" stroke="#000000" stroke-dasharray="1,5" points="3170,-70 3170,-274 3370,-274 3370,-70 3170,-70"/>
</g>
<g id="clust76" class="cluster">
<title>cluster_PopupConfirmModule_declarations</title>
<polygon fill="none" stroke="#000000" points="3180,-78 3180,-130 3360,-130 3360,-78 3180,-78"/>
</g>
<g id="clust79" class="cluster">
<title>cluster_PopupConfirmModule_exports</title>
<polygon fill="none" stroke="#000000" points="3178,-214 3178,-266 3362,-266 3362,-214 3178,-214"/>
</g>
<g id="clust82" class="cluster">
<title>cluster_ScrollContainerModule</title>
<polygon fill="none" stroke="#000000" stroke-dasharray="1,5" points="3378,-70 3378,-274 3584,-274 3584,-70 3378,-70"/>
</g>
<g id="clust83" class="cluster">
<title>cluster_ScrollContainerModule_declarations</title>
<polygon fill="none" stroke="#000000" points="3388,-78 3388,-130 3574,-130 3574,-78 3388,-78"/>
</g>
<g id="clust86" class="cluster">
<title>cluster_ScrollContainerModule_exports</title>
<polygon fill="none" stroke="#000000" points="3386,-214 3386,-266 3576,-266 3576,-214 3386,-214"/>
</g>
<g id="clust89" class="cluster">
<title>cluster_SectionTitleModule</title>
<polygon fill="none" stroke="#000000" stroke-dasharray="1,5" points="968,-138 968,-206 1328,-206 1328,-138 968,-138"/>
</g>
<g id="clust90" class="cluster">
<title>cluster_SectionTitleModule_declarations</title>
<polygon fill="none" stroke="#000000" points="1154,-146 1154,-198 1320,-198 1320,-146 1154,-146"/>
</g>
<g id="clust93" class="cluster">
<title>cluster_SectionTitleModule_exports</title>
<polygon fill="none" stroke="#000000" points="976,-146 976,-198 1146,-198 1146,-146 976,-146"/>
</g>
<g id="clust96" class="cluster">
<title>cluster_SlideToggleModule</title>
<polygon fill="none" stroke="#000000" stroke-dasharray="1,5" points="3592,-70 3592,-274 3985,-274 3985,-70 3592,-70"/>
</g>
<g id="clust97" class="cluster">
<title>cluster_SlideToggleModule_declarations</title>
<polygon fill="none" stroke="#000000" points="3604,-78 3604,-130 3974,-130 3974,-78 3604,-78"/>
</g>
<g id="clust101" class="cluster">
<title>cluster_SlideToggleModule_exports</title>
<polygon fill="none" stroke="#000000" points="3600,-214 3600,-266 3977,-266 3977,-214 3600,-214"/>
</g>
<g id="clust104" class="cluster">
<title>cluster_UiIconModule</title>
<polygon fill="none" stroke="#000000" stroke-dasharray="1,5" points="3993,-70 3993,-274 4149,-274 4149,-70 3993,-70"/>
</g>
<g id="clust105" class="cluster">
<title>cluster_UiIconModule_declarations</title>
<polygon fill="none" stroke="#000000" points="4003,-78 4003,-130 4139,-130 4139,-78 4003,-78"/>
</g>
<g id="clust108" class="cluster">
<title>cluster_UiIconModule_exports</title>
<polygon fill="none" stroke="#000000" points="4001,-214 4001,-266 4141,-266 4141,-214 4001,-214"/>
</g>
<!-- ArrowVariationComponent -->
<g id="node1" class="node">
<title>ArrowVariationComponent</title>
<polygon fill="#ffffb3" stroke="#000000" points="196.2352,-122 25.7648,-122 25.7648,-86 196.2352,-86 196.2352,-122"/>
<text text-anchor="middle" x="111" y="-99.8" font-family="Times,serif" font-size="14.00" fill="#000000">ArrowVariationComponent</text>
</g>
<!-- ArrowVariationModule -->
<g id="node2" class="node">
<title>ArrowVariationModule</title>
<polygon fill="#8dd3c7" stroke="#000000" points="185.4524,-190 182.4524,-194 161.4524,-194 158.4524,-190 36.5476,-190 36.5476,-154 185.4524,-154 185.4524,-190"/>
<text text-anchor="middle" x="111" y="-167.8" font-family="Times,serif" font-size="14.00" fill="#000000">ArrowVariationModule</text>
</g>
<!-- ArrowVariationComponent&#45;&gt;ArrowVariationModule -->
<g id="edge1" class="edge">
<title>ArrowVariationComponent&#45;&gt;ArrowVariationModule</title>
<path fill="none" stroke="#000000" d="M111,-122.2228C111,-122.2228 111,-143.7269 111,-143.7269"/>
<polygon fill="#000000" stroke="#000000" points="107.5001,-143.7269 111,-153.7269 114.5001,-143.727 107.5001,-143.7269"/>
</g>
<!-- ArrowVariationComponent  -->
<g id="node3" class="node">
<title>ArrowVariationComponent </title>
<polygon fill="#fb8072" stroke="#000000" points="198.2352,-258 23.7648,-258 23.7648,-222 198.2352,-222 198.2352,-258"/>
<text text-anchor="middle" x="111" y="-235.8" font-family="Times,serif" font-size="14.00" fill="#000000">ArrowVariationComponent </text>
</g>
<!-- ArrowVariationModule&#45;&gt;ArrowVariationComponent  -->
<g id="edge2" class="edge">
<title>ArrowVariationModule&#45;&gt;ArrowVariationComponent </title>
<path fill="none" stroke="#000000" stroke-dasharray="5,2" d="M111,-190.2228C111,-190.2228 111,-211.7269 111,-211.7269"/>
<polygon fill="#000000" stroke="#000000" points="107.5001,-211.7269 111,-221.7269 114.5001,-211.727 107.5001,-211.7269"/>
</g>
<!-- ButtonComponent -->
<g id="node4" class="node">
<title>ButtonComponent</title>
<polygon fill="#ffffb3" stroke="#000000" points="358.9511,-122 239.0489,-122 239.0489,-86 358.9511,-86 358.9511,-122"/>
<text text-anchor="middle" x="299" y="-99.8" font-family="Times,serif" font-size="14.00" fill="#000000">ButtonComponent</text>
</g>
<!-- ButtonModule -->
<g id="node5" class="node">
<title>ButtonModule</title>
<polygon fill="#8dd3c7" stroke="#000000" points="347.6682,-190 344.6682,-194 323.6682,-194 320.6682,-190 250.3318,-190 250.3318,-154 347.6682,-154 347.6682,-190"/>
<text text-anchor="middle" x="299" y="-167.8" font-family="Times,serif" font-size="14.00" fill="#000000">ButtonModule</text>
</g>
<!-- ButtonComponent&#45;&gt;ButtonModule -->
<g id="edge3" class="edge">
<title>ButtonComponent&#45;&gt;ButtonModule</title>
<path fill="none" stroke="#000000" d="M299,-122.2228C299,-122.2228 299,-143.7269 299,-143.7269"/>
<polygon fill="#000000" stroke="#000000" points="295.5001,-143.7269 299,-153.7269 302.5001,-143.727 295.5001,-143.7269"/>
</g>
<!-- ButtonComponent  -->
<g id="node6" class="node">
<title>ButtonComponent </title>
<polygon fill="#fb8072" stroke="#000000" points="360.4502,-258 237.5498,-258 237.5498,-222 360.4502,-222 360.4502,-258"/>
<text text-anchor="middle" x="299" y="-235.8" font-family="Times,serif" font-size="14.00" fill="#000000">ButtonComponent </text>
</g>
<!-- ButtonModule&#45;&gt;ButtonComponent  -->
<g id="edge4" class="edge">
<title>ButtonModule&#45;&gt;ButtonComponent </title>
<path fill="none" stroke="#000000" stroke-dasharray="5,2" d="M299,-190.2228C299,-190.2228 299,-211.7269 299,-211.7269"/>
<polygon fill="#000000" stroke="#000000" points="295.5001,-211.7269 299,-221.7269 302.5001,-211.727 295.5001,-211.7269"/>
</g>
<!-- CountdownButtonModule -->
<g id="node12" class="node">
<title>CountdownButtonModule</title>
<polygon fill="#8dd3c7" stroke="#000000" points="574.5014,-258 571.5014,-262 550.5014,-262 547.5014,-258 411.4986,-258 411.4986,-222 574.5014,-222 574.5014,-258"/>
<text text-anchor="middle" x="493" y="-235.8" font-family="Times,serif" font-size="14.00" fill="#000000">CountdownButtonModule</text>
</g>
<!-- ButtonModule&#45;&gt;CountdownButtonModule -->
<g id="edge9" class="edge">
<title>ButtonModule&#45;&gt;CountdownButtonModule</title>
<path fill="none" stroke="#000000" d="M348.0874,-172C365.1807,-172 380.1666,-172 380.1666,-172 380.1666,-172 380.1666,-240 380.1666,-240 380.1666,-240 401.2975,-240 401.2975,-240"/>
<polygon fill="#000000" stroke="#000000" points="401.2975,-243.5001 411.2975,-240 401.2974,-236.5001 401.2975,-243.5001"/>
</g>
<!-- CardContainerComponent -->
<g id="node7" class="node">
<title>CardContainerComponent</title>
<polygon fill="#ffffb3" stroke="#000000" points="791.752,-122 628.248,-122 628.248,-86 791.752,-86 791.752,-122"/>
<text text-anchor="middle" x="710" y="-99.8" font-family="Times,serif" font-size="14.00" fill="#000000">CardContainerComponent</text>
</g>
<!-- CardContainerModule -->
<g id="node8" class="node">
<title>CardContainerModule</title>
<polygon fill="#8dd3c7" stroke="#000000" points="856.9692,-190 853.9692,-194 832.9692,-194 829.9692,-190 715.0308,-190 715.0308,-154 856.9692,-154 856.9692,-190"/>
<text text-anchor="middle" x="786" y="-167.8" font-family="Times,serif" font-size="14.00" fill="#000000">CardContainerModule</text>
</g>
<!-- CardContainerComponent&#45;&gt;CardContainerModule -->
<g id="edge5" class="edge">
<title>CardContainerComponent&#45;&gt;CardContainerModule</title>
<path fill="none" stroke="#000000" d="M753.4457,-122.2228C753.4457,-122.2228 753.4457,-143.7269 753.4457,-143.7269"/>
<polygon fill="#000000" stroke="#000000" points="749.9457,-143.7269 753.4457,-153.7269 756.9457,-143.727 749.9457,-143.7269"/>
</g>
<!-- CardContainerComponent  -->
<g id="node10" class="node">
<title>CardContainerComponent </title>
<polygon fill="#fb8072" stroke="#000000" points="869.752,-258 702.248,-258 702.248,-222 869.752,-222 869.752,-258"/>
<text text-anchor="middle" x="786" y="-235.8" font-family="Times,serif" font-size="14.00" fill="#000000">CardContainerComponent </text>
</g>
<!-- CardContainerModule&#45;&gt;CardContainerComponent  -->
<g id="edge7" class="edge">
<title>CardContainerModule&#45;&gt;CardContainerComponent </title>
<path fill="none" stroke="#000000" stroke-dasharray="5,2" d="M786,-190.2228C786,-190.2228 786,-211.7269 786,-211.7269"/>
<polygon fill="#000000" stroke="#000000" points="782.5001,-211.7269 786,-221.7269 789.5001,-211.727 782.5001,-211.7269"/>
</g>
<!-- SectionTitleModule -->
<g id="node9" class="node">
<title>SectionTitleModule</title>
<polygon fill="#8dd3c7" stroke="#000000" points="943.9818,-122 940.9818,-126 919.9818,-126 916.9818,-122 816.0182,-122 816.0182,-86 943.9818,-86 943.9818,-122"/>
<text text-anchor="middle" x="880" y="-99.8" font-family="Times,serif" font-size="14.00" fill="#000000">SectionTitleModule</text>
</g>
<!-- SectionTitleModule&#45;&gt;CardContainerModule -->
<g id="edge6" class="edge">
<title>SectionTitleModule&#45;&gt;CardContainerModule</title>
<path fill="none" stroke="#000000" d="M836.4969,-122.2228C836.4969,-122.2228 836.4969,-143.7269 836.4969,-143.7269"/>
<polygon fill="#000000" stroke="#000000" points="832.9969,-143.7269 836.4969,-153.7269 839.9969,-143.727 832.9969,-143.7269"/>
</g>
<!-- SectionTitleComponent  -->
<g id="node47" class="node">
<title>SectionTitleComponent </title>
<polygon fill="#fb8072" stroke="#000000" points="1137.7646,-190 984.2354,-190 984.2354,-154 1137.7646,-154 1137.7646,-190"/>
<text text-anchor="middle" x="1061" y="-167.8" font-family="Times,serif" font-size="14.00" fill="#000000">SectionTitleComponent </text>
</g>
<!-- SectionTitleModule&#45;&gt;SectionTitleComponent  -->
<g id="edge36" class="edge">
<title>SectionTitleModule&#45;&gt;SectionTitleComponent </title>
<path fill="none" stroke="#000000" stroke-dasharray="5,2" d="M906.8084,-122.2228C906.8084,-142.3652 906.8084,-172 906.8084,-172 906.8084,-172 974.3559,-172 974.3559,-172"/>
<polygon fill="#000000" stroke="#000000" points="974.356,-175.5001 984.3559,-172 974.3559,-168.5001 974.356,-175.5001"/>
</g>
<!-- CountdownButtonComponent -->
<g id="node11" class="node">
<title>CountdownButtonComponent</title>
<polygon fill="#ffffb3" stroke="#000000" points="585.2841,-190 400.7159,-190 400.7159,-154 585.2841,-154 585.2841,-190"/>
<text text-anchor="middle" x="493" y="-167.8" font-family="Times,serif" font-size="14.00" fill="#000000">CountdownButtonComponent</text>
</g>
<!-- CountdownButtonComponent&#45;&gt;CountdownButtonModule -->
<g id="edge8" class="edge">
<title>CountdownButtonComponent&#45;&gt;CountdownButtonModule</title>
<path fill="none" stroke="#000000" d="M493,-190.2228C493,-190.2228 493,-211.7269 493,-211.7269"/>
<polygon fill="#000000" stroke="#000000" points="489.5001,-211.7269 493,-221.7269 496.5001,-211.727 489.5001,-211.7269"/>
</g>
<!-- CountdownButtonComponent  -->
<g id="node13" class="node">
<title>CountdownButtonComponent </title>
<polygon fill="#fb8072" stroke="#000000" points="588.2842,-326 399.7158,-326 399.7158,-290 588.2842,-290 588.2842,-326"/>
<text text-anchor="middle" x="494" y="-303.8" font-family="Times,serif" font-size="14.00" fill="#000000">CountdownButtonComponent </text>
</g>
<!-- CountdownButtonModule&#45;&gt;CountdownButtonComponent  -->
<g id="edge10" class="edge">
<title>CountdownButtonModule&#45;&gt;CountdownButtonComponent </title>
<path fill="none" stroke="#000000" stroke-dasharray="5,2" d="M493,-258.2228C493,-258.2228 493,-279.7269 493,-279.7269"/>
<polygon fill="#000000" stroke="#000000" points="489.5001,-279.7269 493,-289.7269 496.5001,-279.727 489.5001,-279.7269"/>
</g>
<!-- DataFormatterComponent -->
<g id="node14" class="node">
<title>DataFormatterComponent</title>
<polygon fill="#ffffb3" stroke="#000000" points="1642.4636,-122 1479.5364,-122 1479.5364,-86 1642.4636,-86 1642.4636,-122"/>
<text text-anchor="middle" x="1561" y="-99.8" font-family="Times,serif" font-size="14.00" fill="#000000">DataFormatterComponent</text>
</g>
<!-- DataFormatterModule -->
<g id="node16" class="node">
<title>DataFormatterModule</title>
<polygon fill="#8dd3c7" stroke="#000000" points="1556.6811,-190 1553.6811,-194 1532.6811,-194 1529.6811,-190 1415.3189,-190 1415.3189,-154 1556.6811,-154 1556.6811,-190"/>
<text text-anchor="middle" x="1486" y="-167.8" font-family="Times,serif" font-size="14.00" fill="#000000">DataFormatterModule</text>
</g>
<!-- DataFormatterComponent&#45;&gt;DataFormatterModule -->
<g id="edge11" class="edge">
<title>DataFormatterComponent&#45;&gt;DataFormatterModule</title>
<path fill="none" stroke="#000000" d="M1518.0543,-122.2228C1518.0543,-122.2228 1518.0543,-143.7269 1518.0543,-143.7269"/>
<polygon fill="#000000" stroke="#000000" points="1514.5544,-143.7269 1518.0543,-153.7269 1521.5544,-143.727 1514.5544,-143.7269"/>
</g>
<!-- GorCustomPipe -->
<g id="node15" class="node">
<title>GorCustomPipe</title>
<polygon fill="#ffffb3" stroke="#000000" points="1461.2176,-122 1354.7824,-122 1354.7824,-86 1461.2176,-86 1461.2176,-122"/>
<text text-anchor="middle" x="1408" y="-99.8" font-family="Times,serif" font-size="14.00" fill="#000000">GorCustomPipe</text>
</g>
<!-- GorCustomPipe&#45;&gt;DataFormatterModule -->
<g id="edge12" class="edge">
<title>GorCustomPipe&#45;&gt;DataFormatterModule</title>
<path fill="none" stroke="#000000" d="M1438.2591,-122.2228C1438.2591,-122.2228 1438.2591,-143.7269 1438.2591,-143.7269"/>
<polygon fill="#000000" stroke="#000000" points="1434.7592,-143.7269 1438.2591,-153.7269 1441.7592,-143.727 1434.7592,-143.7269"/>
</g>
<!-- DataFormatterComponent  -->
<g id="node17" class="node">
<title>DataFormatterComponent </title>
<polygon fill="#fb8072" stroke="#000000" points="1646.4642,-258 1479.5358,-258 1479.5358,-222 1646.4642,-222 1646.4642,-258"/>
<text text-anchor="middle" x="1563" y="-235.8" font-family="Times,serif" font-size="14.00" fill="#000000">DataFormatterComponent </text>
</g>
<!-- DataFormatterModule&#45;&gt;DataFormatterComponent  -->
<g id="edge13" class="edge">
<title>DataFormatterModule&#45;&gt;DataFormatterComponent </title>
<path fill="none" stroke="#000000" stroke-dasharray="5,2" d="M1518.1793,-190.2228C1518.1793,-190.2228 1518.1793,-211.7269 1518.1793,-211.7269"/>
<polygon fill="#000000" stroke="#000000" points="1514.6794,-211.7269 1518.1793,-221.7269 1521.6794,-211.727 1514.6794,-211.7269"/>
</g>
<!-- GorCustomPipe  -->
<g id="node18" class="node">
<title>GorCustomPipe </title>
<polygon fill="#fb8072" stroke="#000000" points="1461.7178,-258 1352.2822,-258 1352.2822,-222 1461.7178,-222 1461.7178,-258"/>
<text text-anchor="middle" x="1407" y="-235.8" font-family="Times,serif" font-size="14.00" fill="#000000">GorCustomPipe </text>
</g>
<!-- DataFormatterModule&#45;&gt;GorCustomPipe  -->
<g id="edge14" class="edge">
<title>DataFormatterModule&#45;&gt;GorCustomPipe </title>
<path fill="none" stroke="#000000" stroke-dasharray="5,2" d="M1438.6341,-190.2228C1438.6341,-190.2228 1438.6341,-211.7269 1438.6341,-211.7269"/>
<polygon fill="#000000" stroke="#000000" points="1435.1342,-211.7269 1438.6341,-221.7269 1442.1342,-211.727 1435.1342,-211.7269"/>
</g>
<!-- CancelableRouterLinkWithHrefDirective -->
<g id="node19" class="node">
<title>CancelableRouterLinkWithHrefDirective</title>
<polygon fill="#ffffb3" stroke="#000000" points="2195.4578,-122 1946.5422,-122 1946.5422,-86 2195.4578,-86 2195.4578,-122"/>
<text text-anchor="middle" x="2071" y="-99.8" font-family="Times,serif" font-size="14.00" fill="#000000">CancelableRouterLinkWithHrefDirective</text>
</g>
<!-- DirectivesModule -->
<g id="node22" class="node">
<title>DirectivesModule</title>
<polygon fill="#8dd3c7" stroke="#000000" points="1936.5772,-190 1933.5772,-194 1912.5772,-194 1909.5772,-190 1819.4228,-190 1819.4228,-154 1936.5772,-154 1936.5772,-190"/>
<text text-anchor="middle" x="1878" y="-167.8" font-family="Times,serif" font-size="14.00" fill="#000000">DirectivesModule</text>
</g>
<!-- CancelableRouterLinkWithHrefDirective&#45;&gt;DirectivesModule -->
<g id="edge15" class="edge">
<title>CancelableRouterLinkWithHrefDirective&#45;&gt;DirectivesModule</title>
<path fill="none" stroke="#000000" d="M1946.6778,-104C1938.0345,-104 1932.6508,-104 1932.6508,-104 1932.6508,-104 1932.6508,-143.7772 1932.6508,-143.7772"/>
<polygon fill="#000000" stroke="#000000" points="1929.1509,-143.7772 1932.6508,-153.7772 1936.1509,-143.7773 1929.1509,-143.7772"/>
</g>
<!-- TippyDirective -->
<g id="node20" class="node">
<title>TippyDirective</title>
<polygon fill="#ffffb3" stroke="#000000" points="1928.5271,-122 1827.4729,-122 1827.4729,-86 1928.5271,-86 1928.5271,-122"/>
<text text-anchor="middle" x="1878" y="-99.8" font-family="Times,serif" font-size="14.00" fill="#000000">TippyDirective</text>
</g>
<!-- TippyDirective&#45;&gt;DirectivesModule -->
<g id="edge16" class="edge">
<title>TippyDirective&#45;&gt;DirectivesModule</title>
<path fill="none" stroke="#000000" d="M1878,-122.2228C1878,-122.2228 1878,-143.7269 1878,-143.7269"/>
<polygon fill="#000000" stroke="#000000" points="1874.5001,-143.7269 1878,-153.7269 1881.5001,-143.727 1874.5001,-143.7269"/>
</g>
<!-- TruncateDirective -->
<g id="node21" class="node">
<title>TruncateDirective</title>
<polygon fill="#ffffb3" stroke="#000000" points="1808.8305,-122 1691.1695,-122 1691.1695,-86 1808.8305,-86 1808.8305,-122"/>
<text text-anchor="middle" x="1750" y="-99.8" font-family="Times,serif" font-size="14.00" fill="#000000">TruncateDirective</text>
</g>
<!-- TruncateDirective&#45;&gt;DirectivesModule -->
<g id="edge17" class="edge">
<title>TruncateDirective&#45;&gt;DirectivesModule</title>
<path fill="none" stroke="#000000" d="M1808.8578,-104C1817.3849,-104 1823.3492,-104 1823.3492,-104 1823.3492,-104 1823.3492,-143.7772 1823.3492,-143.7772"/>
<polygon fill="#000000" stroke="#000000" points="1819.8493,-143.7772 1823.3492,-153.7772 1826.8493,-143.7773 1819.8493,-143.7772"/>
</g>
<!-- CancelableRouterLinkWithHrefDirective  -->
<g id="node23" class="node">
<title>CancelableRouterLinkWithHrefDirective </title>
<polygon fill="#fb8072" stroke="#000000" points="2199.9574,-258 1948.0426,-258 1948.0426,-222 2199.9574,-222 2199.9574,-258"/>
<text text-anchor="middle" x="2074" y="-235.8" font-family="Times,serif" font-size="14.00" fill="#000000">CancelableRouterLinkWithHrefDirective </text>
</g>
<!-- DirectivesModule&#45;&gt;CancelableRouterLinkWithHrefDirective  -->
<g id="edge18" class="edge">
<title>DirectivesModule&#45;&gt;CancelableRouterLinkWithHrefDirective </title>
<path fill="none" stroke="#000000" stroke-dasharray="5,2" d="M1936.6193,-172C1993.6082,-172 2071.625,-172 2071.625,-172 2071.625,-172 2071.625,-211.7772 2071.625,-211.7772"/>
<polygon fill="#000000" stroke="#000000" points="2068.1251,-211.7772 2071.625,-221.7772 2075.1251,-211.7773 2068.1251,-211.7772"/>
</g>
<!-- TippyDirective  -->
<g id="node24" class="node">
<title>TippyDirective </title>
<polygon fill="#fb8072" stroke="#000000" points="1930.526,-258 1825.474,-258 1825.474,-222 1930.526,-222 1930.526,-258"/>
<text text-anchor="middle" x="1878" y="-235.8" font-family="Times,serif" font-size="14.00" fill="#000000">TippyDirective </text>
</g>
<!-- DirectivesModule&#45;&gt;TippyDirective  -->
<g id="edge19" class="edge">
<title>DirectivesModule&#45;&gt;TippyDirective </title>
<path fill="none" stroke="#000000" stroke-dasharray="5,2" d="M1878,-190.2228C1878,-190.2228 1878,-211.7269 1878,-211.7269"/>
<polygon fill="#000000" stroke="#000000" points="1874.5001,-211.7269 1878,-221.7269 1881.5001,-211.727 1874.5001,-211.7269"/>
</g>
<!-- TruncateDirective  -->
<g id="node25" class="node">
<title>TruncateDirective </title>
<polygon fill="#fb8072" stroke="#000000" points="1807.8309,-258 1686.1691,-258 1686.1691,-222 1807.8309,-222 1807.8309,-258"/>
<text text-anchor="middle" x="1747" y="-235.8" font-family="Times,serif" font-size="14.00" fill="#000000">TruncateDirective </text>
</g>
<!-- DirectivesModule&#45;&gt;TruncateDirective  -->
<g id="edge20" class="edge">
<title>DirectivesModule&#45;&gt;TruncateDirective </title>
<path fill="none" stroke="#000000" stroke-dasharray="5,2" d="M1819.3335,-172C1785.41,-172 1749.375,-172 1749.375,-172 1749.375,-172 1749.375,-211.7772 1749.375,-211.7772"/>
<polygon fill="#000000" stroke="#000000" points="1745.8751,-211.7772 1749.375,-221.7772 1752.8751,-211.7773 1745.8751,-211.7772"/>
</g>
<!-- EnhancedTitleComponent -->
<g id="node26" class="node">
<title>EnhancedTitleComponent</title>
<polygon fill="#ffffb3" stroke="#000000" points="2404.4678,-122 2241.5322,-122 2241.5322,-86 2404.4678,-86 2404.4678,-122"/>
<text text-anchor="middle" x="2323" y="-99.8" font-family="Times,serif" font-size="14.00" fill="#000000">EnhancedTitleComponent</text>
</g>
<!-- EnhancedTitleModule -->
<g id="node27" class="node">
<title>EnhancedTitleModule</title>
<polygon fill="#8dd3c7" stroke="#000000" points="2393.6853,-190 2390.6853,-194 2369.6853,-194 2366.6853,-190 2252.3147,-190 2252.3147,-154 2393.6853,-154 2393.6853,-190"/>
<text text-anchor="middle" x="2323" y="-167.8" font-family="Times,serif" font-size="14.00" fill="#000000">EnhancedTitleModule</text>
</g>
<!-- EnhancedTitleComponent&#45;&gt;EnhancedTitleModule -->
<g id="edge21" class="edge">
<title>EnhancedTitleComponent&#45;&gt;EnhancedTitleModule</title>
<path fill="none" stroke="#000000" d="M2323,-122.2228C2323,-122.2228 2323,-143.7269 2323,-143.7269"/>
<polygon fill="#000000" stroke="#000000" points="2319.5001,-143.7269 2323,-153.7269 2326.5001,-143.727 2319.5001,-143.7269"/>
</g>
<!-- EnhancedTitleComponent  -->
<g id="node28" class="node">
<title>EnhancedTitleComponent </title>
<polygon fill="#fb8072" stroke="#000000" points="2406.4685,-258 2239.5315,-258 2239.5315,-222 2406.4685,-222 2406.4685,-258"/>
<text text-anchor="middle" x="2323" y="-235.8" font-family="Times,serif" font-size="14.00" fill="#000000">EnhancedTitleComponent </text>
</g>
<!-- EnhancedTitleModule&#45;&gt;EnhancedTitleComponent  -->
<g id="edge22" class="edge">
<title>EnhancedTitleModule&#45;&gt;EnhancedTitleComponent </title>
<path fill="none" stroke="#000000" stroke-dasharray="5,2" d="M2323,-190.2228C2323,-190.2228 2323,-211.7269 2323,-211.7269"/>
<polygon fill="#000000" stroke="#000000" points="2319.5001,-211.7269 2323,-221.7269 2326.5001,-211.727 2319.5001,-211.7269"/>
</g>
<!-- GdkCardComponent -->
<g id="node29" class="node">
<title>GdkCardComponent</title>
<polygon fill="#ffffb3" stroke="#000000" points="2580.1513,-122 2447.8487,-122 2447.8487,-86 2580.1513,-86 2580.1513,-122"/>
<text text-anchor="middle" x="2514" y="-99.8" font-family="Times,serif" font-size="14.00" fill="#000000">GdkCardComponent</text>
</g>
<!-- GdkModule -->
<g id="node30" class="node">
<title>GdkModule</title>
<polygon fill="#8dd3c7" stroke="#000000" points="2555.6571,-190 2552.6571,-194 2531.6571,-194 2528.6571,-190 2472.3429,-190 2472.3429,-154 2555.6571,-154 2555.6571,-190"/>
<text text-anchor="middle" x="2514" y="-167.8" font-family="Times,serif" font-size="14.00" fill="#000000">GdkModule</text>
</g>
<!-- GdkCardComponent&#45;&gt;GdkModule -->
<g id="edge23" class="edge">
<title>GdkCardComponent&#45;&gt;GdkModule</title>
<path fill="none" stroke="#000000" d="M2514,-122.2228C2514,-122.2228 2514,-143.7269 2514,-143.7269"/>
<polygon fill="#000000" stroke="#000000" points="2510.5001,-143.7269 2514,-153.7269 2517.5001,-143.727 2510.5001,-143.7269"/>
</g>
<!-- GdkCardComponent  -->
<g id="node31" class="node">
<title>GdkCardComponent </title>
<polygon fill="#fb8072" stroke="#000000" points="2582.1509,-258 2445.8491,-258 2445.8491,-222 2582.1509,-222 2582.1509,-258"/>
<text text-anchor="middle" x="2514" y="-235.8" font-family="Times,serif" font-size="14.00" fill="#000000">GdkCardComponent </text>
</g>
<!-- GdkModule&#45;&gt;GdkCardComponent  -->
<g id="edge24" class="edge">
<title>GdkModule&#45;&gt;GdkCardComponent </title>
<path fill="none" stroke="#000000" stroke-dasharray="5,2" d="M2514,-190.2228C2514,-190.2228 2514,-211.7269 2514,-211.7269"/>
<polygon fill="#000000" stroke="#000000" points="2510.5001,-211.7269 2514,-221.7269 2517.5001,-211.727 2510.5001,-211.7269"/>
</g>
<!-- LoadingComponent -->
<g id="node32" class="node">
<title>LoadingComponent</title>
<polygon fill="#ffffb3" stroke="#000000" points="2751.9902,-122 2624.0098,-122 2624.0098,-86 2751.9902,-86 2751.9902,-122"/>
<text text-anchor="middle" x="2688" y="-99.8" font-family="Times,serif" font-size="14.00" fill="#000000">LoadingComponent</text>
</g>
<!-- LoadingModule -->
<g id="node33" class="node">
<title>LoadingModule</title>
<polygon fill="#8dd3c7" stroke="#000000" points="2741.2078,-190 2738.2078,-194 2717.2078,-194 2714.2078,-190 2634.7922,-190 2634.7922,-154 2741.2078,-154 2741.2078,-190"/>
<text text-anchor="middle" x="2688" y="-167.8" font-family="Times,serif" font-size="14.00" fill="#000000">LoadingModule</text>
</g>
<!-- LoadingComponent&#45;&gt;LoadingModule -->
<g id="edge25" class="edge">
<title>LoadingComponent&#45;&gt;LoadingModule</title>
<path fill="none" stroke="#000000" d="M2688,-122.2228C2688,-122.2228 2688,-143.7269 2688,-143.7269"/>
<polygon fill="#000000" stroke="#000000" points="2684.5001,-143.7269 2688,-153.7269 2691.5001,-143.727 2684.5001,-143.7269"/>
</g>
<!-- LoadingComponent  -->
<g id="node34" class="node">
<title>LoadingComponent </title>
<polygon fill="#fb8072" stroke="#000000" points="2753.9911,-258 2622.0089,-258 2622.0089,-222 2753.9911,-222 2753.9911,-258"/>
<text text-anchor="middle" x="2688" y="-235.8" font-family="Times,serif" font-size="14.00" fill="#000000">LoadingComponent </text>
</g>
<!-- LoadingModule&#45;&gt;LoadingComponent  -->
<g id="edge26" class="edge">
<title>LoadingModule&#45;&gt;LoadingComponent </title>
<path fill="none" stroke="#000000" stroke-dasharray="5,2" d="M2688,-190.2228C2688,-190.2228 2688,-211.7269 2688,-211.7269"/>
<polygon fill="#000000" stroke="#000000" points="2684.5001,-211.7269 2688,-221.7269 2691.5001,-211.727 2684.5001,-211.7269"/>
</g>
<!-- PageHeaderBottomDirective -->
<g id="node35" class="node">
<title>PageHeaderBottomDirective</title>
<polygon fill="#ffffb3" stroke="#000000" points="3141.7142,-122 2964.2858,-122 2964.2858,-86 3141.7142,-86 3141.7142,-122"/>
<text text-anchor="middle" x="3053" y="-99.8" font-family="Times,serif" font-size="14.00" fill="#000000">PageHeaderBottomDirective</text>
</g>
<!-- PageHeaderModule -->
<g id="node37" class="node">
<title>PageHeaderModule</title>
<polygon fill="#8dd3c7" stroke="#000000" points="2936.6727,-190 2933.6727,-194 2912.6727,-194 2909.6727,-190 2809.3273,-190 2809.3273,-154 2936.6727,-154 2936.6727,-190"/>
<text text-anchor="middle" x="2873" y="-167.8" font-family="Times,serif" font-size="14.00" fill="#000000">PageHeaderModule</text>
</g>
<!-- PageHeaderBottomDirective&#45;&gt;PageHeaderModule -->
<g id="edge27" class="edge">
<title>PageHeaderBottomDirective&#45;&gt;PageHeaderModule</title>
<path fill="none" stroke="#000000" d="M3082.7023,-122.2667C3082.7023,-140.5552 3082.7023,-166 3082.7023,-166 3082.7023,-166 2946.7717,-166 2946.7717,-166"/>
<polygon fill="#000000" stroke="#000000" points="2946.7718,-162.5001 2936.7717,-166 2946.7717,-169.5001 2946.7718,-162.5001"/>
</g>
<!-- PageHeaderComponent -->
<g id="node36" class="node">
<title>PageHeaderComponent</title>
<polygon fill="#ffffb3" stroke="#000000" points="2946.4552,-122 2797.5448,-122 2797.5448,-86 2946.4552,-86 2946.4552,-122"/>
<text text-anchor="middle" x="2872" y="-99.8" font-family="Times,serif" font-size="14.00" fill="#000000">PageHeaderComponent</text>
</g>
<!-- PageHeaderComponent&#45;&gt;PageHeaderModule -->
<g id="edge28" class="edge">
<title>PageHeaderComponent&#45;&gt;PageHeaderModule</title>
<path fill="none" stroke="#000000" d="M2873,-122.2228C2873,-122.2228 2873,-143.7269 2873,-143.7269"/>
<polygon fill="#000000" stroke="#000000" points="2869.5001,-143.7269 2873,-153.7269 2876.5001,-143.727 2869.5001,-143.7269"/>
</g>
<!-- PageHeaderBottomDirective  -->
<g id="node38" class="node">
<title>PageHeaderBottomDirective </title>
<polygon fill="#fb8072" stroke="#000000" points="3145.7141,-258 2964.2859,-258 2964.2859,-222 3145.7141,-222 3145.7141,-258"/>
<text text-anchor="middle" x="3055" y="-235.8" font-family="Times,serif" font-size="14.00" fill="#000000">PageHeaderBottomDirective </text>
</g>
<!-- PageHeaderModule&#45;&gt;PageHeaderBottomDirective  -->
<g id="edge29" class="edge">
<title>PageHeaderModule&#45;&gt;PageHeaderBottomDirective </title>
<path fill="none" stroke="#000000" stroke-dasharray="5,2" d="M2936.8458,-178C2977.8775,-178 3023.5477,-178 3023.5477,-178 3023.5477,-178 3023.5477,-211.7333 3023.5477,-211.7333"/>
<polygon fill="#000000" stroke="#000000" points="3020.0478,-211.7333 3023.5477,-221.7333 3027.0478,-211.7333 3020.0478,-211.7333"/>
</g>
<!-- PageHeaderComponent  -->
<g id="node39" class="node">
<title>PageHeaderComponent </title>
<polygon fill="#fb8072" stroke="#000000" points="2946.4559,-258 2793.5441,-258 2793.5441,-222 2946.4559,-222 2946.4559,-258"/>
<text text-anchor="middle" x="2870" y="-235.8" font-family="Times,serif" font-size="14.00" fill="#000000">PageHeaderComponent </text>
</g>
<!-- PageHeaderModule&#45;&gt;PageHeaderComponent  -->
<g id="edge30" class="edge">
<title>PageHeaderModule&#45;&gt;PageHeaderComponent </title>
<path fill="none" stroke="#000000" stroke-dasharray="5,2" d="M2873,-190.2228C2873,-190.2228 2873,-211.7269 2873,-211.7269"/>
<polygon fill="#000000" stroke="#000000" points="2869.5001,-211.7269 2873,-221.7269 2876.5001,-211.727 2869.5001,-211.7269"/>
</g>
<!-- PopupConfirmComponent -->
<g id="node40" class="node">
<title>PopupConfirmComponent</title>
<polygon fill="#ffffb3" stroke="#000000" points="3352.0546,-122 3187.9454,-122 3187.9454,-86 3352.0546,-86 3352.0546,-122"/>
<text text-anchor="middle" x="3270" y="-99.8" font-family="Times,serif" font-size="14.00" fill="#000000">PopupConfirmComponent</text>
</g>
<!-- PopupConfirmModule -->
<g id="node41" class="node">
<title>PopupConfirmModule</title>
<polygon fill="#8dd3c7" stroke="#000000" points="3341.2716,-190 3338.2716,-194 3317.2716,-194 3314.2716,-190 3198.7284,-190 3198.7284,-154 3341.2716,-154 3341.2716,-190"/>
<text text-anchor="middle" x="3270" y="-167.8" font-family="Times,serif" font-size="14.00" fill="#000000">PopupConfirmModule</text>
</g>
<!-- PopupConfirmComponent&#45;&gt;PopupConfirmModule -->
<g id="edge31" class="edge">
<title>PopupConfirmComponent&#45;&gt;PopupConfirmModule</title>
<path fill="none" stroke="#000000" d="M3270,-122.2228C3270,-122.2228 3270,-143.7269 3270,-143.7269"/>
<polygon fill="#000000" stroke="#000000" points="3266.5001,-143.7269 3270,-153.7269 3273.5001,-143.727 3266.5001,-143.7269"/>
</g>
<!-- PopupConfirmComponent  -->
<g id="node42" class="node">
<title>PopupConfirmComponent </title>
<polygon fill="#fb8072" stroke="#000000" points="3354.054,-258 3185.946,-258 3185.946,-222 3354.054,-222 3354.054,-258"/>
<text text-anchor="middle" x="3270" y="-235.8" font-family="Times,serif" font-size="14.00" fill="#000000">PopupConfirmComponent </text>
</g>
<!-- PopupConfirmModule&#45;&gt;PopupConfirmComponent  -->
<g id="edge32" class="edge">
<title>PopupConfirmModule&#45;&gt;PopupConfirmComponent </title>
<path fill="none" stroke="#000000" stroke-dasharray="5,2" d="M3270,-190.2228C3270,-190.2228 3270,-211.7269 3270,-211.7269"/>
<polygon fill="#000000" stroke="#000000" points="3266.5001,-211.7269 3270,-221.7269 3273.5001,-211.727 3266.5001,-211.7269"/>
</g>
<!-- ScrollContainerComponent -->
<g id="node43" class="node">
<title>ScrollContainerComponent</title>
<polygon fill="#ffffb3" stroke="#000000" points="3565.979,-122 3396.021,-122 3396.021,-86 3565.979,-86 3565.979,-122"/>
<text text-anchor="middle" x="3481" y="-99.8" font-family="Times,serif" font-size="14.00" fill="#000000">ScrollContainerComponent</text>
</g>
<!-- ScrollContainerModule -->
<g id="node44" class="node">
<title>ScrollContainerModule</title>
<polygon fill="#8dd3c7" stroke="#000000" points="3555.1965,-190 3552.1965,-194 3531.1965,-194 3528.1965,-190 3406.8035,-190 3406.8035,-154 3555.1965,-154 3555.1965,-190"/>
<text text-anchor="middle" x="3481" y="-167.8" font-family="Times,serif" font-size="14.00" fill="#000000">ScrollContainerModule</text>
</g>
<!-- ScrollContainerComponent&#45;&gt;ScrollContainerModule -->
<g id="edge33" class="edge">
<title>ScrollContainerComponent&#45;&gt;ScrollContainerModule</title>
<path fill="none" stroke="#000000" d="M3481,-122.2228C3481,-122.2228 3481,-143.7269 3481,-143.7269"/>
<polygon fill="#000000" stroke="#000000" points="3477.5001,-143.7269 3481,-153.7269 3484.5001,-143.727 3477.5001,-143.7269"/>
</g>
<!-- ScrollContainerComponent  -->
<g id="node45" class="node">
<title>ScrollContainerComponent </title>
<polygon fill="#fb8072" stroke="#000000" points="3567.9797,-258 3394.0203,-258 3394.0203,-222 3567.9797,-222 3567.9797,-258"/>
<text text-anchor="middle" x="3481" y="-235.8" font-family="Times,serif" font-size="14.00" fill="#000000">ScrollContainerComponent </text>
</g>
<!-- ScrollContainerModule&#45;&gt;ScrollContainerComponent  -->
<g id="edge34" class="edge">
<title>ScrollContainerModule&#45;&gt;ScrollContainerComponent </title>
<path fill="none" stroke="#000000" stroke-dasharray="5,2" d="M3481,-190.2228C3481,-190.2228 3481,-211.7269 3481,-211.7269"/>
<polygon fill="#000000" stroke="#000000" points="3477.5001,-211.7269 3481,-221.7269 3484.5001,-211.727 3477.5001,-211.7269"/>
</g>
<!-- SectionTitleComponent -->
<g id="node46" class="node">
<title>SectionTitleComponent</title>
<polygon fill="#ffffb3" stroke="#000000" points="1311.7646,-190 1162.2354,-190 1162.2354,-154 1311.7646,-154 1311.7646,-190"/>
<text text-anchor="middle" x="1237" y="-167.8" font-family="Times,serif" font-size="14.00" fill="#000000">SectionTitleComponent</text>
</g>
<!-- SectionTitleComponent&#45;&gt;SectionTitleModule -->
<g id="edge35" class="edge">
<title>SectionTitleComponent&#45;&gt;SectionTitleModule</title>
<path fill="none" stroke="#000000" d="M1237,-153.7772C1237,-133.6348 1237,-104 1237,-104 1237,-104 954.2368,-104 954.2368,-104"/>
<polygon fill="#000000" stroke="#000000" points="954.2368,-100.5001 944.2368,-104 954.2367,-107.5001 954.2368,-100.5001"/>
</g>
<!-- SlideToggleComponent -->
<g id="node48" class="node">
<title>SlideToggleComponent</title>
<polygon fill="#ffffb3" stroke="#000000" points="3965.7688,-122 3816.2312,-122 3816.2312,-86 3965.7688,-86 3965.7688,-122"/>
<text text-anchor="middle" x="3891" y="-99.8" font-family="Times,serif" font-size="14.00" fill="#000000">SlideToggleComponent</text>
</g>
<!-- SlideToggleModule -->
<g id="node50" class="node">
<title>SlideToggleModule</title>
<polygon fill="#8dd3c7" stroke="#000000" points="3769.986,-190 3766.986,-194 3745.986,-194 3742.986,-190 3642.014,-190 3642.014,-154 3769.986,-154 3769.986,-190"/>
<text text-anchor="middle" x="3706" y="-167.8" font-family="Times,serif" font-size="14.00" fill="#000000">SlideToggleModule</text>
</g>
<!-- SlideToggleComponent&#45;&gt;SlideToggleModule -->
<g id="edge37" class="edge">
<title>SlideToggleComponent&#45;&gt;SlideToggleModule</title>
<path fill="none" stroke="#000000" d="M3915.9614,-122.2667C3915.9614,-140.5552 3915.9614,-166 3915.9614,-166 3915.9614,-166 3780.1362,-166 3780.1362,-166"/>
<polygon fill="#000000" stroke="#000000" points="3780.1363,-162.5001 3770.1362,-166 3780.1362,-169.5001 3780.1363,-162.5001"/>
</g>
<!-- SlideToggleGroupComponent -->
<g id="node49" class="node">
<title>SlideToggleGroupComponent</title>
<polygon fill="#ffffb3" stroke="#000000" points="3797.5364,-122 3612.4636,-122 3612.4636,-86 3797.5364,-86 3797.5364,-122"/>
<text text-anchor="middle" x="3705" y="-99.8" font-family="Times,serif" font-size="14.00" fill="#000000">SlideToggleGroupComponent</text>
</g>
<!-- SlideToggleGroupComponent&#45;&gt;SlideToggleModule -->
<g id="edge38" class="edge">
<title>SlideToggleGroupComponent&#45;&gt;SlideToggleModule</title>
<path fill="none" stroke="#000000" d="M3706,-122.2228C3706,-122.2228 3706,-143.7269 3706,-143.7269"/>
<polygon fill="#000000" stroke="#000000" points="3702.5001,-143.7269 3706,-153.7269 3709.5001,-143.727 3702.5001,-143.7269"/>
</g>
<!-- SlideToggleComponent  -->
<g id="node51" class="node">
<title>SlideToggleComponent </title>
<polygon fill="#fb8072" stroke="#000000" points="3968.7688,-258 3815.2312,-258 3815.2312,-222 3968.7688,-222 3968.7688,-258"/>
<text text-anchor="middle" x="3892" y="-235.8" font-family="Times,serif" font-size="14.00" fill="#000000">SlideToggleComponent </text>
</g>
<!-- SlideToggleModule&#45;&gt;SlideToggleComponent  -->
<g id="edge39" class="edge">
<title>SlideToggleModule&#45;&gt;SlideToggleComponent </title>
<path fill="none" stroke="#000000" stroke-dasharray="5,2" d="M3770.1717,-178C3814.6956,-178 3866.0386,-178 3866.0386,-178 3866.0386,-178 3866.0386,-211.7333 3866.0386,-211.7333"/>
<polygon fill="#000000" stroke="#000000" points="3862.5387,-211.7333 3866.0386,-221.7333 3869.5387,-211.7333 3862.5387,-211.7333"/>
</g>
<!-- SlideToggleGroupComponent  -->
<g id="node52" class="node">
<title>SlideToggleGroupComponent </title>
<polygon fill="#fb8072" stroke="#000000" points="3797.5358,-258 3608.4642,-258 3608.4642,-222 3797.5358,-222 3797.5358,-258"/>
<text text-anchor="middle" x="3703" y="-235.8" font-family="Times,serif" font-size="14.00" fill="#000000">SlideToggleGroupComponent </text>
</g>
<!-- SlideToggleModule&#45;&gt;SlideToggleGroupComponent  -->
<g id="edge40" class="edge">
<title>SlideToggleModule&#45;&gt;SlideToggleGroupComponent </title>
<path fill="none" stroke="#000000" stroke-dasharray="5,2" d="M3706,-190.2228C3706,-190.2228 3706,-211.7269 3706,-211.7269"/>
<polygon fill="#000000" stroke="#000000" points="3702.5001,-211.7269 3706,-221.7269 3709.5001,-211.727 3702.5001,-211.7269"/>
</g>
<!-- UiIconComponent -->
<g id="node53" class="node">
<title>UiIconComponent</title>
<polygon fill="#ffffb3" stroke="#000000" points="4131.205,-122 4010.795,-122 4010.795,-86 4131.205,-86 4131.205,-122"/>
<text text-anchor="middle" x="4071" y="-99.8" font-family="Times,serif" font-size="14.00" fill="#000000">UiIconComponent</text>
</g>
<!-- UiIconModule -->
<g id="node54" class="node">
<title>UiIconModule</title>
<polygon fill="#8dd3c7" stroke="#000000" points="4120.4231,-190 4117.4231,-194 4096.4231,-194 4093.4231,-190 4021.5769,-190 4021.5769,-154 4120.4231,-154 4120.4231,-190"/>
<text text-anchor="middle" x="4071" y="-167.8" font-family="Times,serif" font-size="14.00" fill="#000000">UiIconModule</text>
</g>
<!-- UiIconComponent&#45;&gt;UiIconModule -->
<g id="edge41" class="edge">
<title>UiIconComponent&#45;&gt;UiIconModule</title>
<path fill="none" stroke="#000000" d="M4071,-122.2228C4071,-122.2228 4071,-143.7269 4071,-143.7269"/>
<polygon fill="#000000" stroke="#000000" points="4067.5001,-143.7269 4071,-153.7269 4074.5001,-143.727 4067.5001,-143.7269"/>
</g>
<!-- UiIconComponent  -->
<g id="node55" class="node">
<title>UiIconComponent </title>
<polygon fill="#fb8072" stroke="#000000" points="4132.7052,-258 4009.2948,-258 4009.2948,-222 4132.7052,-222 4132.7052,-258"/>
<text text-anchor="middle" x="4071" y="-235.8" font-family="Times,serif" font-size="14.00" fill="#000000">UiIconComponent </text>
</g>
<!-- UiIconModule&#45;&gt;UiIconComponent  -->
<g id="edge42" class="edge">
<title>UiIconModule&#45;&gt;UiIconComponent </title>
<path fill="none" stroke="#000000" stroke-dasharray="5,2" d="M4071,-190.2228C4071,-190.2228 4071,-211.7269 4071,-211.7269"/>
<polygon fill="#000000" stroke="#000000" points="4067.5001,-211.7269 4071,-221.7269 4074.5001,-211.727 4067.5001,-211.7269"/>
</g>
</g>
</svg>
