<?xml version="1.0" encoding="UTF-8" standalone="no"?>
<!DOCTYPE svg PUBLIC "-//W3C//DTD SVG 1.1//EN"
 "http://www.w3.org/Graphics/SVG/1.1/DTD/svg11.dtd">
<!-- Generated by graphviz version 2.40.1 (20161225.0304)
 -->
<!-- Title: dependencies Pages: 1 -->
<svg width="623pt" height="284pt"
 viewBox="0.00 0.00 623.00 284.00" xmlns="http://www.w3.org/2000/svg" xmlns:xlink="http://www.w3.org/1999/xlink">
<g id="graph0" class="graph" transform="scale(1 1) rotate(0) translate(4 280)">
<title>dependencies</title>
<polygon fill="#ffffff" stroke="transparent" points="-4,4 -4,-280 619,-280 619,4 -4,4"/>
<text text-anchor="start" x="286.5091" y="-42.4" font-family="sans-serif" font-weight="bold" font-size="14.00" fill="#000000">Legend</text>
<polygon fill="#ffffb3" stroke="transparent" points="73.5,-10 73.5,-30 93.5,-30 93.5,-10 73.5,-10"/>
<text text-anchor="start" x="97.129" y="-15.4" font-family="sans-serif" font-size="14.00" fill="#000000"> &#160;Declarations</text>
<polygon fill="#8dd3c7" stroke="transparent" points="186.5,-10 186.5,-30 206.5,-30 206.5,-10 186.5,-10"/>
<text text-anchor="start" x="210.2251" y="-15.4" font-family="sans-serif" font-size="14.00" fill="#000000"> &#160;Module</text>
<polygon fill="#80b1d3" stroke="transparent" points="272.5,-10 272.5,-30 292.5,-30 292.5,-10 272.5,-10"/>
<text text-anchor="start" x="296.2812" y="-15.4" font-family="sans-serif" font-size="14.00" fill="#000000"> &#160;Bootstrap</text>
<polygon fill="#fdb462" stroke="transparent" points="369.5,-10 369.5,-30 389.5,-30 389.5,-10 369.5,-10"/>
<text text-anchor="start" x="393.1732" y="-15.4" font-family="sans-serif" font-size="14.00" fill="#000000"> &#160;Providers</text>
<polygon fill="#fb8072" stroke="transparent" points="465.5,-10 465.5,-30 485.5,-30 485.5,-10 465.5,-10"/>
<text text-anchor="start" x="489.2258" y="-15.4" font-family="sans-serif" font-size="14.00" fill="#000000"> &#160;Exports</text>
<g id="clust1" class="cluster">
<title>cluster_EnhancedTitleModule</title>
<polygon fill="none" stroke="#000000" stroke-dasharray="1,5" points="8,-70 8,-268 206,-268 206,-70 8,-70"/>
</g>
<g id="clust2" class="cluster">
<title>cluster_EnhancedTitleModule_declarations</title>
<polygon fill="none" stroke="#000000" points="18,-78 18,-130 196,-130 196,-78 18,-78"/>
</g>
<g id="clust5" class="cluster">
<title>cluster_EnhancedTitleModule_exports</title>
<polygon fill="none" stroke="#000000" points="16,-208 16,-260 198,-260 198,-208 16,-208"/>
</g>
<g id="clust8" class="cluster">
<title>cluster_SlideToggleModule</title>
<polygon fill="none" stroke="#000000" stroke-dasharray="1,5" points="214,-70 214,-268 607,-268 607,-70 214,-70"/>
</g>
<g id="clust9" class="cluster">
<title>cluster_SlideToggleModule_declarations</title>
<polygon fill="none" stroke="#000000" points="226,-78 226,-130 596,-130 596,-78 226,-78"/>
</g>
<g id="clust13" class="cluster">
<title>cluster_SlideToggleModule_exports</title>
<polygon fill="none" stroke="#000000" points="222,-208 222,-260 599,-260 599,-208 222,-208"/>
</g>
<!-- EnhancedTitleComponent -->
<g id="node1" class="node">
<title>EnhancedTitleComponent</title>
<polygon fill="#ffffb3" stroke="#000000" points="188.4678,-122 25.5322,-122 25.5322,-86 188.4678,-86 188.4678,-122"/>
<text text-anchor="middle" x="107" y="-99.8" font-family="Times,serif" font-size="14.00" fill="#000000">EnhancedTitleComponent</text>
</g>
<!-- EnhancedTitleModule -->
<g id="node2" class="node">
<title>EnhancedTitleModule</title>
<polygon fill="#8dd3c7" stroke="#000000" points="177.6853,-187 174.6853,-191 153.6853,-191 150.6853,-187 36.3147,-187 36.3147,-151 177.6853,-151 177.6853,-187"/>
<text text-anchor="middle" x="107" y="-164.8" font-family="Times,serif" font-size="14.00" fill="#000000">EnhancedTitleModule</text>
</g>
<!-- EnhancedTitleComponent&#45;&gt;EnhancedTitleModule -->
<g id="edge1" class="edge">
<title>EnhancedTitleComponent&#45;&gt;EnhancedTitleModule</title>
<path fill="none" stroke="#000000" d="M107,-122.1061C107,-122.1061 107,-140.991 107,-140.991"/>
<polygon fill="#000000" stroke="#000000" points="103.5001,-140.9909 107,-150.991 110.5001,-140.991 103.5001,-140.9909"/>
</g>
<!-- EnhancedTitleComponent  -->
<g id="node3" class="node">
<title>EnhancedTitleComponent </title>
<polygon fill="#fb8072" stroke="#000000" points="190.4685,-252 23.5315,-252 23.5315,-216 190.4685,-216 190.4685,-252"/>
<text text-anchor="middle" x="107" y="-229.8" font-family="Times,serif" font-size="14.00" fill="#000000">EnhancedTitleComponent </text>
</g>
<!-- EnhancedTitleModule&#45;&gt;EnhancedTitleComponent  -->
<g id="edge2" class="edge">
<title>EnhancedTitleModule&#45;&gt;EnhancedTitleComponent </title>
<path fill="none" stroke="#000000" stroke-dasharray="5,2" d="M107,-187.1061C107,-187.1061 107,-205.991 107,-205.991"/>
<polygon fill="#000000" stroke="#000000" points="103.5001,-205.9909 107,-215.991 110.5001,-205.991 103.5001,-205.9909"/>
</g>
<!-- SlideToggleComponent -->
<g id="node4" class="node">
<title>SlideToggleComponent</title>
<polygon fill="#ffffb3" stroke="#000000" points="587.7688,-122 438.2312,-122 438.2312,-86 587.7688,-86 587.7688,-122"/>
<text text-anchor="middle" x="513" y="-99.8" font-family="Times,serif" font-size="14.00" fill="#000000">SlideToggleComponent</text>
</g>
<!-- SlideToggleModule -->
<g id="node6" class="node">
<title>SlideToggleModule</title>
<polygon fill="#8dd3c7" stroke="#000000" points="391.986,-187 388.986,-191 367.986,-191 364.986,-187 264.014,-187 264.014,-151 391.986,-151 391.986,-187"/>
<text text-anchor="middle" x="328" y="-164.8" font-family="Times,serif" font-size="14.00" fill="#000000">SlideToggleModule</text>
</g>
<!-- SlideToggleComponent&#45;&gt;SlideToggleModule -->
<g id="edge3" class="edge">
<title>SlideToggleComponent&#45;&gt;SlideToggleModule</title>
<path fill="none" stroke="#000000" d="M537.9614,-122.0225C537.9614,-139.3734 537.9614,-163 537.9614,-163 537.9614,-163 402.1362,-163 402.1362,-163"/>
<polygon fill="#000000" stroke="#000000" points="402.1363,-159.5001 392.1362,-163 402.1362,-166.5001 402.1363,-159.5001"/>
</g>
<!-- SlideToggleGroupComponent -->
<g id="node5" class="node">
<title>SlideToggleGroupComponent</title>
<polygon fill="#ffffb3" stroke="#000000" points="419.5364,-122 234.4636,-122 234.4636,-86 419.5364,-86 419.5364,-122"/>
<text text-anchor="middle" x="327" y="-99.8" font-family="Times,serif" font-size="14.00" fill="#000000">SlideToggleGroupComponent</text>
</g>
<!-- SlideToggleGroupComponent&#45;&gt;SlideToggleModule -->
<g id="edge4" class="edge">
<title>SlideToggleGroupComponent&#45;&gt;SlideToggleModule</title>
<path fill="none" stroke="#000000" d="M328,-122.1061C328,-122.1061 328,-140.991 328,-140.991"/>
<polygon fill="#000000" stroke="#000000" points="324.5001,-140.9909 328,-150.991 331.5001,-140.991 324.5001,-140.9909"/>
</g>
<!-- SlideToggleComponent  -->
<g id="node7" class="node">
<title>SlideToggleComponent </title>
<polygon fill="#fb8072" stroke="#000000" points="590.7688,-252 437.2312,-252 437.2312,-216 590.7688,-216 590.7688,-252"/>
<text text-anchor="middle" x="514" y="-229.8" font-family="Times,serif" font-size="14.00" fill="#000000">SlideToggleComponent </text>
</g>
<!-- SlideToggleModule&#45;&gt;SlideToggleComponent  -->
<g id="edge5" class="edge">
<title>SlideToggleModule&#45;&gt;SlideToggleComponent </title>
<path fill="none" stroke="#000000" stroke-dasharray="5,2" d="M392.1717,-175C436.6956,-175 488.0386,-175 488.0386,-175 488.0386,-175 488.0386,-205.9775 488.0386,-205.9775"/>
<polygon fill="#000000" stroke="#000000" points="484.5387,-205.9774 488.0386,-215.9775 491.5387,-205.9775 484.5387,-205.9774"/>
</g>
<!-- SlideToggleGroupComponent  -->
<g id="node8" class="node">
<title>SlideToggleGroupComponent </title>
<polygon fill="#fb8072" stroke="#000000" points="419.5358,-252 230.4642,-252 230.4642,-216 419.5358,-216 419.5358,-252"/>
<text text-anchor="middle" x="325" y="-229.8" font-family="Times,serif" font-size="14.00" fill="#000000">SlideToggleGroupComponent </text>
</g>
<!-- SlideToggleModule&#45;&gt;SlideToggleGroupComponent  -->
<g id="edge6" class="edge">
<title>SlideToggleModule&#45;&gt;SlideToggleGroupComponent </title>
<path fill="none" stroke="#000000" stroke-dasharray="5,2" d="M328,-187.1061C328,-187.1061 328,-205.991 328,-205.991"/>
<polygon fill="#000000" stroke="#000000" points="324.5001,-205.9909 328,-215.991 331.5001,-205.991 324.5001,-205.9909"/>
</g>
</g>
</svg>
