<?xml version="1.0" encoding="UTF-8" standalone="no"?>
<!DOCTYPE svg PUBLIC "-//W3C//DTD SVG 1.1//EN"
 "http://www.w3.org/Graphics/SVG/1.1/DTD/svg11.dtd">
<!-- Generated by graphviz version 2.40.1 (20161225.0304)
 -->
<!-- Title: dependencies Pages: 1 -->
<svg width="504pt" height="284pt"
 viewBox="0.00 0.00 504.00 284.00" xmlns="http://www.w3.org/2000/svg" xmlns:xlink="http://www.w3.org/1999/xlink">
<g id="graph0" class="graph" transform="scale(1 1) rotate(0) translate(4 280)">
<title>dependencies</title>
<polygon fill="#ffffff" stroke="transparent" points="-4,4 -4,-280 500,-280 500,4 -4,4"/>
<text text-anchor="start" x="227.0091" y="-42.4" font-family="sans-serif" font-weight="bold" font-size="14.00" fill="#000000">Legend</text>
<polygon fill="#ffffb3" stroke="transparent" points="14,-10 14,-30 34,-30 34,-10 14,-10"/>
<text text-anchor="start" x="37.629" y="-15.4" font-family="sans-serif" font-size="14.00" fill="#000000"> &#160;Declarations</text>
<polygon fill="#8dd3c7" stroke="transparent" points="127,-10 127,-30 147,-30 147,-10 127,-10"/>
<text text-anchor="start" x="150.7251" y="-15.4" font-family="sans-serif" font-size="14.00" fill="#000000"> &#160;Module</text>
<polygon fill="#80b1d3" stroke="transparent" points="213,-10 213,-30 233,-30 233,-10 213,-10"/>
<text text-anchor="start" x="236.7812" y="-15.4" font-family="sans-serif" font-size="14.00" fill="#000000"> &#160;Bootstrap</text>
<polygon fill="#fdb462" stroke="transparent" points="310,-10 310,-30 330,-30 330,-10 310,-10"/>
<text text-anchor="start" x="333.6732" y="-15.4" font-family="sans-serif" font-size="14.00" fill="#000000"> &#160;Providers</text>
<polygon fill="#fb8072" stroke="transparent" points="406,-10 406,-30 426,-30 426,-10 406,-10"/>
<text text-anchor="start" x="429.7258" y="-15.4" font-family="sans-serif" font-size="14.00" fill="#000000"> &#160;Exports</text>
<g id="clust1" class="cluster">
<title>cluster_LoadingModule</title>
<polygon fill="none" stroke="#000000" stroke-dasharray="1,5" points="104,-70 104,-268 392,-268 392,-70 104,-70"/>
</g>
<g id="clust2" class="cluster">
<title>cluster_LoadingModule_declarations</title>
<polygon fill="none" stroke="#000000" points="240,-78 240,-130 384,-130 384,-78 240,-78"/>
</g>
<g id="clust4" class="cluster">
<title>cluster_LoadingModule_imports</title>
<polygon fill="none" stroke="#000000" points="112,-78 112,-130 232,-130 232,-78 112,-78"/>
</g>
<g id="clust5" class="cluster">
<title>cluster_LoadingModule_exports</title>
<polygon fill="none" stroke="#000000" points="174,-208 174,-260 322,-260 322,-208 174,-208"/>
</g>
<!-- LoadingComponent -->
<g id="node1" class="node">
<title>LoadingComponent</title>
<polygon fill="#ffffb3" stroke="#000000" points="375.9902,-122 248.0098,-122 248.0098,-86 375.9902,-86 375.9902,-122"/>
<text text-anchor="middle" x="312" y="-99.8" font-family="Times,serif" font-size="14.00" fill="#000000">LoadingComponent</text>
</g>
<!-- LoadingModule -->
<g id="node2" class="node">
<title>LoadingModule</title>
<polygon fill="#8dd3c7" stroke="#000000" points="301.2078,-187 298.2078,-191 277.2078,-191 274.2078,-187 194.7922,-187 194.7922,-151 301.2078,-151 301.2078,-187"/>
<text text-anchor="middle" x="248" y="-164.8" font-family="Times,serif" font-size="14.00" fill="#000000">LoadingModule</text>
</g>
<!-- LoadingComponent&#45;&gt;LoadingModule -->
<g id="edge1" class="edge">
<title>LoadingComponent&#45;&gt;LoadingModule</title>
<path fill="none" stroke="#000000" d="M274.5544,-122.1061C274.5544,-122.1061 274.5544,-140.991 274.5544,-140.991"/>
<polygon fill="#000000" stroke="#000000" points="271.0544,-140.9909 274.5544,-150.991 278.0544,-140.991 271.0544,-140.9909"/>
</g>
<!-- LoadingComponent  -->
<g id="node4" class="node">
<title>LoadingComponent </title>
<polygon fill="#fb8072" stroke="#000000" points="313.9911,-252 182.0089,-252 182.0089,-216 313.9911,-216 313.9911,-252"/>
<text text-anchor="middle" x="248" y="-229.8" font-family="Times,serif" font-size="14.00" fill="#000000">LoadingComponent </text>
</g>
<!-- LoadingModule&#45;&gt;LoadingComponent  -->
<g id="edge3" class="edge">
<title>LoadingModule&#45;&gt;LoadingComponent </title>
<path fill="none" stroke="#000000" stroke-dasharray="5,2" d="M248,-187.1061C248,-187.1061 248,-205.991 248,-205.991"/>
<polygon fill="#000000" stroke="#000000" points="244.5001,-205.9909 248,-215.991 251.5001,-205.991 244.5001,-205.9909"/>
</g>
<!-- SpinnerModule -->
<g id="node3" class="node">
<title>SpinnerModule</title>
<polygon fill="#8dd3c7" stroke="#000000" points="223.5982,-122 220.5982,-126 199.5982,-126 196.5982,-122 120.4018,-122 120.4018,-86 223.5982,-86 223.5982,-122"/>
<text text-anchor="middle" x="172" y="-99.8" font-family="Times,serif" font-size="14.00" fill="#000000">SpinnerModule</text>
</g>
<!-- SpinnerModule&#45;&gt;LoadingModule -->
<g id="edge2" class="edge">
<title>SpinnerModule&#45;&gt;LoadingModule</title>
<path fill="none" stroke="#000000" d="M209.2226,-122.1061C209.2226,-122.1061 209.2226,-140.991 209.2226,-140.991"/>
<polygon fill="#000000" stroke="#000000" points="205.7227,-140.9909 209.2226,-150.991 212.7227,-140.991 205.7227,-140.9909"/>
</g>
</g>
</svg>
