<?xml version="1.0" encoding="UTF-8" standalone="no"?>
<!DOCTYPE svg PUBLIC "-//W3C//DTD SVG 1.1//EN"
 "http://www.w3.org/Graphics/SVG/1.1/DTD/svg11.dtd">
<!-- Generated by graphviz version 2.40.1 (20161225.0304)
 -->
<!-- Title: dependencies Pages: 1 -->
<svg width="504pt" height="284pt"
 viewBox="0.00 0.00 504.00 284.00" xmlns="http://www.w3.org/2000/svg" xmlns:xlink="http://www.w3.org/1999/xlink">
<g id="graph0" class="graph" transform="scale(1 1) rotate(0) translate(4 280)">
<title>dependencies</title>
<polygon fill="#ffffff" stroke="transparent" points="-4,4 -4,-280 500,-280 500,4 -4,4"/>
<text text-anchor="start" x="227.0091" y="-42.4" font-family="sans-serif" font-weight="bold" font-size="14.00" fill="#000000">Legend</text>
<polygon fill="#ffffb3" stroke="transparent" points="14,-10 14,-30 34,-30 34,-10 14,-10"/>
<text text-anchor="start" x="37.629" y="-15.4" font-family="sans-serif" font-size="14.00" fill="#000000"> &#160;Declarations</text>
<polygon fill="#8dd3c7" stroke="transparent" points="127,-10 127,-30 147,-30 147,-10 127,-10"/>
<text text-anchor="start" x="150.7251" y="-15.4" font-family="sans-serif" font-size="14.00" fill="#000000"> &#160;Module</text>
<polygon fill="#80b1d3" stroke="transparent" points="213,-10 213,-30 233,-30 233,-10 213,-10"/>
<text text-anchor="start" x="236.7812" y="-15.4" font-family="sans-serif" font-size="14.00" fill="#000000"> &#160;Bootstrap</text>
<polygon fill="#fdb462" stroke="transparent" points="310,-10 310,-30 330,-30 330,-10 310,-10"/>
<text text-anchor="start" x="333.6732" y="-15.4" font-family="sans-serif" font-size="14.00" fill="#000000"> &#160;Providers</text>
<polygon fill="#fb8072" stroke="transparent" points="406,-10 406,-30 426,-30 426,-10 406,-10"/>
<text text-anchor="start" x="429.7258" y="-15.4" font-family="sans-serif" font-size="14.00" fill="#000000"> &#160;Exports</text>
<g id="clust1" class="cluster">
<title>cluster_CountdownButtonModule</title>
<polygon fill="none" stroke="#000000" stroke-dasharray="1,5" points="79,-70 79,-268 417,-268 417,-70 79,-70"/>
</g>
<g id="clust2" class="cluster">
<title>cluster_CountdownButtonModule_declarations</title>
<polygon fill="none" stroke="#000000" points="209,-78 209,-130 409,-130 409,-78 209,-78"/>
</g>
<g id="clust4" class="cluster">
<title>cluster_CountdownButtonModule_imports</title>
<polygon fill="none" stroke="#000000" points="87,-78 87,-130 201,-130 201,-78 87,-78"/>
</g>
<g id="clust5" class="cluster">
<title>cluster_CountdownButtonModule_exports</title>
<polygon fill="none" stroke="#000000" points="146,-208 146,-260 350,-260 350,-208 146,-208"/>
</g>
<!-- CountdownButtonComponent -->
<g id="node1" class="node">
<title>CountdownButtonComponent</title>
<polygon fill="#ffffb3" stroke="#000000" points="401.2841,-122 216.7159,-122 216.7159,-86 401.2841,-86 401.2841,-122"/>
<text text-anchor="middle" x="309" y="-99.8" font-family="Times,serif" font-size="14.00" fill="#000000">CountdownButtonComponent</text>
</g>
<!-- CountdownButtonModule -->
<g id="node2" class="node">
<title>CountdownButtonModule</title>
<polygon fill="#8dd3c7" stroke="#000000" points="329.5014,-187 326.5014,-191 305.5014,-191 302.5014,-187 166.4986,-187 166.4986,-151 329.5014,-151 329.5014,-187"/>
<text text-anchor="middle" x="248" y="-164.8" font-family="Times,serif" font-size="14.00" fill="#000000">CountdownButtonModule</text>
</g>
<!-- CountdownButtonComponent&#45;&gt;CountdownButtonModule -->
<g id="edge1" class="edge">
<title>CountdownButtonComponent&#45;&gt;CountdownButtonModule</title>
<path fill="none" stroke="#000000" d="M273.0544,-122.1061C273.0544,-122.1061 273.0544,-140.991 273.0544,-140.991"/>
<polygon fill="#000000" stroke="#000000" points="269.5544,-140.9909 273.0544,-150.991 276.5544,-140.991 269.5544,-140.9909"/>
</g>
<!-- CountdownButtonComponent  -->
<g id="node4" class="node">
<title>CountdownButtonComponent </title>
<polygon fill="#fb8072" stroke="#000000" points="342.2842,-252 153.7158,-252 153.7158,-216 342.2842,-216 342.2842,-252"/>
<text text-anchor="middle" x="248" y="-229.8" font-family="Times,serif" font-size="14.00" fill="#000000">CountdownButtonComponent </text>
</g>
<!-- CountdownButtonModule&#45;&gt;CountdownButtonComponent  -->
<g id="edge3" class="edge">
<title>CountdownButtonModule&#45;&gt;CountdownButtonComponent </title>
<path fill="none" stroke="#000000" stroke-dasharray="5,2" d="M248,-187.1061C248,-187.1061 248,-205.991 248,-205.991"/>
<polygon fill="#000000" stroke="#000000" points="244.5001,-205.9909 248,-215.991 251.5001,-205.991 244.5001,-205.9909"/>
</g>
<!-- ButtonModule -->
<g id="node3" class="node">
<title>ButtonModule</title>
<polygon fill="#8dd3c7" stroke="#000000" points="192.6682,-122 189.6682,-126 168.6682,-126 165.6682,-122 95.3318,-122 95.3318,-86 192.6682,-86 192.6682,-122"/>
<text text-anchor="middle" x="144" y="-99.8" font-family="Times,serif" font-size="14.00" fill="#000000">ButtonModule</text>
</g>
<!-- ButtonModule&#45;&gt;CountdownButtonModule -->
<g id="edge2" class="edge">
<title>ButtonModule&#45;&gt;CountdownButtonModule</title>
<path fill="none" stroke="#000000" d="M179.6666,-122.1061C179.6666,-122.1061 179.6666,-140.991 179.6666,-140.991"/>
<polygon fill="#000000" stroke="#000000" points="176.1666,-140.9909 179.6666,-150.991 183.1666,-140.991 176.1666,-140.9909"/>
</g>
</g>
</svg>
