<?xml version="1.0" encoding="UTF-8" standalone="no"?>
<!DOCTYPE svg PUBLIC "-//W3C//DTD SVG 1.1//EN"
 "http://www.w3.org/Graphics/SVG/1.1/DTD/svg11.dtd">
<!-- Generated by graphviz version 2.40.1 (20161225.0304)
 -->
<!-- Title: dependencies Pages: 1 -->
<svg width="504pt" height="284pt"
 viewBox="0.00 0.00 504.00 284.00" xmlns="http://www.w3.org/2000/svg" xmlns:xlink="http://www.w3.org/1999/xlink">
<g id="graph0" class="graph" transform="scale(1 1) rotate(0) translate(4 280)">
<title>dependencies</title>
<polygon fill="#ffffff" stroke="transparent" points="-4,4 -4,-280 500,-280 500,4 -4,4"/>
<text text-anchor="start" x="227.0091" y="-42.4" font-family="sans-serif" font-weight="bold" font-size="14.00" fill="#000000">Legend</text>
<polygon fill="#ffffb3" stroke="transparent" points="14,-10 14,-30 34,-30 34,-10 14,-10"/>
<text text-anchor="start" x="37.629" y="-15.4" font-family="sans-serif" font-size="14.00" fill="#000000"> &#160;Declarations</text>
<polygon fill="#8dd3c7" stroke="transparent" points="127,-10 127,-30 147,-30 147,-10 127,-10"/>
<text text-anchor="start" x="150.7251" y="-15.4" font-family="sans-serif" font-size="14.00" fill="#000000"> &#160;Module</text>
<polygon fill="#80b1d3" stroke="transparent" points="213,-10 213,-30 233,-30 233,-10 213,-10"/>
<text text-anchor="start" x="236.7812" y="-15.4" font-family="sans-serif" font-size="14.00" fill="#000000"> &#160;Bootstrap</text>
<polygon fill="#fdb462" stroke="transparent" points="310,-10 310,-30 330,-30 330,-10 310,-10"/>
<text text-anchor="start" x="333.6732" y="-15.4" font-family="sans-serif" font-size="14.00" fill="#000000"> &#160;Providers</text>
<polygon fill="#fb8072" stroke="transparent" points="406,-10 406,-30 426,-30 426,-10 406,-10"/>
<text text-anchor="start" x="429.7258" y="-15.4" font-family="sans-serif" font-size="14.00" fill="#000000"> &#160;Exports</text>
<g id="clust1" class="cluster">
<title>cluster_SortHeaderModule</title>
<polygon fill="none" stroke="#000000" stroke-dasharray="1,5" points="105,-70 105,-268 391,-268 391,-70 105,-70"/>
</g>
<g id="clust2" class="cluster">
<title>cluster_SortHeaderModule_declarations</title>
<polygon fill="none" stroke="#000000" points="221,-78 221,-130 383,-130 383,-78 221,-78"/>
</g>
<g id="clust4" class="cluster">
<title>cluster_SortHeaderModule_imports</title>
<polygon fill="none" stroke="#000000" points="113,-78 113,-130 213,-130 213,-78 113,-78"/>
</g>
<g id="clust5" class="cluster">
<title>cluster_SortHeaderModule_exports</title>
<polygon fill="none" stroke="#000000" points="166,-208 166,-260 330,-260 330,-208 166,-208"/>
</g>
<!-- SortHeaderComponent -->
<g id="node1" class="node">
<title>SortHeaderComponent</title>
<polygon fill="#ffffb3" stroke="#000000" points="374.5772,-122 229.4228,-122 229.4228,-86 374.5772,-86 374.5772,-122"/>
<text text-anchor="middle" x="302" y="-99.8" font-family="Times,serif" font-size="14.00" fill="#000000">SortHeaderComponent</text>
</g>
<!-- SortHeaderModule -->
<g id="node2" class="node">
<title>SortHeaderModule</title>
<polygon fill="#8dd3c7" stroke="#000000" points="309.795,-187 306.795,-191 285.795,-191 282.795,-187 186.205,-187 186.205,-151 309.795,-151 309.795,-187"/>
<text text-anchor="middle" x="248" y="-164.8" font-family="Times,serif" font-size="14.00" fill="#000000">SortHeaderModule</text>
</g>
<!-- SortHeaderComponent&#45;&gt;SortHeaderModule -->
<g id="edge1" class="edge">
<title>SortHeaderComponent&#45;&gt;SortHeaderModule</title>
<path fill="none" stroke="#000000" d="M269.5544,-122.1061C269.5544,-122.1061 269.5544,-140.991 269.5544,-140.991"/>
<polygon fill="#000000" stroke="#000000" points="266.0544,-140.9909 269.5544,-150.991 273.0544,-140.991 266.0544,-140.9909"/>
</g>
<!-- SortHeaderComponent  -->
<g id="node4" class="node">
<title>SortHeaderComponent </title>
<polygon fill="#fb8072" stroke="#000000" points="322.0778,-252 173.9222,-252 173.9222,-216 322.0778,-216 322.0778,-252"/>
<text text-anchor="middle" x="248" y="-229.8" font-family="Times,serif" font-size="14.00" fill="#000000">SortHeaderComponent </text>
</g>
<!-- SortHeaderModule&#45;&gt;SortHeaderComponent  -->
<g id="edge3" class="edge">
<title>SortHeaderModule&#45;&gt;SortHeaderComponent </title>
<path fill="none" stroke="#000000" stroke-dasharray="5,2" d="M248,-187.1061C248,-187.1061 248,-205.991 248,-205.991"/>
<polygon fill="#000000" stroke="#000000" points="244.5001,-205.9909 248,-215.991 251.5001,-205.991 244.5001,-205.9909"/>
</g>
<!-- IconModule -->
<g id="node3" class="node">
<title>IconModule</title>
<polygon fill="#8dd3c7" stroke="#000000" points="205.4261,-122 202.4261,-126 181.4261,-126 178.4261,-122 120.5739,-122 120.5739,-86 205.4261,-86 205.4261,-122"/>
<text text-anchor="middle" x="163" y="-99.8" font-family="Times,serif" font-size="14.00" fill="#000000">IconModule</text>
</g>
<!-- IconModule&#45;&gt;SortHeaderModule -->
<g id="edge2" class="edge">
<title>IconModule&#45;&gt;SortHeaderModule</title>
<path fill="none" stroke="#000000" d="M195.7826,-122.1061C195.7826,-122.1061 195.7826,-140.991 195.7826,-140.991"/>
<polygon fill="#000000" stroke="#000000" points="192.2827,-140.9909 195.7826,-150.991 199.2827,-140.991 192.2827,-140.9909"/>
</g>
</g>
</svg>
