<?xml version="1.0" encoding="UTF-8" standalone="no"?>
<!DOCTYPE svg PUBLIC "-//W3C//DTD SVG 1.1//EN"
 "http://www.w3.org/Graphics/SVG/1.1/DTD/svg11.dtd">
<!-- Generated by graphviz version 2.40.1 (20161225.0304)
 -->
<!-- Title: dependencies Pages: 1 -->
<svg width="570pt" height="284pt"
 viewBox="0.00 0.00 570.00 284.00" xmlns="http://www.w3.org/2000/svg" xmlns:xlink="http://www.w3.org/1999/xlink">
<g id="graph0" class="graph" transform="scale(1 1) rotate(0) translate(4 280)">
<title>dependencies</title>
<polygon fill="#ffffff" stroke="transparent" points="-4,4 -4,-280 566,-280 566,4 -4,4"/>
<text text-anchor="start" x="260.0091" y="-42.4" font-family="sans-serif" font-weight="bold" font-size="14.00" fill="#000000">Legend</text>
<polygon fill="#ffffb3" stroke="transparent" points="47,-10 47,-30 67,-30 67,-10 47,-10"/>
<text text-anchor="start" x="70.629" y="-15.4" font-family="sans-serif" font-size="14.00" fill="#000000"> &#160;Declarations</text>
<polygon fill="#8dd3c7" stroke="transparent" points="160,-10 160,-30 180,-30 180,-10 160,-10"/>
<text text-anchor="start" x="183.7251" y="-15.4" font-family="sans-serif" font-size="14.00" fill="#000000"> &#160;Module</text>
<polygon fill="#80b1d3" stroke="transparent" points="246,-10 246,-30 266,-30 266,-10 246,-10"/>
<text text-anchor="start" x="269.7812" y="-15.4" font-family="sans-serif" font-size="14.00" fill="#000000"> &#160;Bootstrap</text>
<polygon fill="#fdb462" stroke="transparent" points="343,-10 343,-30 363,-30 363,-10 343,-10"/>
<text text-anchor="start" x="366.6732" y="-15.4" font-family="sans-serif" font-size="14.00" fill="#000000"> &#160;Providers</text>
<polygon fill="#fb8072" stroke="transparent" points="439,-10 439,-30 459,-30 459,-10 439,-10"/>
<text text-anchor="start" x="462.7258" y="-15.4" font-family="sans-serif" font-size="14.00" fill="#000000"> &#160;Exports</text>
<g id="clust1" class="cluster">
<title>cluster_DirectivesModule</title>
<polygon fill="none" stroke="#000000" stroke-dasharray="1,5" points="8,-70 8,-268 554,-268 554,-70 8,-70"/>
</g>
<g id="clust2" class="cluster">
<title>cluster_DirectivesModule_declarations</title>
<polygon fill="none" stroke="#000000" points="21,-78 21,-130 541,-130 541,-78 21,-78"/>
</g>
<g id="clust7" class="cluster">
<title>cluster_DirectivesModule_exports</title>
<polygon fill="none" stroke="#000000" points="16,-208 16,-260 546,-260 546,-208 16,-208"/>
</g>
<!-- CancelableRouterLinkWithHrefDirective -->
<g id="node1" class="node">
<title>CancelableRouterLinkWithHrefDirective</title>
<polygon fill="#ffffb3" stroke="#000000" points="533.4578,-122 284.5422,-122 284.5422,-86 533.4578,-86 533.4578,-122"/>
<text text-anchor="middle" x="409" y="-99.8" font-family="Times,serif" font-size="14.00" fill="#000000">CancelableRouterLinkWithHrefDirective</text>
</g>
<!-- DirectivesModule -->
<g id="node4" class="node">
<title>DirectivesModule</title>
<polygon fill="#8dd3c7" stroke="#000000" points="274.5772,-187 271.5772,-191 250.5772,-191 247.5772,-187 157.4228,-187 157.4228,-151 274.5772,-151 274.5772,-187"/>
<text text-anchor="middle" x="216" y="-164.8" font-family="Times,serif" font-size="14.00" fill="#000000">DirectivesModule</text>
</g>
<!-- CancelableRouterLinkWithHrefDirective&#45;&gt;DirectivesModule -->
<g id="edge1" class="edge">
<title>CancelableRouterLinkWithHrefDirective&#45;&gt;DirectivesModule</title>
<path fill="none" stroke="#000000" d="M284.6778,-104C276.0345,-104 270.6508,-104 270.6508,-104 270.6508,-104 270.6508,-140.8939 270.6508,-140.8939"/>
<polygon fill="#000000" stroke="#000000" points="267.1509,-140.8938 270.6508,-150.8939 274.1509,-140.8939 267.1509,-140.8938"/>
</g>
<!-- TippyDirective -->
<g id="node2" class="node">
<title>TippyDirective</title>
<polygon fill="#ffffb3" stroke="#000000" points="266.5271,-122 165.4729,-122 165.4729,-86 266.5271,-86 266.5271,-122"/>
<text text-anchor="middle" x="216" y="-99.8" font-family="Times,serif" font-size="14.00" fill="#000000">TippyDirective</text>
</g>
<!-- TippyDirective&#45;&gt;DirectivesModule -->
<g id="edge2" class="edge">
<title>TippyDirective&#45;&gt;DirectivesModule</title>
<path fill="none" stroke="#000000" d="M216,-122.1061C216,-122.1061 216,-140.991 216,-140.991"/>
<polygon fill="#000000" stroke="#000000" points="212.5001,-140.9909 216,-150.991 219.5001,-140.991 212.5001,-140.9909"/>
</g>
<!-- TruncateDirective -->
<g id="node3" class="node">
<title>TruncateDirective</title>
<polygon fill="#ffffb3" stroke="#000000" points="146.8305,-122 29.1695,-122 29.1695,-86 146.8305,-86 146.8305,-122"/>
<text text-anchor="middle" x="88" y="-99.8" font-family="Times,serif" font-size="14.00" fill="#000000">TruncateDirective</text>
</g>
<!-- TruncateDirective&#45;&gt;DirectivesModule -->
<g id="edge3" class="edge">
<title>TruncateDirective&#45;&gt;DirectivesModule</title>
<path fill="none" stroke="#000000" d="M146.8578,-104C155.3849,-104 161.3492,-104 161.3492,-104 161.3492,-104 161.3492,-140.8939 161.3492,-140.8939"/>
<polygon fill="#000000" stroke="#000000" points="157.8493,-140.8938 161.3492,-150.8939 164.8493,-140.8939 157.8493,-140.8938"/>
</g>
<!-- CancelableRouterLinkWithHrefDirective  -->
<g id="node5" class="node">
<title>CancelableRouterLinkWithHrefDirective </title>
<polygon fill="#fb8072" stroke="#000000" points="537.9574,-252 286.0426,-252 286.0426,-216 537.9574,-216 537.9574,-252"/>
<text text-anchor="middle" x="412" y="-229.8" font-family="Times,serif" font-size="14.00" fill="#000000">CancelableRouterLinkWithHrefDirective </text>
</g>
<!-- DirectivesModule&#45;&gt;CancelableRouterLinkWithHrefDirective  -->
<g id="edge4" class="edge">
<title>DirectivesModule&#45;&gt;CancelableRouterLinkWithHrefDirective </title>
<path fill="none" stroke="#000000" stroke-dasharray="5,2" d="M274.6193,-169C331.6082,-169 409.625,-169 409.625,-169 409.625,-169 409.625,-205.8939 409.625,-205.8939"/>
<polygon fill="#000000" stroke="#000000" points="406.1251,-205.8938 409.625,-215.8939 413.1251,-205.8939 406.1251,-205.8938"/>
</g>
<!-- TippyDirective  -->
<g id="node6" class="node">
<title>TippyDirective </title>
<polygon fill="#fb8072" stroke="#000000" points="268.526,-252 163.474,-252 163.474,-216 268.526,-216 268.526,-252"/>
<text text-anchor="middle" x="216" y="-229.8" font-family="Times,serif" font-size="14.00" fill="#000000">TippyDirective </text>
</g>
<!-- DirectivesModule&#45;&gt;TippyDirective  -->
<g id="edge5" class="edge">
<title>DirectivesModule&#45;&gt;TippyDirective </title>
<path fill="none" stroke="#000000" stroke-dasharray="5,2" d="M216,-187.1061C216,-187.1061 216,-205.991 216,-205.991"/>
<polygon fill="#000000" stroke="#000000" points="212.5001,-205.9909 216,-215.991 219.5001,-205.991 212.5001,-205.9909"/>
</g>
<!-- TruncateDirective  -->
<g id="node7" class="node">
<title>TruncateDirective </title>
<polygon fill="#fb8072" stroke="#000000" points="145.8309,-252 24.1691,-252 24.1691,-216 145.8309,-216 145.8309,-252"/>
<text text-anchor="middle" x="85" y="-229.8" font-family="Times,serif" font-size="14.00" fill="#000000">TruncateDirective </text>
</g>
<!-- DirectivesModule&#45;&gt;TruncateDirective  -->
<g id="edge6" class="edge">
<title>DirectivesModule&#45;&gt;TruncateDirective </title>
<path fill="none" stroke="#000000" stroke-dasharray="5,2" d="M157.3335,-169C123.41,-169 87.375,-169 87.375,-169 87.375,-169 87.375,-205.8939 87.375,-205.8939"/>
<polygon fill="#000000" stroke="#000000" points="83.8751,-205.8938 87.375,-215.8939 90.8751,-205.8939 83.8751,-205.8938"/>
</g>
</g>
</svg>
