<?xml version="1.0" encoding="UTF-8"?>
<svg width="24px" height="24px" viewBox="0 0 24 24" version="1.1" xmlns="http://www.w3.org/2000/svg" xmlns:xlink="http://www.w3.org/1999/xlink">
    <!-- Generator: Sketch 49.2 (51160) - http://www.bohemiancoding.com/sketch -->
    <title>Icons / Platform / Information@2x</title>
    <desc>Created with Sketch.</desc>
    <defs>
        <path d="M12.0014472,2 C17.5154614,2 22.0009648,6.4855034 22.0009648,12.0004824 C22.0009648,17.5144966 17.5154614,22 12.0014472,22 C6.48646823,22 2,17.5144966 2,12.0004824 C2,6.4855034 6.48646823,2 12.0014472,2 Z M20.9190627,12.0004961 C20.9190627,7.08232164 16.9186432,3.08190217 12.0014609,3.08190217 C7.08328647,3.08190217 3.082867,7.08232164 3.082867,12.0004961 C3.082867,16.9176784 7.08328647,20.9180978 12.0014609,20.9180978 C16.9186432,20.9180978 20.9190627,16.9176784 20.9190627,12.0004961 Z M12.8291765,6 C13.5395033,6 14.1217826,6.58362716 14.1217826,7.29395399 C14.1217826,8.00428081 13.5395033,8.57038568 12.8291765,8.57038568 C12.1188497,8.57038568 11.5527448,8.00428081 11.5527448,7.29395399 C11.5527448,6.58362716 12.1188497,6 12.8291765,6 Z M13.5570256,9.44380463 L12.392467,14.9404133 C12.3452916,15.1506809 12.3277693,15.3110772 12.3277693,15.4579949 C12.3277693,15.9108788 12.5380368,16.0551008 12.9909207,16.0551008 C13.2820604,16.0551008 13.4114558,16.0079254 13.5085023,15.9594021 C13.4262823,17.1064384 12.6027345,17.62402 11.7306635,17.62402 C10.760198,17.62402 10,17.0417407 10,15.6844369 C10,15.3771228 10.0485233,15.0199376 10.1293954,14.6330993 L11.2292563,9.44380463 L13.5570256,9.44380463 Z" id="path-1"></path>
    </defs>
    <g id="Icons-/-Platform-/-Information" stroke="none" stroke-width="1" fill="none" fill-rule="evenodd">
        <mask id="mask-2" fill="white">
            <use xlink:href="#path-1"></use>
        </mask>
        <use id="Information" fill="#D8D8D8" xlink:href="#path-1"></use>
        <g id="Icons-/-XColor-/-Gray-/-ExtraDark" mask="url(#mask-2)" fill="#2D2D2D">
            <rect id="IconColor-/-Gray" x="0" y="0" width="24" height="24"></rect>
        </g>
    </g>
</svg>