<?xml version="1.0" encoding="UTF-8"?>
<svg width="24px" height="24px" viewBox="0 0 24 24" version="1.1" xmlns="http://www.w3.org/2000/svg" xmlns:xlink="http://www.w3.org/1999/xlink">
    <!-- Generator: sketchtool 50.2 (55047) - http://www.bohemiancoding.com/sketch -->
    <title>832C2A4B-B649-4225-B09E-D00C75A0DC45</title>
    <desc>Created with sketchtool.</desc>
    <defs>
        <path d="M17.391,14.4232697 L17.391,21.58957 L17.365,21.6147217 L6.375,21.58957 L6.401,14.398118 L17.391,14.4232697 Z M17.365,13.0128397 L6.401,13.0128397 C5.597,13.0128397 4.943,13.6455017 4.943,14.4232697 L4.943,17.483071 L3.433,17.4627561 L3.458,9.40453786 L20.333,9.42872219 L20.333,17.4627561 L18.823,17.4869405 L18.823,14.4232697 C18.823,13.6455017 18.169,13.0128397 17.365,13.0128397 Z M6.945,8.01829215 L6.945,2.40946267 L6.971,2.38527834 L16.821,2.40946267 L16.821,8.01829215 L6.945,8.01829215 Z M20.308,8.01829215 L18.253,8.01829215 L18.253,2.40946267 C18.253,1.63169466 17.599,1 16.795,1 L6.971,1 C6.167,1 5.513,1.63169466 5.513,2.40946267 L5.513,8.01829215 L3.458,8.01829215 C2.654,8.01829215 2,8.65095418 2,9.42872219 L2,17.4627561 C2,18.2395568 2.654,18.8731862 3.458,18.8731862 L4.943,18.8731862 L4.943,21.58957 C4.943,22.367338 5.597,23 6.401,23 L17.365,23 C18.169,23 18.823,22.367338 18.823,21.58957 L18.823,18.8731862 L20.308,18.8731862 C21.112,18.8731862 21.766,18.2395568 21.766,17.4627561 L21.766,9.42872219 C21.766,8.65095418 21.112,8.01829215 20.308,8.01829215 Z" id="path-1"></path>
    </defs>
    <g id="Symbols" stroke="none" stroke-width="1" fill="none" fill-rule="evenodd">
        <g id="Icons-/-Archives-/-Print">
            <mask id="mask-2" fill="white">
                <use xlink:href="#path-1"></use>
            </mask>
            <use id="Print" fill="#000000" xlink:href="#path-1"></use>
            <g id="Icons-/-XColor-/-Gray-/-ExtraDark" mask="url(#mask-2)" fill="#2D2D2D">
                <rect id="IconColor-/-Gray" x="0" y="0" width="24" height="24"></rect>
            </g>
        </g>
    </g>
</svg>