<svg xmlns="http://www.w3.org/2000/svg" width="26" height="26" viewBox="0 0 26 26">
    <path fill="#FFF" fill-rule="evenodd" d="M22.652 20.287a2.38 2.38 0 0 1-2.38 2.38H5.697a2.38 2.38 0 0 1-2.38-2.38v-9.733h3.52a6.479 6.479 0 0 0-.35 2.087A6.518 6.518 0 0 0 13 19.15c3.59 0 6.511-2.92 6.511-6.51 0-.73-.126-1.431-.349-2.087h3.49v9.733zM13 8.092a4.553 4.553 0 0 1 4.548 4.549A4.553 4.553 0 0 1 13 17.188a4.553 4.553 0 0 1-4.548-4.547A4.553 4.553 0 0 1 13 8.092zm5.06-.257h3.988V3.847H18.06v3.988zm2.592-6.616H5.348a4.13 4.13 0 0 0-4.13 4.13v15.303a4.13 4.13 0 0 0 4.13 4.13h15.304a4.13 4.13 0 0 0 4.13-4.13V5.348a4.13 4.13 0 0 0-4.13-4.13z"/>
</svg>
