<svg xmlns="http://www.w3.org/2000/svg" width="26" height="26" viewBox="0 0 26 26">
    <path fill="#FFF" fill-rule="evenodd" d="M18.735 8.396c5.328 0 6.046 3.85 6.046 7.618v8.336c0 .21-.17.38-.38.38H19.68a.38.38 0 0 1-.38-.38l-.001-7.587c-.011-1.97-.214-3.453-2.076-3.453-1.766 0-2.454.987-2.454 3.52v7.52c0 .21-.17.38-.38.38h-4.72a.38.38 0 0 1-.38-.38V9.152c0-.21.17-.38.38-.38h4.53c.21 0 .38.17.38.38v.987c.852-.928 2.256-1.744 4.156-1.744zm-12.031.377c.21 0 .38.17.38.38V24.35c0 .21-.17.38-.38.38h-4.73a.38.38 0 0 1-.38-.38V9.153c0-.21.17-.38.38-.38zM4.34 1.219c1.72 0 3.119 1.399 3.119 3.118 0 1.72-1.399 3.12-3.119 3.12a3.124 3.124 0 0 1-3.121-3.12c0-1.719 1.4-3.118 3.121-3.118z"/>
</svg>
