<svg xmlns="http://www.w3.org/2000/svg" width="26" height="26" viewBox="0 0 26 26">
    <path fill="#FFF" fill-rule="evenodd" d="M24.781 5.515a9.63 9.63 0 0 1-2.775.76 4.852 4.852 0 0 0 2.124-2.671 9.749 9.749 0 0 1-3.07 1.173 4.834 4.834 0 0 0-8.237 4.407 13.724 13.724 0 0 1-9.963-5.05 4.797 4.797 0 0 0-.653 2.43 4.83 4.83 0 0 0 2.15 4.021 4.827 4.827 0 0 1-2.19-.606v.06a4.838 4.838 0 0 0 3.877 4.74c-.405.109-.832.169-1.274.169-.312 0-.614-.03-.91-.09a4.835 4.835 0 0 0 4.515 3.357 9.698 9.698 0 0 1-6.003 2.066c-.39 0-.775-.023-1.153-.066a13.664 13.664 0 0 0 7.409 2.175c8.891 0 13.752-7.365 13.752-13.752l-.016-.626a9.655 9.655 0 0 0 2.417-2.497"/>
</svg>
