<?xml version="1.0" encoding="UTF-8" standalone="no"?>
<!DOCTYPE svg PUBLIC "-//W3C//DTD SVG 1.1//EN"
 "http://www.w3.org/Graphics/SVG/1.1/DTD/svg11.dtd">
<!-- Generated by graphviz version 2.40.1 (20161225.0304)
 -->
<!-- Title: dependencies Pages: 1 -->
<svg width="504pt" height="211pt"
 viewBox="0.00 0.00 504.00 211.00" xmlns="http://www.w3.org/2000/svg" xmlns:xlink="http://www.w3.org/1999/xlink">
<g id="graph0" class="graph" transform="scale(1 1) rotate(0) translate(4 207)">
<title>dependencies</title>
<polygon fill="#ffffff" stroke="transparent" points="-4,4 -4,-207 500,-207 500,4 -4,4"/>
<text text-anchor="start" x="227.0091" y="-42.4" font-family="sans-serif" font-weight="bold" font-size="14.00" fill="#000000">Legend</text>
<polygon fill="#ffffb3" stroke="transparent" points="14,-10 14,-30 34,-30 34,-10 14,-10"/>
<text text-anchor="start" x="37.629" y="-15.4" font-family="sans-serif" font-size="14.00" fill="#000000"> &#160;Declarations</text>
<polygon fill="#8dd3c7" stroke="transparent" points="127,-10 127,-30 147,-30 147,-10 127,-10"/>
<text text-anchor="start" x="150.7251" y="-15.4" font-family="sans-serif" font-size="14.00" fill="#000000"> &#160;Module</text>
<polygon fill="#80b1d3" stroke="transparent" points="213,-10 213,-30 233,-30 233,-10 213,-10"/>
<text text-anchor="start" x="236.7812" y="-15.4" font-family="sans-serif" font-size="14.00" fill="#000000"> &#160;Bootstrap</text>
<polygon fill="#fdb462" stroke="transparent" points="310,-10 310,-30 330,-30 330,-10 310,-10"/>
<text text-anchor="start" x="333.6732" y="-15.4" font-family="sans-serif" font-size="14.00" fill="#000000"> &#160;Providers</text>
<polygon fill="#fb8072" stroke="transparent" points="406,-10 406,-30 426,-30 426,-10 406,-10"/>
<text text-anchor="start" x="429.7258" y="-15.4" font-family="sans-serif" font-size="14.00" fill="#000000"> &#160;Exports</text>
<g id="clust1" class="cluster">
<title>cluster_PopoverModule</title>
<polygon fill="none" stroke="#000000" stroke-dasharray="1,5" points="84,-70 84,-195 412,-195 412,-70 84,-70"/>
</g>
<g id="clust2" class="cluster">
<title>cluster_PopoverModule_declarations</title>
<polygon fill="none" stroke="#000000" points="260,-78 260,-130 404,-130 404,-78 260,-78"/>
</g>
<g id="clust7" class="cluster">
<title>cluster_PopoverModule_providers</title>
<polygon fill="none" stroke="#000000" points="92,-78 92,-130 252,-130 252,-78 92,-78"/>
</g>
<!-- PopoverComponent -->
<g id="node1" class="node">
<title>PopoverComponent</title>
<polygon fill="#ffffb3" stroke="#000000" points="395.9902,-122 268.0098,-122 268.0098,-86 395.9902,-86 395.9902,-122"/>
<text text-anchor="middle" x="332" y="-99.8" font-family="Times,serif" font-size="14.00" fill="#000000">PopoverComponent</text>
</g>
<!-- PopoverModule -->
<g id="node2" class="node">
<title>PopoverModule</title>
<polygon fill="#8dd3c7" stroke="#000000" points="305.2078,-187 302.2078,-191 281.2078,-191 278.2078,-187 198.7922,-187 198.7922,-151 305.2078,-151 305.2078,-187"/>
<text text-anchor="middle" x="252" y="-164.8" font-family="Times,serif" font-size="14.00" fill="#000000">PopoverModule</text>
</g>
<!-- PopoverComponent&#45;&gt;PopoverModule -->
<g id="edge1" class="edge">
<title>PopoverComponent&#45;&gt;PopoverModule</title>
<path fill="none" stroke="#000000" d="M286.5544,-122.1061C286.5544,-122.1061 286.5544,-140.991 286.5544,-140.991"/>
<polygon fill="#000000" stroke="#000000" points="283.0544,-140.9909 286.5544,-150.991 290.0544,-140.991 283.0544,-140.9909"/>
</g>
<!-- PopoverService -->
<g id="node3" class="node">
<title>PopoverService</title>
<ellipse fill="#fdb462" stroke="#000000" cx="172" cy="-104" rx="72.3516" ry="18"/>
<text text-anchor="middle" x="172" y="-99.8" font-family="Times,serif" font-size="14.00" fill="#000000">PopoverService</text>
</g>
<!-- PopoverService&#45;&gt;PopoverModule -->
<g id="edge2" class="edge">
<title>PopoverService&#45;&gt;PopoverModule</title>
<path fill="none" stroke="#000000" d="M221.5359,-117.1537C221.5359,-117.1537 221.5359,-140.6938 221.5359,-140.6938"/>
<polygon fill="#000000" stroke="#000000" points="218.036,-140.6938 221.5359,-150.6938 225.036,-140.6939 218.036,-140.6938"/>
</g>
</g>
</svg>
