<?xml version="1.0" encoding="UTF-8" standalone="no"?>
<!DOCTYPE svg PUBLIC "-//W3C//DTD SVG 1.1//EN"
 "http://www.w3.org/Graphics/SVG/1.1/DTD/svg11.dtd">
<!-- Generated by graphviz version 2.40.1 (20161225.0304)
 -->
<!-- Title: dependencies Pages: 1 -->
<svg width="504pt" height="284pt"
 viewBox="0.00 0.00 504.00 284.00" xmlns="http://www.w3.org/2000/svg" xmlns:xlink="http://www.w3.org/1999/xlink">
<g id="graph0" class="graph" transform="scale(1 1) rotate(0) translate(4 280)">
<title>dependencies</title>
<polygon fill="#ffffff" stroke="transparent" points="-4,4 -4,-280 500,-280 500,4 -4,4"/>
<text text-anchor="start" x="227.0091" y="-42.4" font-family="sans-serif" font-weight="bold" font-size="14.00" fill="#000000">Legend</text>
<polygon fill="#ffffb3" stroke="transparent" points="14,-10 14,-30 34,-30 34,-10 14,-10"/>
<text text-anchor="start" x="37.629" y="-15.4" font-family="sans-serif" font-size="14.00" fill="#000000"> &#160;Declarations</text>
<polygon fill="#8dd3c7" stroke="transparent" points="127,-10 127,-30 147,-30 147,-10 127,-10"/>
<text text-anchor="start" x="150.7251" y="-15.4" font-family="sans-serif" font-size="14.00" fill="#000000"> &#160;Module</text>
<polygon fill="#80b1d3" stroke="transparent" points="213,-10 213,-30 233,-30 233,-10 213,-10"/>
<text text-anchor="start" x="236.7812" y="-15.4" font-family="sans-serif" font-size="14.00" fill="#000000"> &#160;Bootstrap</text>
<polygon fill="#fdb462" stroke="transparent" points="310,-10 310,-30 330,-30 330,-10 310,-10"/>
<text text-anchor="start" x="333.6732" y="-15.4" font-family="sans-serif" font-size="14.00" fill="#000000"> &#160;Providers</text>
<polygon fill="#fb8072" stroke="transparent" points="406,-10 406,-30 426,-30 426,-10 406,-10"/>
<text text-anchor="start" x="429.7258" y="-15.4" font-family="sans-serif" font-size="14.00" fill="#000000"> &#160;Exports</text>
<g id="clust1" class="cluster">
<title>cluster_TooltipModule</title>
<polygon fill="none" stroke="#000000" stroke-dasharray="1,5" points="169,-70 169,-268 327,-268 327,-70 169,-70"/>
</g>
<g id="clust2" class="cluster">
<title>cluster_TooltipModule_declarations</title>
<polygon fill="none" stroke="#000000" points="179,-78 179,-130 317,-130 317,-78 179,-78"/>
</g>
<g id="clust5" class="cluster">
<title>cluster_TooltipModule_exports</title>
<polygon fill="none" stroke="#000000" points="177,-208 177,-260 319,-260 319,-208 177,-208"/>
</g>
<!-- TooltipComponent -->
<g id="node1" class="node">
<title>TooltipComponent</title>
<polygon fill="#ffffb3" stroke="#000000" points="309.0576,-122 186.9424,-122 186.9424,-86 309.0576,-86 309.0576,-122"/>
<text text-anchor="middle" x="248" y="-99.8" font-family="Times,serif" font-size="14.00" fill="#000000">TooltipComponent</text>
</g>
<!-- TooltipModule -->
<g id="node2" class="node">
<title>TooltipModule</title>
<polygon fill="#8dd3c7" stroke="#000000" points="298.2745,-187 295.2745,-191 274.2745,-191 271.2745,-187 197.7255,-187 197.7255,-151 298.2745,-151 298.2745,-187"/>
<text text-anchor="middle" x="248" y="-164.8" font-family="Times,serif" font-size="14.00" fill="#000000">TooltipModule</text>
</g>
<!-- TooltipComponent&#45;&gt;TooltipModule -->
<g id="edge1" class="edge">
<title>TooltipComponent&#45;&gt;TooltipModule</title>
<path fill="none" stroke="#000000" d="M248,-122.1061C248,-122.1061 248,-140.991 248,-140.991"/>
<polygon fill="#000000" stroke="#000000" points="244.5001,-140.9909 248,-150.991 251.5001,-140.991 244.5001,-140.9909"/>
</g>
<!-- TooltipComponent  -->
<g id="node3" class="node">
<title>TooltipComponent </title>
<polygon fill="#fb8072" stroke="#000000" points="311.0568,-252 184.9432,-252 184.9432,-216 311.0568,-216 311.0568,-252"/>
<text text-anchor="middle" x="248" y="-229.8" font-family="Times,serif" font-size="14.00" fill="#000000">TooltipComponent </text>
</g>
<!-- TooltipModule&#45;&gt;TooltipComponent  -->
<g id="edge2" class="edge">
<title>TooltipModule&#45;&gt;TooltipComponent </title>
<path fill="none" stroke="#000000" stroke-dasharray="5,2" d="M248,-187.1061C248,-187.1061 248,-205.991 248,-205.991"/>
<polygon fill="#000000" stroke="#000000" points="244.5001,-205.9909 248,-215.991 251.5001,-205.991 244.5001,-205.9909"/>
</g>
</g>
</svg>
