<?xml version="1.0" encoding="UTF-8" standalone="no"?>
<!DOCTYPE svg PUBLIC "-//W3C//DTD SVG 1.1//EN"
 "http://www.w3.org/Graphics/SVG/1.1/DTD/svg11.dtd">
<!-- Generated by graphviz version 2.40.1 (20161225.0304)
 -->
<!-- Title: dependencies Pages: 1 -->
<svg width="504pt" height="284pt"
 viewBox="0.00 0.00 504.00 284.00" xmlns="http://www.w3.org/2000/svg" xmlns:xlink="http://www.w3.org/1999/xlink">
<g id="graph0" class="graph" transform="scale(1 1) rotate(0) translate(4 280)">
<title>dependencies</title>
<polygon fill="#ffffff" stroke="transparent" points="-4,4 -4,-280 500,-280 500,4 -4,4"/>
<text text-anchor="start" x="227.0091" y="-42.4" font-family="sans-serif" font-weight="bold" font-size="14.00" fill="#000000">Legend</text>
<polygon fill="#ffffb3" stroke="transparent" points="14,-10 14,-30 34,-30 34,-10 14,-10"/>
<text text-anchor="start" x="37.629" y="-15.4" font-family="sans-serif" font-size="14.00" fill="#000000"> &#160;Declarations</text>
<polygon fill="#8dd3c7" stroke="transparent" points="127,-10 127,-30 147,-30 147,-10 127,-10"/>
<text text-anchor="start" x="150.7251" y="-15.4" font-family="sans-serif" font-size="14.00" fill="#000000"> &#160;Module</text>
<polygon fill="#80b1d3" stroke="transparent" points="213,-10 213,-30 233,-30 233,-10 213,-10"/>
<text text-anchor="start" x="236.7812" y="-15.4" font-family="sans-serif" font-size="14.00" fill="#000000"> &#160;Bootstrap</text>
<polygon fill="#fdb462" stroke="transparent" points="310,-10 310,-30 330,-30 330,-10 310,-10"/>
<text text-anchor="start" x="333.6732" y="-15.4" font-family="sans-serif" font-size="14.00" fill="#000000"> &#160;Providers</text>
<polygon fill="#fb8072" stroke="transparent" points="406,-10 406,-30 426,-30 426,-10 406,-10"/>
<text text-anchor="start" x="429.7258" y="-15.4" font-family="sans-serif" font-size="14.00" fill="#000000"> &#160;Exports</text>
<g id="clust1" class="cluster">
<title>cluster_PipesModule</title>
<polygon fill="none" stroke="#000000" stroke-dasharray="1,5" points="39,-70 39,-268 457,-268 457,-70 39,-70"/>
</g>
<g id="clust2" class="cluster">
<title>cluster_PipesModule_declarations</title>
<polygon fill="none" stroke="#000000" points="53,-78 53,-130 444,-130 444,-78 53,-78"/>
</g>
<g id="clust7" class="cluster">
<title>cluster_PipesModule_exports</title>
<polygon fill="none" stroke="#000000" points="47,-208 47,-260 449,-260 449,-208 47,-208"/>
</g>
<!-- BigCurrencyPipe -->
<g id="node1" class="node">
<title>BigCurrencyPipe</title>
<polygon fill="#ffffb3" stroke="#000000" points="435.7022,-122 322.2978,-122 322.2978,-86 435.7022,-86 435.7022,-122"/>
<text text-anchor="middle" x="379" y="-99.8" font-family="Times,serif" font-size="14.00" fill="#000000">BigCurrencyPipe</text>
</g>
<!-- PipesModule -->
<g id="node4" class="node">
<title>PipesModule</title>
<polygon fill="#8dd3c7" stroke="#000000" points="303.8823,-187 300.8823,-191 279.8823,-191 276.8823,-187 214.1177,-187 214.1177,-151 303.8823,-151 303.8823,-187"/>
<text text-anchor="middle" x="259" y="-164.8" font-family="Times,serif" font-size="14.00" fill="#000000">PipesModule</text>
</g>
<!-- BigCurrencyPipe&#45;&gt;PipesModule -->
<g id="edge1" class="edge">
<title>BigCurrencyPipe&#45;&gt;PipesModule</title>
<path fill="none" stroke="#000000" d="M398.617,-122.0225C398.617,-139.3734 398.617,-163 398.617,-163 398.617,-163 313.9442,-163 313.9442,-163"/>
<polygon fill="#000000" stroke="#000000" points="313.9442,-159.5001 303.9442,-163 313.9442,-166.5001 313.9442,-159.5001"/>
</g>
<!-- CssClassPipe -->
<g id="node2" class="node">
<title>CssClassPipe</title>
<polygon fill="#ffffb3" stroke="#000000" points="304.9457,-122 213.0543,-122 213.0543,-86 304.9457,-86 304.9457,-122"/>
<text text-anchor="middle" x="259" y="-99.8" font-family="Times,serif" font-size="14.00" fill="#000000">CssClassPipe</text>
</g>
<!-- CssClassPipe&#45;&gt;PipesModule -->
<g id="edge2" class="edge">
<title>CssClassPipe&#45;&gt;PipesModule</title>
<path fill="none" stroke="#000000" d="M259,-122.1061C259,-122.1061 259,-140.991 259,-140.991"/>
<polygon fill="#000000" stroke="#000000" points="255.5001,-140.9909 259,-150.991 262.5001,-140.991 255.5001,-140.9909"/>
</g>
<!-- PastPeriodColonPipe -->
<g id="node3" class="node">
<title>PastPeriodColonPipe</title>
<polygon fill="#ffffb3" stroke="#000000" points="195.4958,-122 60.5042,-122 60.5042,-86 195.4958,-86 195.4958,-122"/>
<text text-anchor="middle" x="128" y="-99.8" font-family="Times,serif" font-size="14.00" fill="#000000">PastPeriodColonPipe</text>
</g>
<!-- PastPeriodColonPipe&#45;&gt;PipesModule -->
<g id="edge3" class="edge">
<title>PastPeriodColonPipe&#45;&gt;PipesModule</title>
<path fill="none" stroke="#000000" d="M148.9993,-122.0225C148.9993,-139.3734 148.9993,-163 148.9993,-163 148.9993,-163 203.9411,-163 203.9411,-163"/>
<polygon fill="#000000" stroke="#000000" points="203.9412,-166.5001 213.9411,-163 203.9411,-159.5001 203.9412,-166.5001"/>
</g>
<!-- BigCurrencyPipe  -->
<g id="node5" class="node">
<title>BigCurrencyPipe </title>
<polygon fill="#fb8072" stroke="#000000" points="441.2024,-252 324.7976,-252 324.7976,-216 441.2024,-216 441.2024,-252"/>
<text text-anchor="middle" x="383" y="-229.8" font-family="Times,serif" font-size="14.00" fill="#000000">BigCurrencyPipe </text>
</g>
<!-- PipesModule&#45;&gt;BigCurrencyPipe  -->
<g id="edge4" class="edge">
<title>PipesModule&#45;&gt;BigCurrencyPipe </title>
<path fill="none" stroke="#000000" stroke-dasharray="5,2" d="M304.0163,-175C331.5925,-175 361.633,-175 361.633,-175 361.633,-175 361.633,-205.9775 361.633,-205.9775"/>
<polygon fill="#000000" stroke="#000000" points="358.1331,-205.9774 361.633,-215.9775 365.1331,-205.9775 358.1331,-205.9774"/>
</g>
<!-- CssClassPipe  -->
<g id="node6" class="node">
<title>CssClassPipe </title>
<polygon fill="#fb8072" stroke="#000000" points="306.4446,-252 211.5554,-252 211.5554,-216 306.4446,-216 306.4446,-252"/>
<text text-anchor="middle" x="259" y="-229.8" font-family="Times,serif" font-size="14.00" fill="#000000">CssClassPipe </text>
</g>
<!-- PipesModule&#45;&gt;CssClassPipe  -->
<g id="edge5" class="edge">
<title>PipesModule&#45;&gt;CssClassPipe </title>
<path fill="none" stroke="#000000" stroke-dasharray="5,2" d="M259,-187.1061C259,-187.1061 259,-205.991 259,-205.991"/>
<polygon fill="#000000" stroke="#000000" points="255.5001,-205.9909 259,-215.991 262.5001,-205.991 255.5001,-205.9909"/>
</g>
<!-- PastPeriodColonPipe  -->
<g id="node7" class="node">
<title>PastPeriodColonPipe </title>
<polygon fill="#fb8072" stroke="#000000" points="193.4967,-252 54.5033,-252 54.5033,-216 193.4967,-216 193.4967,-252"/>
<text text-anchor="middle" x="124" y="-229.8" font-family="Times,serif" font-size="14.00" fill="#000000">PastPeriodColonPipe </text>
</g>
<!-- PipesModule&#45;&gt;PastPeriodColonPipe  -->
<g id="edge6" class="edge">
<title>PipesModule&#45;&gt;PastPeriodColonPipe </title>
<path fill="none" stroke="#000000" stroke-dasharray="5,2" d="M213.9701,-175C168.4413,-175 104.7507,-175 104.7507,-175 104.7507,-175 104.7507,-205.9775 104.7507,-205.9775"/>
<polygon fill="#000000" stroke="#000000" points="101.2508,-205.9774 104.7507,-215.9775 108.2508,-205.9775 101.2508,-205.9774"/>
</g>
</g>
</svg>
