<?xml version="1.0" encoding="UTF-8" standalone="no"?>
<!DOCTYPE svg PUBLIC "-//W3C//DTD SVG 1.1//EN"
 "http://www.w3.org/Graphics/SVG/1.1/DTD/svg11.dtd">
<!-- Generated by graphviz version 2.40.1 (20161225.0304)
 -->
<!-- Title: dependencies Pages: 1 -->
<svg width="563pt" height="284pt"
 viewBox="0.00 0.00 563.00 284.00" xmlns="http://www.w3.org/2000/svg" xmlns:xlink="http://www.w3.org/1999/xlink">
<g id="graph0" class="graph" transform="scale(1 1) rotate(0) translate(4 280)">
<title>dependencies</title>
<polygon fill="#ffffff" stroke="transparent" points="-4,4 -4,-280 559,-280 559,4 -4,4"/>
<text text-anchor="start" x="256.5091" y="-42.4" font-family="sans-serif" font-weight="bold" font-size="14.00" fill="#000000">Legend</text>
<polygon fill="#ffffb3" stroke="transparent" points="43.5,-10 43.5,-30 63.5,-30 63.5,-10 43.5,-10"/>
<text text-anchor="start" x="67.129" y="-15.4" font-family="sans-serif" font-size="14.00" fill="#000000"> &#160;Declarations</text>
<polygon fill="#8dd3c7" stroke="transparent" points="156.5,-10 156.5,-30 176.5,-30 176.5,-10 156.5,-10"/>
<text text-anchor="start" x="180.2251" y="-15.4" font-family="sans-serif" font-size="14.00" fill="#000000"> &#160;Module</text>
<polygon fill="#80b1d3" stroke="transparent" points="242.5,-10 242.5,-30 262.5,-30 262.5,-10 242.5,-10"/>
<text text-anchor="start" x="266.2812" y="-15.4" font-family="sans-serif" font-size="14.00" fill="#000000"> &#160;Bootstrap</text>
<polygon fill="#fdb462" stroke="transparent" points="339.5,-10 339.5,-30 359.5,-30 359.5,-10 339.5,-10"/>
<text text-anchor="start" x="363.1732" y="-15.4" font-family="sans-serif" font-size="14.00" fill="#000000"> &#160;Providers</text>
<polygon fill="#fb8072" stroke="transparent" points="435.5,-10 435.5,-30 455.5,-30 455.5,-10 435.5,-10"/>
<text text-anchor="start" x="459.2258" y="-15.4" font-family="sans-serif" font-size="14.00" fill="#000000"> &#160;Exports</text>
<g id="clust1" class="cluster">
<title>cluster_PipesModule</title>
<polygon fill="none" stroke="#000000" stroke-dasharray="1,5" points="8,-70 8,-268 547,-268 547,-70 8,-70"/>
</g>
<g id="clust2" class="cluster">
<title>cluster_PipesModule_declarations</title>
<polygon fill="none" stroke="#000000" points="25,-78 25,-130 533,-130 533,-78 25,-78"/>
</g>
<g id="clust8" class="cluster">
<title>cluster_PipesModule_exports</title>
<polygon fill="none" stroke="#000000" points="16,-208 16,-260 539,-260 539,-208 16,-208"/>
</g>
<!-- BigCurrencyPipe -->
<g id="node1" class="node">
<title>BigCurrencyPipe</title>
<polygon fill="#ffffb3" stroke="#000000" points="524.7022,-122 411.2978,-122 411.2978,-86 524.7022,-86 524.7022,-122"/>
<text text-anchor="middle" x="468" y="-99.8" font-family="Times,serif" font-size="14.00" fill="#000000">BigCurrencyPipe</text>
</g>
<!-- PipesModule -->
<g id="node5" class="node">
<title>PipesModule</title>
<polygon fill="#8dd3c7" stroke="#000000" points="282.8823,-187 279.8823,-191 258.8823,-191 255.8823,-187 193.1177,-187 193.1177,-151 282.8823,-151 282.8823,-187"/>
<text text-anchor="middle" x="238" y="-164.8" font-family="Times,serif" font-size="14.00" fill="#000000">PipesModule</text>
</g>
<!-- BigCurrencyPipe&#45;&gt;PipesModule -->
<g id="edge1" class="edge">
<title>BigCurrencyPipe&#45;&gt;PipesModule</title>
<path fill="none" stroke="#000000" d="M487.9503,-122.2667C487.9503,-140.5552 487.9503,-166 487.9503,-166 487.9503,-166 292.9748,-166 292.9748,-166"/>
<polygon fill="#000000" stroke="#000000" points="292.9748,-162.5001 282.9748,-166 292.9748,-169.5001 292.9748,-162.5001"/>
</g>
<!-- CssClassPipe -->
<g id="node2" class="node">
<title>CssClassPipe</title>
<polygon fill="#ffffb3" stroke="#000000" points="393.9457,-122 302.0543,-122 302.0543,-86 393.9457,-86 393.9457,-122"/>
<text text-anchor="middle" x="348" y="-99.8" font-family="Times,serif" font-size="14.00" fill="#000000">CssClassPipe</text>
</g>
<!-- CssClassPipe&#45;&gt;PipesModule -->
<g id="edge2" class="edge">
<title>CssClassPipe&#45;&gt;PipesModule</title>
<path fill="none" stroke="#000000" d="M363.2408,-122.0091C363.2408,-138.0494 363.2408,-159 363.2408,-159 363.2408,-159 293.2148,-159 293.2148,-159"/>
<polygon fill="#000000" stroke="#000000" points="293.2148,-155.5001 283.2148,-159 293.2148,-162.5001 293.2148,-155.5001"/>
</g>
<!-- KeepHtmlPipe -->
<g id="node3" class="node">
<title>KeepHtmlPipe</title>
<polygon fill="#ffffb3" stroke="#000000" points="284.7022,-122 185.2978,-122 185.2978,-86 284.7022,-86 284.7022,-122"/>
<text text-anchor="middle" x="235" y="-99.8" font-family="Times,serif" font-size="14.00" fill="#000000">KeepHtmlPipe</text>
</g>
<!-- KeepHtmlPipe&#45;&gt;PipesModule -->
<g id="edge3" class="edge">
<title>KeepHtmlPipe&#45;&gt;PipesModule</title>
<path fill="none" stroke="#000000" d="M238,-122.1061C238,-122.1061 238,-140.991 238,-140.991"/>
<polygon fill="#000000" stroke="#000000" points="234.5001,-140.9909 238,-150.991 241.5001,-140.991 234.5001,-140.9909"/>
</g>
<!-- PastPeriodColonPipe -->
<g id="node4" class="node">
<title>PastPeriodColonPipe</title>
<polygon fill="#ffffb3" stroke="#000000" points="167.4958,-122 32.5042,-122 32.5042,-86 167.4958,-86 167.4958,-122"/>
<text text-anchor="middle" x="100" y="-99.8" font-family="Times,serif" font-size="14.00" fill="#000000">PastPeriodColonPipe</text>
</g>
<!-- PastPeriodColonPipe&#45;&gt;PipesModule -->
<g id="edge4" class="edge">
<title>PastPeriodColonPipe&#45;&gt;PipesModule</title>
<path fill="none" stroke="#000000" d="M118.9993,-122.0225C118.9993,-139.3734 118.9993,-163 118.9993,-163 118.9993,-163 183.0109,-163 183.0109,-163"/>
<polygon fill="#000000" stroke="#000000" points="183.011,-166.5001 193.0109,-163 183.0109,-159.5001 183.011,-166.5001"/>
</g>
<!-- BigCurrencyPipe  -->
<g id="node6" class="node">
<title>BigCurrencyPipe </title>
<polygon fill="#fb8072" stroke="#000000" points="531.2024,-252 414.7976,-252 414.7976,-216 531.2024,-216 531.2024,-252"/>
<text text-anchor="middle" x="473" y="-229.8" font-family="Times,serif" font-size="14.00" fill="#000000">BigCurrencyPipe </text>
</g>
<!-- PipesModule&#45;&gt;BigCurrencyPipe  -->
<g id="edge5" class="edge">
<title>PipesModule&#45;&gt;BigCurrencyPipe </title>
<path fill="none" stroke="#000000" stroke-dasharray="5,2" d="M282.9747,-173C345.5544,-173 451.2997,-173 451.2997,-173 451.2997,-173 451.2997,-205.698 451.2997,-205.698"/>
<polygon fill="#000000" stroke="#000000" points="447.7998,-205.698 451.2997,-215.698 454.7998,-205.698 447.7998,-205.698"/>
</g>
<!-- CssClassPipe  -->
<g id="node7" class="node">
<title>CssClassPipe </title>
<polygon fill="#fb8072" stroke="#000000" points="396.4446,-252 301.5554,-252 301.5554,-216 396.4446,-216 396.4446,-252"/>
<text text-anchor="middle" x="349" y="-229.8" font-family="Times,serif" font-size="14.00" fill="#000000">CssClassPipe </text>
</g>
<!-- PipesModule&#45;&gt;CssClassPipe  -->
<g id="edge6" class="edge">
<title>PipesModule&#45;&gt;CssClassPipe </title>
<path fill="none" stroke="#000000" stroke-dasharray="5,2" d="M283.1594,-180C307.5657,-180 332.7592,-180 332.7592,-180 332.7592,-180 332.7592,-205.7181 332.7592,-205.7181"/>
<polygon fill="#000000" stroke="#000000" points="329.2593,-205.718 332.7592,-215.7181 336.2593,-205.7181 329.2593,-205.718"/>
</g>
<!-- KeepHtmlPipe  -->
<g id="node8" class="node">
<title>KeepHtmlPipe </title>
<polygon fill="#fb8072" stroke="#000000" points="283.2024,-252 180.7976,-252 180.7976,-216 283.2024,-216 283.2024,-252"/>
<text text-anchor="middle" x="232" y="-229.8" font-family="Times,serif" font-size="14.00" fill="#000000">KeepHtmlPipe </text>
</g>
<!-- PipesModule&#45;&gt;KeepHtmlPipe  -->
<g id="edge7" class="edge">
<title>PipesModule&#45;&gt;KeepHtmlPipe </title>
<path fill="none" stroke="#000000" stroke-dasharray="5,2" d="M238,-187.1061C238,-187.1061 238,-205.991 238,-205.991"/>
<polygon fill="#000000" stroke="#000000" points="234.5001,-205.9909 238,-215.991 241.5001,-205.991 234.5001,-205.9909"/>
</g>
<!-- PastPeriodColonPipe  -->
<g id="node9" class="node">
<title>PastPeriodColonPipe </title>
<polygon fill="#fb8072" stroke="#000000" points="162.4967,-252 23.5033,-252 23.5033,-216 162.4967,-216 162.4967,-252"/>
<text text-anchor="middle" x="93" y="-229.8" font-family="Times,serif" font-size="14.00" fill="#000000">PastPeriodColonPipe </text>
</g>
<!-- PipesModule&#45;&gt;PastPeriodColonPipe  -->
<g id="edge8" class="edge">
<title>PipesModule&#45;&gt;PastPeriodColonPipe </title>
<path fill="none" stroke="#000000" stroke-dasharray="5,2" d="M192.8045,-175C144.7963,-175 75.7507,-175 75.7507,-175 75.7507,-175 75.7507,-205.9775 75.7507,-205.9775"/>
<polygon fill="#000000" stroke="#000000" points="72.2508,-205.9774 75.7507,-215.9775 79.2508,-205.9775 72.2508,-205.9774"/>
</g>
</g>
</svg>
