<?xml version="1.0" encoding="UTF-8" standalone="no"?>
<!DOCTYPE svg PUBLIC "-//W3C//DTD SVG 1.1//EN"
 "http://www.w3.org/Graphics/SVG/1.1/DTD/svg11.dtd">
<!-- Generated by graphviz version 2.40.1 (20161225.0304)
 -->
<!-- Title: dependencies Pages: 1 -->
<svg width="504pt" height="284pt"
 viewBox="0.00 0.00 504.00 284.00" xmlns="http://www.w3.org/2000/svg" xmlns:xlink="http://www.w3.org/1999/xlink">
<g id="graph0" class="graph" transform="scale(1 1) rotate(0) translate(4 280)">
<title>dependencies</title>
<polygon fill="#ffffff" stroke="transparent" points="-4,4 -4,-280 500,-280 500,4 -4,4"/>
<text text-anchor="start" x="227.0091" y="-42.4" font-family="sans-serif" font-weight="bold" font-size="14.00" fill="#000000">Legend</text>
<polygon fill="#ffffb3" stroke="transparent" points="14,-10 14,-30 34,-30 34,-10 14,-10"/>
<text text-anchor="start" x="37.629" y="-15.4" font-family="sans-serif" font-size="14.00" fill="#000000"> &#160;Declarations</text>
<polygon fill="#8dd3c7" stroke="transparent" points="127,-10 127,-30 147,-30 147,-10 127,-10"/>
<text text-anchor="start" x="150.7251" y="-15.4" font-family="sans-serif" font-size="14.00" fill="#000000"> &#160;Module</text>
<polygon fill="#80b1d3" stroke="transparent" points="213,-10 213,-30 233,-30 233,-10 213,-10"/>
<text text-anchor="start" x="236.7812" y="-15.4" font-family="sans-serif" font-size="14.00" fill="#000000"> &#160;Bootstrap</text>
<polygon fill="#fdb462" stroke="transparent" points="310,-10 310,-30 330,-30 330,-10 310,-10"/>
<text text-anchor="start" x="333.6732" y="-15.4" font-family="sans-serif" font-size="14.00" fill="#000000"> &#160;Providers</text>
<polygon fill="#fb8072" stroke="transparent" points="406,-10 406,-30 426,-30 426,-10 406,-10"/>
<text text-anchor="start" x="429.7258" y="-15.4" font-family="sans-serif" font-size="14.00" fill="#000000"> &#160;Exports</text>
<g id="clust1" class="cluster">
<title>cluster_PipesModule</title>
<polygon fill="none" stroke="#000000" stroke-dasharray="1,5" points="117.5,-70 117.5,-268 378.5,-268 378.5,-70 117.5,-70"/>
</g>
<g id="clust2" class="cluster">
<title>cluster_PipesModule_declarations</title>
<polygon fill="none" stroke="#000000" points="128.5,-78 128.5,-130 367.5,-130 367.5,-78 128.5,-78"/>
</g>
<g id="clust6" class="cluster">
<title>cluster_PipesModule_exports</title>
<polygon fill="none" stroke="#000000" points="125.5,-208 125.5,-260 370.5,-260 370.5,-208 125.5,-208"/>
</g>
<!-- BigCurrencyPipe -->
<g id="node1" class="node">
<title>BigCurrencyPipe</title>
<polygon fill="#ffffb3" stroke="#000000" points="359.2022,-122 245.7978,-122 245.7978,-86 359.2022,-86 359.2022,-122"/>
<text text-anchor="middle" x="302.5" y="-99.8" font-family="Times,serif" font-size="14.00" fill="#000000">BigCurrencyPipe</text>
</g>
<!-- PipesModule -->
<g id="node3" class="node">
<title>PipesModule</title>
<polygon fill="#8dd3c7" stroke="#000000" points="227.3823,-187 224.3823,-191 203.3823,-191 200.3823,-187 137.6177,-187 137.6177,-151 227.3823,-151 227.3823,-187"/>
<text text-anchor="middle" x="182.5" y="-164.8" font-family="Times,serif" font-size="14.00" fill="#000000">PipesModule</text>
</g>
<!-- BigCurrencyPipe&#45;&gt;PipesModule -->
<g id="edge1" class="edge">
<title>BigCurrencyPipe&#45;&gt;PipesModule</title>
<path fill="none" stroke="#000000" d="M321.4503,-122.0225C321.4503,-139.3734 321.4503,-163 321.4503,-163 321.4503,-163 237.6132,-163 237.6132,-163"/>
<polygon fill="#000000" stroke="#000000" points="237.6132,-159.5001 227.6132,-163 237.6132,-166.5001 237.6132,-159.5001"/>
</g>
<!-- CssClassPipe -->
<g id="node2" class="node">
<title>CssClassPipe</title>
<polygon fill="#ffffb3" stroke="#000000" points="228.4457,-122 136.5543,-122 136.5543,-86 228.4457,-86 228.4457,-122"/>
<text text-anchor="middle" x="182.5" y="-99.8" font-family="Times,serif" font-size="14.00" fill="#000000">CssClassPipe</text>
</g>
<!-- CssClassPipe&#45;&gt;PipesModule -->
<g id="edge2" class="edge">
<title>CssClassPipe&#45;&gt;PipesModule</title>
<path fill="none" stroke="#000000" d="M182.5,-122.1061C182.5,-122.1061 182.5,-140.991 182.5,-140.991"/>
<polygon fill="#000000" stroke="#000000" points="179.0001,-140.9909 182.5,-150.991 186.0001,-140.991 179.0001,-140.9909"/>
</g>
<!-- BigCurrencyPipe  -->
<g id="node4" class="node">
<title>BigCurrencyPipe </title>
<polygon fill="#fb8072" stroke="#000000" points="362.7024,-252 246.2976,-252 246.2976,-216 362.7024,-216 362.7024,-252"/>
<text text-anchor="middle" x="304.5" y="-229.8" font-family="Times,serif" font-size="14.00" fill="#000000">BigCurrencyPipe </text>
</g>
<!-- PipesModule&#45;&gt;BigCurrencyPipe  -->
<g id="edge3" class="edge">
<title>PipesModule&#45;&gt;BigCurrencyPipe </title>
<path fill="none" stroke="#000000" stroke-dasharray="5,2" d="M227.5214,-175C254.5761,-175 283.7997,-175 283.7997,-175 283.7997,-175 283.7997,-205.9775 283.7997,-205.9775"/>
<polygon fill="#000000" stroke="#000000" points="280.2998,-205.9774 283.7997,-215.9775 287.2998,-205.9775 280.2998,-205.9774"/>
</g>
<!-- CssClassPipe  -->
<g id="node5" class="node">
<title>CssClassPipe </title>
<polygon fill="#fb8072" stroke="#000000" points="227.9446,-252 133.0554,-252 133.0554,-216 227.9446,-216 227.9446,-252"/>
<text text-anchor="middle" x="180.5" y="-229.8" font-family="Times,serif" font-size="14.00" fill="#000000">CssClassPipe </text>
</g>
<!-- PipesModule&#45;&gt;CssClassPipe  -->
<g id="edge4" class="edge">
<title>PipesModule&#45;&gt;CssClassPipe </title>
<path fill="none" stroke="#000000" stroke-dasharray="5,2" d="M182.5,-187.1061C182.5,-187.1061 182.5,-205.991 182.5,-205.991"/>
<polygon fill="#000000" stroke="#000000" points="179.0001,-205.9909 182.5,-215.991 186.0001,-205.991 179.0001,-205.9909"/>
</g>
</g>
</svg>
