<?xml version="1.0" encoding="UTF-8" standalone="no"?>
<!DOCTYPE svg PUBLIC "-//W3C//DTD SVG 1.1//EN"
 "http://www.w3.org/Graphics/SVG/1.1/DTD/svg11.dtd">
<!-- Generated by graphviz version 2.40.1 (20161225.0304)
 -->
<!-- Title: dependencies Pages: 1 -->
<svg width="526pt" height="284pt"
 viewBox="0.00 0.00 526.00 284.00" xmlns="http://www.w3.org/2000/svg" xmlns:xlink="http://www.w3.org/1999/xlink">
<g id="graph0" class="graph" transform="scale(1 1) rotate(0) translate(4 280)">
<title>dependencies</title>
<polygon fill="#ffffff" stroke="transparent" points="-4,4 -4,-280 522,-280 522,4 -4,4"/>
<text text-anchor="start" x="238.0091" y="-42.4" font-family="sans-serif" font-weight="bold" font-size="14.00" fill="#000000">Legend</text>
<polygon fill="#ffffb3" stroke="transparent" points="25,-10 25,-30 45,-30 45,-10 25,-10"/>
<text text-anchor="start" x="48.629" y="-15.4" font-family="sans-serif" font-size="14.00" fill="#000000"> &#160;Declarations</text>
<polygon fill="#8dd3c7" stroke="transparent" points="138,-10 138,-30 158,-30 158,-10 138,-10"/>
<text text-anchor="start" x="161.7251" y="-15.4" font-family="sans-serif" font-size="14.00" fill="#000000"> &#160;Module</text>
<polygon fill="#80b1d3" stroke="transparent" points="224,-10 224,-30 244,-30 244,-10 224,-10"/>
<text text-anchor="start" x="247.7812" y="-15.4" font-family="sans-serif" font-size="14.00" fill="#000000"> &#160;Bootstrap</text>
<polygon fill="#fdb462" stroke="transparent" points="321,-10 321,-30 341,-30 341,-10 321,-10"/>
<text text-anchor="start" x="344.6732" y="-15.4" font-family="sans-serif" font-size="14.00" fill="#000000"> &#160;Providers</text>
<polygon fill="#fb8072" stroke="transparent" points="417,-10 417,-30 437,-30 437,-10 417,-10"/>
<text text-anchor="start" x="440.7258" y="-15.4" font-family="sans-serif" font-size="14.00" fill="#000000"> &#160;Exports</text>
<g id="clust1" class="cluster">
<title>cluster_ModalModule</title>
<polygon fill="none" stroke="#000000" stroke-dasharray="1,5" points="8,-70 8,-268 510,-268 510,-70 8,-70"/>
</g>
<g id="clust2" class="cluster">
<title>cluster_ModalModule_declarations</title>
<polygon fill="none" stroke="#000000" points="146,-78 146,-130 502,-130 502,-78 146,-78"/>
</g>
<g id="clust5" class="cluster">
<title>cluster_ModalModule_imports</title>
<polygon fill="none" stroke="#000000" points="16,-78 16,-130 138,-130 138,-78 16,-78"/>
</g>
<g id="clust6" class="cluster">
<title>cluster_ModalModule_exports</title>
<polygon fill="none" stroke="#000000" points="77,-208 77,-260 441,-260 441,-208 77,-208"/>
</g>
<!-- LoadingModalComponent -->
<g id="node1" class="node">
<title>LoadingModalComponent</title>
<polygon fill="#ffffb3" stroke="#000000" points="494.0406,-122 329.9594,-122 329.9594,-86 494.0406,-86 494.0406,-122"/>
<text text-anchor="middle" x="412" y="-99.8" font-family="Times,serif" font-size="14.00" fill="#000000">LoadingModalComponent</text>
</g>
<!-- ModalModule -->
<g id="node3" class="node">
<title>ModalModule</title>
<polygon fill="#8dd3c7" stroke="#000000" points="281.0997,-187 278.0997,-191 257.0997,-191 254.0997,-187 184.9003,-187 184.9003,-151 281.0997,-151 281.0997,-187"/>
<text text-anchor="middle" x="233" y="-164.8" font-family="Times,serif" font-size="14.00" fill="#000000">ModalModule</text>
</g>
<!-- LoadingModalComponent&#45;&gt;ModalModule -->
<g id="edge1" class="edge">
<title>LoadingModalComponent&#45;&gt;ModalModule</title>
<path fill="none" stroke="#000000" d="M381.375,-122.1061C381.375,-141.3391 381.375,-169 381.375,-169 381.375,-169 291.1731,-169 291.1731,-169"/>
<polygon fill="#000000" stroke="#000000" points="291.1731,-165.5001 281.1731,-169 291.1731,-172.5001 291.1731,-165.5001"/>
</g>
<!-- SimpleModalComponent -->
<g id="node2" class="node">
<title>SimpleModalComponent</title>
<polygon fill="#ffffb3" stroke="#000000" points="311.5518,-122 154.4482,-122 154.4482,-86 311.5518,-86 311.5518,-122"/>
<text text-anchor="middle" x="233" y="-99.8" font-family="Times,serif" font-size="14.00" fill="#000000">SimpleModalComponent</text>
</g>
<!-- SimpleModalComponent&#45;&gt;ModalModule -->
<g id="edge2" class="edge">
<title>SimpleModalComponent&#45;&gt;ModalModule</title>
<path fill="none" stroke="#000000" d="M233,-122.1061C233,-122.1061 233,-140.991 233,-140.991"/>
<polygon fill="#000000" stroke="#000000" points="229.5001,-140.9909 233,-150.991 236.5001,-140.991 229.5001,-140.9909"/>
</g>
<!-- LoadingModalComponent  -->
<g id="node5" class="node">
<title>LoadingModalComponent </title>
<polygon fill="#fb8072" stroke="#000000" points="433.04,-252 264.96,-252 264.96,-216 433.04,-216 433.04,-252"/>
<text text-anchor="middle" x="349" y="-229.8" font-family="Times,serif" font-size="14.00" fill="#000000">LoadingModalComponent </text>
</g>
<!-- ModalModule&#45;&gt;LoadingModalComponent  -->
<g id="edge4" class="edge">
<title>ModalModule&#45;&gt;LoadingModalComponent </title>
<path fill="none" stroke="#000000" stroke-dasharray="5,2" d="M273.0149,-187.1061C273.0149,-187.1061 273.0149,-205.991 273.0149,-205.991"/>
<polygon fill="#000000" stroke="#000000" points="269.515,-205.9909 273.0149,-215.991 276.515,-205.991 269.515,-205.9909"/>
</g>
<!-- SimpleModalComponent  -->
<g id="node6" class="node">
<title>SimpleModalComponent </title>
<polygon fill="#fb8072" stroke="#000000" points="246.5512,-252 85.4488,-252 85.4488,-216 246.5512,-216 246.5512,-252"/>
<text text-anchor="middle" x="166" y="-229.8" font-family="Times,serif" font-size="14.00" fill="#000000">SimpleModalComponent </text>
</g>
<!-- ModalModule&#45;&gt;SimpleModalComponent  -->
<g id="edge5" class="edge">
<title>ModalModule&#45;&gt;SimpleModalComponent </title>
<path fill="none" stroke="#000000" stroke-dasharray="5,2" d="M215.7379,-187.1061C215.7379,-187.1061 215.7379,-205.991 215.7379,-205.991"/>
<polygon fill="#000000" stroke="#000000" points="212.238,-205.9909 215.7379,-215.991 219.238,-205.991 212.238,-205.9909"/>
</g>
<!-- LoadingModule -->
<g id="node4" class="node">
<title>LoadingModule</title>
<polygon fill="#8dd3c7" stroke="#000000" points="130.2078,-122 127.2078,-126 106.2078,-126 103.2078,-122 23.7922,-122 23.7922,-86 130.2078,-86 130.2078,-122"/>
<text text-anchor="middle" x="77" y="-99.8" font-family="Times,serif" font-size="14.00" fill="#000000">LoadingModule</text>
</g>
<!-- LoadingModule&#45;&gt;ModalModule -->
<g id="edge3" class="edge">
<title>LoadingModule&#45;&gt;ModalModule</title>
<path fill="none" stroke="#000000" d="M107.7891,-122.1061C107.7891,-141.3391 107.7891,-169 107.7891,-169 107.7891,-169 174.9483,-169 174.9483,-169"/>
<polygon fill="#000000" stroke="#000000" points="174.9483,-172.5001 184.9483,-169 174.9483,-165.5001 174.9483,-172.5001"/>
</g>
</g>
</svg>
