<?xml version="1.0" encoding="UTF-8" standalone="no"?>
<!DOCTYPE svg PUBLIC "-//W3C//DTD SVG 1.1//EN"
 "http://www.w3.org/Graphics/SVG/1.1/DTD/svg11.dtd">
<!-- Generated by graphviz version 2.40.1 (20161225.0304)
 -->
<!-- Title: dependencies Pages: 1 -->
<svg width="504pt" height="284pt"
 viewBox="0.00 0.00 504.00 284.00" xmlns="http://www.w3.org/2000/svg" xmlns:xlink="http://www.w3.org/1999/xlink">
<g id="graph0" class="graph" transform="scale(1 1) rotate(0) translate(4 280)">
<title>dependencies</title>
<polygon fill="#ffffff" stroke="transparent" points="-4,4 -4,-280 500,-280 500,4 -4,4"/>
<text text-anchor="start" x="227.0091" y="-42.4" font-family="sans-serif" font-weight="bold" font-size="14.00" fill="#000000">Legend</text>
<polygon fill="#ffffb3" stroke="transparent" points="14,-10 14,-30 34,-30 34,-10 14,-10"/>
<text text-anchor="start" x="37.629" y="-15.4" font-family="sans-serif" font-size="14.00" fill="#000000"> &#160;Declarations</text>
<polygon fill="#8dd3c7" stroke="transparent" points="127,-10 127,-30 147,-30 147,-10 127,-10"/>
<text text-anchor="start" x="150.7251" y="-15.4" font-family="sans-serif" font-size="14.00" fill="#000000"> &#160;Module</text>
<polygon fill="#80b1d3" stroke="transparent" points="213,-10 213,-30 233,-30 233,-10 213,-10"/>
<text text-anchor="start" x="236.7812" y="-15.4" font-family="sans-serif" font-size="14.00" fill="#000000"> &#160;Bootstrap</text>
<polygon fill="#fdb462" stroke="transparent" points="310,-10 310,-30 330,-30 330,-10 310,-10"/>
<text text-anchor="start" x="333.6732" y="-15.4" font-family="sans-serif" font-size="14.00" fill="#000000"> &#160;Providers</text>
<polygon fill="#fb8072" stroke="transparent" points="406,-10 406,-30 426,-30 426,-10 406,-10"/>
<text text-anchor="start" x="429.7258" y="-15.4" font-family="sans-serif" font-size="14.00" fill="#000000"> &#160;Exports</text>
<g id="clust1" class="cluster">
<title>cluster_SlideToggleModule</title>
<polygon fill="none" stroke="#000000" stroke-dasharray="1,5" points="51.5,-70 51.5,-268 444.5,-268 444.5,-70 51.5,-70"/>
</g>
<g id="clust2" class="cluster">
<title>cluster_SlideToggleModule_declarations</title>
<polygon fill="none" stroke="#000000" points="63.5,-78 63.5,-130 433.5,-130 433.5,-78 63.5,-78"/>
</g>
<g id="clust6" class="cluster">
<title>cluster_SlideToggleModule_exports</title>
<polygon fill="none" stroke="#000000" points="59.5,-208 59.5,-260 436.5,-260 436.5,-208 59.5,-208"/>
</g>
<!-- SlideToggleComponent -->
<g id="node1" class="node">
<title>SlideToggleComponent</title>
<polygon fill="#ffffb3" stroke="#000000" points="425.2688,-122 275.7312,-122 275.7312,-86 425.2688,-86 425.2688,-122"/>
<text text-anchor="middle" x="350.5" y="-99.8" font-family="Times,serif" font-size="14.00" fill="#000000">SlideToggleComponent</text>
</g>
<!-- SlideToggleModule -->
<g id="node3" class="node">
<title>SlideToggleModule</title>
<polygon fill="#8dd3c7" stroke="#000000" points="229.486,-187 226.486,-191 205.486,-191 202.486,-187 101.514,-187 101.514,-151 229.486,-151 229.486,-187"/>
<text text-anchor="middle" x="165.5" y="-164.8" font-family="Times,serif" font-size="14.00" fill="#000000">SlideToggleModule</text>
</g>
<!-- SlideToggleComponent&#45;&gt;SlideToggleModule -->
<g id="edge1" class="edge">
<title>SlideToggleComponent&#45;&gt;SlideToggleModule</title>
<path fill="none" stroke="#000000" d="M375.4614,-122.0225C375.4614,-139.3734 375.4614,-163 375.4614,-163 375.4614,-163 239.6362,-163 239.6362,-163"/>
<polygon fill="#000000" stroke="#000000" points="239.6363,-159.5001 229.6362,-163 239.6362,-166.5001 239.6363,-159.5001"/>
</g>
<!-- SlideToggleGroupComponent -->
<g id="node2" class="node">
<title>SlideToggleGroupComponent</title>
<polygon fill="#ffffb3" stroke="#000000" points="257.0364,-122 71.9636,-122 71.9636,-86 257.0364,-86 257.0364,-122"/>
<text text-anchor="middle" x="164.5" y="-99.8" font-family="Times,serif" font-size="14.00" fill="#000000">SlideToggleGroupComponent</text>
</g>
<!-- SlideToggleGroupComponent&#45;&gt;SlideToggleModule -->
<g id="edge2" class="edge">
<title>SlideToggleGroupComponent&#45;&gt;SlideToggleModule</title>
<path fill="none" stroke="#000000" d="M165.5,-122.1061C165.5,-122.1061 165.5,-140.991 165.5,-140.991"/>
<polygon fill="#000000" stroke="#000000" points="162.0001,-140.9909 165.5,-150.991 169.0001,-140.991 162.0001,-140.9909"/>
</g>
<!-- SlideToggleComponent  -->
<g id="node4" class="node">
<title>SlideToggleComponent </title>
<polygon fill="#fb8072" stroke="#000000" points="428.2688,-252 274.7312,-252 274.7312,-216 428.2688,-216 428.2688,-252"/>
<text text-anchor="middle" x="351.5" y="-229.8" font-family="Times,serif" font-size="14.00" fill="#000000">SlideToggleComponent </text>
</g>
<!-- SlideToggleModule&#45;&gt;SlideToggleComponent  -->
<g id="edge3" class="edge">
<title>SlideToggleModule&#45;&gt;SlideToggleComponent </title>
<path fill="none" stroke="#000000" stroke-dasharray="5,2" d="M229.6717,-175C274.1956,-175 325.5386,-175 325.5386,-175 325.5386,-175 325.5386,-205.9775 325.5386,-205.9775"/>
<polygon fill="#000000" stroke="#000000" points="322.0387,-205.9774 325.5386,-215.9775 329.0387,-205.9775 322.0387,-205.9774"/>
</g>
<!-- SlideToggleGroupComponent  -->
<g id="node5" class="node">
<title>SlideToggleGroupComponent </title>
<polygon fill="#fb8072" stroke="#000000" points="257.0358,-252 67.9642,-252 67.9642,-216 257.0358,-216 257.0358,-252"/>
<text text-anchor="middle" x="162.5" y="-229.8" font-family="Times,serif" font-size="14.00" fill="#000000">SlideToggleGroupComponent </text>
</g>
<!-- SlideToggleModule&#45;&gt;SlideToggleGroupComponent  -->
<g id="edge4" class="edge">
<title>SlideToggleModule&#45;&gt;SlideToggleGroupComponent </title>
<path fill="none" stroke="#000000" stroke-dasharray="5,2" d="M165.5,-187.1061C165.5,-187.1061 165.5,-205.991 165.5,-205.991"/>
<polygon fill="#000000" stroke="#000000" points="162.0001,-205.9909 165.5,-215.991 169.0001,-205.991 162.0001,-205.9909"/>
</g>
</g>
</svg>
