<?xml version="1.0" encoding="UTF-8" standalone="no"?>
<!DOCTYPE svg PUBLIC "-//W3C//DTD SVG 1.1//EN"
 "http://www.w3.org/Graphics/SVG/1.1/DTD/svg11.dtd">
<!-- Generated by graphviz version 2.40.1 (20161225.0304)
 -->
<!-- Title: G Pages: 1 -->
<svg width="1867pt" height="340pt"
 viewBox="0.00 0.00 1867.26 339.98" xmlns="http://www.w3.org/2000/svg" xmlns:xlink="http://www.w3.org/1999/xlink">
<g id="graph0" class="graph" transform="scale(1 1) rotate(0) translate(7.992 331.992)">
<title>G</title>
<polygon fill="#ffffff" stroke="transparent" points="-7.992,7.992 -7.992,-331.992 1859.2695,-331.992 1859.2695,7.992 -7.992,7.992"/>
<!-- arrow&#45;variation -->
<g id="node1" class="node">
<title>arrow&#45;variation</title>
<ellipse fill="#efefef" stroke="#000000" cx="74.8747" cy="-90" rx="74.7496" ry="18"/>
<text text-anchor="middle" x="74.8747" y="-85.8" font-family="Arial" font-size="14.00" fill="#000000">arrow&#45;variation</text>
</g>
<!-- button -->
<g id="node2" class="node">
<title>button</title>
<ellipse fill="#efefef" stroke="#000000" cx="484.8747" cy="-18" rx="37.7544" ry="18"/>
<text text-anchor="middle" x="484.8747" y="-13.8" font-family="Arial" font-size="14.00" fill="#000000">button</text>
</g>
<!-- buttons&#45;indicators&#45;shell -->
<g id="node3" class="node">
<title>buttons&#45;indicators&#45;shell</title>
<ellipse fill="#efefef" stroke="#000000" cx="479.8747" cy="-162" rx="110.1008" ry="18"/>
<text text-anchor="middle" x="479.8747" y="-157.8" font-family="Arial" font-size="14.00" fill="#000000">buttons&#45;indicators&#45;shell</text>
</g>
<!-- buttons&#45;indicators&#45;shell&#45;&gt;button -->
<g id="edge2" class="edge">
<title>buttons&#45;indicators&#45;shell&#45;&gt;button</title>
<path fill="none" stroke="#757575" d="M413.152,-147.5385C392.1739,-139.5096 371.2699,-127.1053 358.8747,-108 350.1664,-94.5774 350.0668,-85.3575 358.8747,-72 376.3772,-45.4568 409.9257,-31.911 438.0065,-25.0257"/>
<polygon fill="#757575" stroke="#757575" points="439.0685,-28.3748 448.0648,-22.7787 437.5422,-21.5432 439.0685,-28.3748"/>
</g>
<!-- gdk -->
<g id="node4" class="node">
<title>gdk</title>
<ellipse fill="#efefef" stroke="#000000" cx="496.8747" cy="-90" rx="27" ry="18"/>
<text text-anchor="middle" x="496.8747" y="-85.8" font-family="Arial" font-size="14.00" fill="#000000">gdk</text>
</g>
<!-- buttons&#45;indicators&#45;shell&#45;&gt;gdk -->
<g id="edge1" class="edge">
<title>buttons&#45;indicators&#45;shell&#45;&gt;gdk</title>
<path fill="none" stroke="#757575" d="M484.1645,-143.8314C486.0309,-135.9266 488.2597,-126.4872 490.3258,-117.7365"/>
<polygon fill="#757575" stroke="#757575" points="493.7535,-118.4501 492.6452,-107.9134 486.9408,-116.8415 493.7535,-118.4501"/>
</g>
<!-- countdown&#45;button -->
<g id="node5" class="node">
<title>countdown&#45;button</title>
<ellipse fill="#efefef" stroke="#000000" cx="629.8747" cy="-90" rx="87.5707" ry="18"/>
<text text-anchor="middle" x="629.8747" y="-85.8" font-family="Arial" font-size="14.00" fill="#000000">countdown&#45;button</text>
</g>
<!-- buttons&#45;indicators&#45;shell&#45;&gt;countdown&#45;button -->
<g id="edge3" class="edge">
<title>buttons&#45;indicators&#45;shell&#45;&gt;countdown&#45;button</title>
<path fill="none" stroke="#757575" d="M515.4226,-144.937C536.6668,-134.7398 563.8147,-121.7088 586.3383,-110.8975"/>
<polygon fill="#757575" stroke="#757575" points="587.8566,-114.0511 595.3572,-106.5684 584.8274,-107.7404 587.8566,-114.0511"/>
</g>
<!-- loading -->
<g id="node6" class="node">
<title>loading</title>
<ellipse fill="#efefef" stroke="#000000" cx="409.8747" cy="-90" rx="42.3281" ry="18"/>
<text text-anchor="middle" x="409.8747" y="-85.8" font-family="Arial" font-size="14.00" fill="#000000">loading</text>
</g>
<!-- buttons&#45;indicators&#45;shell&#45;&gt;loading -->
<g id="edge4" class="edge">
<title>buttons&#45;indicators&#45;shell&#45;&gt;loading</title>
<path fill="none" stroke="#757575" d="M462.5713,-144.2022C453.7959,-135.1761 443.0064,-124.0783 433.4807,-114.2804"/>
<polygon fill="#757575" stroke="#757575" points="435.9773,-111.8274 426.497,-107.0972 430.9583,-116.707 435.9773,-111.8274"/>
</g>
<!-- countdown&#45;button&#45;&gt;button -->
<g id="edge9" class="edge">
<title>countdown&#45;button&#45;&gt;button</title>
<path fill="none" stroke="#757575" d="M596.2443,-73.3008C573.45,-61.9822 543.3776,-47.0497 520.2281,-35.5548"/>
<polygon fill="#757575" stroke="#757575" points="521.6043,-32.3305 511.0911,-31.0178 518.4911,-38.6001 521.6043,-32.3305"/>
</g>
<!-- card&#45;container -->
<g id="node7" class="node">
<title>card&#45;container</title>
<ellipse fill="#efefef" stroke="#000000" cx="1226.8747" cy="-90" rx="72.9857" ry="18"/>
<text text-anchor="middle" x="1226.8747" y="-85.8" font-family="Arial" font-size="14.00" fill="#000000">card&#45;container</text>
</g>
<!-- section&#45;title -->
<g id="node8" class="node">
<title>section&#45;title</title>
<ellipse fill="#efefef" stroke="#000000" cx="1275.8747" cy="-18" rx="59.7224" ry="18"/>
<text text-anchor="middle" x="1275.8747" y="-13.8" font-family="Arial" font-size="14.00" fill="#000000">section&#45;title</text>
</g>
<!-- card&#45;container&#45;&gt;section&#45;title -->
<g id="edge5" class="edge">
<title>card&#45;container&#45;&gt;section&#45;title</title>
<path fill="none" stroke="#757575" d="M1238.9871,-72.2022C1244.6999,-63.8079 1251.6321,-53.6218 1257.9381,-44.3558"/>
<polygon fill="#757575" stroke="#757575" points="1260.9991,-46.0789 1263.7319,-35.8425 1255.2121,-42.1405 1260.9991,-46.0789"/>
</g>
<!-- controls&#45;shell -->
<g id="node9" class="node">
<title>controls&#45;shell</title>
<ellipse fill="#efefef" stroke="#000000" cx="675.8747" cy="-162" rx="67.8107" ry="18"/>
<text text-anchor="middle" x="675.8747" y="-157.8" font-family="Arial" font-size="14.00" fill="#000000">controls&#45;shell</text>
</g>
<!-- controls&#45;shell&#45;&gt;gdk -->
<g id="edge6" class="edge">
<title>controls&#45;shell&#45;&gt;gdk</title>
<path fill="none" stroke="#757575" d="M634.4346,-147.6242C605.6419,-137.3275 566.5484,-122.7301 532.8747,-108 531.0982,-107.2229 529.2837,-106.4027 527.4606,-105.558"/>
<polygon fill="#757575" stroke="#757575" points="528.9363,-102.3841 518.4062,-101.2151 525.909,-108.6956 528.9363,-102.3841"/>
</g>
<!-- slide&#45;toggle -->
<g id="node10" class="node">
<title>slide&#45;toggle</title>
<ellipse fill="#efefef" stroke="#000000" cx="795.8747" cy="-90" rx="60.3038" ry="18"/>
<text text-anchor="middle" x="795.8747" y="-85.8" font-family="Arial" font-size="14.00" fill="#000000">slide&#45;toggle</text>
</g>
<!-- controls&#45;shell&#45;&gt;slide&#45;toggle -->
<g id="edge7" class="edge">
<title>controls&#45;shell&#45;&gt;slide&#45;toggle</title>
<path fill="none" stroke="#757575" d="M703.4051,-145.4817C720.2932,-135.3489 742.0924,-122.2694 760.2831,-111.3549"/>
<polygon fill="#757575" stroke="#757575" points="762.1118,-114.3395 768.8859,-106.1933 758.5103,-108.337 762.1118,-114.3395"/>
</g>
<!-- form&#45;text -->
<g id="node11" class="node">
<title>form&#45;text</title>
<ellipse fill="#efefef" stroke="#000000" cx="923.8747" cy="-90" rx="49.2512" ry="18"/>
<text text-anchor="middle" x="923.8747" y="-85.8" font-family="Arial" font-size="14.00" fill="#000000">form&#45;text</text>
</g>
<!-- controls&#45;shell&#45;&gt;form&#45;text -->
<g id="edge8" class="edge">
<title>controls&#45;shell&#45;&gt;form&#45;text</title>
<path fill="none" stroke="#757575" d="M722.5443,-148.9157C760.8368,-138.1199 816.4377,-122.307 864.8747,-108 868.6379,-106.8885 872.5325,-105.7264 876.4438,-104.551"/>
<polygon fill="#757575" stroke="#757575" points="877.5748,-107.8656 886.1353,-101.623 875.5504,-101.1647 877.5748,-107.8656"/>
</g>
<!-- currency&#45;display -->
<g id="node12" class="node">
<title>currency&#45;display</title>
<ellipse fill="#efefef" stroke="#000000" cx="1436.8747" cy="-90" rx="81.138" ry="18"/>
<text text-anchor="middle" x="1436.8747" y="-85.8" font-family="Arial" font-size="14.00" fill="#000000">currency&#45;display</text>
</g>
<!-- pipes -->
<g id="node13" class="node">
<title>pipes</title>
<ellipse fill="#efefef" stroke="#000000" cx="1436.8747" cy="-18" rx="34.2259" ry="18"/>
<text text-anchor="middle" x="1436.8747" y="-13.8" font-family="Arial" font-size="14.00" fill="#000000">pipes</text>
</g>
<!-- currency&#45;display&#45;&gt;pipes -->
<g id="edge10" class="edge">
<title>currency&#45;display&#45;&gt;pipes</title>
<path fill="none" stroke="#757575" d="M1436.8747,-71.8314C1436.8747,-64.131 1436.8747,-54.9743 1436.8747,-46.4166"/>
<polygon fill="#757575" stroke="#757575" points="1440.3748,-46.4132 1436.8747,-36.4133 1433.3748,-46.4133 1440.3748,-46.4132"/>
</g>
<!-- data&#45;formatter -->
<g id="node14" class="node">
<title>data&#45;formatter</title>
<ellipse fill="#efefef" stroke="#000000" cx="239.8747" cy="-90" rx="71.8376" ry="18"/>
<text text-anchor="middle" x="239.8747" y="-85.8" font-family="Arial" font-size="14.00" fill="#000000">data&#45;formatter</text>
</g>
<!-- directives -->
<g id="node15" class="node">
<title>directives</title>
<ellipse fill="#efefef" stroke="#000000" cx="815.8747" cy="-306" rx="51.6227" ry="18"/>
<text text-anchor="middle" x="815.8747" y="-301.8" font-family="Arial" font-size="14.00" fill="#000000">directives</text>
</g>
<!-- enhanced&#45;title -->
<g id="node16" class="node">
<title>enhanced&#45;title</title>
<ellipse fill="#efefef" stroke="#000000" cx="1563.8747" cy="-18" rx="71.8589" ry="18"/>
<text text-anchor="middle" x="1563.8747" y="-13.8" font-family="Arial" font-size="14.00" fill="#000000">enhanced&#45;title</text>
</g>
<!-- icon -->
<g id="node17" class="node">
<title>icon</title>
<ellipse fill="#efefef" stroke="#000000" cx="1790.8747" cy="-90" rx="28.991" ry="18"/>
<text text-anchor="middle" x="1790.8747" y="-85.8" font-family="Arial" font-size="14.00" fill="#000000">icon</text>
</g>
<!-- layout&#45;shell -->
<g id="node18" class="node">
<title>layout&#45;shell</title>
<ellipse fill="#efefef" stroke="#000000" cx="1436.8747" cy="-162" rx="59.7244" ry="18"/>
<text text-anchor="middle" x="1436.8747" y="-157.8" font-family="Arial" font-size="14.00" fill="#000000">layout&#45;shell</text>
</g>
<!-- layout&#45;shell&#45;&gt;gdk -->
<g id="edge11" class="edge">
<title>layout&#45;shell&#45;&gt;gdk</title>
<path fill="none" stroke="#757575" d="M1377.4347,-159.8365C1189.2219,-152.7934 613.9843,-129.7207 532.8747,-108 530.9004,-107.4713 528.9072,-106.8284 526.9253,-106.1043"/>
<polygon fill="#757575" stroke="#757575" points="527.8194,-102.6798 517.249,-101.9603 525.0636,-109.1146 527.8194,-102.6798"/>
</g>
<!-- layout&#45;shell&#45;&gt;card&#45;container -->
<g id="edge12" class="edge">
<title>layout&#45;shell&#45;&gt;card&#45;container</title>
<path fill="none" stroke="#757575" d="M1397.3753,-148.4574C1364.0011,-137.0148 1315.9273,-120.5323 1279.3286,-107.9842"/>
<polygon fill="#757575" stroke="#757575" points="1280.4053,-104.6534 1269.8107,-104.7209 1278.135,-111.275 1280.4053,-104.6534"/>
</g>
<!-- layout&#45;shell&#45;&gt;section&#45;title -->
<g id="edge18" class="edge">
<title>layout&#45;shell&#45;&gt;section&#45;title</title>
<path fill="none" stroke="#757575" d="M1405.007,-146.5561C1386.8844,-136.9082 1364.3844,-123.4082 1346.8747,-108 1325.593,-89.2725 1306.0129,-63.522 1292.8295,-44.3617"/>
<polygon fill="#757575" stroke="#757575" points="1295.5566,-42.1454 1287.0659,-35.8083 1289.7515,-46.0571 1295.5566,-42.1454"/>
</g>
<!-- layout&#45;shell&#45;&gt;currency&#45;display -->
<g id="edge13" class="edge">
<title>layout&#45;shell&#45;&gt;currency&#45;display</title>
<path fill="none" stroke="#757575" d="M1436.8747,-143.8314C1436.8747,-136.131 1436.8747,-126.9743 1436.8747,-118.4166"/>
<polygon fill="#757575" stroke="#757575" points="1440.3748,-118.4132 1436.8747,-108.4133 1433.3748,-118.4133 1440.3748,-118.4132"/>
</g>
<!-- layout&#45;shell&#45;&gt;enhanced&#45;title -->
<g id="edge14" class="edge">
<title>layout&#45;shell&#45;&gt;enhanced&#45;title</title>
<path fill="none" stroke="#757575" d="M1472.2332,-147.3994C1490.5668,-138.3368 1512.1429,-125.132 1526.8747,-108 1542.2803,-90.0844 1551.8965,-64.8809 1557.451,-45.7005"/>
<polygon fill="#757575" stroke="#757575" points="1560.837,-46.5863 1560.0622,-36.0198 1554.0786,-44.7632 1560.837,-46.5863"/>
</g>
<!-- layout&#45;shell&#45;&gt;icon -->
<g id="edge15" class="edge">
<title>layout&#45;shell&#45;&gt;icon</title>
<path fill="none" stroke="#757575" d="M1493.6408,-156.0253C1556.6577,-148.5018 1660.9483,-133.39 1747.8747,-108 1751.2394,-107.0172 1754.6964,-105.8518 1758.1182,-104.5935"/>
<polygon fill="#757575" stroke="#757575" points="1759.5389,-107.7958 1767.5625,-100.8767 1756.9754,-101.282 1759.5389,-107.7958"/>
</g>
<!-- page&#45;header -->
<g id="node19" class="node">
<title>page&#45;header</title>
<ellipse fill="#efefef" stroke="#000000" cx="1639.8747" cy="-90" rx="65.5623" ry="18"/>
<text text-anchor="middle" x="1639.8747" y="-85.8" font-family="Arial" font-size="14.00" fill="#000000">page&#45;header</text>
</g>
<!-- layout&#45;shell&#45;&gt;page&#45;header -->
<g id="edge16" class="edge">
<title>layout&#45;shell&#45;&gt;page&#45;header</title>
<path fill="none" stroke="#757575" d="M1476.0151,-148.1177C1508.4514,-136.6132 1554.7598,-120.1885 1589.8776,-107.733"/>
<polygon fill="#757575" stroke="#757575" points="1591.2102,-110.974 1599.465,-104.3325 1588.8702,-104.3767 1591.2102,-110.974"/>
</g>
<!-- scroll&#45;container -->
<g id="node20" class="node">
<title>scroll&#45;container</title>
<ellipse fill="#efefef" stroke="#000000" cx="1731.8747" cy="-18" rx="76.4768" ry="18"/>
<text text-anchor="middle" x="1731.8747" y="-13.8" font-family="Arial" font-size="14.00" fill="#000000">scroll&#45;container</text>
</g>
<!-- layout&#45;shell&#45;&gt;scroll&#45;container -->
<g id="edge17" class="edge">
<title>layout&#45;shell&#45;&gt;scroll&#45;container</title>
<path fill="none" stroke="#757575" d="M1495.5089,-158.2109C1567.7944,-152.2922 1684.7936,-138.237 1714.8747,-108 1730.7503,-92.0422 1734.2667,-66.2134 1734.238,-46.3096"/>
<polygon fill="#757575" stroke="#757575" points="1737.7343,-46.1322 1733.9302,-36.2439 1730.7376,-46.3462 1737.7343,-46.1322"/>
</g>
<!-- page&#45;header&#45;&gt;enhanced&#45;title -->
<g id="edge19" class="edge">
<title>page&#45;header&#45;&gt;enhanced&#45;title</title>
<path fill="none" stroke="#757575" d="M1621.4772,-72.5708C1611.9326,-63.5286 1600.116,-52.3338 1589.6742,-42.4417"/>
<polygon fill="#757575" stroke="#757575" points="1592.0329,-39.8549 1582.3662,-35.5182 1587.2186,-44.9366 1592.0329,-39.8549"/>
</g>
<!-- page&#45;header&#45;&gt;scroll&#45;container -->
<g id="edge20" class="edge">
<title>page&#45;header&#45;&gt;scroll&#45;container</title>
<path fill="none" stroke="#757575" d="M1661.6774,-72.937C1673.5334,-63.6584 1688.3874,-52.0336 1701.3747,-41.8696"/>
<polygon fill="#757575" stroke="#757575" points="1703.8714,-44.3601 1709.5894,-35.4407 1699.5572,-38.8475 1703.8714,-44.3601"/>
</g>
<!-- popup&#45;confirm -->
<g id="node21" class="node">
<title>popup&#45;confirm</title>
<ellipse fill="#efefef" stroke="#000000" cx="1063.8747" cy="-90" rx="72.9857" ry="18"/>
<text text-anchor="middle" x="1063.8747" y="-85.8" font-family="Arial" font-size="14.00" fill="#000000">popup&#45;confirm</text>
</g>
<!-- popups&#45;modals&#45;shell -->
<g id="node22" class="node">
<title>popups&#45;modals&#45;shell</title>
<ellipse fill="#efefef" stroke="#000000" cx="861.8747" cy="-162" rx="100.2129" ry="18"/>
<text text-anchor="middle" x="861.8747" y="-157.8" font-family="Arial" font-size="14.00" fill="#000000">popups&#45;modals&#45;shell</text>
</g>
<!-- popups&#45;modals&#45;shell&#45;&gt;gdk -->
<g id="edge21" class="edge">
<title>popups&#45;modals&#45;shell&#45;&gt;gdk</title>
<path fill="none" stroke="#757575" d="M787.9999,-149.7855C776.2504,-147.8472 764.2302,-145.8667 752.8747,-144 655.1086,-127.9285 627.1415,-138.5004 532.8747,-108 530.9799,-107.3869 529.0608,-106.6873 527.1464,-105.9279"/>
<polygon fill="#757575" stroke="#757575" points="528.3062,-102.6136 517.746,-101.7579 525.4678,-109.0123 528.3062,-102.6136"/>
</g>
<!-- popups&#45;modals&#45;shell&#45;&gt;countdown&#45;button -->
<g id="edge22" class="edge">
<title>popups&#45;modals&#45;shell&#45;&gt;countdown&#45;button</title>
<path fill="none" stroke="#757575" d="M811.5342,-146.3771C775.3228,-135.1391 726.3831,-119.9509 688.4236,-108.1703"/>
<polygon fill="#757575" stroke="#757575" points="689.1152,-104.7204 678.5272,-105.099 687.0404,-111.4058 689.1152,-104.7204"/>
</g>
<!-- popups&#45;modals&#45;shell&#45;&gt;popup&#45;confirm -->
<g id="edge23" class="edge">
<title>popups&#45;modals&#45;shell&#45;&gt;popup&#45;confirm</title>
<path fill="none" stroke="#757575" d="M907.2074,-145.8418C938.4105,-134.7199 979.9223,-119.9236 1012.3756,-108.3561"/>
<polygon fill="#757575" stroke="#757575" points="1013.8906,-111.5319 1022.135,-104.8775 1011.5404,-104.9382 1013.8906,-111.5319"/>
</g>
<!-- presentational&#45;shell -->
<g id="node23" class="node">
<title>presentational&#45;shell</title>
<ellipse fill="#efefef" stroke="#000000" cx="248.8747" cy="-162" rx="94.9903" ry="18"/>
<text text-anchor="middle" x="248.8747" y="-157.8" font-family="Arial" font-size="14.00" fill="#000000">presentational&#45;shell</text>
</g>
<!-- presentational&#45;shell&#45;&gt;arrow&#45;variation -->
<g id="edge25" class="edge">
<title>presentational&#45;shell&#45;&gt;arrow&#45;variation</title>
<path fill="none" stroke="#757575" d="M208.9556,-145.4817C183.0174,-134.7487 149.0894,-120.7095 121.8529,-109.4392"/>
<polygon fill="#757575" stroke="#757575" points="123.1005,-106.1678 112.5221,-105.5782 120.424,-112.6359 123.1005,-106.1678"/>
</g>
<!-- presentational&#45;shell&#45;&gt;gdk -->
<g id="edge24" class="edge">
<title>presentational&#45;shell&#45;&gt;gdk</title>
<path fill="none" stroke="#757575" d="M314.9316,-148.9999C357.3315,-139.726 413.181,-125.7634 460.8747,-108 462.741,-107.3049 464.6379,-106.5415 466.5355,-105.7336"/>
<polygon fill="#757575" stroke="#757575" points="468.2662,-108.7902 475.8906,-101.4336 465.3427,-102.4299 468.2662,-108.7902"/>
</g>
<!-- presentational&#45;shell&#45;&gt;data&#45;formatter -->
<g id="edge26" class="edge">
<title>presentational&#45;shell&#45;&gt;data&#45;formatter</title>
<path fill="none" stroke="#757575" d="M246.6036,-143.8314C245.6411,-136.131 244.4965,-126.9743 243.4268,-118.4166"/>
<polygon fill="#757575" stroke="#757575" points="246.8898,-117.9019 242.1764,-108.4133 239.9438,-118.7702 246.8898,-117.9019"/>
</g>
<!-- sort&#45;header -->
<g id="node24" class="node">
<title>sort&#45;header</title>
<ellipse fill="#efefef" stroke="#000000" cx="1790.8747" cy="-162" rx="60.3058" ry="18"/>
<text text-anchor="middle" x="1790.8747" y="-157.8" font-family="Arial" font-size="14.00" fill="#000000">sort&#45;header</text>
</g>
<!-- sort&#45;header&#45;&gt;icon -->
<g id="edge27" class="edge">
<title>sort&#45;header&#45;&gt;icon</title>
<path fill="none" stroke="#757575" d="M1790.8747,-143.8314C1790.8747,-136.131 1790.8747,-126.9743 1790.8747,-118.4166"/>
<polygon fill="#757575" stroke="#757575" points="1794.3748,-118.4132 1790.8747,-108.4133 1787.3748,-118.4133 1794.3748,-118.4132"/>
</g>
<!-- widgets&#45;system -->
<g id="node25" class="node">
<title>widgets&#45;system</title>
<polygon fill="none" stroke="#000000" points="732.3216,-252 619.4278,-252 619.4278,-216 732.3216,-216 732.3216,-252"/>
<text text-anchor="middle" x="675.8747" y="-229.8" font-family="Arial" font-size="14.00" fill="#000000">widgets&#45;system</text>
</g>
<!-- widgets&#45;system&#45;&gt;buttons&#45;indicators&#45;shell -->
<g id="edge28" class="edge">
<title>widgets&#45;system&#45;&gt;buttons&#45;indicators&#45;shell</title>
<path fill="none" stroke="#757575" stroke-dasharray="1,5" d="M626.6686,-215.9243C598.5498,-205.5949 563.2357,-192.6224 534.2914,-181.9898"/>
<polygon fill="#757575" stroke="#757575" points="535.3329,-178.6438 524.7393,-178.4809 532.9191,-185.2145 535.3329,-178.6438"/>
</g>
<!-- widgets&#45;system&#45;&gt;controls&#45;shell -->
<g id="edge29" class="edge">
<title>widgets&#45;system&#45;&gt;controls&#45;shell</title>
<path fill="none" stroke="#757575" stroke-dasharray="1,5" d="M675.8747,-215.8314C675.8747,-208.131 675.8747,-198.9743 675.8747,-190.4166"/>
<polygon fill="#757575" stroke="#757575" points="679.3748,-190.4132 675.8747,-180.4133 672.3748,-190.4133 679.3748,-190.4132"/>
</g>
<!-- widgets&#45;system&#45;&gt;layout&#45;shell -->
<g id="edge30" class="edge">
<title>widgets&#45;system&#45;&gt;layout&#45;shell</title>
<path fill="none" stroke="#757575" stroke-dasharray="1,5" d="M732.1419,-228.6764C869.3988,-215.6902 1220.9882,-182.4255 1369.283,-168.395"/>
<polygon fill="#757575" stroke="#757575" points="1369.9773,-171.845 1379.6031,-167.4186 1369.3179,-164.8762 1369.9773,-171.845"/>
</g>
<!-- widgets&#45;system&#45;&gt;popups&#45;modals&#45;shell -->
<g id="edge31" class="edge">
<title>widgets&#45;system&#45;&gt;popups&#45;modals&#45;shell</title>
<path fill="none" stroke="#757575" stroke-dasharray="1,5" d="M722.8104,-215.8314C749.3805,-205.5461 782.6619,-192.663 810.0038,-182.079"/>
<polygon fill="#757575" stroke="#757575" points="811.3444,-185.3133 819.4066,-178.4393 808.8174,-178.7853 811.3444,-185.3133"/>
</g>
<!-- widgets&#45;system&#45;&gt;presentational&#45;shell -->
<g id="edge32" class="edge">
<title>widgets&#45;system&#45;&gt;presentational&#45;shell</title>
<path fill="none" stroke="#757575" stroke-dasharray="1,5" d="M619.6128,-224.5132C545.5144,-212.0189 414.7137,-189.9635 329.9449,-175.6699"/>
<polygon fill="#757575" stroke="#757575" points="330.2852,-172.178 319.8424,-173.9664 329.1212,-179.0805 330.2852,-172.178"/>
</g>
<!-- widgets&#45;system&#45;e2e -->
<g id="node26" class="node">
<title>widgets&#45;system&#45;e2e</title>
<polygon fill="none" stroke="#000000" points="746.3298,-324 605.4196,-324 605.4196,-288 746.3298,-288 746.3298,-324"/>
<text text-anchor="middle" x="675.8747" y="-301.8" font-family="Arial" font-size="14.00" fill="#000000">widgets&#45;system&#45;e2e</text>
</g>
<!-- widgets&#45;system&#45;e2e&#45;&gt;widgets&#45;system -->
<g id="edge33" class="edge">
<title>widgets&#45;system&#45;e2e&#45;&gt;widgets&#45;system</title>
<path fill="none" stroke="#000000" stroke-width="2" d="M675.8747,-287.8314C675.8747,-280.131 675.8747,-270.9743 675.8747,-262.4166"/>
<polygon fill="#000000" stroke="#000000" stroke-width="2" points="679.3748,-262.4132 675.8747,-252.4133 672.3748,-262.4133 679.3748,-262.4132"/>
</g>
</g>
</svg>
