<?xml version="1.0" encoding="UTF-8" standalone="no"?>
<!DOCTYPE svg PUBLIC "-//W3C//DTD SVG 1.1//EN"
 "http://www.w3.org/Graphics/SVG/1.1/DTD/svg11.dtd">
<!-- Generated by graphviz version 2.40.1 (20161225.0304)
 -->
<!-- Title: G Pages: 1 -->
<svg width="2146pt" height="340pt"
 viewBox="0.00 0.00 2145.83 339.98" xmlns="http://www.w3.org/2000/svg" xmlns:xlink="http://www.w3.org/1999/xlink">
<g id="graph0" class="graph" transform="scale(1 1) rotate(0) translate(7.992 331.992)">
<title>G</title>
<polygon fill="#ffffff" stroke="transparent" points="-7.992,7.992 -7.992,-331.992 2137.835,-331.992 2137.835,7.992 -7.992,7.992"/>
<!-- arrow&#45;variation -->
<g id="node1" class="node">
<title>arrow&#45;variation</title>
<ellipse fill="#efefef" stroke="#000000" cx="1010.1637" cy="-90" rx="74.7496" ry="18"/>
<text text-anchor="middle" x="1010.1637" y="-85.8" font-family="Arial" font-size="14.00" fill="#000000">arrow&#45;variation</text>
</g>
<!-- button -->
<g id="node2" class="node">
<title>button</title>
<ellipse fill="#efefef" stroke="#000000" cx="170.1637" cy="-18" rx="37.7544" ry="18"/>
<text text-anchor="middle" x="170.1637" y="-13.8" font-family="Arial" font-size="14.00" fill="#000000">button</text>
</g>
<!-- buttons&#45;indicators&#45;shell -->
<g id="node3" class="node">
<title>buttons&#45;indicators&#45;shell</title>
<ellipse fill="#efefef" stroke="#000000" cx="228.1637" cy="-162" rx="110.1008" ry="18"/>
<text text-anchor="middle" x="228.1637" y="-157.8" font-family="Arial" font-size="14.00" fill="#000000">buttons&#45;indicators&#45;shell</text>
</g>
<!-- buttons&#45;indicators&#45;shell&#45;&gt;button -->
<g id="edge2" class="edge">
<title>buttons&#45;indicators&#45;shell&#45;&gt;button</title>
<path fill="none" stroke="#757575" d="M177.4363,-146.011C159.5801,-137.666 141.4192,-125.4467 131.1637,-108 118.6855,-86.7717 132.747,-60.8101 147.3477,-42.2353"/>
<polygon fill="#757575" stroke="#757575" points="150.0689,-44.437 153.7807,-34.5137 144.6908,-39.9564 150.0689,-44.437"/>
</g>
<!-- gdk -->
<g id="node4" class="node">
<title>gdk</title>
<ellipse fill="#efefef" stroke="#000000" cx="635.1637" cy="-90" rx="27" ry="18"/>
<text text-anchor="middle" x="635.1637" y="-85.8" font-family="Arial" font-size="14.00" fill="#000000">gdk</text>
</g>
<!-- buttons&#45;indicators&#45;shell&#45;&gt;gdk -->
<g id="edge1" class="edge">
<title>buttons&#45;indicators&#45;shell&#45;&gt;gdk</title>
<path fill="none" stroke="#757575" d="M320.2901,-151.9887C412.8197,-141.3251 548.7058,-123.835 599.1637,-108 601.0639,-107.4037 602.9871,-106.7171 604.9047,-105.9676"/>
<polygon fill="#757575" stroke="#757575" points="606.5723,-109.0577 614.3136,-101.8242 603.7511,-102.6514 606.5723,-109.0577"/>
</g>
<!-- countdown&#45;button -->
<g id="node5" class="node">
<title>countdown&#45;button</title>
<ellipse fill="#efefef" stroke="#000000" cx="228.1637" cy="-90" rx="87.5707" ry="18"/>
<text text-anchor="middle" x="228.1637" y="-85.8" font-family="Arial" font-size="14.00" fill="#000000">countdown&#45;button</text>
</g>
<!-- buttons&#45;indicators&#45;shell&#45;&gt;countdown&#45;button -->
<g id="edge3" class="edge">
<title>buttons&#45;indicators&#45;shell&#45;&gt;countdown&#45;button</title>
<path fill="none" stroke="#757575" d="M228.1637,-143.8314C228.1637,-136.131 228.1637,-126.9743 228.1637,-118.4166"/>
<polygon fill="#757575" stroke="#757575" points="231.6638,-118.4132 228.1637,-108.4133 224.6638,-118.4133 231.6638,-118.4132"/>
</g>
<!-- loading -->
<g id="node6" class="node">
<title>loading</title>
<ellipse fill="#efefef" stroke="#000000" cx="42.1637" cy="-90" rx="42.3281" ry="18"/>
<text text-anchor="middle" x="42.1637" y="-85.8" font-family="Arial" font-size="14.00" fill="#000000">loading</text>
</g>
<!-- buttons&#45;indicators&#45;shell&#45;&gt;loading -->
<g id="edge4" class="edge">
<title>buttons&#45;indicators&#45;shell&#45;&gt;loading</title>
<path fill="none" stroke="#757575" d="M185.0241,-145.3008C154.23,-133.3805 113.0809,-117.4518 82.8558,-105.7518"/>
<polygon fill="#757575" stroke="#757575" points="84.0425,-102.4581 73.4533,-102.1121 81.5155,-108.9861 84.0425,-102.4581"/>
</g>
<!-- countdown&#45;button&#45;&gt;button -->
<g id="edge9" class="edge">
<title>countdown&#45;button&#45;&gt;button</title>
<path fill="none" stroke="#757575" d="M213.8267,-72.2022C206.7695,-63.4416 198.1401,-52.7293 190.422,-43.1482"/>
<polygon fill="#757575" stroke="#757575" points="192.9355,-40.6891 183.9365,-35.0972 187.4842,-45.0805 192.9355,-40.6891"/>
</g>
<!-- card&#45;container -->
<g id="node7" class="node">
<title>card&#45;container</title>
<ellipse fill="#efefef" stroke="#000000" cx="1732.1637" cy="-90" rx="72.9857" ry="18"/>
<text text-anchor="middle" x="1732.1637" y="-85.8" font-family="Arial" font-size="14.00" fill="#000000">card&#45;container</text>
</g>
<!-- section&#45;title -->
<g id="node8" class="node">
<title>section&#45;title</title>
<ellipse fill="#efefef" stroke="#000000" cx="1733.1637" cy="-18" rx="59.7224" ry="18"/>
<text text-anchor="middle" x="1733.1637" y="-13.8" font-family="Arial" font-size="14.00" fill="#000000">section&#45;title</text>
</g>
<!-- card&#45;container&#45;&gt;section&#45;title -->
<g id="edge5" class="edge">
<title>card&#45;container&#45;&gt;section&#45;title</title>
<path fill="none" stroke="#757575" d="M1732.4161,-71.8314C1732.523,-64.131 1732.6502,-54.9743 1732.7691,-46.4166"/>
<polygon fill="#757575" stroke="#757575" points="1736.2687,-46.4609 1732.908,-36.4133 1729.2694,-46.3637 1736.2687,-46.4609"/>
</g>
<!-- controls&#45;shell -->
<g id="node9" class="node">
<title>controls&#45;shell</title>
<ellipse fill="#efefef" stroke="#000000" cx="740.1637" cy="-162" rx="67.8107" ry="18"/>
<text text-anchor="middle" x="740.1637" y="-157.8" font-family="Arial" font-size="14.00" fill="#000000">controls&#45;shell</text>
</g>
<!-- controls&#45;shell&#45;&gt;gdk -->
<g id="edge6" class="edge">
<title>controls&#45;shell&#45;&gt;gdk</title>
<path fill="none" stroke="#757575" d="M715.5459,-145.1192C699.6913,-134.2475 679.0575,-120.0986 662.6653,-108.8582"/>
<polygon fill="#757575" stroke="#757575" points="664.2788,-105.7208 654.0522,-102.9521 660.3201,-111.4939 664.2788,-105.7208"/>
</g>
<!-- slide&#45;toggle -->
<g id="node10" class="node">
<title>slide&#45;toggle</title>
<ellipse fill="#efefef" stroke="#000000" cx="740.1637" cy="-90" rx="60.3038" ry="18"/>
<text text-anchor="middle" x="740.1637" y="-85.8" font-family="Arial" font-size="14.00" fill="#000000">slide&#45;toggle</text>
</g>
<!-- controls&#45;shell&#45;&gt;slide&#45;toggle -->
<g id="edge7" class="edge">
<title>controls&#45;shell&#45;&gt;slide&#45;toggle</title>
<path fill="none" stroke="#757575" d="M740.1637,-143.8314C740.1637,-136.131 740.1637,-126.9743 740.1637,-118.4166"/>
<polygon fill="#757575" stroke="#757575" points="743.6638,-118.4132 740.1637,-108.4133 736.6638,-118.4133 743.6638,-118.4132"/>
</g>
<!-- form&#45;text -->
<g id="node11" class="node">
<title>form&#45;text</title>
<ellipse fill="#efefef" stroke="#000000" cx="868.1637" cy="-90" rx="49.2512" ry="18"/>
<text text-anchor="middle" x="868.1637" y="-85.8" font-family="Arial" font-size="14.00" fill="#000000">form&#45;text</text>
</g>
<!-- controls&#45;shell&#45;&gt;form&#45;text -->
<g id="edge8" class="edge">
<title>controls&#45;shell&#45;&gt;form&#45;text</title>
<path fill="none" stroke="#757575" d="M769.2089,-145.6621C787.8865,-135.156 812.2935,-121.427 832.1942,-110.2328"/>
<polygon fill="#757575" stroke="#757575" points="833.9841,-113.2418 840.984,-105.2886 830.5523,-107.1408 833.9841,-113.2418"/>
</g>
<!-- currency&#45;display -->
<g id="node12" class="node">
<title>currency&#45;display</title>
<ellipse fill="#efefef" stroke="#000000" cx="1384.1637" cy="-90" rx="81.138" ry="18"/>
<text text-anchor="middle" x="1384.1637" y="-85.8" font-family="Arial" font-size="14.00" fill="#000000">currency&#45;display</text>
</g>
<!-- pipes -->
<g id="node13" class="node">
<title>pipes</title>
<ellipse fill="#efefef" stroke="#000000" cx="1329.1637" cy="-18" rx="34.2259" ry="18"/>
<text text-anchor="middle" x="1329.1637" y="-13.8" font-family="Arial" font-size="14.00" fill="#000000">pipes</text>
</g>
<!-- currency&#45;display&#45;&gt;pipes -->
<g id="edge10" class="edge">
<title>currency&#45;display&#45;&gt;pipes</title>
<path fill="none" stroke="#757575" d="M1370.5682,-72.2022C1363.8761,-63.4416 1355.6931,-52.7293 1348.3742,-43.1482"/>
<polygon fill="#757575" stroke="#757575" points="1351.0759,-40.9193 1342.2241,-35.0972 1345.5132,-45.1686 1351.0759,-40.9193"/>
</g>
<!-- data&#45;formatter -->
<g id="node14" class="node">
<title>data&#45;formatter</title>
<ellipse fill="#efefef" stroke="#000000" cx="1175.1637" cy="-90" rx="71.8376" ry="18"/>
<text text-anchor="middle" x="1175.1637" y="-85.8" font-family="Arial" font-size="14.00" fill="#000000">data&#45;formatter</text>
</g>
<!-- directives -->
<g id="node15" class="node">
<title>directives</title>
<ellipse fill="#efefef" stroke="#000000" cx="880.1637" cy="-306" rx="51.6227" ry="18"/>
<text text-anchor="middle" x="880.1637" y="-301.8" font-family="Arial" font-size="14.00" fill="#000000">directives</text>
</g>
<!-- enhanced&#45;title -->
<g id="node16" class="node">
<title>enhanced&#45;title</title>
<ellipse fill="#efefef" stroke="#000000" cx="2058.1637" cy="-18" rx="71.8589" ry="18"/>
<text text-anchor="middle" x="2058.1637" y="-13.8" font-family="Arial" font-size="14.00" fill="#000000">enhanced&#45;title</text>
</g>
<!-- icon -->
<g id="node17" class="node">
<title>icon</title>
<ellipse fill="#efefef" stroke="#000000" cx="1537.1637" cy="-18" rx="28.991" ry="18"/>
<text text-anchor="middle" x="1537.1637" y="-13.8" font-family="Arial" font-size="14.00" fill="#000000">icon</text>
</g>
<!-- layout&#45;shell -->
<g id="node18" class="node">
<title>layout&#45;shell</title>
<ellipse fill="#efefef" stroke="#000000" cx="1656.1637" cy="-162" rx="59.7244" ry="18"/>
<text text-anchor="middle" x="1656.1637" y="-157.8" font-family="Arial" font-size="14.00" fill="#000000">layout&#45;shell</text>
</g>
<!-- layout&#45;shell&#45;&gt;gdk -->
<g id="edge11" class="edge">
<title>layout&#45;shell&#45;&gt;gdk</title>
<path fill="none" stroke="#757575" d="M1596.3548,-160.1376C1396.6366,-153.7229 760.298,-131.636 671.1637,-108 669.1881,-107.4761 667.194,-106.837 665.2113,-106.1157"/>
<polygon fill="#757575" stroke="#757575" points="666.104,-102.691 655.5331,-101.979 663.3528,-109.1277 666.104,-102.691"/>
</g>
<!-- layout&#45;shell&#45;&gt;card&#45;container -->
<g id="edge12" class="edge">
<title>layout&#45;shell&#45;&gt;card&#45;container</title>
<path fill="none" stroke="#757575" d="M1674.5612,-144.5708C1684.1058,-135.5286 1695.9225,-124.3338 1706.3642,-114.4417"/>
<polygon fill="#757575" stroke="#757575" points="1708.8198,-116.9366 1713.6723,-107.5182 1704.0056,-111.8549 1708.8198,-116.9366"/>
</g>
<!-- layout&#45;shell&#45;&gt;section&#45;title -->
<g id="edge18" class="edge">
<title>layout&#45;shell&#45;&gt;section&#45;title</title>
<path fill="none" stroke="#757575" d="M1705.645,-151.6657C1746.9953,-141.9073 1801.2232,-126.0981 1814.1637,-108 1823.4699,-94.9848 1821.7135,-86.1068 1814.1637,-72 1806.2387,-57.1919 1792.2608,-45.7433 1778.1235,-37.2773"/>
<polygon fill="#757575" stroke="#757575" points="1779.7918,-34.2003 1769.3531,-32.3881 1776.3833,-40.3144 1779.7918,-34.2003"/>
</g>
<!-- layout&#45;shell&#45;&gt;currency&#45;display -->
<g id="edge13" class="edge">
<title>layout&#45;shell&#45;&gt;currency&#45;display</title>
<path fill="none" stroke="#757575" d="M1610.9431,-150.0298C1565.9074,-138.1086 1496.4298,-119.7175 1446.2431,-106.4328"/>
<polygon fill="#757575" stroke="#757575" points="1447.0387,-103.0229 1436.476,-103.8474 1445.2474,-109.7898 1447.0387,-103.0229"/>
</g>
<!-- layout&#45;shell&#45;&gt;enhanced&#45;title -->
<g id="edge14" class="edge">
<title>layout&#45;shell&#45;&gt;enhanced&#45;title</title>
<path fill="none" stroke="#757575" d="M1714.5355,-157.4931C1816.1223,-149.114 2016.8784,-129.9794 2040.1637,-108 2056.6652,-92.424 2060.3779,-66.3274 2060.4238,-46.2346"/>
<polygon fill="#757575" stroke="#757575" points="2063.9182,-45.9795 2060.1461,-36.079 2056.9208,-46.1709 2063.9182,-45.9795"/>
</g>
<!-- layout&#45;shell&#45;&gt;icon -->
<g id="edge15" class="edge">
<title>layout&#45;shell&#45;&gt;icon</title>
<path fill="none" stroke="#757575" d="M1609.5279,-150.662C1572.0011,-140.4837 1523.6839,-124.6237 1512.1637,-108 1498.7673,-88.669 1508.5737,-62.3552 1519.5924,-43.1749"/>
<polygon fill="#757575" stroke="#757575" points="1522.5747,-45.0067 1524.8314,-34.6549 1516.6119,-41.34 1522.5747,-45.0067"/>
</g>
<!-- page&#45;header -->
<g id="node19" class="node">
<title>page&#45;header</title>
<ellipse fill="#efefef" stroke="#000000" cx="1965.1637" cy="-90" rx="65.5623" ry="18"/>
<text text-anchor="middle" x="1965.1637" y="-85.8" font-family="Arial" font-size="14.00" fill="#000000">page&#45;header</text>
</g>
<!-- layout&#45;shell&#45;&gt;page&#45;header -->
<g id="edge16" class="edge">
<title>layout&#45;shell&#45;&gt;page&#45;header</title>
<path fill="none" stroke="#757575" d="M1703.7678,-150.9078C1757.8589,-138.304 1846.2374,-117.711 1905.0435,-104.0086"/>
<polygon fill="#757575" stroke="#757575" points="1905.9954,-107.3806 1914.9402,-101.7026 1904.4068,-100.5633 1905.9954,-107.3806"/>
</g>
<!-- scroll&#45;container -->
<g id="node20" class="node">
<title>scroll&#45;container</title>
<ellipse fill="#efefef" stroke="#000000" cx="1890.1637" cy="-18" rx="76.4768" ry="18"/>
<text text-anchor="middle" x="1890.1637" y="-13.8" font-family="Arial" font-size="14.00" fill="#000000">scroll&#45;container</text>
</g>
<!-- layout&#45;shell&#45;&gt;scroll&#45;container -->
<g id="edge17" class="edge">
<title>layout&#45;shell&#45;&gt;scroll&#45;container</title>
<path fill="none" stroke="#757575" d="M1711.4822,-154.8936C1748.3337,-147.9084 1796.2258,-134.2807 1831.1637,-108 1852.5916,-91.8818 1868.5368,-65.5502 1878.4122,-45.5224"/>
<polygon fill="#757575" stroke="#757575" points="1881.6757,-46.8075 1882.77,-36.2693 1875.3428,-43.825 1881.6757,-46.8075"/>
</g>
<!-- sort&#45;header -->
<g id="node21" class="node">
<title>sort&#45;header</title>
<ellipse fill="#efefef" stroke="#000000" cx="1581.1637" cy="-90" rx="60.3058" ry="18"/>
<text text-anchor="middle" x="1581.1637" y="-85.8" font-family="Arial" font-size="14.00" fill="#000000">sort&#45;header</text>
</g>
<!-- layout&#45;shell&#45;&gt;sort&#45;header -->
<g id="edge19" class="edge">
<title>layout&#45;shell&#45;&gt;sort&#45;header</title>
<path fill="none" stroke="#757575" d="M1638.0083,-144.5708C1628.5196,-135.4616 1616.7553,-124.1679 1606.395,-114.2221"/>
<polygon fill="#757575" stroke="#757575" points="1608.7897,-111.6692 1599.152,-107.2687 1603.942,-116.7189 1608.7897,-111.6692"/>
</g>
<!-- page&#45;header&#45;&gt;enhanced&#45;title -->
<g id="edge20" class="edge">
<title>page&#45;header&#45;&gt;enhanced&#45;title</title>
<path fill="none" stroke="#757575" d="M1987.2034,-72.937C1999.3914,-63.5012 2014.7135,-51.6389 2027.998,-41.3541"/>
<polygon fill="#757575" stroke="#757575" points="2030.1953,-44.0793 2035.9599,-35.19 2025.9101,-38.5443 2030.1953,-44.0793"/>
</g>
<!-- page&#45;header&#45;&gt;scroll&#45;container -->
<g id="edge21" class="edge">
<title>page&#45;header&#45;&gt;scroll&#45;container</title>
<path fill="none" stroke="#757575" d="M1947.0083,-72.5708C1937.6808,-63.6164 1926.1544,-52.551 1915.9243,-42.7302"/>
<polygon fill="#757575" stroke="#757575" points="1918.0497,-39.9187 1908.4119,-35.5182 1913.2019,-44.9685 1918.0497,-39.9187"/>
</g>
<!-- sort&#45;header&#45;&gt;icon -->
<g id="edge30" class="edge">
<title>sort&#45;header&#45;&gt;icon</title>
<path fill="none" stroke="#757575" d="M1570.2873,-72.2022C1565.0417,-63.6186 1558.6512,-53.1613 1552.8878,-43.7303"/>
<polygon fill="#757575" stroke="#757575" points="1555.8131,-41.805 1547.612,-35.0972 1549.8401,-45.4551 1555.8131,-41.805"/>
</g>
<!-- popover -->
<g id="node22" class="node">
<title>popover</title>
<ellipse fill="#efefef" stroke="#000000" cx="380.1637" cy="-90" rx="45.8426" ry="18"/>
<text text-anchor="middle" x="380.1637" y="-85.8" font-family="Arial" font-size="14.00" fill="#000000">popover</text>
</g>
<!-- popup&#45;confirm -->
<g id="node23" class="node">
<title>popup&#45;confirm</title>
<ellipse fill="#efefef" stroke="#000000" cx="517.1637" cy="-90" rx="72.9857" ry="18"/>
<text text-anchor="middle" x="517.1637" y="-85.8" font-family="Arial" font-size="14.00" fill="#000000">popup&#45;confirm</text>
</g>
<!-- popups&#45;modals&#45;shell -->
<g id="node24" class="node">
<title>popups&#45;modals&#45;shell</title>
<ellipse fill="#efefef" stroke="#000000" cx="517.1637" cy="-162" rx="100.2129" ry="18"/>
<text text-anchor="middle" x="517.1637" y="-157.8" font-family="Arial" font-size="14.00" fill="#000000">popups&#45;modals&#45;shell</text>
</g>
<!-- popups&#45;modals&#45;shell&#45;&gt;gdk -->
<g id="edge22" class="edge">
<title>popups&#45;modals&#45;shell&#45;&gt;gdk</title>
<path fill="none" stroke="#757575" d="M545.7282,-144.5708C564.1337,-133.3404 587.9809,-118.7895 606.4213,-107.5378"/>
<polygon fill="#757575" stroke="#757575" points="608.2786,-110.5046 614.992,-102.3082 604.6325,-104.5292 608.2786,-110.5046"/>
</g>
<!-- popups&#45;modals&#45;shell&#45;&gt;countdown&#45;button -->
<g id="edge23" class="edge">
<title>popups&#45;modals&#45;shell&#45;&gt;countdown&#45;button</title>
<path fill="none" stroke="#757575" d="M458.3319,-147.3429C410.6222,-135.4568 343.412,-118.7124 293.9315,-106.385"/>
<polygon fill="#757575" stroke="#757575" points="294.519,-102.9245 283.9694,-103.9032 292.8267,-109.7169 294.519,-102.9245"/>
</g>
<!-- popups&#45;modals&#45;shell&#45;&gt;popover -->
<g id="edge24" class="edge">
<title>popups&#45;modals&#45;shell&#45;&gt;popover</title>
<path fill="none" stroke="#757575" d="M484.6967,-144.937C464.2944,-134.2146 437.9303,-120.3591 416.7835,-109.2454"/>
<polygon fill="#757575" stroke="#757575" points="418.2547,-106.0647 407.7744,-104.5107 414.9981,-112.2611 418.2547,-106.0647"/>
</g>
<!-- popups&#45;modals&#45;shell&#45;&gt;popup&#45;confirm -->
<g id="edge25" class="edge">
<title>popups&#45;modals&#45;shell&#45;&gt;popup&#45;confirm</title>
<path fill="none" stroke="#757575" d="M517.1637,-143.8314C517.1637,-136.131 517.1637,-126.9743 517.1637,-118.4166"/>
<polygon fill="#757575" stroke="#757575" points="520.6638,-118.4132 517.1637,-108.4133 513.6638,-118.4133 520.6638,-118.4132"/>
</g>
<!-- presentational&#45;shell -->
<g id="node25" class="node">
<title>presentational&#45;shell</title>
<ellipse fill="#efefef" stroke="#000000" cx="1010.1637" cy="-162" rx="94.9903" ry="18"/>
<text text-anchor="middle" x="1010.1637" y="-157.8" font-family="Arial" font-size="14.00" fill="#000000">presentational&#45;shell</text>
</g>
<!-- presentational&#45;shell&#45;&gt;arrow&#45;variation -->
<g id="edge27" class="edge">
<title>presentational&#45;shell&#45;&gt;arrow&#45;variation</title>
<path fill="none" stroke="#757575" d="M1010.1637,-143.8314C1010.1637,-136.131 1010.1637,-126.9743 1010.1637,-118.4166"/>
<polygon fill="#757575" stroke="#757575" points="1013.6638,-118.4132 1010.1637,-108.4133 1006.6638,-118.4133 1013.6638,-118.4132"/>
</g>
<!-- presentational&#45;shell&#45;&gt;gdk -->
<g id="edge26" class="edge">
<title>presentational&#45;shell&#45;&gt;gdk</title>
<path fill="none" stroke="#757575" d="M921.7104,-155.3611C852.2799,-148.3845 753.8634,-134.5645 671.1637,-108 669.2677,-107.3909 667.3476,-106.6944 665.4323,-105.9374"/>
<polygon fill="#757575" stroke="#757575" points="666.5907,-102.6226 656.0299,-101.7738 663.7564,-109.0231 666.5907,-102.6226"/>
</g>
<!-- presentational&#45;shell&#45;&gt;pipes -->
<g id="edge29" class="edge">
<title>presentational&#45;shell&#45;&gt;pipes</title>
<path fill="none" stroke="#757575" d="M1085.5792,-151.0444C1146.994,-141.1082 1227.9734,-125.3886 1256.1637,-108 1269.8128,-99.5809 1294.7721,-66.745 1311.6617,-43.168"/>
<polygon fill="#757575" stroke="#757575" points="1314.5511,-45.1441 1317.4832,-34.963 1308.8421,-41.0935 1314.5511,-45.1441"/>
</g>
<!-- presentational&#45;shell&#45;&gt;data&#45;formatter -->
<g id="edge28" class="edge">
<title>presentational&#45;shell&#45;&gt;data&#45;formatter</title>
<path fill="none" stroke="#757575" d="M1048.0181,-145.4817C1072.4225,-134.8326 1104.2855,-120.9287 1130.009,-109.7039"/>
<polygon fill="#757575" stroke="#757575" points="1131.4176,-112.908 1139.1831,-105.7006 1128.6179,-106.4922 1131.4176,-112.908"/>
</g>
<!-- widgets&#45;system -->
<g id="node26" class="node">
<title>widgets&#45;system</title>
<polygon fill="none" stroke="#000000" points="796.6106,-252 683.7168,-252 683.7168,-216 796.6106,-216 796.6106,-252"/>
<text text-anchor="middle" x="740.1637" y="-229.8" font-family="Arial" font-size="14.00" fill="#000000">widgets&#45;system</text>
</g>
<!-- widgets&#45;system&#45;&gt;buttons&#45;indicators&#45;shell -->
<g id="edge31" class="edge">
<title>widgets&#45;system&#45;&gt;buttons&#45;indicators&#45;shell</title>
<path fill="none" stroke="#757575" stroke-dasharray="1,5" d="M683.9062,-226.0888C596.7078,-213.8265 427.9568,-190.0959 322.0663,-175.2051"/>
<polygon fill="#757575" stroke="#757575" points="322.4099,-171.719 312.02,-173.7923 321.4351,-178.6508 322.4099,-171.719"/>
</g>
<!-- widgets&#45;system&#45;&gt;controls&#45;shell -->
<g id="edge32" class="edge">
<title>widgets&#45;system&#45;&gt;controls&#45;shell</title>
<path fill="none" stroke="#757575" stroke-dasharray="1,5" d="M740.1637,-215.8314C740.1637,-208.131 740.1637,-198.9743 740.1637,-190.4166"/>
<polygon fill="#757575" stroke="#757575" points="743.6638,-190.4132 740.1637,-180.4133 736.6638,-190.4133 743.6638,-190.4132"/>
</g>
<!-- widgets&#45;system&#45;&gt;layout&#45;shell -->
<g id="edge33" class="edge">
<title>widgets&#45;system&#45;&gt;layout&#45;shell</title>
<path fill="none" stroke="#757575" stroke-dasharray="1,5" d="M796.4281,-229.5775C956.5273,-216.9933 1414.226,-181.0169 1588.0619,-167.353"/>
<polygon fill="#757575" stroke="#757575" points="1588.4131,-170.8363 1598.108,-166.5633 1587.8645,-163.8578 1588.4131,-170.8363"/>
</g>
<!-- widgets&#45;system&#45;&gt;popups&#45;modals&#45;shell -->
<g id="edge34" class="edge">
<title>widgets&#45;system&#45;&gt;popups&#45;modals&#45;shell</title>
<path fill="none" stroke="#757575" stroke-dasharray="1,5" d="M684.1793,-215.9243C651.0651,-205.2327 609.1803,-191.7094 575.6397,-180.8801"/>
<polygon fill="#757575" stroke="#757575" points="576.5591,-177.4991 565.9674,-177.7572 574.4083,-184.1605 576.5591,-177.4991"/>
</g>
<!-- widgets&#45;system&#45;&gt;presentational&#45;shell -->
<g id="edge35" class="edge">
<title>widgets&#45;system&#45;&gt;presentational&#45;shell</title>
<path fill="none" stroke="#757575" stroke-dasharray="1,5" d="M796.4359,-218.9941C839.7752,-207.4369 899.7541,-191.4426 945.1447,-179.3384"/>
<polygon fill="#757575" stroke="#757575" points="946.1278,-182.6986 954.8883,-176.7401 944.3241,-175.935 946.1278,-182.6986"/>
</g>
<!-- widgets&#45;system&#45;e2e -->
<g id="node27" class="node">
<title>widgets&#45;system&#45;e2e</title>
<polygon fill="none" stroke="#000000" points="810.6189,-324 669.7086,-324 669.7086,-288 810.6189,-288 810.6189,-324"/>
<text text-anchor="middle" x="740.1637" y="-301.8" font-family="Arial" font-size="14.00" fill="#000000">widgets&#45;system&#45;e2e</text>
</g>
<!-- widgets&#45;system&#45;e2e&#45;&gt;widgets&#45;system -->
<g id="edge36" class="edge">
<title>widgets&#45;system&#45;e2e&#45;&gt;widgets&#45;system</title>
<path fill="none" stroke="#000000" stroke-width="2" d="M740.1637,-287.8314C740.1637,-280.131 740.1637,-270.9743 740.1637,-262.4166"/>
<polygon fill="#000000" stroke="#000000" stroke-width="2" points="743.6638,-262.4132 740.1637,-252.4133 736.6638,-262.4133 743.6638,-262.4132"/>
</g>
</g>
</svg>
