<?xml version="1.0" encoding="UTF-8" standalone="no"?>
<!DOCTYPE svg PUBLIC "-//W3C//DTD SVG 1.1//EN"
 "http://www.w3.org/Graphics/SVG/1.1/DTD/svg11.dtd">
<!-- Generated by graphviz version 2.40.1 (20161225.0304)
 -->
<!-- Title: G Pages: 1 -->
<svg width="1463pt" height="340pt"
 viewBox="0.00 0.00 1463.02 339.98" xmlns="http://www.w3.org/2000/svg" xmlns:xlink="http://www.w3.org/1999/xlink">
<g id="graph0" class="graph" transform="scale(1 1) rotate(0) translate(7.992 331.992)">
<title>G</title>
<polygon fill="#ffffff" stroke="transparent" points="-7.992,7.992 -7.992,-331.992 1455.0304,-331.992 1455.0304,7.992 -7.992,7.992"/>
<!-- arrow&#45;variation -->
<g id="node1" class="node">
<title>arrow&#45;variation</title>
<ellipse fill="#efefef" stroke="#000000" cx="1372.1637" cy="-90" rx="74.7496" ry="18"/>
<text text-anchor="middle" x="1372.1637" y="-85.8" font-family="Arial" font-size="14.00" fill="#000000">arrow&#45;variation</text>
</g>
<!-- button -->
<g id="node2" class="node">
<title>button</title>
<ellipse fill="#efefef" stroke="#000000" cx="170.1637" cy="-18" rx="37.7544" ry="18"/>
<text text-anchor="middle" x="170.1637" y="-13.8" font-family="Arial" font-size="14.00" fill="#000000">button</text>
</g>
<!-- buttons&#45;indicators&#45;shell -->
<g id="node3" class="node">
<title>buttons&#45;indicators&#45;shell</title>
<ellipse fill="#efefef" stroke="#000000" cx="228.1637" cy="-162" rx="110.1008" ry="18"/>
<text text-anchor="middle" x="228.1637" y="-157.8" font-family="Arial" font-size="14.00" fill="#000000">buttons&#45;indicators&#45;shell</text>
</g>
<!-- buttons&#45;indicators&#45;shell&#45;&gt;button -->
<g id="edge2" class="edge">
<title>buttons&#45;indicators&#45;shell&#45;&gt;button</title>
<path fill="none" stroke="#757575" d="M177.4363,-146.011C159.5801,-137.666 141.4192,-125.4467 131.1637,-108 118.6855,-86.7717 132.747,-60.8101 147.3477,-42.2353"/>
<polygon fill="#757575" stroke="#757575" points="150.0689,-44.437 153.7807,-34.5137 144.6908,-39.9564 150.0689,-44.437"/>
</g>
<!-- gdk -->
<g id="node4" class="node">
<title>gdk</title>
<ellipse fill="#efefef" stroke="#000000" cx="663.1637" cy="-90" rx="27" ry="18"/>
<text text-anchor="middle" x="663.1637" y="-85.8" font-family="Arial" font-size="14.00" fill="#000000">gdk</text>
</g>
<!-- buttons&#45;indicators&#45;shell&#45;&gt;gdk -->
<g id="edge1" class="edge">
<title>buttons&#45;indicators&#45;shell&#45;&gt;gdk</title>
<path fill="none" stroke="#757575" d="M310.5104,-149.9944C324.7304,-147.9635 339.3713,-145.899 353.1637,-144 474.8402,-127.2466 509.7219,-143.9617 627.1637,-108 629.068,-107.4169 630.9944,-106.7406 632.9145,-105.9989"/>
<polygon fill="#757575" stroke="#757575" points="634.5732,-109.0935 642.3298,-101.8765 631.7655,-102.6812 634.5732,-109.0935"/>
</g>
<!-- countdown&#45;button -->
<g id="node5" class="node">
<title>countdown&#45;button</title>
<ellipse fill="#efefef" stroke="#000000" cx="228.1637" cy="-90" rx="87.5707" ry="18"/>
<text text-anchor="middle" x="228.1637" y="-85.8" font-family="Arial" font-size="14.00" fill="#000000">countdown&#45;button</text>
</g>
<!-- buttons&#45;indicators&#45;shell&#45;&gt;countdown&#45;button -->
<g id="edge3" class="edge">
<title>buttons&#45;indicators&#45;shell&#45;&gt;countdown&#45;button</title>
<path fill="none" stroke="#757575" d="M228.1637,-143.8314C228.1637,-136.131 228.1637,-126.9743 228.1637,-118.4166"/>
<polygon fill="#757575" stroke="#757575" points="231.6638,-118.4132 228.1637,-108.4133 224.6638,-118.4133 231.6638,-118.4132"/>
</g>
<!-- loading -->
<g id="node6" class="node">
<title>loading</title>
<ellipse fill="#efefef" stroke="#000000" cx="42.1637" cy="-90" rx="42.3281" ry="18"/>
<text text-anchor="middle" x="42.1637" y="-85.8" font-family="Arial" font-size="14.00" fill="#000000">loading</text>
</g>
<!-- buttons&#45;indicators&#45;shell&#45;&gt;loading -->
<g id="edge4" class="edge">
<title>buttons&#45;indicators&#45;shell&#45;&gt;loading</title>
<path fill="none" stroke="#757575" d="M185.0241,-145.3008C154.23,-133.3805 113.0809,-117.4518 82.8558,-105.7518"/>
<polygon fill="#757575" stroke="#757575" points="84.0425,-102.4581 73.4533,-102.1121 81.5155,-108.9861 84.0425,-102.4581"/>
</g>
<!-- countdown&#45;button&#45;&gt;button -->
<g id="edge8" class="edge">
<title>countdown&#45;button&#45;&gt;button</title>
<path fill="none" stroke="#757575" d="M213.8267,-72.2022C206.7695,-63.4416 198.1401,-52.7293 190.422,-43.1482"/>
<polygon fill="#757575" stroke="#757575" points="192.9355,-40.6891 183.9365,-35.0972 187.4842,-45.0805 192.9355,-40.6891"/>
</g>
<!-- card&#45;container -->
<g id="node7" class="node">
<title>card&#45;container</title>
<ellipse fill="#efefef" stroke="#000000" cx="1045.1637" cy="-90" rx="72.9857" ry="18"/>
<text text-anchor="middle" x="1045.1637" y="-85.8" font-family="Arial" font-size="14.00" fill="#000000">card&#45;container</text>
</g>
<!-- section&#45;title -->
<g id="node8" class="node">
<title>section&#45;title</title>
<ellipse fill="#efefef" stroke="#000000" cx="1044.1637" cy="-18" rx="59.7224" ry="18"/>
<text text-anchor="middle" x="1044.1637" y="-13.8" font-family="Arial" font-size="14.00" fill="#000000">section&#45;title</text>
</g>
<!-- card&#45;container&#45;&gt;section&#45;title -->
<g id="edge5" class="edge">
<title>card&#45;container&#45;&gt;section&#45;title</title>
<path fill="none" stroke="#757575" d="M1044.9114,-71.8314C1044.8044,-64.131 1044.6773,-54.9743 1044.5584,-46.4166"/>
<polygon fill="#757575" stroke="#757575" points="1048.0581,-46.3637 1044.4195,-36.4133 1041.0588,-46.4609 1048.0581,-46.3637"/>
</g>
<!-- controls&#45;shell -->
<g id="node9" class="node">
<title>controls&#45;shell</title>
<ellipse fill="#efefef" stroke="#000000" cx="653.1637" cy="-162" rx="67.8107" ry="18"/>
<text text-anchor="middle" x="653.1637" y="-157.8" font-family="Arial" font-size="14.00" fill="#000000">controls&#45;shell</text>
</g>
<!-- controls&#45;shell&#45;&gt;gdk -->
<g id="edge6" class="edge">
<title>controls&#45;shell&#45;&gt;gdk</title>
<path fill="none" stroke="#757575" d="M655.6872,-143.8314C656.7567,-136.131 658.0284,-126.9743 659.217,-118.4166"/>
<polygon fill="#757575" stroke="#757575" points="662.6973,-118.7997 660.6063,-108.4133 655.7638,-117.8367 662.6973,-118.7997"/>
</g>
<!-- slide&#45;toggle -->
<g id="node10" class="node">
<title>slide&#45;toggle</title>
<ellipse fill="#efefef" stroke="#000000" cx="558.1637" cy="-90" rx="60.3038" ry="18"/>
<text text-anchor="middle" x="558.1637" y="-85.8" font-family="Arial" font-size="14.00" fill="#000000">slide&#45;toggle</text>
</g>
<!-- controls&#45;shell&#45;&gt;slide&#45;toggle -->
<g id="edge7" class="edge">
<title>controls&#45;shell&#45;&gt;slide&#45;toggle</title>
<path fill="none" stroke="#757575" d="M630.6501,-144.937C618.1091,-135.4323 602.3197,-123.4656 588.6814,-113.1292"/>
<polygon fill="#757575" stroke="#757575" points="590.5996,-110.1913 580.5158,-106.9405 586.3714,-115.7701 590.5996,-110.1913"/>
</g>
<!-- data&#45;formatter -->
<g id="node11" class="node">
<title>data&#45;formatter</title>
<ellipse fill="#efefef" stroke="#000000" cx="1207.1637" cy="-90" rx="71.8376" ry="18"/>
<text text-anchor="middle" x="1207.1637" y="-85.8" font-family="Arial" font-size="14.00" fill="#000000">data&#45;formatter</text>
</g>
<!-- directives -->
<g id="node12" class="node">
<title>directives</title>
<ellipse fill="#efefef" stroke="#000000" cx="793.1637" cy="-306" rx="51.6227" ry="18"/>
<text text-anchor="middle" x="793.1637" y="-301.8" font-family="Arial" font-size="14.00" fill="#000000">directives</text>
</g>
<!-- enhanced&#45;title -->
<g id="node13" class="node">
<title>enhanced&#45;title</title>
<ellipse fill="#efefef" stroke="#000000" cx="719.1637" cy="-18" rx="71.8589" ry="18"/>
<text text-anchor="middle" x="719.1637" y="-13.8" font-family="Arial" font-size="14.00" fill="#000000">enhanced&#45;title</text>
</g>
<!-- layout&#45;shell -->
<g id="node14" class="node">
<title>layout&#45;shell</title>
<ellipse fill="#efefef" stroke="#000000" cx="812.1637" cy="-162" rx="59.7244" ry="18"/>
<text text-anchor="middle" x="812.1637" y="-157.8" font-family="Arial" font-size="14.00" fill="#000000">layout&#45;shell</text>
</g>
<!-- layout&#45;shell&#45;&gt;gdk -->
<g id="edge9" class="edge">
<title>layout&#45;shell&#45;&gt;gdk</title>
<path fill="none" stroke="#757575" d="M780.1995,-146.5542C754.8745,-134.3166 719.6877,-117.3136 694.5219,-105.1529"/>
<polygon fill="#757575" stroke="#757575" points="695.9356,-101.9489 685.4089,-100.7493 692.89,-108.2516 695.9356,-101.9489"/>
</g>
<!-- layout&#45;shell&#45;&gt;card&#45;container -->
<g id="edge10" class="edge">
<title>layout&#45;shell&#45;&gt;card&#45;container</title>
<path fill="none" stroke="#757575" d="M854.0886,-149.0447C892.0541,-137.3128 948.2486,-119.948 989.8778,-107.0841"/>
<polygon fill="#757575" stroke="#757575" points="991.0713,-110.3786 999.5922,-104.0822 989.0046,-103.6907 991.0713,-110.3786"/>
</g>
<!-- layout&#45;shell&#45;&gt;section&#45;title -->
<g id="edge13" class="edge">
<title>layout&#45;shell&#45;&gt;section&#45;title</title>
<path fill="none" stroke="#757575" d="M840.7919,-146.1085C859.5428,-135.5642 884.4986,-121.2731 906.1637,-108 942.477,-85.7527 983.2294,-58.9409 1010.9746,-40.3989"/>
<polygon fill="#757575" stroke="#757575" points="1013.1433,-43.1589 1019.5036,-34.6857 1009.2475,-37.3432 1013.1433,-43.1589"/>
</g>
<!-- layout&#45;shell&#45;&gt;enhanced&#45;title -->
<g id="edge11" class="edge">
<title>layout&#45;shell&#45;&gt;enhanced&#45;title</title>
<path fill="none" stroke="#757575" d="M780.7396,-146.6306C765.2913,-137.4933 747.7611,-124.4578 737.1637,-108 725.2818,-89.5474 720.975,-64.8983 719.5315,-46.062"/>
<polygon fill="#757575" stroke="#757575" points="723.0225,-45.7988 718.9854,-36.0033 716.0328,-46.1784 723.0225,-45.7988"/>
</g>
<!-- scroll&#45;container -->
<g id="node15" class="node">
<title>scroll&#45;container</title>
<ellipse fill="#efefef" stroke="#000000" cx="888.1637" cy="-18" rx="76.4768" ry="18"/>
<text text-anchor="middle" x="888.1637" y="-13.8" font-family="Arial" font-size="14.00" fill="#000000">scroll&#45;container</text>
</g>
<!-- layout&#45;shell&#45;&gt;scroll&#45;container -->
<g id="edge12" class="edge">
<title>layout&#45;shell&#45;&gt;scroll&#45;container</title>
<path fill="none" stroke="#757575" d="M845.6623,-146.9395C861.2568,-138.0205 878.2909,-125.0873 887.1637,-108 897.0216,-89.0158 896.6226,-64.5993 894.1174,-45.9889"/>
<polygon fill="#757575" stroke="#757575" points="897.5623,-45.3665 892.5109,-36.0534 890.652,-46.4839 897.5623,-45.3665"/>
</g>
<!-- page&#45;header -->
<g id="node16" class="node">
<title>page&#45;header</title>
<ellipse fill="#efefef" stroke="#000000" cx="812.1637" cy="-90" rx="65.5623" ry="18"/>
<text text-anchor="middle" x="812.1637" y="-85.8" font-family="Arial" font-size="14.00" fill="#000000">page&#45;header</text>
</g>
<!-- layout&#45;shell&#45;&gt;page&#45;header -->
<g id="edge14" class="edge">
<title>layout&#45;shell&#45;&gt;page&#45;header</title>
<path fill="none" stroke="#757575" d="M812.1637,-143.8314C812.1637,-136.131 812.1637,-126.9743 812.1637,-118.4166"/>
<polygon fill="#757575" stroke="#757575" points="815.6638,-118.4132 812.1637,-108.4133 808.6638,-118.4133 815.6638,-118.4132"/>
</g>
<!-- page&#45;header&#45;&gt;enhanced&#45;title -->
<g id="edge15" class="edge">
<title>page&#45;header&#45;&gt;enhanced&#45;title</title>
<path fill="none" stroke="#757575" d="M790.124,-72.937C777.9361,-63.5012 762.614,-51.6389 749.3295,-41.3541"/>
<polygon fill="#757575" stroke="#757575" points="751.4174,-38.5443 741.3675,-35.19 747.1322,-44.0793 751.4174,-38.5443"/>
</g>
<!-- page&#45;header&#45;&gt;scroll&#45;container -->
<g id="edge16" class="edge">
<title>page&#45;header&#45;&gt;scroll&#45;container</title>
<path fill="none" stroke="#757575" d="M830.5612,-72.5708C840.1058,-63.5286 851.9225,-52.3338 862.3642,-42.4417"/>
<polygon fill="#757575" stroke="#757575" points="864.8198,-44.9366 869.6723,-35.5182 860.0056,-39.8549 864.8198,-44.9366"/>
</g>
<!-- pipes -->
<g id="node17" class="node">
<title>pipes</title>
<ellipse fill="#efefef" stroke="#000000" cx="897.1637" cy="-306" rx="34.2259" ry="18"/>
<text text-anchor="middle" x="897.1637" y="-301.8" font-family="Arial" font-size="14.00" fill="#000000">pipes</text>
</g>
<!-- popup&#45;confirm -->
<g id="node18" class="node">
<title>popup&#45;confirm</title>
<ellipse fill="#efefef" stroke="#000000" cx="407.1637" cy="-90" rx="72.9857" ry="18"/>
<text text-anchor="middle" x="407.1637" y="-85.8" font-family="Arial" font-size="14.00" fill="#000000">popup&#45;confirm</text>
</g>
<!-- popups&#45;modals&#45;shell -->
<g id="node19" class="node">
<title>popups&#45;modals&#45;shell</title>
<ellipse fill="#efefef" stroke="#000000" cx="462.1637" cy="-162" rx="100.2129" ry="18"/>
<text text-anchor="middle" x="462.1637" y="-157.8" font-family="Arial" font-size="14.00" fill="#000000">popups&#45;modals&#45;shell</text>
</g>
<!-- popups&#45;modals&#45;shell&#45;&gt;gdk -->
<g id="edge17" class="edge">
<title>popups&#45;modals&#45;shell&#45;&gt;gdk</title>
<path fill="none" stroke="#757575" d="M515.6426,-146.6853C548.2933,-136.7988 590.6436,-123.0104 627.1637,-108 628.9572,-107.2628 630.7849,-106.474 632.6183,-105.6533"/>
<polygon fill="#757575" stroke="#757575" points="634.1446,-108.8033 641.7008,-101.3768 631.1626,-102.4702 634.1446,-108.8033"/>
</g>
<!-- popups&#45;modals&#45;shell&#45;&gt;countdown&#45;button -->
<g id="edge18" class="edge">
<title>popups&#45;modals&#45;shell&#45;&gt;countdown&#45;button</title>
<path fill="none" stroke="#757575" d="M411.3892,-146.3771C374.8657,-135.1391 325.5041,-119.9509 287.2174,-108.1703"/>
<polygon fill="#757575" stroke="#757575" points="287.8227,-104.6947 277.2356,-105.099 285.7641,-111.3852 287.8227,-104.6947"/>
</g>
<!-- popups&#45;modals&#45;shell&#45;&gt;popup&#45;confirm -->
<g id="edge19" class="edge">
<title>popups&#45;modals&#45;shell&#45;&gt;popup&#45;confirm</title>
<path fill="none" stroke="#757575" d="M448.2849,-143.8314C441.8527,-135.411 434.0904,-125.2495 427.0507,-116.0338"/>
<polygon fill="#757575" stroke="#757575" points="429.6994,-113.7355 420.8476,-107.9134 424.1367,-117.9848 429.6994,-113.7355"/>
</g>
<!-- presentational&#45;shell -->
<g id="node20" class="node">
<title>presentational&#45;shell</title>
<ellipse fill="#efefef" stroke="#000000" cx="1096.1637" cy="-162" rx="94.9903" ry="18"/>
<text text-anchor="middle" x="1096.1637" y="-157.8" font-family="Arial" font-size="14.00" fill="#000000">presentational&#45;shell</text>
</g>
<!-- presentational&#45;shell&#45;&gt;arrow&#45;variation -->
<g id="edge21" class="edge">
<title>presentational&#45;shell&#45;&gt;arrow&#45;variation</title>
<path fill="none" stroke="#757575" d="M1152.0165,-147.4297C1198.1919,-135.384 1263.66,-118.3053 1311.1913,-105.9059"/>
<polygon fill="#757575" stroke="#757575" points="1312.2556,-109.2454 1321.0483,-103.3345 1310.4886,-102.4721 1312.2556,-109.2454"/>
</g>
<!-- presentational&#45;shell&#45;&gt;gdk -->
<g id="edge20" class="edge">
<title>presentational&#45;shell&#45;&gt;gdk</title>
<path fill="none" stroke="#757575" d="M1016.6726,-152.1162C943.6922,-142.5514 832.7154,-126.7686 737.1637,-108 724.3925,-105.4914 710.5015,-102.2506 698.2402,-99.2117"/>
<polygon fill="#757575" stroke="#757575" points="698.9366,-95.7778 688.3844,-96.7269 697.2253,-102.5654 698.9366,-95.7778"/>
</g>
<!-- presentational&#45;shell&#45;&gt;data&#45;formatter -->
<g id="edge22" class="edge">
<title>presentational&#45;shell&#45;&gt;data&#45;formatter</title>
<path fill="none" stroke="#757575" d="M1123.0337,-144.5708C1137.8671,-134.9492 1156.4578,-122.8903 1172.3883,-112.557"/>
<polygon fill="#757575" stroke="#757575" points="1174.4393,-115.3986 1180.9242,-107.0202 1170.6299,-109.5258 1174.4393,-115.3986"/>
</g>
<!-- ui&#45;icon -->
<g id="node21" class="node">
<title>ui&#45;icon</title>
<ellipse fill="#efefef" stroke="#000000" cx="989.1637" cy="-306" rx="39.4409" ry="18"/>
<text text-anchor="middle" x="989.1637" y="-301.8" font-family="Arial" font-size="14.00" fill="#000000">ui&#45;icon</text>
</g>
<!-- widgets&#45;system -->
<g id="node22" class="node">
<title>widgets&#45;system</title>
<polygon fill="none" stroke="#000000" points="709.6106,-252 596.7168,-252 596.7168,-216 709.6106,-216 709.6106,-252"/>
<text text-anchor="middle" x="653.1637" y="-229.8" font-family="Arial" font-size="14.00" fill="#000000">widgets&#45;system</text>
</g>
<!-- widgets&#45;system&#45;&gt;buttons&#45;indicators&#45;shell -->
<g id="edge23" class="edge">
<title>widgets&#45;system&#45;&gt;buttons&#45;indicators&#45;shell</title>
<path fill="none" stroke="#757575" stroke-dasharray="1,5" d="M596.727,-224.439C524.6906,-212.2351 399.3274,-190.9971 315.0633,-176.7218"/>
<polygon fill="#757575" stroke="#757575" points="315.4414,-173.2361 304.9972,-175.0165 314.2721,-180.1377 315.4414,-173.2361"/>
</g>
<!-- widgets&#45;system&#45;&gt;controls&#45;shell -->
<g id="edge24" class="edge">
<title>widgets&#45;system&#45;&gt;controls&#45;shell</title>
<path fill="none" stroke="#757575" stroke-dasharray="1,5" d="M653.1637,-215.8314C653.1637,-208.131 653.1637,-198.9743 653.1637,-190.4166"/>
<polygon fill="#757575" stroke="#757575" points="656.6638,-190.4132 653.1637,-180.4133 649.6638,-190.4133 656.6638,-190.4132"/>
</g>
<!-- widgets&#45;system&#45;&gt;layout&#45;shell -->
<g id="edge25" class="edge">
<title>widgets&#45;system&#45;&gt;layout&#45;shell</title>
<path fill="none" stroke="#757575" stroke-dasharray="1,5" d="M693.2862,-215.8314C716.6764,-205.2396 746.1507,-191.8927 769.8988,-181.1388"/>
<polygon fill="#757575" stroke="#757575" points="771.3599,-184.3194 779.0257,-177.0059 768.4723,-177.9427 771.3599,-184.3194"/>
</g>
<!-- widgets&#45;system&#45;&gt;popups&#45;modals&#45;shell -->
<g id="edge26" class="edge">
<title>widgets&#45;system&#45;&gt;popups&#45;modals&#45;shell</title>
<path fill="none" stroke="#757575" stroke-dasharray="1,5" d="M604.9664,-215.8314C577.5831,-205.5089 543.2582,-192.5696 515.1241,-181.9641"/>
<polygon fill="#757575" stroke="#757575" points="516.0442,-178.5706 505.4524,-178.3182 513.575,-185.1207 516.0442,-178.5706"/>
</g>
<!-- widgets&#45;system&#45;&gt;presentational&#45;shell -->
<g id="edge27" class="edge">
<title>widgets&#45;system&#45;&gt;presentational&#45;shell</title>
<path fill="none" stroke="#757575" stroke-dasharray="1,5" d="M709.72,-224.808C786.7579,-212.2872 925.2084,-189.7851 1013.7858,-175.3887"/>
<polygon fill="#757575" stroke="#757575" points="1014.4894,-178.8204 1023.7984,-173.7614 1013.3664,-171.9111 1014.4894,-178.8204"/>
</g>
<!-- widgets&#45;system&#45;e2e -->
<g id="node23" class="node">
<title>widgets&#45;system&#45;e2e</title>
<polygon fill="none" stroke="#000000" points="723.6189,-324 582.7086,-324 582.7086,-288 723.6189,-288 723.6189,-324"/>
<text text-anchor="middle" x="653.1637" y="-301.8" font-family="Arial" font-size="14.00" fill="#000000">widgets&#45;system&#45;e2e</text>
</g>
<!-- widgets&#45;system&#45;e2e&#45;&gt;widgets&#45;system -->
<g id="edge28" class="edge">
<title>widgets&#45;system&#45;e2e&#45;&gt;widgets&#45;system</title>
<path fill="none" stroke="#000000" stroke-width="2" d="M653.1637,-287.8314C653.1637,-280.131 653.1637,-270.9743 653.1637,-262.4166"/>
<polygon fill="#000000" stroke="#000000" stroke-width="2" points="656.6638,-262.4132 653.1637,-252.4133 649.6638,-262.4133 656.6638,-262.4132"/>
</g>
</g>
</svg>
