<?xml version="1.0" encoding="UTF-8" standalone="no"?>
<!DOCTYPE svg PUBLIC "-//W3C//DTD SVG 1.1//EN"
 "http://www.w3.org/Graphics/SVG/1.1/DTD/svg11.dtd">
<!-- Generated by graphviz version 2.40.1 (20161225.0304)
 -->
<!-- Title: G Pages: 1 -->
<svg width="1407pt" height="340pt"
 viewBox="0.00 0.00 1407.02 339.98" xmlns="http://www.w3.org/2000/svg" xmlns:xlink="http://www.w3.org/1999/xlink">
<g id="graph0" class="graph" transform="scale(1 1) rotate(0) translate(7.992 331.992)">
<title>G</title>
<polygon fill="#ffffff" stroke="transparent" points="-7.992,7.992 -7.992,-331.992 1399.0304,-331.992 1399.0304,7.992 -7.992,7.992"/>
<!-- arrow&#45;variation -->
<g id="node1" class="node">
<title>arrow&#45;variation</title>
<ellipse fill="#efefef" stroke="#000000" cx="1316.1637" cy="-90" rx="74.7496" ry="18"/>
<text text-anchor="middle" x="1316.1637" y="-85.8" font-family="Arial" font-size="14.00" fill="#000000">arrow&#45;variation</text>
</g>
<!-- button -->
<g id="node2" class="node">
<title>button</title>
<ellipse fill="#efefef" stroke="#000000" cx="170.1637" cy="-18" rx="37.7544" ry="18"/>
<text text-anchor="middle" x="170.1637" y="-13.8" font-family="Arial" font-size="14.00" fill="#000000">button</text>
</g>
<!-- buttons&#45;indicators&#45;shell -->
<g id="node3" class="node">
<title>buttons&#45;indicators&#45;shell</title>
<ellipse fill="#efefef" stroke="#000000" cx="224.1637" cy="-162" rx="110.1008" ry="18"/>
<text text-anchor="middle" x="224.1637" y="-157.8" font-family="Arial" font-size="14.00" fill="#000000">buttons&#45;indicators&#45;shell</text>
</g>
<!-- buttons&#45;indicators&#45;shell&#45;&gt;button -->
<g id="edge2" class="edge">
<title>buttons&#45;indicators&#45;shell&#45;&gt;button</title>
<path fill="none" stroke="#757575" d="M175.9635,-145.7728C158.6796,-137.3573 141.0378,-125.1512 131.1637,-108 118.878,-86.6597 132.9146,-60.7126 147.4571,-42.1717"/>
<polygon fill="#757575" stroke="#757575" points="150.1616,-44.3933 153.8627,-34.466 144.7786,-39.9185 150.1616,-44.3933"/>
</g>
<!-- gdk -->
<g id="node4" class="node">
<title>gdk</title>
<ellipse fill="#efefef" stroke="#000000" cx="663.1637" cy="-90" rx="27" ry="18"/>
<text text-anchor="middle" x="663.1637" y="-85.8" font-family="Arial" font-size="14.00" fill="#000000">gdk</text>
</g>
<!-- buttons&#45;indicators&#45;shell&#45;&gt;gdk -->
<g id="edge1" class="edge">
<title>buttons&#45;indicators&#45;shell&#45;&gt;gdk</title>
<path fill="none" stroke="#757575" d="M304.4599,-149.5856C317.3937,-147.6633 330.6428,-145.7403 343.1637,-144 469.1846,-126.4844 505.4227,-144.9754 627.1637,-108 629.0693,-107.4212 630.9967,-106.7483 632.9176,-106.0092"/>
<polygon fill="#757575" stroke="#757575" points="634.5734,-109.1053 642.335,-101.8936 631.7702,-102.691 634.5734,-109.1053"/>
</g>
<!-- countdown&#45;button -->
<g id="node5" class="node">
<title>countdown&#45;button</title>
<ellipse fill="#efefef" stroke="#000000" cx="228.1637" cy="-90" rx="87.5707" ry="18"/>
<text text-anchor="middle" x="228.1637" y="-85.8" font-family="Arial" font-size="14.00" fill="#000000">countdown&#45;button</text>
</g>
<!-- buttons&#45;indicators&#45;shell&#45;&gt;countdown&#45;button -->
<g id="edge3" class="edge">
<title>buttons&#45;indicators&#45;shell&#45;&gt;countdown&#45;button</title>
<path fill="none" stroke="#757575" d="M225.1731,-143.8314C225.6009,-136.131 226.1096,-126.9743 226.585,-118.4166"/>
<polygon fill="#757575" stroke="#757575" points="230.0806,-118.592 227.1408,-108.4133 223.0914,-118.2037 230.0806,-118.592"/>
</g>
<!-- loading -->
<g id="node6" class="node">
<title>loading</title>
<ellipse fill="#efefef" stroke="#000000" cx="42.1637" cy="-90" rx="42.3281" ry="18"/>
<text text-anchor="middle" x="42.1637" y="-85.8" font-family="Arial" font-size="14.00" fill="#000000">loading</text>
</g>
<!-- buttons&#45;indicators&#45;shell&#45;&gt;loading -->
<g id="edge4" class="edge">
<title>buttons&#45;indicators&#45;shell&#45;&gt;loading</title>
<path fill="none" stroke="#757575" d="M181.9518,-145.3008C152.1391,-133.5067 112.4076,-117.7888 82.924,-106.1249"/>
<polygon fill="#757575" stroke="#757575" points="83.9335,-102.7604 73.3472,-102.3363 81.3584,-109.2696 83.9335,-102.7604"/>
</g>
<!-- countdown&#45;button&#45;&gt;button -->
<g id="edge8" class="edge">
<title>countdown&#45;button&#45;&gt;button</title>
<path fill="none" stroke="#757575" d="M213.8267,-72.2022C206.7695,-63.4416 198.1401,-52.7293 190.422,-43.1482"/>
<polygon fill="#757575" stroke="#757575" points="192.9355,-40.6891 183.9365,-35.0972 187.4842,-45.0805 192.9355,-40.6891"/>
</g>
<!-- card&#45;container -->
<g id="node7" class="node">
<title>card&#45;container</title>
<ellipse fill="#efefef" stroke="#000000" cx="781.1637" cy="-90" rx="72.9857" ry="18"/>
<text text-anchor="middle" x="781.1637" y="-85.8" font-family="Arial" font-size="14.00" fill="#000000">card&#45;container</text>
</g>
<!-- section&#45;title -->
<g id="node8" class="node">
<title>section&#45;title</title>
<ellipse fill="#efefef" stroke="#000000" cx="997.1637" cy="-18" rx="59.7224" ry="18"/>
<text text-anchor="middle" x="997.1637" y="-13.8" font-family="Arial" font-size="14.00" fill="#000000">section&#45;title</text>
</g>
<!-- card&#45;container&#45;&gt;section&#45;title -->
<g id="edge5" class="edge">
<title>card&#45;container&#45;&gt;section&#45;title</title>
<path fill="none" stroke="#757575" d="M824.6147,-75.5163C860.1246,-63.6797 910.3397,-46.9414 947.4483,-34.5718"/>
<polygon fill="#757575" stroke="#757575" points="948.6827,-37.8497 957.0627,-31.367 946.4691,-31.209 948.6827,-37.8497"/>
</g>
<!-- controls&#45;shell -->
<g id="node9" class="node">
<title>controls&#45;shell</title>
<ellipse fill="#efefef" stroke="#000000" cx="638.1637" cy="-162" rx="67.8107" ry="18"/>
<text text-anchor="middle" x="638.1637" y="-157.8" font-family="Arial" font-size="14.00" fill="#000000">controls&#45;shell</text>
</g>
<!-- controls&#45;shell&#45;&gt;gdk -->
<g id="edge6" class="edge">
<title>controls&#45;shell&#45;&gt;gdk</title>
<path fill="none" stroke="#757575" d="M644.4723,-143.8314C647.2468,-135.8406 650.5659,-126.2819 653.632,-117.4514"/>
<polygon fill="#757575" stroke="#757575" points="656.97,-118.5082 656.9438,-107.9134 650.3573,-116.2121 656.97,-118.5082"/>
</g>
<!-- slide&#45;toggle -->
<g id="node10" class="node">
<title>slide&#45;toggle</title>
<ellipse fill="#efefef" stroke="#000000" cx="558.1637" cy="-90" rx="60.3038" ry="18"/>
<text text-anchor="middle" x="558.1637" y="-85.8" font-family="Arial" font-size="14.00" fill="#000000">slide&#45;toggle</text>
</g>
<!-- controls&#45;shell&#45;&gt;slide&#45;toggle -->
<g id="edge7" class="edge">
<title>controls&#45;shell&#45;&gt;slide&#45;toggle</title>
<path fill="none" stroke="#757575" d="M618.798,-144.5708C608.6766,-135.4616 596.128,-124.1679 585.0771,-114.2221"/>
<polygon fill="#757575" stroke="#757575" points="587.1255,-111.3568 577.3512,-107.2687 582.4427,-116.5599 587.1255,-111.3568"/>
</g>
<!-- directives -->
<g id="node11" class="node">
<title>directives</title>
<ellipse fill="#efefef" stroke="#000000" cx="778.1637" cy="-306" rx="51.6227" ry="18"/>
<text text-anchor="middle" x="778.1637" y="-301.8" font-family="Arial" font-size="14.00" fill="#000000">directives</text>
</g>
<!-- enhanced&#45;title -->
<g id="node12" class="node">
<title>enhanced&#45;title</title>
<ellipse fill="#efefef" stroke="#000000" cx="943.1637" cy="-90" rx="71.8589" ry="18"/>
<text text-anchor="middle" x="943.1637" y="-85.8" font-family="Arial" font-size="14.00" fill="#000000">enhanced&#45;title</text>
</g>
<!-- layout&#45;shell -->
<g id="node13" class="node">
<title>layout&#45;shell</title>
<ellipse fill="#efefef" stroke="#000000" cx="784.1637" cy="-162" rx="59.7244" ry="18"/>
<text text-anchor="middle" x="784.1637" y="-157.8" font-family="Arial" font-size="14.00" fill="#000000">layout&#45;shell</text>
</g>
<!-- layout&#45;shell&#45;&gt;gdk -->
<g id="edge9" class="edge">
<title>layout&#45;shell&#45;&gt;gdk</title>
<path fill="none" stroke="#757575" d="M757.009,-145.8418C737.7606,-134.3882 711.9634,-119.0378 692.2877,-107.33"/>
<polygon fill="#757575" stroke="#757575" points="693.834,-104.1773 683.4505,-102.0715 690.2544,-110.1929 693.834,-104.1773"/>
</g>
<!-- layout&#45;shell&#45;&gt;card&#45;container -->
<g id="edge10" class="edge">
<title>layout&#45;shell&#45;&gt;card&#45;container</title>
<path fill="none" stroke="#757575" d="M783.4067,-143.8314C783.0859,-136.131 782.7043,-126.9743 782.3478,-118.4166"/>
<polygon fill="#757575" stroke="#757575" points="785.8443,-118.2589 781.931,-108.4133 778.8504,-118.5503 785.8443,-118.2589"/>
</g>
<!-- layout&#45;shell&#45;&gt;section&#45;title -->
<g id="edge13" class="edge">
<title>layout&#45;shell&#45;&gt;section&#45;title</title>
<path fill="none" stroke="#757575" d="M827.745,-149.5763C836.1309,-147.4859 844.8816,-145.5087 853.1637,-144 928.1291,-130.3445 1143.1898,-164.6386 1194.1637,-108 1236.8663,-60.552 1136.2999,-36.4553 1063.7018,-25.6051"/>
<polygon fill="#757575" stroke="#757575" points="1064.0578,-22.1203 1053.6613,-24.1609 1063.0611,-29.049 1064.0578,-22.1203"/>
</g>
<!-- layout&#45;shell&#45;&gt;enhanced&#45;title -->
<g id="edge11" class="edge">
<title>layout&#45;shell&#45;&gt;enhanced&#45;title</title>
<path fill="none" stroke="#757575" d="M817.4953,-146.9064C841.1772,-136.1826 873.2236,-121.671 899.0273,-109.9863"/>
<polygon fill="#757575" stroke="#757575" points="900.5587,-113.1351 908.2244,-105.8216 897.6711,-106.7584 900.5587,-113.1351"/>
</g>
<!-- scroll&#45;container -->
<g id="node14" class="node">
<title>scroll&#45;container</title>
<ellipse fill="#efefef" stroke="#000000" cx="1109.1637" cy="-90" rx="76.4768" ry="18"/>
<text text-anchor="middle" x="1109.1637" y="-85.8" font-family="Arial" font-size="14.00" fill="#000000">scroll&#45;container</text>
</g>
<!-- layout&#45;shell&#45;&gt;scroll&#45;container -->
<g id="edge12" class="edge">
<title>layout&#45;shell&#45;&gt;scroll&#45;container</title>
<path fill="none" stroke="#757575" d="M828.9974,-149.9732C837.0276,-147.9136 845.3311,-145.845 853.1637,-144 928.7607,-126.1926 948.1732,-124.045 1024.1637,-108 1029.9312,-106.7822 1035.9185,-105.5168 1041.9242,-104.2467"/>
<polygon fill="#757575" stroke="#757575" points="1042.954,-107.6063 1052.013,-102.1122 1041.5051,-100.7579 1042.954,-107.6063"/>
</g>
<!-- popup&#45;confirm -->
<g id="node15" class="node">
<title>popup&#45;confirm</title>
<ellipse fill="#efefef" stroke="#000000" cx="407.1637" cy="-90" rx="72.9857" ry="18"/>
<text text-anchor="middle" x="407.1637" y="-85.8" font-family="Arial" font-size="14.00" fill="#000000">popup&#45;confirm</text>
</g>
<!-- popups&#45;modals&#45;shell -->
<g id="node16" class="node">
<title>popups&#45;modals&#45;shell</title>
<ellipse fill="#efefef" stroke="#000000" cx="452.1637" cy="-162" rx="100.2129" ry="18"/>
<text text-anchor="middle" x="452.1637" y="-157.8" font-family="Arial" font-size="14.00" fill="#000000">popups&#45;modals&#45;shell</text>
</g>
<!-- popups&#45;modals&#45;shell&#45;&gt;gdk -->
<g id="edge14" class="edge">
<title>popups&#45;modals&#45;shell&#45;&gt;gdk</title>
<path fill="none" stroke="#757575" d="M508.9378,-147.0403C543.587,-137.2834 588.5057,-123.5066 627.1637,-108 628.9634,-107.2781 630.796,-106.5012 632.6331,-105.6897"/>
<polygon fill="#757575" stroke="#757575" points="634.1495,-108.8444 641.7259,-101.4384 631.1847,-102.5033 634.1495,-108.8444"/>
</g>
<!-- popups&#45;modals&#45;shell&#45;&gt;countdown&#45;button -->
<g id="edge15" class="edge">
<title>popups&#45;modals&#45;shell&#45;&gt;countdown&#45;button</title>
<path fill="none" stroke="#757575" d="M403.2828,-146.2883C368.4227,-135.0832 321.4497,-119.9848 284.929,-108.246"/>
<polygon fill="#757575" stroke="#757575" points="285.9962,-104.9127 275.4048,-105.1846 283.854,-111.5769 285.9962,-104.9127"/>
</g>
<!-- popups&#45;modals&#45;shell&#45;&gt;popup&#45;confirm -->
<g id="edge16" class="edge">
<title>popups&#45;modals&#45;shell&#45;&gt;popup&#45;confirm</title>
<path fill="none" stroke="#757575" d="M440.8083,-143.8314C435.653,-135.5829 429.4534,-125.6635 423.7882,-116.5992"/>
<polygon fill="#757575" stroke="#757575" points="426.6277,-114.5384 418.3596,-107.9134 420.6917,-118.2484 426.6277,-114.5384"/>
</g>
<!-- presentational&#45;shell -->
<g id="node17" class="node">
<title>presentational&#45;shell</title>
<ellipse fill="#efefef" stroke="#000000" cx="957.1637" cy="-162" rx="94.9903" ry="18"/>
<text text-anchor="middle" x="957.1637" y="-157.8" font-family="Arial" font-size="14.00" fill="#000000">presentational&#45;shell</text>
</g>
<!-- presentational&#45;shell&#45;&gt;arrow&#45;variation -->
<g id="edge18" class="edge">
<title>presentational&#45;shell&#45;&gt;arrow&#45;variation</title>
<path fill="none" stroke="#757575" d="M1022.6424,-148.9454C1077.3261,-138.0331 1157.3351,-122.0442 1227.1637,-108 1234.1763,-106.5896 1241.4991,-105.1137 1248.8017,-103.6398"/>
<polygon fill="#757575" stroke="#757575" points="1249.607,-107.0479 1258.7163,-101.6375 1248.2213,-100.1864 1249.607,-107.0479"/>
</g>
<!-- presentational&#45;shell&#45;&gt;gdk -->
<g id="edge17" class="edge">
<title>presentational&#45;shell&#45;&gt;gdk</title>
<path fill="none" stroke="#757575" d="M887.9994,-149.5999C823.8675,-137.7256 733.3604,-119.904 699.1637,-108 697.2829,-107.3453 695.3747,-106.6133 693.4685,-105.8292"/>
<polygon fill="#757575" stroke="#757575" points="694.6446,-102.52 684.0904,-101.5932 691.763,-108.8994 694.6446,-102.52"/>
</g>
<!-- widgets&#45;system -->
<g id="node18" class="node">
<title>widgets&#45;system</title>
<polygon fill="none" stroke="#000000" points="694.6106,-252 581.7168,-252 581.7168,-216 694.6106,-216 694.6106,-252"/>
<text text-anchor="middle" x="638.1637" y="-229.8" font-family="Arial" font-size="14.00" fill="#000000">widgets&#45;system</text>
</g>
<!-- widgets&#45;system&#45;&gt;buttons&#45;indicators&#45;shell -->
<g id="edge19" class="edge">
<title>widgets&#45;system&#45;&gt;buttons&#45;indicators&#45;shell</title>
<path fill="none" stroke="#757575" stroke-dasharray="1,5" d="M581.899,-224.2148C511.9335,-212.0469 391.7889,-191.1522 310.2258,-176.9673"/>
<polygon fill="#757575" stroke="#757575" points="310.431,-173.4505 299.9792,-175.1853 309.2315,-180.347 310.431,-173.4505"/>
</g>
<!-- widgets&#45;system&#45;&gt;controls&#45;shell -->
<g id="edge20" class="edge">
<title>widgets&#45;system&#45;&gt;controls&#45;shell</title>
<path fill="none" stroke="#757575" stroke-dasharray="1,5" d="M638.1637,-215.8314C638.1637,-208.131 638.1637,-198.9743 638.1637,-190.4166"/>
<polygon fill="#757575" stroke="#757575" points="641.6638,-190.4132 638.1637,-180.4133 634.6638,-190.4133 641.6638,-190.4132"/>
</g>
<!-- widgets&#45;system&#45;&gt;layout&#45;shell -->
<g id="edge21" class="edge">
<title>widgets&#45;system&#45;&gt;layout&#45;shell</title>
<path fill="none" stroke="#757575" stroke-dasharray="1,5" d="M675.0057,-215.8314C695.9041,-205.5253 722.0918,-192.6108 743.5782,-182.0148"/>
<polygon fill="#757575" stroke="#757575" points="745.3552,-185.041 752.7758,-177.479 742.2591,-178.7629 745.3552,-185.041"/>
</g>
<!-- widgets&#45;system&#45;&gt;popups&#45;modals&#45;shell -->
<g id="edge22" class="edge">
<title>widgets&#45;system&#45;&gt;popups&#45;modals&#45;shell</title>
<path fill="none" stroke="#757575" stroke-dasharray="1,5" d="M591.2281,-215.8314C564.6579,-205.5461 531.3766,-192.663 504.0346,-182.079"/>
<polygon fill="#757575" stroke="#757575" points="505.2211,-178.7853 494.6319,-178.4393 502.6941,-185.3133 505.2211,-178.7853"/>
</g>
<!-- widgets&#45;system&#45;&gt;presentational&#45;shell -->
<g id="edge23" class="edge">
<title>widgets&#45;system&#45;&gt;presentational&#45;shell</title>
<path fill="none" stroke="#757575" stroke-dasharray="1,5" d="M694.4602,-221.2936C747.8904,-209.2341 828.3978,-191.0632 886.1995,-178.017"/>
<polygon fill="#757575" stroke="#757575" points="887.0095,-181.4223 895.9935,-175.8064 885.4683,-174.5941 887.0095,-181.4223"/>
</g>
<!-- widgets&#45;system&#45;e2e -->
<g id="node19" class="node">
<title>widgets&#45;system&#45;e2e</title>
<polygon fill="none" stroke="#000000" points="708.6189,-324 567.7086,-324 567.7086,-288 708.6189,-288 708.6189,-324"/>
<text text-anchor="middle" x="638.1637" y="-301.8" font-family="Arial" font-size="14.00" fill="#000000">widgets&#45;system&#45;e2e</text>
</g>
<!-- widgets&#45;system&#45;e2e&#45;&gt;widgets&#45;system -->
<g id="edge24" class="edge">
<title>widgets&#45;system&#45;e2e&#45;&gt;widgets&#45;system</title>
<path fill="none" stroke="#000000" stroke-width="2" d="M638.1637,-287.8314C638.1637,-280.131 638.1637,-270.9743 638.1637,-262.4166"/>
<polygon fill="#000000" stroke="#000000" stroke-width="2" points="641.6638,-262.4132 638.1637,-252.4133 634.6638,-262.4133 641.6638,-262.4132"/>
</g>
</g>
</svg>
