<?xml version="1.0" encoding="UTF-8" standalone="no"?>
<!DOCTYPE svg PUBLIC "-//W3C//DTD SVG 1.1//EN"
 "http://www.w3.org/Graphics/SVG/1.1/DTD/svg11.dtd">
<!-- Generated by graphviz version 2.40.1 (20161225.0304)
 -->
<!-- Title: G Pages: 1 -->
<svg width="2215pt" height="340pt"
 viewBox="0.00 0.00 2214.55 339.98" xmlns="http://www.w3.org/2000/svg" xmlns:xlink="http://www.w3.org/1999/xlink">
<g id="graph0" class="graph" transform="scale(1 1) rotate(0) translate(7.992 331.992)">
<title>G</title>
<polygon fill="#ffffff" stroke="transparent" points="-7.992,7.992 -7.992,-331.992 2206.5585,-331.992 2206.5585,7.992 -7.992,7.992"/>
<!-- arrow&#45;variation -->
<g id="node1" class="node">
<title>arrow&#45;variation</title>
<ellipse fill="#efefef" stroke="#000000" cx="1177.1637" cy="-90" rx="74.7496" ry="18"/>
<text text-anchor="middle" x="1177.1637" y="-85.8" font-family="Arial" font-size="14.00" fill="#000000">arrow&#45;variation</text>
</g>
<!-- button -->
<g id="node2" class="node">
<title>button</title>
<ellipse fill="#efefef" stroke="#000000" cx="228.1637" cy="-18" rx="37.7544" ry="18"/>
<text text-anchor="middle" x="228.1637" y="-13.8" font-family="Arial" font-size="14.00" fill="#000000">button</text>
</g>
<!-- buttons&#45;indicators&#45;shell -->
<g id="node3" class="node">
<title>buttons&#45;indicators&#45;shell</title>
<ellipse fill="#efefef" stroke="#000000" cx="228.1637" cy="-162" rx="110.1008" ry="18"/>
<text text-anchor="middle" x="228.1637" y="-157.8" font-family="Arial" font-size="14.00" fill="#000000">buttons&#45;indicators&#45;shell</text>
</g>
<!-- buttons&#45;indicators&#45;shell&#45;&gt;button -->
<g id="edge2" class="edge">
<title>buttons&#45;indicators&#45;shell&#45;&gt;button</title>
<path fill="none" stroke="#757575" d="M177.4363,-146.011C159.5801,-137.666 141.4192,-125.4467 131.1637,-108 123.0557,-94.2065 123.0557,-85.7935 131.1637,-72 142.9682,-51.9181 165.2465,-38.762 185.4782,-30.4682"/>
<polygon fill="#757575" stroke="#757575" points="186.787,-33.7151 194.8868,-26.8854 184.2958,-27.1734 186.787,-33.7151"/>
</g>
<!-- gdk -->
<g id="node4" class="node">
<title>gdk</title>
<ellipse fill="#efefef" stroke="#000000" cx="1019.1637" cy="-90" rx="27" ry="18"/>
<text text-anchor="middle" x="1019.1637" y="-85.8" font-family="Arial" font-size="14.00" fill="#000000">gdk</text>
</g>
<!-- buttons&#45;indicators&#45;shell&#45;&gt;gdk -->
<g id="edge1" class="edge">
<title>buttons&#45;indicators&#45;shell&#45;&gt;gdk</title>
<path fill="none" stroke="#757575" d="M320.6,-152.0917C348.6998,-149.2589 379.6783,-146.3152 408.1637,-144 663.3781,-123.2572 735.9183,-174.5906 983.1637,-108 985.1373,-107.4685 987.1299,-106.8234 989.1113,-106.0977"/>
<polygon fill="#757575" stroke="#757575" points="990.9749,-109.1069 998.7865,-101.9494 988.2164,-102.6733 990.9749,-109.1069"/>
</g>
<!-- countdown&#45;button -->
<g id="node5" class="node">
<title>countdown&#45;button</title>
<ellipse fill="#efefef" stroke="#000000" cx="228.1637" cy="-90" rx="87.5707" ry="18"/>
<text text-anchor="middle" x="228.1637" y="-85.8" font-family="Arial" font-size="14.00" fill="#000000">countdown&#45;button</text>
</g>
<!-- buttons&#45;indicators&#45;shell&#45;&gt;countdown&#45;button -->
<g id="edge3" class="edge">
<title>buttons&#45;indicators&#45;shell&#45;&gt;countdown&#45;button</title>
<path fill="none" stroke="#757575" d="M228.1637,-143.8314C228.1637,-136.131 228.1637,-126.9743 228.1637,-118.4166"/>
<polygon fill="#757575" stroke="#757575" points="231.6638,-118.4132 228.1637,-108.4133 224.6638,-118.4133 231.6638,-118.4132"/>
</g>
<!-- loading -->
<g id="node6" class="node">
<title>loading</title>
<ellipse fill="#efefef" stroke="#000000" cx="42.1637" cy="-90" rx="42.3281" ry="18"/>
<text text-anchor="middle" x="42.1637" y="-85.8" font-family="Arial" font-size="14.00" fill="#000000">loading</text>
</g>
<!-- buttons&#45;indicators&#45;shell&#45;&gt;loading -->
<g id="edge4" class="edge">
<title>buttons&#45;indicators&#45;shell&#45;&gt;loading</title>
<path fill="none" stroke="#757575" d="M185.0241,-145.3008C154.23,-133.3805 113.0809,-117.4518 82.8558,-105.7518"/>
<polygon fill="#757575" stroke="#757575" points="84.0425,-102.4581 73.4533,-102.1121 81.5155,-108.9861 84.0425,-102.4581"/>
</g>
<!-- countdown&#45;button&#45;&gt;button -->
<g id="edge10" class="edge">
<title>countdown&#45;button&#45;&gt;button</title>
<path fill="none" stroke="#757575" d="M228.1637,-71.8314C228.1637,-64.131 228.1637,-54.9743 228.1637,-46.4166"/>
<polygon fill="#757575" stroke="#757575" points="231.6638,-46.4132 228.1637,-36.4133 224.6638,-46.4133 231.6638,-46.4132"/>
</g>
<!-- card&#45;container -->
<g id="node7" class="node">
<title>card&#45;container</title>
<ellipse fill="#efefef" stroke="#000000" cx="1949.1637" cy="-90" rx="72.9857" ry="18"/>
<text text-anchor="middle" x="1949.1637" y="-85.8" font-family="Arial" font-size="14.00" fill="#000000">card&#45;container</text>
</g>
<!-- section&#45;title -->
<g id="node8" class="node">
<title>section&#45;title</title>
<ellipse fill="#efefef" stroke="#000000" cx="1946.1637" cy="-18" rx="59.7224" ry="18"/>
<text text-anchor="middle" x="1946.1637" y="-13.8" font-family="Arial" font-size="14.00" fill="#000000">section&#45;title</text>
</g>
<!-- card&#45;container&#45;&gt;section&#45;title -->
<g id="edge5" class="edge">
<title>card&#45;container&#45;&gt;section&#45;title</title>
<path fill="none" stroke="#757575" d="M1948.4067,-71.8314C1948.0859,-64.131 1947.7043,-54.9743 1947.3478,-46.4166"/>
<polygon fill="#757575" stroke="#757575" points="1950.8443,-46.2589 1946.931,-36.4133 1943.8504,-46.5503 1950.8443,-46.2589"/>
</g>
<!-- controls&#45;shell -->
<g id="node9" class="node">
<title>controls&#45;shell</title>
<ellipse fill="#efefef" stroke="#000000" cx="839.1637" cy="-162" rx="67.8107" ry="18"/>
<text text-anchor="middle" x="839.1637" y="-157.8" font-family="Arial" font-size="14.00" fill="#000000">controls&#45;shell</text>
</g>
<!-- controls&#45;shell&#45;&gt;gdk -->
<g id="edge6" class="edge">
<title>controls&#45;shell&#45;&gt;gdk</title>
<path fill="none" stroke="#757575" d="M880.9014,-147.6566C909.899,-137.3745 949.2669,-122.7814 983.1637,-108 984.9412,-107.2249 986.7563,-106.4064 988.58,-105.5629"/>
<polygon fill="#757575" stroke="#757575" points="990.1303,-108.7011 997.6359,-101.2234 987.1053,-102.3885 990.1303,-108.7011"/>
</g>
<!-- datepicker -->
<g id="node10" class="node">
<title>datepicker</title>
<ellipse fill="#efefef" stroke="#000000" cx="663.1637" cy="-90" rx="55.6526" ry="18"/>
<text text-anchor="middle" x="663.1637" y="-85.8" font-family="Arial" font-size="14.00" fill="#000000">datepicker</text>
</g>
<!-- controls&#45;shell&#45;&gt;datepicker -->
<g id="edge7" class="edge">
<title>controls&#45;shell&#45;&gt;datepicker</title>
<path fill="none" stroke="#757575" d="M801.8387,-146.7307C774.1884,-135.4192 736.4129,-119.9656 707.2704,-108.0436"/>
<polygon fill="#757575" stroke="#757575" points="708.3261,-104.694 697.7453,-104.147 705.6756,-111.1728 708.3261,-104.694"/>
</g>
<!-- form&#45;text -->
<g id="node11" class="node">
<title>form&#45;text</title>
<ellipse fill="#efefef" stroke="#000000" cx="786.1637" cy="-90" rx="49.2512" ry="18"/>
<text text-anchor="middle" x="786.1637" y="-85.8" font-family="Arial" font-size="14.00" fill="#000000">form&#45;text</text>
</g>
<!-- controls&#45;shell&#45;&gt;form&#45;text -->
<g id="edge8" class="edge">
<title>controls&#45;shell&#45;&gt;form&#45;text</title>
<path fill="none" stroke="#757575" d="M826.0626,-144.2022C819.7728,-135.6576 812.1164,-125.2564 805.1988,-115.859"/>
<polygon fill="#757575" stroke="#757575" points="807.8611,-113.5715 799.1142,-107.593 802.2237,-117.7213 807.8611,-113.5715"/>
</g>
<!-- slide&#45;toggle -->
<g id="node12" class="node">
<title>slide&#45;toggle</title>
<ellipse fill="#efefef" stroke="#000000" cx="914.1637" cy="-90" rx="60.3038" ry="18"/>
<text text-anchor="middle" x="914.1637" y="-85.8" font-family="Arial" font-size="14.00" fill="#000000">slide&#45;toggle</text>
</g>
<!-- controls&#45;shell&#45;&gt;slide&#45;toggle -->
<g id="edge9" class="edge">
<title>controls&#45;shell&#45;&gt;slide&#45;toggle</title>
<path fill="none" stroke="#757575" d="M857.3191,-144.5708C866.8079,-135.4616 878.5722,-124.1679 888.9324,-114.2221"/>
<polygon fill="#757575" stroke="#757575" points="891.3855,-116.7189 896.1755,-107.2687 886.5377,-111.6692 891.3855,-116.7189"/>
</g>
<!-- datepicker&#45;&gt;button -->
<g id="edge12" class="edge">
<title>datepicker&#45;&gt;button</title>
<path fill="none" stroke="#757575" d="M622.3896,-77.6815C614.7169,-75.606 606.7282,-73.6072 599.1637,-72 483.8663,-47.5033 346.0386,-30.6422 275.2524,-22.8723"/>
<polygon fill="#757575" stroke="#757575" points="275.6251,-19.3923 265.3056,-21.7921 274.8693,-26.3514 275.6251,-19.3923"/>
</g>
<!-- currency&#45;display -->
<g id="node13" class="node">
<title>currency&#45;display</title>
<ellipse fill="#efefef" stroke="#000000" cx="1513.1637" cy="-90" rx="81.138" ry="18"/>
<text text-anchor="middle" x="1513.1637" y="-85.8" font-family="Arial" font-size="14.00" fill="#000000">currency&#45;display</text>
</g>
<!-- pipes -->
<g id="node14" class="node">
<title>pipes</title>
<ellipse fill="#efefef" stroke="#000000" cx="1286.1637" cy="-18" rx="34.2259" ry="18"/>
<text text-anchor="middle" x="1286.1637" y="-13.8" font-family="Arial" font-size="14.00" fill="#000000">pipes</text>
</g>
<!-- currency&#45;display&#45;&gt;pipes -->
<g id="edge11" class="edge">
<title>currency&#45;display&#45;&gt;pipes</title>
<path fill="none" stroke="#757575" d="M1466.4044,-75.1689C1424.7358,-61.9524 1364.4538,-42.8321 1325.2857,-30.4087"/>
<polygon fill="#757575" stroke="#757575" points="1326.1535,-27.0122 1315.5633,-27.325 1324.0371,-33.6846 1326.1535,-27.0122"/>
</g>
<!-- data&#45;formatter -->
<g id="node15" class="node">
<title>data&#45;formatter</title>
<ellipse fill="#efefef" stroke="#000000" cx="1342.1637" cy="-90" rx="71.8376" ry="18"/>
<text text-anchor="middle" x="1342.1637" y="-85.8" font-family="Arial" font-size="14.00" fill="#000000">data&#45;formatter</text>
</g>
<!-- directives -->
<g id="node16" class="node">
<title>directives</title>
<ellipse fill="#efefef" stroke="#000000" cx="979.1637" cy="-306" rx="51.6227" ry="18"/>
<text text-anchor="middle" x="979.1637" y="-301.8" font-family="Arial" font-size="14.00" fill="#000000">directives</text>
</g>
<!-- enhanced&#45;title -->
<g id="node17" class="node">
<title>enhanced&#45;title</title>
<ellipse fill="#efefef" stroke="#000000" cx="1622.1637" cy="-18" rx="71.8589" ry="18"/>
<text text-anchor="middle" x="1622.1637" y="-13.8" font-family="Arial" font-size="14.00" fill="#000000">enhanced&#45;title</text>
</g>
<!-- icon -->
<g id="node18" class="node">
<title>icon</title>
<ellipse fill="#efefef" stroke="#000000" cx="2053.1637" cy="-18" rx="28.991" ry="18"/>
<text text-anchor="middle" x="2053.1637" y="-13.8" font-family="Arial" font-size="14.00" fill="#000000">icon</text>
</g>
<!-- layout&#45;shell -->
<g id="node19" class="node">
<title>layout&#45;shell</title>
<ellipse fill="#efefef" stroke="#000000" cx="1763.1637" cy="-162" rx="59.7244" ry="18"/>
<text text-anchor="middle" x="1763.1637" y="-157.8" font-family="Arial" font-size="14.00" fill="#000000">layout&#45;shell</text>
</g>
<!-- layout&#45;shell&#45;&gt;gdk -->
<g id="edge13" class="edge">
<title>layout&#45;shell&#45;&gt;gdk</title>
<path fill="none" stroke="#757575" d="M1703.1792,-160.3446C1585.5028,-156.3971 1316.393,-143.9138 1093.1637,-108 1080.3137,-105.9327 1066.4045,-102.7938 1054.1507,-99.7131"/>
<polygon fill="#757575" stroke="#757575" points="1054.8645,-96.2825 1044.3063,-97.1638 1053.1096,-103.059 1054.8645,-96.2825"/>
</g>
<!-- layout&#45;shell&#45;&gt;card&#45;container -->
<g id="edge14" class="edge">
<title>layout&#45;shell&#45;&gt;card&#45;container</title>
<path fill="none" stroke="#757575" d="M1799.9114,-147.7751C1828.6951,-136.633 1868.9945,-121.0333 1900.4636,-108.8517"/>
<polygon fill="#757575" stroke="#757575" points="1901.8617,-112.0636 1909.9239,-105.1896 1899.3347,-105.5356 1901.8617,-112.0636"/>
</g>
<!-- layout&#45;shell&#45;&gt;section&#45;title -->
<g id="edge20" class="edge">
<title>layout&#45;shell&#45;&gt;section&#45;title</title>
<path fill="none" stroke="#757575" d="M1781.7859,-144.744C1802.1865,-126.1143 1836.1437,-95.9002 1867.1637,-72 1881.5494,-60.9162 1898.0538,-49.4522 1912.2445,-39.9535"/>
<polygon fill="#757575" stroke="#757575" points="1914.345,-42.7602 1920.7417,-34.3142 1910.4742,-36.9277 1914.345,-42.7602"/>
</g>
<!-- layout&#45;shell&#45;&gt;currency&#45;display -->
<g id="edge15" class="edge">
<title>layout&#45;shell&#45;&gt;currency&#45;display</title>
<path fill="none" stroke="#757575" d="M1719.9025,-149.5408C1679.1502,-137.8041 1617.7572,-120.1229 1572.4539,-107.0756"/>
<polygon fill="#757575" stroke="#757575" points="1573.3339,-103.6868 1562.7559,-104.2825 1571.3966,-110.4134 1573.3339,-103.6868"/>
</g>
<!-- layout&#45;shell&#45;&gt;enhanced&#45;title -->
<g id="edge16" class="edge">
<title>layout&#45;shell&#45;&gt;enhanced&#45;title</title>
<path fill="none" stroke="#757575" d="M1714.035,-151.6271C1688.6719,-143.7881 1659.3206,-130.4037 1641.1637,-108 1627.1656,-90.7277 1622.7733,-65.6247 1621.679,-46.3161"/>
<polygon fill="#757575" stroke="#757575" points="1625.176,-46.1595 1621.3703,-36.2718 1618.1793,-46.3746 1625.176,-46.1595"/>
</g>
<!-- layout&#45;shell&#45;&gt;icon -->
<g id="edge17" class="edge">
<title>layout&#45;shell&#45;&gt;icon</title>
<path fill="none" stroke="#757575" d="M1821.2801,-157.5035C1890.8596,-150.9262 2001.7167,-136.2663 2031.1637,-108 2047.5904,-92.232 2052.5773,-66.3831 2053.7532,-46.4234"/>
<polygon fill="#757575" stroke="#757575" points="2057.2546,-46.4275 2054.0622,-36.3251 2050.2579,-46.2133 2057.2546,-46.4275"/>
</g>
<!-- page&#45;header -->
<g id="node20" class="node">
<title>page&#45;header</title>
<ellipse fill="#efefef" stroke="#000000" cx="1716.1637" cy="-90" rx="65.5623" ry="18"/>
<text text-anchor="middle" x="1716.1637" y="-85.8" font-family="Arial" font-size="14.00" fill="#000000">page&#45;header</text>
</g>
<!-- layout&#45;shell&#45;&gt;page&#45;header -->
<g id="edge18" class="edge">
<title>layout&#45;shell&#45;&gt;page&#45;header</title>
<path fill="none" stroke="#757575" d="M1751.5458,-144.2022C1746.0661,-135.8079 1739.4168,-125.6218 1733.3683,-116.3558"/>
<polygon fill="#757575" stroke="#757575" points="1736.2081,-114.3032 1727.811,-107.8425 1730.3464,-118.1295 1736.2081,-114.3032"/>
</g>
<!-- scroll&#45;container -->
<g id="node21" class="node">
<title>scroll&#45;container</title>
<ellipse fill="#efefef" stroke="#000000" cx="1792.1637" cy="-18" rx="76.4768" ry="18"/>
<text text-anchor="middle" x="1792.1637" y="-13.8" font-family="Arial" font-size="14.00" fill="#000000">scroll&#45;container</text>
</g>
<!-- layout&#45;shell&#45;&gt;scroll&#45;container -->
<g id="edge19" class="edge">
<title>layout&#45;shell&#45;&gt;scroll&#45;container</title>
<path fill="none" stroke="#757575" d="M1774.9977,-144.3543C1781.1064,-134.1927 1787.9397,-120.9096 1791.1637,-108 1796.204,-87.8178 1796.2726,-64.288 1795.1773,-46.35"/>
<polygon fill="#757575" stroke="#757575" points="1798.6567,-45.9467 1794.403,-36.2433 1791.6772,-46.4815 1798.6567,-45.9467"/>
</g>
<!-- sort&#45;header -->
<g id="node22" class="node">
<title>sort&#45;header</title>
<ellipse fill="#efefef" stroke="#000000" cx="2138.1637" cy="-90" rx="60.3058" ry="18"/>
<text text-anchor="middle" x="2138.1637" y="-85.8" font-family="Arial" font-size="14.00" fill="#000000">sort&#45;header</text>
</g>
<!-- layout&#45;shell&#45;&gt;sort&#45;header -->
<g id="edge21" class="edge">
<title>layout&#45;shell&#45;&gt;sort&#45;header</title>
<path fill="none" stroke="#757575" d="M1816.0957,-153.5097C1876.3626,-143.6099 1977.6733,-126.2596 2064.1637,-108 2069.965,-106.7753 2076.0046,-105.4273 2082.0209,-104.0368"/>
<polygon fill="#757575" stroke="#757575" points="2083.145,-107.3679 2092.0778,-101.6708 2081.542,-100.554 2083.145,-107.3679"/>
</g>
<!-- page&#45;header&#45;&gt;enhanced&#45;title -->
<g id="edge22" class="edge">
<title>page&#45;header&#45;&gt;enhanced&#45;title</title>
<path fill="none" stroke="#757575" d="M1693.887,-72.937C1681.568,-63.5012 1666.0812,-51.6389 1652.6538,-41.3541"/>
<polygon fill="#757575" stroke="#757575" points="1654.6734,-38.4923 1644.6063,-35.19 1650.4168,-44.0494 1654.6734,-38.4923"/>
</g>
<!-- page&#45;header&#45;&gt;scroll&#45;container -->
<g id="edge23" class="edge">
<title>page&#45;header&#45;&gt;scroll&#45;container</title>
<path fill="none" stroke="#757575" d="M1734.5612,-72.5708C1744.1058,-63.5286 1755.9225,-52.3338 1766.3642,-42.4417"/>
<polygon fill="#757575" stroke="#757575" points="1768.8198,-44.9366 1773.6723,-35.5182 1764.0056,-39.8549 1768.8198,-44.9366"/>
</g>
<!-- sort&#45;header&#45;&gt;icon -->
<g id="edge32" class="edge">
<title>sort&#45;header&#45;&gt;icon</title>
<path fill="none" stroke="#757575" d="M2118.0199,-72.937C2106.0995,-62.8397 2090.8989,-49.9639 2078.2102,-39.2158"/>
<polygon fill="#757575" stroke="#757575" points="2080.1871,-36.3035 2070.2944,-32.5107 2075.6627,-41.6449 2080.1871,-36.3035"/>
</g>
<!-- popover -->
<g id="node23" class="node">
<title>popover</title>
<ellipse fill="#efefef" stroke="#000000" cx="380.1637" cy="-90" rx="45.8426" ry="18"/>
<text text-anchor="middle" x="380.1637" y="-85.8" font-family="Arial" font-size="14.00" fill="#000000">popover</text>
</g>
<!-- popup&#45;confirm -->
<g id="node24" class="node">
<title>popup&#45;confirm</title>
<ellipse fill="#efefef" stroke="#000000" cx="517.1637" cy="-90" rx="72.9857" ry="18"/>
<text text-anchor="middle" x="517.1637" y="-85.8" font-family="Arial" font-size="14.00" fill="#000000">popup&#45;confirm</text>
</g>
<!-- popups&#45;modals&#45;shell -->
<g id="node25" class="node">
<title>popups&#45;modals&#45;shell</title>
<ellipse fill="#efefef" stroke="#000000" cx="517.1637" cy="-162" rx="100.2129" ry="18"/>
<text text-anchor="middle" x="517.1637" y="-157.8" font-family="Arial" font-size="14.00" fill="#000000">popups&#45;modals&#45;shell</text>
</g>
<!-- popups&#45;modals&#45;shell&#45;&gt;gdk -->
<g id="edge24" class="edge">
<title>popups&#45;modals&#45;shell&#45;&gt;gdk</title>
<path fill="none" stroke="#757575" d="M610.0633,-155.0744C725.4759,-145.8036 915.4512,-128.1699 983.1637,-108 985.0724,-107.4315 987.0022,-106.7664 988.9249,-106.0334"/>
<polygon fill="#757575" stroke="#757575" points="990.5737,-109.133 998.3472,-101.9341 987.7811,-102.7142 990.5737,-109.133"/>
</g>
<!-- popups&#45;modals&#45;shell&#45;&gt;countdown&#45;button -->
<g id="edge25" class="edge">
<title>popups&#45;modals&#45;shell&#45;&gt;countdown&#45;button</title>
<path fill="none" stroke="#757575" d="M458.3319,-147.3429C410.6222,-135.4568 343.412,-118.7124 293.9315,-106.385"/>
<polygon fill="#757575" stroke="#757575" points="294.519,-102.9245 283.9694,-103.9032 292.8267,-109.7169 294.519,-102.9245"/>
</g>
<!-- popups&#45;modals&#45;shell&#45;&gt;popover -->
<g id="edge26" class="edge">
<title>popups&#45;modals&#45;shell&#45;&gt;popover</title>
<path fill="none" stroke="#757575" d="M484.6967,-144.937C464.2944,-134.2146 437.9303,-120.3591 416.7835,-109.2454"/>
<polygon fill="#757575" stroke="#757575" points="418.2547,-106.0647 407.7744,-104.5107 414.9981,-112.2611 418.2547,-106.0647"/>
</g>
<!-- popups&#45;modals&#45;shell&#45;&gt;popup&#45;confirm -->
<g id="edge27" class="edge">
<title>popups&#45;modals&#45;shell&#45;&gt;popup&#45;confirm</title>
<path fill="none" stroke="#757575" d="M517.1637,-143.8314C517.1637,-136.131 517.1637,-126.9743 517.1637,-118.4166"/>
<polygon fill="#757575" stroke="#757575" points="520.6638,-118.4132 517.1637,-108.4133 513.6638,-118.4133 520.6638,-118.4132"/>
</g>
<!-- presentational&#45;shell -->
<g id="node26" class="node">
<title>presentational&#45;shell</title>
<ellipse fill="#efefef" stroke="#000000" cx="1074.1637" cy="-162" rx="94.9903" ry="18"/>
<text text-anchor="middle" x="1074.1637" y="-157.8" font-family="Arial" font-size="14.00" fill="#000000">presentational&#45;shell</text>
</g>
<!-- presentational&#45;shell&#45;&gt;arrow&#45;variation -->
<g id="edge29" class="edge">
<title>presentational&#45;shell&#45;&gt;arrow&#45;variation</title>
<path fill="none" stroke="#757575" d="M1099.0972,-144.5708C1112.6345,-135.1078 1129.5443,-123.2874 1144.1614,-113.0696"/>
<polygon fill="#757575" stroke="#757575" points="1146.2691,-115.8666 1152.4599,-107.2687 1142.2586,-110.1294 1146.2691,-115.8666"/>
</g>
<!-- presentational&#45;shell&#45;&gt;gdk -->
<g id="edge28" class="edge">
<title>presentational&#45;shell&#45;&gt;gdk</title>
<path fill="none" stroke="#757575" d="M1060.2849,-143.8314C1053.4917,-134.9385 1045.215,-124.1034 1037.8726,-114.4916"/>
<polygon fill="#757575" stroke="#757575" points="1040.5733,-112.2614 1031.7215,-106.4393 1035.0106,-116.5107 1040.5733,-112.2614"/>
</g>
<!-- presentational&#45;shell&#45;&gt;pipes -->
<g id="edge31" class="edge">
<title>presentational&#45;shell&#45;&gt;pipes</title>
<path fill="none" stroke="#757575" d="M1072.8435,-143.9855C1072.3976,-123.8294 1074.9264,-91.4584 1093.1637,-72 1113.5316,-50.2685 1192.9765,-33.4521 1243.3709,-24.6961"/>
<polygon fill="#757575" stroke="#757575" points="1244.0713,-28.1274 1253.344,-23.0022 1242.8991,-21.2262 1244.0713,-28.1274"/>
</g>
<!-- presentational&#45;shell&#45;&gt;data&#45;formatter -->
<g id="edge30" class="edge">
<title>presentational&#45;shell&#45;&gt;data&#45;formatter</title>
<path fill="none" stroke="#757575" d="M1129.0442,-147.256C1173.9853,-135.1823 1237.4246,-118.1389 1283.392,-105.7894"/>
<polygon fill="#757575" stroke="#757575" points="1284.4648,-109.1254 1293.2142,-103.1506 1282.6485,-102.3651 1284.4648,-109.1254"/>
</g>
<!-- widgets&#45;system -->
<g id="node27" class="node">
<title>widgets&#45;system</title>
<polygon fill="none" stroke="#000000" points="895.6106,-252 782.7168,-252 782.7168,-216 895.6106,-216 895.6106,-252"/>
<text text-anchor="middle" x="839.1637" y="-229.8" font-family="Arial" font-size="14.00" fill="#000000">widgets&#45;system</text>
</g>
<!-- widgets&#45;system&#45;&gt;buttons&#45;indicators&#45;shell -->
<g id="edge33" class="edge">
<title>widgets&#45;system&#45;&gt;buttons&#45;indicators&#45;shell</title>
<path fill="none" stroke="#757575" stroke-dasharray="1,5" d="M782.7775,-227.3555C679.2283,-215.1533 457.5318,-189.0286 327.981,-173.7624"/>
<polygon fill="#757575" stroke="#757575" points="328.0037,-170.241 317.6627,-172.5465 327.1844,-177.1929 328.0037,-170.241"/>
</g>
<!-- widgets&#45;system&#45;&gt;controls&#45;shell -->
<g id="edge34" class="edge">
<title>widgets&#45;system&#45;&gt;controls&#45;shell</title>
<path fill="none" stroke="#757575" stroke-dasharray="1,5" d="M839.1637,-215.8314C839.1637,-208.131 839.1637,-198.9743 839.1637,-190.4166"/>
<polygon fill="#757575" stroke="#757575" points="842.6638,-190.4132 839.1637,-180.4133 835.6638,-190.4133 842.6638,-190.4132"/>
</g>
<!-- widgets&#45;system&#45;&gt;layout&#45;shell -->
<g id="edge35" class="edge">
<title>widgets&#45;system&#45;&gt;layout&#45;shell</title>
<path fill="none" stroke="#757575" stroke-dasharray="1,5" d="M895.5732,-229.6045C1056.9252,-217.0316 1519.9595,-180.951 1695.0195,-167.3099"/>
<polygon fill="#757575" stroke="#757575" points="1695.436,-170.7882 1705.1338,-166.5218 1694.8921,-163.8093 1695.436,-170.7882"/>
</g>
<!-- widgets&#45;system&#45;&gt;popups&#45;modals&#45;shell -->
<g id="edge36" class="edge">
<title>widgets&#45;system&#45;&gt;popups&#45;modals&#45;shell</title>
<path fill="none" stroke="#757575" stroke-dasharray="1,5" d="M782.7071,-221.3762C729.169,-209.4049 648.458,-191.3577 590.075,-178.3031"/>
<polygon fill="#757575" stroke="#757575" points="590.6989,-174.8563 580.1761,-176.0897 589.1714,-181.6876 590.6989,-174.8563"/>
</g>
<!-- widgets&#45;system&#45;&gt;presentational&#45;shell -->
<g id="edge37" class="edge">
<title>widgets&#45;system&#45;&gt;presentational&#45;shell</title>
<path fill="none" stroke="#757575" stroke-dasharray="1,5" d="M895.4521,-216.7542C931.1979,-205.8023 977.4299,-191.6376 1013.9151,-180.4592"/>
<polygon fill="#757575" stroke="#757575" points="1015.3946,-183.6665 1023.9306,-177.3906 1013.3439,-176.9736 1015.3946,-183.6665"/>
</g>
<!-- widgets&#45;system&#45;e2e -->
<g id="node28" class="node">
<title>widgets&#45;system&#45;e2e</title>
<polygon fill="none" stroke="#000000" points="909.6189,-324 768.7086,-324 768.7086,-288 909.6189,-288 909.6189,-324"/>
<text text-anchor="middle" x="839.1637" y="-301.8" font-family="Arial" font-size="14.00" fill="#000000">widgets&#45;system&#45;e2e</text>
</g>
<!-- widgets&#45;system&#45;e2e&#45;&gt;widgets&#45;system -->
<g id="edge38" class="edge">
<title>widgets&#45;system&#45;e2e&#45;&gt;widgets&#45;system</title>
<path fill="none" stroke="#000000" stroke-width="2" d="M839.1637,-287.8314C839.1637,-280.131 839.1637,-270.9743 839.1637,-262.4166"/>
<polygon fill="#000000" stroke="#000000" stroke-width="2" points="842.6638,-262.4132 839.1637,-252.4133 835.6638,-262.4133 842.6638,-262.4132"/>
</g>
</g>
</svg>
