<?xml version="1.0" encoding="UTF-8" standalone="no"?>
<!DOCTYPE svg PUBLIC "-//W3C//DTD SVG 1.1//EN"
 "http://www.w3.org/Graphics/SVG/1.1/DTD/svg11.dtd">
<!-- Generated by graphviz version 2.40.1 (20161225.0304)
 -->
<!-- Title: G Pages: 1 -->
<svg width="1958pt" height="340pt"
 viewBox="0.00 0.00 1957.79 339.98" xmlns="http://www.w3.org/2000/svg" xmlns:xlink="http://www.w3.org/1999/xlink">
<g id="graph0" class="graph" transform="scale(1 1) rotate(0) translate(7.992 331.992)">
<title>G</title>
<polygon fill="#ffffff" stroke="transparent" points="-7.992,7.992 -7.992,-331.992 1949.7983,-331.992 1949.7983,7.992 -7.992,7.992"/>
<!-- arrow&#45;variation -->
<g id="node1" class="node">
<title>arrow&#45;variation</title>
<ellipse fill="#efefef" stroke="#000000" cx="195.4035" cy="-90" rx="74.7496" ry="18"/>
<text text-anchor="middle" x="195.4035" y="-85.8" font-family="Arial" font-size="14.00" fill="#000000">arrow&#45;variation</text>
</g>
<!-- button -->
<g id="node2" class="node">
<title>button</title>
<ellipse fill="#efefef" stroke="#000000" cx="183.4035" cy="-18" rx="37.7544" ry="18"/>
<text text-anchor="middle" x="183.4035" y="-13.8" font-family="Arial" font-size="14.00" fill="#000000">button</text>
</g>
<!-- buttons&#45;indicators&#45;shell -->
<g id="node3" class="node">
<title>buttons&#45;indicators&#45;shell</title>
<ellipse fill="#efefef" stroke="#000000" cx="330.4035" cy="-162" rx="110.1008" ry="18"/>
<text text-anchor="middle" x="330.4035" y="-157.8" font-family="Arial" font-size="14.00" fill="#000000">buttons&#45;indicators&#45;shell</text>
</g>
<!-- buttons&#45;indicators&#45;shell&#45;&gt;button -->
<g id="edge2" class="edge">
<title>buttons&#45;indicators&#45;shell&#45;&gt;button</title>
<path fill="none" stroke="#757575" d="M236.6654,-152.3849C147.2687,-142.2478 24.0929,-125.3669 9.4035,-108 -30.3124,-61.0449 72.893,-35.5194 136.9297,-24.5774"/>
<polygon fill="#757575" stroke="#757575" points="137.5444,-28.0234 146.843,-22.9454 136.4072,-21.1164 137.5444,-28.0234"/>
</g>
<!-- gdk -->
<g id="node4" class="node">
<title>gdk</title>
<ellipse fill="#efefef" stroke="#000000" cx="670.4035" cy="-90" rx="27" ry="18"/>
<text text-anchor="middle" x="670.4035" y="-85.8" font-family="Arial" font-size="14.00" fill="#000000">gdk</text>
</g>
<!-- buttons&#45;indicators&#45;shell&#45;&gt;gdk -->
<g id="edge1" class="edge">
<title>buttons&#45;indicators&#45;shell&#45;&gt;gdk</title>
<path fill="none" stroke="#757575" d="M408.8741,-149.2627C491.7315,-135.6216 613.2852,-114.9919 634.4035,-108 636.2941,-107.3741 638.2099,-106.6644 640.1219,-105.8974"/>
<polygon fill="#757575" stroke="#757575" points="641.8089,-108.9774 649.5156,-101.707 638.9571,-102.5846 641.8089,-108.9774"/>
</g>
<!-- countdown&#45;button -->
<g id="node5" class="node">
<title>countdown&#45;button</title>
<ellipse fill="#efefef" stroke="#000000" cx="376.4035" cy="-90" rx="87.5707" ry="18"/>
<text text-anchor="middle" x="376.4035" y="-85.8" font-family="Arial" font-size="14.00" fill="#000000">countdown&#45;button</text>
</g>
<!-- buttons&#45;indicators&#45;shell&#45;&gt;countdown&#45;button -->
<g id="edge3" class="edge">
<title>buttons&#45;indicators&#45;shell&#45;&gt;countdown&#45;button</title>
<path fill="none" stroke="#757575" d="M342.0113,-143.8314C347.2811,-135.5829 353.6185,-125.6635 359.4096,-116.5992"/>
<polygon fill="#757575" stroke="#757575" points="362.5243,-118.2248 364.9588,-107.9134 356.6255,-114.456 362.5243,-118.2248"/>
</g>
<!-- loading -->
<g id="node6" class="node">
<title>loading</title>
<ellipse fill="#efefef" stroke="#000000" cx="60.4035" cy="-90" rx="42.3281" ry="18"/>
<text text-anchor="middle" x="60.4035" y="-85.8" font-family="Arial" font-size="14.00" fill="#000000">loading</text>
</g>
<!-- buttons&#45;indicators&#45;shell&#45;&gt;loading -->
<g id="edge4" class="edge">
<title>buttons&#45;indicators&#45;shell&#45;&gt;loading</title>
<path fill="none" stroke="#757575" d="M264.3075,-147.4732C220.6164,-137.4373 162.2412,-123.1996 111.4035,-108 108.2999,-107.0721 105.1066,-106.0673 101.904,-105.0234"/>
<polygon fill="#757575" stroke="#757575" points="102.9435,-101.6804 92.3495,-101.8112 100.7128,-108.3155 102.9435,-101.6804"/>
</g>
<!-- countdown&#45;button&#45;&gt;button -->
<g id="edge9" class="edge">
<title>countdown&#45;button&#45;&gt;button</title>
<path fill="none" stroke="#757575" d="M334.0488,-74.1993C300.9647,-61.857 255.3266,-44.8314 222.9751,-32.7625"/>
<polygon fill="#757575" stroke="#757575" points="223.9828,-29.4028 213.3902,-29.1867 221.5361,-35.9613 223.9828,-29.4028"/>
</g>
<!-- card&#45;container -->
<g id="node7" class="node">
<title>card&#45;container</title>
<ellipse fill="#efefef" stroke="#000000" cx="1317.4035" cy="-90" rx="72.9857" ry="18"/>
<text text-anchor="middle" x="1317.4035" y="-85.8" font-family="Arial" font-size="14.00" fill="#000000">card&#45;container</text>
</g>
<!-- section&#45;title -->
<g id="node8" class="node">
<title>section&#45;title</title>
<ellipse fill="#efefef" stroke="#000000" cx="1366.4035" cy="-18" rx="59.7224" ry="18"/>
<text text-anchor="middle" x="1366.4035" y="-13.8" font-family="Arial" font-size="14.00" fill="#000000">section&#45;title</text>
</g>
<!-- card&#45;container&#45;&gt;section&#45;title -->
<g id="edge5" class="edge">
<title>card&#45;container&#45;&gt;section&#45;title</title>
<path fill="none" stroke="#757575" d="M1329.5159,-72.2022C1335.2287,-63.8079 1342.1609,-53.6218 1348.4669,-44.3558"/>
<polygon fill="#757575" stroke="#757575" points="1351.5279,-46.0789 1354.2607,-35.8425 1345.7409,-42.1405 1351.5279,-46.0789"/>
</g>
<!-- controls&#45;shell -->
<g id="node9" class="node">
<title>controls&#45;shell</title>
<ellipse fill="#efefef" stroke="#000000" cx="1001.4035" cy="-162" rx="67.8107" ry="18"/>
<text text-anchor="middle" x="1001.4035" y="-157.8" font-family="Arial" font-size="14.00" fill="#000000">controls&#45;shell</text>
</g>
<!-- controls&#45;shell&#45;&gt;gdk -->
<g id="edge6" class="edge">
<title>controls&#45;shell&#45;&gt;gdk</title>
<path fill="none" stroke="#757575" d="M941.9533,-153.151C868.8239,-141.9123 749.1212,-122.2675 706.4035,-108 704.5146,-107.3691 702.6001,-106.6556 700.6891,-105.8857"/>
<polygon fill="#757575" stroke="#757575" points="701.8557,-102.5735 691.298,-101.6874 698.9988,-108.964 701.8557,-102.5735"/>
</g>
<!-- slide&#45;toggle -->
<g id="node10" class="node">
<title>slide&#45;toggle</title>
<ellipse fill="#efefef" stroke="#000000" cx="1049.4035" cy="-90" rx="60.3038" ry="18"/>
<text text-anchor="middle" x="1049.4035" y="-85.8" font-family="Arial" font-size="14.00" fill="#000000">slide&#45;toggle</text>
</g>
<!-- controls&#45;shell&#45;&gt;slide&#45;toggle -->
<g id="edge7" class="edge">
<title>controls&#45;shell&#45;&gt;slide&#45;toggle</title>
<path fill="none" stroke="#757575" d="M1013.2687,-144.2022C1018.8649,-135.8079 1025.6557,-125.6218 1031.833,-116.3558"/>
<polygon fill="#757575" stroke="#757575" points="1034.8736,-118.1045 1037.5085,-107.8425 1029.0493,-114.2216 1034.8736,-118.1045"/>
</g>
<!-- form&#45;text -->
<g id="node11" class="node">
<title>form&#45;text</title>
<ellipse fill="#efefef" stroke="#000000" cx="1177.4035" cy="-90" rx="49.2512" ry="18"/>
<text text-anchor="middle" x="1177.4035" y="-85.8" font-family="Arial" font-size="14.00" fill="#000000">form&#45;text</text>
</g>
<!-- controls&#45;shell&#45;&gt;form&#45;text -->
<g id="edge8" class="edge">
<title>controls&#45;shell&#45;&gt;form&#45;text</title>
<path fill="none" stroke="#757575" d="M1038.7286,-146.7307C1066.9228,-135.1967 1105.6445,-119.3559 1135.0066,-107.3442"/>
<polygon fill="#757575" stroke="#757575" points="1136.6464,-110.455 1144.5766,-103.4292 1133.9959,-103.9762 1136.6464,-110.455"/>
</g>
<!-- currency&#45;display -->
<g id="node12" class="node">
<title>currency&#45;display</title>
<ellipse fill="#efefef" stroke="#000000" cx="1527.4035" cy="-90" rx="81.138" ry="18"/>
<text text-anchor="middle" x="1527.4035" y="-85.8" font-family="Arial" font-size="14.00" fill="#000000">currency&#45;display</text>
</g>
<!-- pipes -->
<g id="node13" class="node">
<title>pipes</title>
<ellipse fill="#efefef" stroke="#000000" cx="1527.4035" cy="-18" rx="34.2259" ry="18"/>
<text text-anchor="middle" x="1527.4035" y="-13.8" font-family="Arial" font-size="14.00" fill="#000000">pipes</text>
</g>
<!-- currency&#45;display&#45;&gt;pipes -->
<g id="edge10" class="edge">
<title>currency&#45;display&#45;&gt;pipes</title>
<path fill="none" stroke="#757575" d="M1527.4035,-71.8314C1527.4035,-64.131 1527.4035,-54.9743 1527.4035,-46.4166"/>
<polygon fill="#757575" stroke="#757575" points="1530.9036,-46.4132 1527.4035,-36.4133 1523.9036,-46.4133 1530.9036,-46.4132"/>
</g>
<!-- data&#45;formatter -->
<g id="node14" class="node">
<title>data&#45;formatter</title>
<ellipse fill="#efefef" stroke="#000000" cx="553.4035" cy="-90" rx="71.8376" ry="18"/>
<text text-anchor="middle" x="553.4035" y="-85.8" font-family="Arial" font-size="14.00" fill="#000000">data&#45;formatter</text>
</g>
<!-- directives -->
<g id="node15" class="node">
<title>directives</title>
<ellipse fill="#efefef" stroke="#000000" cx="906.4035" cy="-306" rx="51.6227" ry="18"/>
<text text-anchor="middle" x="906.4035" y="-301.8" font-family="Arial" font-size="14.00" fill="#000000">directives</text>
</g>
<!-- enhanced&#45;title -->
<g id="node16" class="node">
<title>enhanced&#45;title</title>
<ellipse fill="#efefef" stroke="#000000" cx="1654.4035" cy="-18" rx="71.8589" ry="18"/>
<text text-anchor="middle" x="1654.4035" y="-13.8" font-family="Arial" font-size="14.00" fill="#000000">enhanced&#45;title</text>
</g>
<!-- icon -->
<g id="node17" class="node">
<title>icon</title>
<ellipse fill="#efefef" stroke="#000000" cx="1881.4035" cy="-90" rx="28.991" ry="18"/>
<text text-anchor="middle" x="1881.4035" y="-85.8" font-family="Arial" font-size="14.00" fill="#000000">icon</text>
</g>
<!-- layout&#45;shell -->
<g id="node18" class="node">
<title>layout&#45;shell</title>
<ellipse fill="#efefef" stroke="#000000" cx="1527.4035" cy="-162" rx="59.7244" ry="18"/>
<text text-anchor="middle" x="1527.4035" y="-157.8" font-family="Arial" font-size="14.00" fill="#000000">layout&#45;shell</text>
</g>
<!-- layout&#45;shell&#45;&gt;gdk -->
<g id="edge11" class="edge">
<title>layout&#45;shell&#45;&gt;gdk</title>
<path fill="none" stroke="#757575" d="M1467.901,-159.4494C1291.5228,-151.6985 779.2587,-127.7453 706.4035,-108 704.2664,-107.4208 702.1067,-106.7092 699.9629,-105.9068"/>
<polygon fill="#757575" stroke="#757575" points="701.3518,-102.6943 690.784,-101.9373 698.5732,-109.1192 701.3518,-102.6943"/>
</g>
<!-- layout&#45;shell&#45;&gt;card&#45;container -->
<g id="edge12" class="edge">
<title>layout&#45;shell&#45;&gt;card&#45;container</title>
<path fill="none" stroke="#757575" d="M1487.9041,-148.4574C1454.5299,-137.0148 1406.4561,-120.5323 1369.8575,-107.9842"/>
<polygon fill="#757575" stroke="#757575" points="1370.9341,-104.6534 1360.3395,-104.7209 1368.6638,-111.275 1370.9341,-104.6534"/>
</g>
<!-- layout&#45;shell&#45;&gt;section&#45;title -->
<g id="edge18" class="edge">
<title>layout&#45;shell&#45;&gt;section&#45;title</title>
<path fill="none" stroke="#757575" d="M1495.5358,-146.5561C1477.4132,-136.9082 1454.9132,-123.4082 1437.4035,-108 1416.1218,-89.2725 1396.5417,-63.522 1383.3583,-44.3617"/>
<polygon fill="#757575" stroke="#757575" points="1386.0854,-42.1454 1377.5947,-35.8083 1380.2803,-46.0571 1386.0854,-42.1454"/>
</g>
<!-- layout&#45;shell&#45;&gt;currency&#45;display -->
<g id="edge13" class="edge">
<title>layout&#45;shell&#45;&gt;currency&#45;display</title>
<path fill="none" stroke="#757575" d="M1527.4035,-143.8314C1527.4035,-136.131 1527.4035,-126.9743 1527.4035,-118.4166"/>
<polygon fill="#757575" stroke="#757575" points="1530.9036,-118.4132 1527.4035,-108.4133 1523.9036,-118.4133 1530.9036,-118.4132"/>
</g>
<!-- layout&#45;shell&#45;&gt;enhanced&#45;title -->
<g id="edge14" class="edge">
<title>layout&#45;shell&#45;&gt;enhanced&#45;title</title>
<path fill="none" stroke="#757575" d="M1562.762,-147.3994C1581.0956,-138.3368 1602.6717,-125.132 1617.4035,-108 1632.8091,-90.0844 1642.4253,-64.8809 1647.9798,-45.7005"/>
<polygon fill="#757575" stroke="#757575" points="1651.3659,-46.5863 1650.591,-36.0198 1644.6074,-44.7632 1651.3659,-46.5863"/>
</g>
<!-- layout&#45;shell&#45;&gt;icon -->
<g id="edge15" class="edge">
<title>layout&#45;shell&#45;&gt;icon</title>
<path fill="none" stroke="#757575" d="M1584.1696,-156.0253C1647.1865,-148.5018 1751.4771,-133.39 1838.4035,-108 1841.7682,-107.0172 1845.2252,-105.8518 1848.647,-104.5935"/>
<polygon fill="#757575" stroke="#757575" points="1850.0678,-107.7958 1858.0913,-100.8767 1847.5042,-101.282 1850.0678,-107.7958"/>
</g>
<!-- page&#45;header -->
<g id="node19" class="node">
<title>page&#45;header</title>
<ellipse fill="#efefef" stroke="#000000" cx="1730.4035" cy="-90" rx="65.5623" ry="18"/>
<text text-anchor="middle" x="1730.4035" y="-85.8" font-family="Arial" font-size="14.00" fill="#000000">page&#45;header</text>
</g>
<!-- layout&#45;shell&#45;&gt;page&#45;header -->
<g id="edge16" class="edge">
<title>layout&#45;shell&#45;&gt;page&#45;header</title>
<path fill="none" stroke="#757575" d="M1566.544,-148.1177C1598.9802,-136.6132 1645.2886,-120.1885 1680.4064,-107.733"/>
<polygon fill="#757575" stroke="#757575" points="1681.739,-110.974 1689.9938,-104.3325 1679.399,-104.3767 1681.739,-110.974"/>
</g>
<!-- scroll&#45;container -->
<g id="node20" class="node">
<title>scroll&#45;container</title>
<ellipse fill="#efefef" stroke="#000000" cx="1822.4035" cy="-18" rx="76.4768" ry="18"/>
<text text-anchor="middle" x="1822.4035" y="-13.8" font-family="Arial" font-size="14.00" fill="#000000">scroll&#45;container</text>
</g>
<!-- layout&#45;shell&#45;&gt;scroll&#45;container -->
<g id="edge17" class="edge">
<title>layout&#45;shell&#45;&gt;scroll&#45;container</title>
<path fill="none" stroke="#757575" d="M1586.0377,-158.2109C1658.3232,-152.2922 1775.3224,-138.237 1805.4035,-108 1821.2791,-92.0422 1824.7955,-66.2134 1824.7668,-46.3096"/>
<polygon fill="#757575" stroke="#757575" points="1828.2631,-46.1322 1824.459,-36.2439 1821.2664,-46.3462 1828.2631,-46.1322"/>
</g>
<!-- page&#45;header&#45;&gt;enhanced&#45;title -->
<g id="edge19" class="edge">
<title>page&#45;header&#45;&gt;enhanced&#45;title</title>
<path fill="none" stroke="#757575" d="M1712.006,-72.5708C1702.4615,-63.5286 1690.6448,-52.3338 1680.2031,-42.4417"/>
<polygon fill="#757575" stroke="#757575" points="1682.5617,-39.8549 1672.895,-35.5182 1677.7474,-44.9366 1682.5617,-39.8549"/>
</g>
<!-- page&#45;header&#45;&gt;scroll&#45;container -->
<g id="edge20" class="edge">
<title>page&#45;header&#45;&gt;scroll&#45;container</title>
<path fill="none" stroke="#757575" d="M1752.2062,-72.937C1764.0622,-63.6584 1778.9162,-52.0336 1791.9035,-41.8696"/>
<polygon fill="#757575" stroke="#757575" points="1794.4002,-44.3601 1800.1182,-35.4407 1790.086,-38.8475 1794.4002,-44.3601"/>
</g>
<!-- popover -->
<g id="node21" class="node">
<title>popover</title>
<ellipse fill="#efefef" stroke="#000000" cx="761.4035" cy="-90" rx="45.8426" ry="18"/>
<text text-anchor="middle" x="761.4035" y="-85.8" font-family="Arial" font-size="14.00" fill="#000000">popover</text>
</g>
<!-- popup&#45;confirm -->
<g id="node22" class="node">
<title>popup&#45;confirm</title>
<ellipse fill="#efefef" stroke="#000000" cx="898.4035" cy="-90" rx="72.9857" ry="18"/>
<text text-anchor="middle" x="898.4035" y="-85.8" font-family="Arial" font-size="14.00" fill="#000000">popup&#45;confirm</text>
</g>
<!-- popups&#45;modals&#45;shell -->
<g id="node23" class="node">
<title>popups&#45;modals&#45;shell</title>
<ellipse fill="#efefef" stroke="#000000" cx="766.4035" cy="-162" rx="100.2129" ry="18"/>
<text text-anchor="middle" x="766.4035" y="-157.8" font-family="Arial" font-size="14.00" fill="#000000">popups&#45;modals&#45;shell</text>
</g>
<!-- popups&#45;modals&#45;shell&#45;&gt;gdk -->
<g id="edge21" class="edge">
<title>popups&#45;modals&#45;shell&#45;&gt;gdk</title>
<path fill="none" stroke="#757575" d="M742.6732,-144.2022C728.6559,-133.6893 710.8915,-120.366 696.483,-109.5596"/>
<polygon fill="#757575" stroke="#757575" points="698.541,-106.7282 688.441,-103.5281 694.341,-112.3282 698.541,-106.7282"/>
</g>
<!-- popups&#45;modals&#45;shell&#45;&gt;countdown&#45;button -->
<g id="edge22" class="edge">
<title>popups&#45;modals&#45;shell&#45;&gt;countdown&#45;button</title>
<path fill="none" stroke="#757575" d="M695.9966,-149.1436C636.4295,-138.2485 548.8123,-122.1804 472.4035,-108 465.6264,-106.7423 458.5812,-105.4301 451.5238,-104.1126"/>
<polygon fill="#757575" stroke="#757575" points="451.6778,-100.5808 441.2049,-102.184 450.3917,-107.4617 451.6778,-100.5808"/>
</g>
<!-- popups&#45;modals&#45;shell&#45;&gt;popover -->
<g id="edge23" class="edge">
<title>popups&#45;modals&#45;shell&#45;&gt;popover</title>
<path fill="none" stroke="#757575" d="M765.1418,-143.8314C764.6071,-136.131 763.9712,-126.9743 763.3769,-118.4166"/>
<polygon fill="#757575" stroke="#757575" points="766.8667,-118.1467 762.6822,-108.4133 759.8835,-118.6317 766.8667,-118.1467"/>
</g>
<!-- popups&#45;modals&#45;shell&#45;&gt;popup&#45;confirm -->
<g id="edge24" class="edge">
<title>popups&#45;modals&#45;shell&#45;&gt;popup&#45;confirm</title>
<path fill="none" stroke="#757575" d="M798.0208,-144.7542C816.3254,-134.7699 839.5253,-122.1154 859.0096,-111.4876"/>
<polygon fill="#757575" stroke="#757575" points="860.85,-114.4706 867.953,-106.6094 857.498,-108.3253 860.85,-114.4706"/>
</g>
<!-- presentational&#45;shell -->
<g id="node24" class="node">
<title>presentational&#45;shell</title>
<ellipse fill="#efefef" stroke="#000000" cx="553.4035" cy="-162" rx="94.9903" ry="18"/>
<text text-anchor="middle" x="553.4035" y="-157.8" font-family="Arial" font-size="14.00" fill="#000000">presentational&#45;shell</text>
</g>
<!-- presentational&#45;shell&#45;&gt;arrow&#45;variation -->
<g id="edge26" class="edge">
<title>presentational&#45;shell&#45;&gt;arrow&#45;variation</title>
<path fill="none" stroke="#757575" d="M486.6214,-149.158C431.103,-138.4053 350.0456,-122.5288 279.4035,-108 273.6012,-106.8066 267.5772,-105.5503 261.5402,-104.2792"/>
<polygon fill="#757575" stroke="#757575" points="261.9126,-100.7806 251.4047,-102.1347 260.4636,-107.629 261.9126,-100.7806"/>
</g>
<!-- presentational&#45;shell&#45;&gt;gdk -->
<g id="edge25" class="edge">
<title>presentational&#45;shell&#45;&gt;gdk</title>
<path fill="none" stroke="#757575" d="M581.4279,-144.7542C599.6705,-133.528 623.3987,-118.926 641.7631,-107.6249"/>
<polygon fill="#757575" stroke="#757575" points="643.6176,-110.5933 650.2999,-102.3715 639.9489,-104.6317 643.6176,-110.5933"/>
</g>
<!-- presentational&#45;shell&#45;&gt;data&#45;formatter -->
<g id="edge27" class="edge">
<title>presentational&#45;shell&#45;&gt;data&#45;formatter</title>
<path fill="none" stroke="#757575" d="M553.4035,-143.8314C553.4035,-136.131 553.4035,-126.9743 553.4035,-118.4166"/>
<polygon fill="#757575" stroke="#757575" points="556.9036,-118.4132 553.4035,-108.4133 549.9036,-118.4133 556.9036,-118.4132"/>
</g>
<!-- sort&#45;header -->
<g id="node25" class="node">
<title>sort&#45;header</title>
<ellipse fill="#efefef" stroke="#000000" cx="1881.4035" cy="-162" rx="60.3058" ry="18"/>
<text text-anchor="middle" x="1881.4035" y="-157.8" font-family="Arial" font-size="14.00" fill="#000000">sort&#45;header</text>
</g>
<!-- sort&#45;header&#45;&gt;icon -->
<g id="edge28" class="edge">
<title>sort&#45;header&#45;&gt;icon</title>
<path fill="none" stroke="#757575" d="M1881.4035,-143.8314C1881.4035,-136.131 1881.4035,-126.9743 1881.4035,-118.4166"/>
<polygon fill="#757575" stroke="#757575" points="1884.9036,-118.4132 1881.4035,-108.4133 1877.9036,-118.4133 1884.9036,-118.4132"/>
</g>
<!-- widgets&#45;system -->
<g id="node26" class="node">
<title>widgets&#45;system</title>
<polygon fill="none" stroke="#000000" points="822.8504,-252 709.9566,-252 709.9566,-216 822.8504,-216 822.8504,-252"/>
<text text-anchor="middle" x="766.4035" y="-229.8" font-family="Arial" font-size="14.00" fill="#000000">widgets&#45;system</text>
</g>
<!-- widgets&#45;system&#45;&gt;buttons&#45;indicators&#45;shell -->
<g id="edge29" class="edge">
<title>widgets&#45;system&#45;&gt;buttons&#45;indicators&#45;shell</title>
<path fill="none" stroke="#757575" stroke-dasharray="1,5" d="M709.8511,-224.6611C635.8245,-212.4365 505.2919,-190.8806 418.3164,-176.5177"/>
<polygon fill="#757575" stroke="#757575" points="418.6331,-173.0227 408.1964,-174.8465 417.4925,-179.9292 418.6331,-173.0227"/>
</g>
<!-- widgets&#45;system&#45;&gt;controls&#45;shell -->
<g id="edge30" class="edge">
<title>widgets&#45;system&#45;&gt;controls&#45;shell</title>
<path fill="none" stroke="#757575" stroke-dasharray="1,5" d="M822.6919,-216.7542C860.4601,-205.1827 909.9348,-190.0245 947.2506,-178.5915"/>
<polygon fill="#757575" stroke="#757575" points="948.4101,-181.897 956.9461,-175.621 946.3594,-175.204 948.4101,-181.897"/>
</g>
<!-- widgets&#45;system&#45;&gt;layout&#45;shell -->
<g id="edge31" class="edge">
<title>widgets&#45;system&#45;&gt;layout&#45;shell</title>
<path fill="none" stroke="#757575" stroke-dasharray="1,5" d="M822.6707,-228.6764C959.9276,-215.6902 1311.517,-182.4255 1459.8118,-168.395"/>
<polygon fill="#757575" stroke="#757575" points="1460.5061,-171.845 1470.1319,-167.4186 1459.8467,-164.8762 1460.5061,-171.845"/>
</g>
<!-- widgets&#45;system&#45;&gt;popups&#45;modals&#45;shell -->
<g id="edge32" class="edge">
<title>widgets&#45;system&#45;&gt;popups&#45;modals&#45;shell</title>
<path fill="none" stroke="#757575" stroke-dasharray="1,5" d="M766.4035,-215.8314C766.4035,-208.131 766.4035,-198.9743 766.4035,-190.4166"/>
<polygon fill="#757575" stroke="#757575" points="769.9036,-190.4132 766.4035,-180.4133 762.9036,-190.4133 769.9036,-190.4132"/>
</g>
<!-- widgets&#45;system&#45;&gt;presentational&#45;shell -->
<g id="edge33" class="edge">
<title>widgets&#45;system&#45;&gt;presentational&#45;shell</title>
<path fill="none" stroke="#757575" stroke-dasharray="1,5" d="M712.9296,-215.9243C681.4361,-205.2786 641.637,-191.8254 609.6701,-181.0197"/>
<polygon fill="#757575" stroke="#757575" points="610.6129,-177.6439 600.0187,-177.7572 608.3713,-184.2753 610.6129,-177.6439"/>
</g>
<!-- widgets&#45;system&#45;e2e -->
<g id="node27" class="node">
<title>widgets&#45;system&#45;e2e</title>
<polygon fill="none" stroke="#000000" points="836.8587,-324 695.9484,-324 695.9484,-288 836.8587,-288 836.8587,-324"/>
<text text-anchor="middle" x="766.4035" y="-301.8" font-family="Arial" font-size="14.00" fill="#000000">widgets&#45;system&#45;e2e</text>
</g>
<!-- widgets&#45;system&#45;e2e&#45;&gt;widgets&#45;system -->
<g id="edge34" class="edge">
<title>widgets&#45;system&#45;e2e&#45;&gt;widgets&#45;system</title>
<path fill="none" stroke="#000000" stroke-width="2" d="M766.4035,-287.8314C766.4035,-280.131 766.4035,-270.9743 766.4035,-262.4166"/>
<polygon fill="#000000" stroke="#000000" stroke-width="2" points="769.9036,-262.4132 766.4035,-252.4133 762.9036,-262.4133 769.9036,-262.4132"/>
</g>
</g>
</svg>
