<?xml version="1.0" encoding="UTF-8" standalone="no"?>
<!DOCTYPE svg PUBLIC "-//W3C//DTD SVG 1.1//EN"
 "http://www.w3.org/Graphics/SVG/1.1/DTD/svg11.dtd">
<!-- Generated by graphviz version 2.40.1 (20161225.0304)
 -->
<!-- Title: G Pages: 1 -->
<svg width="2572pt" height="340pt"
 viewBox="0.00 0.00 2571.55 339.98" xmlns="http://www.w3.org/2000/svg" xmlns:xlink="http://www.w3.org/1999/xlink">
<g id="graph0" class="graph" transform="scale(1 1) rotate(0) translate(7.992 331.992)">
<title>G</title>
<polygon fill="#ffffff" stroke="transparent" points="-7.992,7.992 -7.992,-331.992 2563.5585,-331.992 2563.5585,7.992 -7.992,7.992"/>
<!-- arrow&#45;variation -->
<g id="node1" class="node">
<title>arrow&#45;variation</title>
<ellipse fill="#efefef" stroke="#000000" cx="1302.1637" cy="-90" rx="74.7496" ry="18"/>
<text text-anchor="middle" x="1302.1637" y="-85.8" font-family="Arial" font-size="14.00" fill="#000000">arrow&#45;variation</text>
</g>
<!-- button -->
<g id="node2" class="node">
<title>button</title>
<ellipse fill="#efefef" stroke="#000000" cx="228.1637" cy="-18" rx="37.7544" ry="18"/>
<text text-anchor="middle" x="228.1637" y="-13.8" font-family="Arial" font-size="14.00" fill="#000000">button</text>
</g>
<!-- buttons&#45;indicators&#45;shell -->
<g id="node3" class="node">
<title>buttons&#45;indicators&#45;shell</title>
<ellipse fill="#efefef" stroke="#000000" cx="228.1637" cy="-162" rx="110.1008" ry="18"/>
<text text-anchor="middle" x="228.1637" y="-157.8" font-family="Arial" font-size="14.00" fill="#000000">buttons&#45;indicators&#45;shell</text>
</g>
<!-- buttons&#45;indicators&#45;shell&#45;&gt;button -->
<g id="edge2" class="edge">
<title>buttons&#45;indicators&#45;shell&#45;&gt;button</title>
<path fill="none" stroke="#757575" d="M177.4363,-146.011C159.5801,-137.666 141.4192,-125.4467 131.1637,-108 123.0557,-94.2065 123.0557,-85.7935 131.1637,-72 142.9682,-51.9181 165.2465,-38.762 185.4782,-30.4682"/>
<polygon fill="#757575" stroke="#757575" points="186.787,-33.7151 194.8868,-26.8854 184.2958,-27.1734 186.787,-33.7151"/>
</g>
<!-- gdk -->
<g id="node4" class="node">
<title>gdk</title>
<ellipse fill="#efefef" stroke="#000000" cx="635.1637" cy="-90" rx="27" ry="18"/>
<text text-anchor="middle" x="635.1637" y="-85.8" font-family="Arial" font-size="14.00" fill="#000000">gdk</text>
</g>
<!-- buttons&#45;indicators&#45;shell&#45;&gt;gdk -->
<g id="edge1" class="edge">
<title>buttons&#45;indicators&#45;shell&#45;&gt;gdk</title>
<path fill="none" stroke="#757575" d="M320.2901,-151.9887C412.8197,-141.3251 548.7058,-123.835 599.1637,-108 601.0639,-107.4037 602.9871,-106.7171 604.9047,-105.9676"/>
<polygon fill="#757575" stroke="#757575" points="606.5723,-109.0577 614.3136,-101.8242 603.7511,-102.6514 606.5723,-109.0577"/>
</g>
<!-- countdown&#45;button -->
<g id="node5" class="node">
<title>countdown&#45;button</title>
<ellipse fill="#efefef" stroke="#000000" cx="228.1637" cy="-90" rx="87.5707" ry="18"/>
<text text-anchor="middle" x="228.1637" y="-85.8" font-family="Arial" font-size="14.00" fill="#000000">countdown&#45;button</text>
</g>
<!-- buttons&#45;indicators&#45;shell&#45;&gt;countdown&#45;button -->
<g id="edge3" class="edge">
<title>buttons&#45;indicators&#45;shell&#45;&gt;countdown&#45;button</title>
<path fill="none" stroke="#757575" d="M228.1637,-143.8314C228.1637,-136.131 228.1637,-126.9743 228.1637,-118.4166"/>
<polygon fill="#757575" stroke="#757575" points="231.6638,-118.4132 228.1637,-108.4133 224.6638,-118.4133 231.6638,-118.4132"/>
</g>
<!-- loading -->
<g id="node6" class="node">
<title>loading</title>
<ellipse fill="#efefef" stroke="#000000" cx="42.1637" cy="-90" rx="42.3281" ry="18"/>
<text text-anchor="middle" x="42.1637" y="-85.8" font-family="Arial" font-size="14.00" fill="#000000">loading</text>
</g>
<!-- buttons&#45;indicators&#45;shell&#45;&gt;loading -->
<g id="edge4" class="edge">
<title>buttons&#45;indicators&#45;shell&#45;&gt;loading</title>
<path fill="none" stroke="#757575" d="M185.0241,-145.3008C154.23,-133.3805 113.0809,-117.4518 82.8558,-105.7518"/>
<polygon fill="#757575" stroke="#757575" points="84.0425,-102.4581 73.4533,-102.1121 81.5155,-108.9861 84.0425,-102.4581"/>
</g>
<!-- countdown&#45;button&#45;&gt;button -->
<g id="edge10" class="edge">
<title>countdown&#45;button&#45;&gt;button</title>
<path fill="none" stroke="#757575" d="M228.1637,-71.8314C228.1637,-64.131 228.1637,-54.9743 228.1637,-46.4166"/>
<polygon fill="#757575" stroke="#757575" points="231.6638,-46.4132 228.1637,-36.4133 224.6638,-46.4133 231.6638,-46.4132"/>
</g>
<!-- card&#45;container -->
<g id="node7" class="node">
<title>card&#45;container</title>
<ellipse fill="#efefef" stroke="#000000" cx="2306.1637" cy="-90" rx="72.9857" ry="18"/>
<text text-anchor="middle" x="2306.1637" y="-85.8" font-family="Arial" font-size="14.00" fill="#000000">card&#45;container</text>
</g>
<!-- section&#45;title -->
<g id="node8" class="node">
<title>section&#45;title</title>
<ellipse fill="#efefef" stroke="#000000" cx="2252.1637" cy="-18" rx="59.7224" ry="18"/>
<text text-anchor="middle" x="2252.1637" y="-13.8" font-family="Arial" font-size="14.00" fill="#000000">section&#45;title</text>
</g>
<!-- card&#45;container&#45;&gt;section&#45;title -->
<g id="edge5" class="edge">
<title>card&#45;container&#45;&gt;section&#45;title</title>
<path fill="none" stroke="#757575" d="M2292.8154,-72.2022C2286.4069,-63.6576 2278.606,-53.2564 2271.558,-43.859"/>
<polygon fill="#757575" stroke="#757575" points="2274.1586,-41.493 2265.3585,-35.593 2268.5585,-45.6931 2274.1586,-41.493"/>
</g>
<!-- controls&#45;shell -->
<g id="node9" class="node">
<title>controls&#45;shell</title>
<ellipse fill="#efefef" stroke="#000000" cx="797.1637" cy="-162" rx="67.8107" ry="18"/>
<text text-anchor="middle" x="797.1637" y="-157.8" font-family="Arial" font-size="14.00" fill="#000000">controls&#45;shell</text>
</g>
<!-- controls&#45;shell&#45;&gt;gdk -->
<g id="edge6" class="edge">
<title>controls&#45;shell&#45;&gt;gdk</title>
<path fill="none" stroke="#757575" d="M760.2471,-146.8508C734.9962,-136.325 700.8502,-121.7686 671.1637,-108 669.4046,-107.1841 667.6039,-106.3336 665.7912,-105.4656"/>
<polygon fill="#757575" stroke="#757575" points="667.2875,-102.3013 656.7658,-101.0585 664.216,-108.5915 667.2875,-102.3013"/>
</g>
<!-- datepicker -->
<g id="node10" class="node">
<title>datepicker</title>
<ellipse fill="#efefef" stroke="#000000" cx="736.1637" cy="-90" rx="55.6526" ry="18"/>
<text text-anchor="middle" x="736.1637" y="-85.8" font-family="Arial" font-size="14.00" fill="#000000">datepicker</text>
</g>
<!-- controls&#45;shell&#45;&gt;datepicker -->
<g id="edge7" class="edge">
<title>controls&#45;shell&#45;&gt;datepicker</title>
<path fill="none" stroke="#757575" d="M782.0851,-144.2022C774.6981,-135.4832 765.6734,-124.8311 757.5857,-115.2849"/>
<polygon fill="#757575" stroke="#757575" points="760.2036,-112.9604 751.0689,-107.593 754.8627,-117.4854 760.2036,-112.9604"/>
</g>
<!-- form&#45;text -->
<g id="node11" class="node">
<title>form&#45;text</title>
<ellipse fill="#efefef" stroke="#000000" cx="859.1637" cy="-90" rx="49.2512" ry="18"/>
<text text-anchor="middle" x="859.1637" y="-85.8" font-family="Arial" font-size="14.00" fill="#000000">form&#45;text</text>
</g>
<!-- controls&#45;shell&#45;&gt;form&#45;text -->
<g id="edge8" class="edge">
<title>controls&#45;shell&#45;&gt;form&#45;text</title>
<path fill="none" stroke="#757575" d="M812.4896,-144.2022C820.0537,-135.4182 829.3073,-124.672 837.5745,-115.0714"/>
<polygon fill="#757575" stroke="#757575" points="840.3551,-117.2061 844.2281,-107.3446 835.0507,-112.6385 840.3551,-117.2061"/>
</g>
<!-- slide&#45;toggle -->
<g id="node12" class="node">
<title>slide&#45;toggle</title>
<ellipse fill="#efefef" stroke="#000000" cx="987.1637" cy="-90" rx="60.3038" ry="18"/>
<text text-anchor="middle" x="987.1637" y="-85.8" font-family="Arial" font-size="14.00" fill="#000000">slide&#45;toggle</text>
</g>
<!-- controls&#45;shell&#45;&gt;slide&#45;toggle -->
<g id="edge9" class="edge">
<title>controls&#45;shell&#45;&gt;slide&#45;toggle</title>
<path fill="none" stroke="#757575" d="M836.5319,-147.0816C866.6745,-135.6591 908.3543,-119.8646 940.2309,-107.7851"/>
<polygon fill="#757575" stroke="#757575" points="941.6745,-110.981 949.7853,-104.1645 939.1939,-104.4352 941.6745,-110.981"/>
</g>
<!-- datepicker&#45;&gt;button -->
<g id="edge12" class="edge">
<title>datepicker&#45;&gt;button</title>
<path fill="none" stroke="#757575" d="M695.4708,-77.7333C687.4641,-75.6032 679.089,-73.5713 671.1637,-72 528.9686,-43.8079 357.9925,-27.9803 276.259,-21.5028"/>
<polygon fill="#757575" stroke="#757575" points="276.0424,-17.9753 265.8003,-20.6866 275.4977,-24.9541 276.0424,-17.9753"/>
</g>
<!-- currency&#45;display -->
<g id="node13" class="node">
<title>currency&#45;display</title>
<ellipse fill="#efefef" stroke="#000000" cx="1514.1637" cy="-90" rx="81.138" ry="18"/>
<text text-anchor="middle" x="1514.1637" y="-85.8" font-family="Arial" font-size="14.00" fill="#000000">currency&#45;display</text>
</g>
<!-- pipes -->
<g id="node14" class="node">
<title>pipes</title>
<ellipse fill="#efefef" stroke="#000000" cx="1449.1637" cy="-18" rx="34.2259" ry="18"/>
<text text-anchor="middle" x="1449.1637" y="-13.8" font-family="Arial" font-size="14.00" fill="#000000">pipes</text>
</g>
<!-- currency&#45;display&#45;&gt;pipes -->
<g id="edge11" class="edge">
<title>currency&#45;display&#45;&gt;pipes</title>
<path fill="none" stroke="#757575" d="M1498.0963,-72.2022C1489.909,-63.1332 1479.8335,-51.9726 1470.9574,-42.1407"/>
<polygon fill="#757575" stroke="#757575" points="1473.4541,-39.6832 1464.1551,-34.6058 1468.2582,-44.3739 1473.4541,-39.6832"/>
</g>
<!-- data&#45;formatter -->
<g id="node15" class="node">
<title>data&#45;formatter</title>
<ellipse fill="#efefef" stroke="#000000" cx="1137.1637" cy="-90" rx="71.8376" ry="18"/>
<text text-anchor="middle" x="1137.1637" y="-85.8" font-family="Arial" font-size="14.00" fill="#000000">data&#45;formatter</text>
</g>
<!-- directives -->
<g id="node16" class="node">
<title>directives</title>
<ellipse fill="#efefef" stroke="#000000" cx="937.1637" cy="-306" rx="51.6227" ry="18"/>
<text text-anchor="middle" x="937.1637" y="-301.8" font-family="Arial" font-size="14.00" fill="#000000">directives</text>
</g>
<!-- enhanced&#45;header -->
<g id="node17" class="node">
<title>enhanced&#45;header</title>
<ellipse fill="#efefef" stroke="#000000" cx="1926.1637" cy="-90" rx="86.9288" ry="18"/>
<text text-anchor="middle" x="1926.1637" y="-85.8" font-family="Arial" font-size="14.00" fill="#000000">enhanced&#45;header</text>
</g>
<!-- enhanced&#45;title -->
<g id="node18" class="node">
<title>enhanced&#45;title</title>
<ellipse fill="#efefef" stroke="#000000" cx="1811.1637" cy="-18" rx="71.8589" ry="18"/>
<text text-anchor="middle" x="1811.1637" y="-13.8" font-family="Arial" font-size="14.00" fill="#000000">enhanced&#45;title</text>
</g>
<!-- enhanced&#45;header&#45;&gt;enhanced&#45;title -->
<g id="edge13" class="edge">
<title>enhanced&#45;header&#45;&gt;enhanced&#45;title</title>
<path fill="none" stroke="#757575" d="M1898.6184,-72.7542C1883.1441,-63.066 1863.6542,-50.8636 1847.0028,-40.4384"/>
<polygon fill="#757575" stroke="#757575" points="1848.4207,-37.1968 1838.0876,-34.8566 1844.7061,-43.1299 1848.4207,-37.1968"/>
</g>
<!-- tooltip -->
<g id="node19" class="node">
<title>tooltip</title>
<ellipse fill="#efefef" stroke="#000000" cx="1989.1637" cy="-18" rx="36.5901" ry="18"/>
<text text-anchor="middle" x="1989.1637" y="-13.8" font-family="Arial" font-size="14.00" fill="#000000">tooltip</text>
</g>
<!-- enhanced&#45;header&#45;&gt;tooltip -->
<g id="edge14" class="edge">
<title>enhanced&#45;header&#45;&gt;tooltip</title>
<path fill="none" stroke="#757575" d="M1941.7368,-72.2022C1949.6722,-63.1332 1959.4377,-51.9726 1968.0406,-42.1407"/>
<polygon fill="#757575" stroke="#757575" points="1970.6826,-44.4364 1974.6336,-34.6058 1965.4145,-39.8268 1970.6826,-44.4364"/>
</g>
<!-- icon -->
<g id="node20" class="node">
<title>icon</title>
<ellipse fill="#efefef" stroke="#000000" cx="2451.1637" cy="-18" rx="28.991" ry="18"/>
<text text-anchor="middle" x="2451.1637" y="-13.8" font-family="Arial" font-size="14.00" fill="#000000">icon</text>
</g>
<!-- layout&#45;shell -->
<g id="node21" class="node">
<title>layout&#45;shell</title>
<ellipse fill="#efefef" stroke="#000000" cx="1926.1637" cy="-162" rx="59.7244" ry="18"/>
<text text-anchor="middle" x="1926.1637" y="-157.8" font-family="Arial" font-size="14.00" fill="#000000">layout&#45;shell</text>
</g>
<!-- layout&#45;shell&#45;&gt;gdk -->
<g id="edge15" class="edge">
<title>layout&#45;shell&#45;&gt;gdk</title>
<path fill="none" stroke="#757575" d="M1866.2956,-160.1207C1624.427,-152.4386 729.5525,-123.1161 671.1637,-108 669.1851,-107.4877 667.1886,-106.8576 665.2042,-106.1431"/>
<polygon fill="#757575" stroke="#757575" points="666.0934,-102.7179 655.5213,-102.024 663.3532,-109.1593 666.0934,-102.7179"/>
</g>
<!-- layout&#45;shell&#45;&gt;card&#45;container -->
<g id="edge16" class="edge">
<title>layout&#45;shell&#45;&gt;card&#45;container</title>
<path fill="none" stroke="#757575" d="M1977.8324,-152.8283C2036.4199,-142.3469 2134.7702,-124.5052 2219.1637,-108 2226.1363,-106.6363 2233.4164,-105.1806 2240.6676,-103.7102"/>
<polygon fill="#757575" stroke="#757575" points="2241.4075,-107.1314 2250.506,-101.7032 2240.0082,-100.2727 2241.4075,-107.1314"/>
</g>
<!-- layout&#45;shell&#45;&gt;section&#45;title -->
<g id="edge23" class="edge">
<title>layout&#45;shell&#45;&gt;section&#45;title</title>
<path fill="none" stroke="#757575" d="M1981.8654,-155.1831C2047.8323,-146.2997 2152.9599,-129.3489 2186.1637,-108 2210.0492,-92.6425 2228.2171,-65.3728 2239.3858,-44.863"/>
<polygon fill="#757575" stroke="#757575" points="2242.4966,-46.467 2244.0203,-35.9823 2236.2908,-43.2284 2242.4966,-46.467"/>
</g>
<!-- layout&#45;shell&#45;&gt;currency&#45;display -->
<g id="edge17" class="edge">
<title>layout&#45;shell&#45;&gt;currency&#45;display</title>
<path fill="none" stroke="#757575" d="M1873.3871,-153.3168C1810.4287,-142.8875 1702.0217,-124.7046 1609.1637,-108 1601.5549,-106.6312 1593.6091,-105.1724 1585.6939,-103.7001"/>
<polygon fill="#757575" stroke="#757575" points="1586.1849,-100.2314 1575.7119,-101.834 1584.8984,-107.1122 1586.1849,-100.2314"/>
</g>
<!-- layout&#45;shell&#45;&gt;enhanced&#45;header -->
<g id="edge18" class="edge">
<title>layout&#45;shell&#45;&gt;enhanced&#45;header</title>
<path fill="none" stroke="#757575" d="M1926.1637,-143.8314C1926.1637,-136.131 1926.1637,-126.9743 1926.1637,-118.4166"/>
<polygon fill="#757575" stroke="#757575" points="1929.6638,-118.4132 1926.1637,-108.4133 1922.6638,-118.4133 1929.6638,-118.4132"/>
</g>
<!-- layout&#45;shell&#45;&gt;enhanced&#45;title -->
<g id="edge19" class="edge">
<title>layout&#45;shell&#45;&gt;enhanced&#45;title</title>
<path fill="none" stroke="#757575" d="M1886.1386,-148.561C1866.4188,-139.9519 1843.969,-126.8063 1830.1637,-108 1817.1479,-90.2691 1812.6378,-65.5652 1811.2486,-46.5241"/>
<polygon fill="#757575" stroke="#757575" points="1814.735,-46.1559 1810.7569,-36.3363 1807.7431,-46.4934 1814.735,-46.1559"/>
</g>
<!-- layout&#45;shell&#45;&gt;tooltip -->
<g id="edge25" class="edge">
<title>layout&#45;shell&#45;&gt;tooltip</title>
<path fill="none" stroke="#757575" d="M1968.8494,-149.2431C1988.7613,-140.9113 2010.5791,-127.808 2022.1637,-108 2034.2039,-87.4132 2022.4234,-61.6725 2009.7183,-42.9991"/>
<polygon fill="#757575" stroke="#757575" points="2012.4084,-40.7467 2003.7033,-34.7074 2006.7422,-44.8571 2012.4084,-40.7467"/>
</g>
<!-- layout&#45;shell&#45;&gt;icon -->
<g id="edge20" class="edge">
<title>layout&#45;shell&#45;&gt;icon</title>
<path fill="none" stroke="#757575" d="M1986.2973,-161.0027C2095.5964,-158.2171 2321.6861,-147.6873 2388.1637,-108 2412.3387,-93.5675 2429.5816,-65.8531 2439.8485,-44.9738"/>
<polygon fill="#757575" stroke="#757575" points="2443.1434,-46.1898 2444.2014,-35.648 2436.8003,-43.2291 2443.1434,-46.1898"/>
</g>
<!-- page&#45;header -->
<g id="node22" class="node">
<title>page&#45;header</title>
<ellipse fill="#efefef" stroke="#000000" cx="1717.1637" cy="-90" rx="65.5623" ry="18"/>
<text text-anchor="middle" x="1717.1637" y="-85.8" font-family="Arial" font-size="14.00" fill="#000000">page&#45;header</text>
</g>
<!-- layout&#45;shell&#45;&gt;page&#45;header -->
<g id="edge21" class="edge">
<title>layout&#45;shell&#45;&gt;page&#45;header</title>
<path fill="none" stroke="#757575" d="M1886.3605,-148.2879C1852.657,-136.6771 1804.151,-119.9669 1767.7084,-107.4125"/>
<polygon fill="#757575" stroke="#757575" points="1768.8416,-104.1011 1758.2469,-104.1531 1766.5616,-110.7194 1768.8416,-104.1011"/>
</g>
<!-- scroll&#45;container -->
<g id="node23" class="node">
<title>scroll&#45;container</title>
<ellipse fill="#efefef" stroke="#000000" cx="1634.1637" cy="-18" rx="76.4768" ry="18"/>
<text text-anchor="middle" x="1634.1637" y="-13.8" font-family="Arial" font-size="14.00" fill="#000000">scroll&#45;container</text>
</g>
<!-- layout&#45;shell&#45;&gt;scroll&#45;container -->
<g id="edge22" class="edge">
<title>layout&#45;shell&#45;&gt;scroll&#45;container</title>
<path fill="none" stroke="#757575" d="M1867.075,-158.9359C1792.833,-153.7593 1671.5539,-140.4618 1642.1637,-108 1627.2601,-91.5387 1626.3926,-65.7632 1628.5954,-46.0077"/>
<polygon fill="#757575" stroke="#757575" points="1632.0716,-46.4222 1630.017,-36.0285 1625.1416,-45.4349 1632.0716,-46.4222"/>
</g>
<!-- sort&#45;header -->
<g id="node24" class="node">
<title>sort&#45;header</title>
<ellipse fill="#efefef" stroke="#000000" cx="2495.1637" cy="-90" rx="60.3058" ry="18"/>
<text text-anchor="middle" x="2495.1637" y="-85.8" font-family="Arial" font-size="14.00" fill="#000000">sort&#45;header</text>
</g>
<!-- layout&#45;shell&#45;&gt;sort&#45;header -->
<g id="edge24" class="edge">
<title>layout&#45;shell&#45;&gt;sort&#45;header</title>
<path fill="none" stroke="#757575" d="M1984.805,-158.0819C2077.8269,-151.3111 2264.7053,-135.4431 2421.1637,-108 2427.3171,-106.9207 2433.7199,-105.6266 2440.0705,-104.2338"/>
<polygon fill="#757575" stroke="#757575" points="2440.9905,-107.614 2449.9635,-101.9805 2439.4359,-100.7888 2440.9905,-107.614"/>
</g>
<!-- letterhead -->
<g id="node25" class="node">
<title>letterhead</title>
<ellipse fill="#efefef" stroke="#000000" cx="2123.1637" cy="-90" rx="53.9426" ry="18"/>
<text text-anchor="middle" x="2123.1637" y="-85.8" font-family="Arial" font-size="14.00" fill="#000000">letterhead</text>
</g>
<!-- layout&#45;shell&#45;&gt;letterhead -->
<g id="edge26" class="edge">
<title>layout&#45;shell&#45;&gt;letterhead</title>
<path fill="none" stroke="#757575" d="M1964.615,-147.9468C1996.7178,-136.2137 2042.5817,-119.4513 2076.7295,-106.9709"/>
<polygon fill="#757575" stroke="#757575" points="2078.284,-110.1292 2086.4749,-103.4091 2075.8811,-103.5546 2078.284,-110.1292"/>
</g>
<!-- page&#45;header&#45;&gt;enhanced&#45;title -->
<g id="edge27" class="edge">
<title>page&#45;header&#45;&gt;enhanced&#45;title</title>
<path fill="none" stroke="#757575" d="M1739.4404,-72.937C1751.7594,-63.5012 1767.2463,-51.6389 1780.6736,-41.3541"/>
<polygon fill="#757575" stroke="#757575" points="1782.9107,-44.0494 1788.7212,-35.19 1778.6541,-38.4923 1782.9107,-44.0494"/>
</g>
<!-- page&#45;header&#45;&gt;scroll&#45;container -->
<g id="edge28" class="edge">
<title>page&#45;header&#45;&gt;scroll&#45;container</title>
<path fill="none" stroke="#757575" d="M1697.0718,-72.5708C1686.5469,-63.4408 1673.4922,-52.1163 1662.0078,-42.1539"/>
<polygon fill="#757575" stroke="#757575" points="1664.2058,-39.4272 1654.3584,-35.5182 1659.6188,-44.7149 1664.2058,-39.4272"/>
</g>
<!-- sort&#45;header&#45;&gt;icon -->
<g id="edge37" class="edge">
<title>sort&#45;header&#45;&gt;icon</title>
<path fill="none" stroke="#757575" d="M2484.2873,-72.2022C2479.0417,-63.6186 2472.6512,-53.1613 2466.8878,-43.7303"/>
<polygon fill="#757575" stroke="#757575" points="2469.8131,-41.805 2461.612,-35.0972 2463.8401,-45.4551 2469.8131,-41.805"/>
</g>
<!-- popover -->
<g id="node26" class="node">
<title>popover</title>
<ellipse fill="#efefef" stroke="#000000" cx="380.1637" cy="-90" rx="45.8426" ry="18"/>
<text text-anchor="middle" x="380.1637" y="-85.8" font-family="Arial" font-size="14.00" fill="#000000">popover</text>
</g>
<!-- popup&#45;confirm -->
<g id="node27" class="node">
<title>popup&#45;confirm</title>
<ellipse fill="#efefef" stroke="#000000" cx="517.1637" cy="-90" rx="72.9857" ry="18"/>
<text text-anchor="middle" x="517.1637" y="-85.8" font-family="Arial" font-size="14.00" fill="#000000">popup&#45;confirm</text>
</g>
<!-- popups&#45;modals&#45;shell -->
<g id="node28" class="node">
<title>popups&#45;modals&#45;shell</title>
<ellipse fill="#efefef" stroke="#000000" cx="517.1637" cy="-162" rx="100.2129" ry="18"/>
<text text-anchor="middle" x="517.1637" y="-157.8" font-family="Arial" font-size="14.00" fill="#000000">popups&#45;modals&#45;shell</text>
</g>
<!-- popups&#45;modals&#45;shell&#45;&gt;gdk -->
<g id="edge29" class="edge">
<title>popups&#45;modals&#45;shell&#45;&gt;gdk</title>
<path fill="none" stroke="#757575" d="M545.7282,-144.5708C564.1337,-133.3404 587.9809,-118.7895 606.4213,-107.5378"/>
<polygon fill="#757575" stroke="#757575" points="608.2786,-110.5046 614.992,-102.3082 604.6325,-104.5292 608.2786,-110.5046"/>
</g>
<!-- popups&#45;modals&#45;shell&#45;&gt;countdown&#45;button -->
<g id="edge30" class="edge">
<title>popups&#45;modals&#45;shell&#45;&gt;countdown&#45;button</title>
<path fill="none" stroke="#757575" d="M458.3319,-147.3429C410.6222,-135.4568 343.412,-118.7124 293.9315,-106.385"/>
<polygon fill="#757575" stroke="#757575" points="294.519,-102.9245 283.9694,-103.9032 292.8267,-109.7169 294.519,-102.9245"/>
</g>
<!-- popups&#45;modals&#45;shell&#45;&gt;popover -->
<g id="edge31" class="edge">
<title>popups&#45;modals&#45;shell&#45;&gt;popover</title>
<path fill="none" stroke="#757575" d="M484.6967,-144.937C464.2944,-134.2146 437.9303,-120.3591 416.7835,-109.2454"/>
<polygon fill="#757575" stroke="#757575" points="418.2547,-106.0647 407.7744,-104.5107 414.9981,-112.2611 418.2547,-106.0647"/>
</g>
<!-- popups&#45;modals&#45;shell&#45;&gt;popup&#45;confirm -->
<g id="edge32" class="edge">
<title>popups&#45;modals&#45;shell&#45;&gt;popup&#45;confirm</title>
<path fill="none" stroke="#757575" d="M517.1637,-143.8314C517.1637,-136.131 517.1637,-126.9743 517.1637,-118.4166"/>
<polygon fill="#757575" stroke="#757575" points="520.6638,-118.4132 517.1637,-108.4133 513.6638,-118.4133 520.6638,-118.4132"/>
</g>
<!-- presentational&#45;shell -->
<g id="node29" class="node">
<title>presentational&#45;shell</title>
<ellipse fill="#efefef" stroke="#000000" cx="1137.1637" cy="-162" rx="94.9903" ry="18"/>
<text text-anchor="middle" x="1137.1637" y="-157.8" font-family="Arial" font-size="14.00" fill="#000000">presentational&#45;shell</text>
</g>
<!-- presentational&#45;shell&#45;&gt;arrow&#45;variation -->
<g id="edge34" class="edge">
<title>presentational&#45;shell&#45;&gt;arrow&#45;variation</title>
<path fill="none" stroke="#757575" d="M1175.0181,-145.4817C1199.2311,-134.9161 1230.7862,-121.1466 1256.4026,-109.9685"/>
<polygon fill="#757575" stroke="#757575" points="1258.1364,-113.0307 1265.902,-105.8233 1255.3367,-106.6149 1258.1364,-113.0307"/>
</g>
<!-- presentational&#45;shell&#45;&gt;gdk -->
<g id="edge33" class="edge">
<title>presentational&#45;shell&#45;&gt;gdk</title>
<path fill="none" stroke="#757575" d="M1048.7163,-155.4308C933.7994,-146.2606 739.7544,-128.4315 671.1637,-108 669.2551,-107.4315 667.3253,-106.7664 665.4026,-106.0334"/>
<polygon fill="#757575" stroke="#757575" points="666.5464,-102.7142 655.9803,-101.9341 663.7537,-109.133 666.5464,-102.7142"/>
</g>
<!-- presentational&#45;shell&#45;&gt;pipes -->
<g id="edge36" class="edge">
<title>presentational&#45;shell&#45;&gt;pipes</title>
<path fill="none" stroke="#757575" d="M1214.4331,-151.5317C1276.7201,-141.9568 1358.354,-126.4922 1386.1637,-108 1409.3348,-92.5924 1426.557,-65.5156 1437.0852,-45.0743"/>
<polygon fill="#757575" stroke="#757575" points="1440.3078,-46.4525 1441.5807,-35.9344 1434.0264,-43.363 1440.3078,-46.4525"/>
</g>
<!-- presentational&#45;shell&#45;&gt;data&#45;formatter -->
<g id="edge35" class="edge">
<title>presentational&#45;shell&#45;&gt;data&#45;formatter</title>
<path fill="none" stroke="#757575" d="M1137.1637,-143.8314C1137.1637,-136.131 1137.1637,-126.9743 1137.1637,-118.4166"/>
<polygon fill="#757575" stroke="#757575" points="1140.6638,-118.4132 1137.1637,-108.4133 1133.6638,-118.4133 1140.6638,-118.4132"/>
</g>
<!-- widgets&#45;system -->
<g id="node30" class="node">
<title>widgets&#45;system</title>
<polygon fill="none" stroke="#000000" points="853.6106,-252 740.7168,-252 740.7168,-216 853.6106,-216 853.6106,-252"/>
<text text-anchor="middle" x="797.1637" y="-229.8" font-family="Arial" font-size="14.00" fill="#000000">widgets&#45;system</text>
</g>
<!-- widgets&#45;system&#45;&gt;buttons&#45;indicators&#45;shell -->
<g id="edge38" class="edge">
<title>widgets&#45;system&#45;&gt;buttons&#45;indicators&#45;shell</title>
<path fill="none" stroke="#757575" stroke-dasharray="1,5" d="M740.7874,-226.8663C644.0852,-214.6298 445.4741,-189.498 325.8473,-174.3607"/>
<polygon fill="#757575" stroke="#757575" points="325.9536,-170.8463 315.5933,-173.0631 325.0747,-177.7909 325.9536,-170.8463"/>
</g>
<!-- widgets&#45;system&#45;&gt;controls&#45;shell -->
<g id="edge39" class="edge">
<title>widgets&#45;system&#45;&gt;controls&#45;shell</title>
<path fill="none" stroke="#757575" stroke-dasharray="1,5" d="M797.1637,-215.8314C797.1637,-208.131 797.1637,-198.9743 797.1637,-190.4166"/>
<polygon fill="#757575" stroke="#757575" points="800.6638,-190.4132 797.1637,-180.4133 793.6638,-190.4133 800.6638,-190.4132"/>
</g>
<!-- widgets&#45;system&#45;&gt;layout&#45;shell -->
<g id="edge40" class="edge">
<title>widgets&#45;system&#45;&gt;layout&#45;shell</title>
<path fill="none" stroke="#757575" stroke-dasharray="1,5" d="M853.5373,-230.4049C1042.2631,-218.3692 1651.5729,-179.5115 1857.4593,-166.3815"/>
<polygon fill="#757575" stroke="#757575" points="1857.7807,-169.8682 1867.5377,-165.7388 1857.3351,-162.8824 1857.7807,-169.8682"/>
</g>
<!-- widgets&#45;system&#45;&gt;popups&#45;modals&#45;shell -->
<g id="edge41" class="edge">
<title>widgets&#45;system&#45;&gt;popups&#45;modals&#45;shell</title>
<path fill="none" stroke="#757575" stroke-dasharray="1,5" d="M740.8384,-219.5163C695.8127,-207.9383 632.5484,-191.6703 584.7862,-179.3886"/>
<polygon fill="#757575" stroke="#757575" points="585.3983,-175.9322 574.8417,-176.8315 583.655,-182.7117 585.3983,-175.9322"/>
</g>
<!-- widgets&#45;system&#45;&gt;presentational&#45;shell -->
<g id="edge42" class="edge">
<title>widgets&#45;system&#45;&gt;presentational&#45;shell</title>
<path fill="none" stroke="#757575" stroke-dasharray="1,5" d="M853.6895,-222.0298C911.3151,-209.8268 1000.9551,-190.8442 1063.9731,-177.4992"/>
<polygon fill="#757575" stroke="#757575" points="1064.7916,-180.9036 1073.8495,-175.4077 1063.3414,-174.0554 1064.7916,-180.9036"/>
</g>
<!-- widgets&#45;system&#45;e2e -->
<g id="node31" class="node">
<title>widgets&#45;system&#45;e2e</title>
<polygon fill="none" stroke="#000000" points="867.6189,-324 726.7086,-324 726.7086,-288 867.6189,-288 867.6189,-324"/>
<text text-anchor="middle" x="797.1637" y="-301.8" font-family="Arial" font-size="14.00" fill="#000000">widgets&#45;system&#45;e2e</text>
</g>
<!-- widgets&#45;system&#45;e2e&#45;&gt;widgets&#45;system -->
<g id="edge43" class="edge">
<title>widgets&#45;system&#45;e2e&#45;&gt;widgets&#45;system</title>
<path fill="none" stroke="#000000" stroke-width="2" d="M797.1637,-287.8314C797.1637,-280.131 797.1637,-270.9743 797.1637,-262.4166"/>
<polygon fill="#000000" stroke="#000000" stroke-width="2" points="800.6638,-262.4132 797.1637,-252.4133 793.6638,-262.4133 800.6638,-262.4132"/>
</g>
</g>
</svg>
