<?xml version="1.0" encoding="UTF-8" standalone="no"?>
<!DOCTYPE svg PUBLIC "-//W3C//DTD SVG 1.1//EN"
 "http://www.w3.org/Graphics/SVG/1.1/DTD/svg11.dtd">
<!-- Generated by graphviz version 2.40.1 (20161225.0304)
 -->
<!-- Title: G Pages: 1 -->
<svg width="1571pt" height="340pt"
 viewBox="0.00 0.00 1570.55 339.98" xmlns="http://www.w3.org/2000/svg" xmlns:xlink="http://www.w3.org/1999/xlink">
<g id="graph0" class="graph" transform="scale(1 1) rotate(0) translate(7.992 331.992)">
<title>G</title>
<polygon fill="#ffffff" stroke="transparent" points="-7.992,7.992 -7.992,-331.992 1562.5585,-331.992 1562.5585,7.992 -7.992,7.992"/>
<!-- arrow&#45;variation -->
<g id="node1" class="node">
<title>arrow&#45;variation</title>
<ellipse fill="#efefef" stroke="#000000" cx="820.4028" cy="-90" rx="74.7496" ry="18"/>
<text text-anchor="middle" x="820.4028" y="-85.8" font-family="Arial" font-size="14.00" fill="#000000">arrow&#45;variation</text>
</g>
<!-- button -->
<g id="node2" class="node">
<title>button</title>
<ellipse fill="#efefef" stroke="#000000" cx="1384.4028" cy="-18" rx="37.7544" ry="18"/>
<text text-anchor="middle" x="1384.4028" y="-13.8" font-family="Arial" font-size="14.00" fill="#000000">button</text>
</g>
<!-- buttons&#45;indicators&#45;shell -->
<g id="node3" class="node">
<title>buttons&#45;indicators&#45;shell</title>
<ellipse fill="#efefef" stroke="#000000" cx="1326.4028" cy="-162" rx="110.1008" ry="18"/>
<text text-anchor="middle" x="1326.4028" y="-157.8" font-family="Arial" font-size="14.00" fill="#000000">buttons&#45;indicators&#45;shell</text>
</g>
<!-- buttons&#45;indicators&#45;shell&#45;&gt;button -->
<g id="edge2" class="edge">
<title>buttons&#45;indicators&#45;shell&#45;&gt;button</title>
<path fill="none" stroke="#757575" d="M1377.1303,-146.011C1394.9865,-137.666 1413.1474,-125.4467 1423.4028,-108 1435.8811,-86.7717 1421.8195,-60.8101 1407.2189,-42.2353"/>
<polygon fill="#757575" stroke="#757575" points="1409.8758,-39.9564 1400.7858,-34.5137 1404.4977,-44.437 1409.8758,-39.9564"/>
</g>
<!-- gdk -->
<g id="node4" class="node">
<title>gdk</title>
<ellipse fill="#efefef" stroke="#000000" cx="700.4028" cy="-90" rx="27" ry="18"/>
<text text-anchor="middle" x="700.4028" y="-85.8" font-family="Arial" font-size="14.00" fill="#000000">gdk</text>
</g>
<!-- buttons&#45;indicators&#45;shell&#45;&gt;gdk -->
<g id="edge1" class="edge">
<title>buttons&#45;indicators&#45;shell&#45;&gt;gdk</title>
<path fill="none" stroke="#757575" d="M1238.6319,-150.9835C1217.9138,-148.5366 1195.8921,-146.0606 1175.4028,-144 980.6193,-124.4105 924.9329,-160.7327 736.4028,-108 734.2704,-107.4036 732.1144,-106.679 729.9731,-105.8672"/>
<polygon fill="#757575" stroke="#757575" points="731.3663,-102.6564 720.8003,-101.8758 728.5734,-109.0751 731.3663,-102.6564"/>
</g>
<!-- countdown&#45;button -->
<g id="node5" class="node">
<title>countdown&#45;button</title>
<ellipse fill="#efefef" stroke="#000000" cx="1326.4028" cy="-90" rx="87.5707" ry="18"/>
<text text-anchor="middle" x="1326.4028" y="-85.8" font-family="Arial" font-size="14.00" fill="#000000">countdown&#45;button</text>
</g>
<!-- buttons&#45;indicators&#45;shell&#45;&gt;countdown&#45;button -->
<g id="edge3" class="edge">
<title>buttons&#45;indicators&#45;shell&#45;&gt;countdown&#45;button</title>
<path fill="none" stroke="#757575" d="M1326.4028,-143.8314C1326.4028,-136.131 1326.4028,-126.9743 1326.4028,-118.4166"/>
<polygon fill="#757575" stroke="#757575" points="1329.9029,-118.4132 1326.4028,-108.4133 1322.9029,-118.4133 1329.9029,-118.4132"/>
</g>
<!-- loading -->
<g id="node6" class="node">
<title>loading</title>
<ellipse fill="#efefef" stroke="#000000" cx="1512.4028" cy="-90" rx="42.3281" ry="18"/>
<text text-anchor="middle" x="1512.4028" y="-85.8" font-family="Arial" font-size="14.00" fill="#000000">loading</text>
</g>
<!-- buttons&#45;indicators&#45;shell&#45;&gt;loading -->
<g id="edge4" class="edge">
<title>buttons&#45;indicators&#45;shell&#45;&gt;loading</title>
<path fill="none" stroke="#757575" d="M1369.5425,-145.3008C1400.3366,-133.3805 1441.4856,-117.4518 1471.7107,-105.7518"/>
<polygon fill="#757575" stroke="#757575" points="1473.0511,-108.9861 1481.1133,-102.1121 1470.5241,-102.4581 1473.0511,-108.9861"/>
</g>
<!-- countdown&#45;button&#45;&gt;button -->
<g id="edge8" class="edge">
<title>countdown&#45;button&#45;&gt;button</title>
<path fill="none" stroke="#757575" d="M1340.7399,-72.2022C1347.7971,-63.4416 1356.4264,-52.7293 1364.1445,-43.1482"/>
<polygon fill="#757575" stroke="#757575" points="1367.0824,-45.0805 1370.63,-35.0972 1361.6311,-40.6891 1367.0824,-45.0805"/>
</g>
<!-- card&#45;container -->
<g id="node7" class="node">
<title>card&#45;container</title>
<ellipse fill="#efefef" stroke="#000000" cx="218.4028" cy="-90" rx="72.9857" ry="18"/>
<text text-anchor="middle" x="218.4028" y="-85.8" font-family="Arial" font-size="14.00" fill="#000000">card&#45;container</text>
</g>
<!-- section&#45;title -->
<g id="node8" class="node">
<title>section&#45;title</title>
<ellipse fill="#efefef" stroke="#000000" cx="146.4028" cy="-18" rx="59.7224" ry="18"/>
<text text-anchor="middle" x="146.4028" y="-13.8" font-family="Arial" font-size="14.00" fill="#000000">section&#45;title</text>
</g>
<!-- card&#45;container&#45;&gt;section&#45;title -->
<g id="edge5" class="edge">
<title>card&#45;container&#45;&gt;section&#45;title</title>
<path fill="none" stroke="#757575" d="M200.6051,-72.2022C191.6453,-63.2425 180.6442,-52.2414 170.8996,-42.4968"/>
<polygon fill="#757575" stroke="#757575" points="173.2934,-39.9408 163.7474,-35.3446 168.3436,-44.8906 173.2934,-39.9408"/>
</g>
<!-- controls&#45;shell -->
<g id="node9" class="node">
<title>controls&#45;shell</title>
<ellipse fill="#efefef" stroke="#000000" cx="655.4028" cy="-162" rx="67.8107" ry="18"/>
<text text-anchor="middle" x="655.4028" y="-157.8" font-family="Arial" font-size="14.00" fill="#000000">controls&#45;shell</text>
</g>
<!-- controls&#45;shell&#45;&gt;gdk -->
<g id="edge6" class="edge">
<title>controls&#45;shell&#45;&gt;gdk</title>
<path fill="none" stroke="#757575" d="M666.5264,-144.2022C671.8912,-135.6186 678.427,-125.1613 684.3214,-115.7303"/>
<polygon fill="#757575" stroke="#757575" points="687.385,-117.4322 689.717,-107.0972 681.449,-113.7222 687.385,-117.4322"/>
</g>
<!-- slide&#45;toggle -->
<g id="node10" class="node">
<title>slide&#45;toggle</title>
<ellipse fill="#efefef" stroke="#000000" cx="595.4028" cy="-90" rx="60.3038" ry="18"/>
<text text-anchor="middle" x="595.4028" y="-85.8" font-family="Arial" font-size="14.00" fill="#000000">slide&#45;toggle</text>
</g>
<!-- controls&#45;shell&#45;&gt;slide&#45;toggle -->
<g id="edge7" class="edge">
<title>controls&#45;shell&#45;&gt;slide&#45;toggle</title>
<path fill="none" stroke="#757575" d="M640.5713,-144.2022C633.3055,-135.4832 624.4287,-124.8311 616.4736,-115.2849"/>
<polygon fill="#757575" stroke="#757575" points="619.1543,-113.0346 610.0637,-107.593 613.7768,-117.5159 619.1543,-113.0346"/>
</g>
<!-- data&#45;formatter -->
<g id="node11" class="node">
<title>data&#45;formatter</title>
<ellipse fill="#efefef" stroke="#000000" cx="985.4028" cy="-90" rx="71.8376" ry="18"/>
<text text-anchor="middle" x="985.4028" y="-85.8" font-family="Arial" font-size="14.00" fill="#000000">data&#45;formatter</text>
</g>
<!-- directives -->
<g id="node12" class="node">
<title>directives</title>
<ellipse fill="#efefef" stroke="#000000" cx="976.4028" cy="-306" rx="51.6227" ry="18"/>
<text text-anchor="middle" x="976.4028" y="-301.8" font-family="Arial" font-size="14.00" fill="#000000">directives</text>
</g>
<!-- enhanced&#45;title -->
<g id="node13" class="node">
<title>enhanced&#45;title</title>
<ellipse fill="#efefef" stroke="#000000" cx="496.4028" cy="-18" rx="71.8589" ry="18"/>
<text text-anchor="middle" x="496.4028" y="-13.8" font-family="Arial" font-size="14.00" fill="#000000">enhanced&#45;title</text>
</g>
<!-- icon -->
<g id="node14" class="node">
<title>icon</title>
<ellipse fill="#efefef" stroke="#000000" cx="60.4028" cy="-90" rx="28.991" ry="18"/>
<text text-anchor="middle" x="60.4028" y="-85.8" font-family="Arial" font-size="14.00" fill="#000000">icon</text>
</g>
<!-- layout&#45;shell -->
<g id="node15" class="node">
<title>layout&#45;shell</title>
<ellipse fill="#efefef" stroke="#000000" cx="366.4028" cy="-162" rx="59.7244" ry="18"/>
<text text-anchor="middle" x="366.4028" y="-157.8" font-family="Arial" font-size="14.00" fill="#000000">layout&#45;shell</text>
</g>
<!-- layout&#45;shell&#45;&gt;gdk -->
<g id="edge9" class="edge">
<title>layout&#45;shell&#45;&gt;gdk</title>
<path fill="none" stroke="#757575" d="M423.6191,-156.5188C484.5113,-149.5658 583.0896,-135.0777 664.4028,-108 666.2923,-107.3708 668.2073,-106.6586 670.1186,-105.8897"/>
<polygon fill="#757575" stroke="#757575" points="671.8077,-108.9685 679.5106,-101.6941 668.9526,-102.5772 671.8077,-108.9685"/>
</g>
<!-- layout&#45;shell&#45;&gt;card&#45;container -->
<g id="edge10" class="edge">
<title>layout&#45;shell&#45;&gt;card&#45;container</title>
<path fill="none" stroke="#757575" d="M334.6531,-146.5542C313.0581,-136.0485 284.2439,-122.0308 260.7055,-110.5797"/>
<polygon fill="#757575" stroke="#757575" points="262.1635,-107.3968 251.6399,-106.1694 259.1012,-113.6915 262.1635,-107.3968"/>
</g>
<!-- layout&#45;shell&#45;&gt;section&#45;title -->
<g id="edge15" class="edge">
<title>layout&#45;shell&#45;&gt;section&#45;title</title>
<path fill="none" stroke="#757575" d="M309.2242,-156.5956C248.25,-149.5108 157.5778,-134.7223 136.4028,-108 122.6008,-90.5822 127.0904,-64.9583 133.8792,-45.5018"/>
<polygon fill="#757575" stroke="#757575" points="137.2241,-46.5553 137.5543,-35.9656 130.6924,-44.038 137.2241,-46.5553"/>
</g>
<!-- layout&#45;shell&#45;&gt;enhanced&#45;title -->
<g id="edge11" class="edge">
<title>layout&#45;shell&#45;&gt;enhanced&#45;title</title>
<path fill="none" stroke="#757575" d="M417.2349,-152.2689C442.7712,-144.6439 471.7498,-131.2588 488.4028,-108 501.1163,-90.2434 502.3679,-65.1828 500.8643,-46.0137"/>
<polygon fill="#757575" stroke="#757575" points="504.3428,-45.626 499.8007,-36.0542 497.3824,-46.3693 504.3428,-45.626"/>
</g>
<!-- layout&#45;shell&#45;&gt;icon -->
<g id="edge12" class="edge">
<title>layout&#45;shell&#45;&gt;icon</title>
<path fill="none" stroke="#757575" d="M312.4941,-154.0749C258.7865,-145.4492 174.3289,-129.8992 103.4028,-108 100.0536,-106.9659 96.6067,-105.7664 93.1913,-104.4872"/>
<polygon fill="#757575" stroke="#757575" points="94.3414,-101.1781 83.7556,-100.7418 91.7588,-107.6843 94.3414,-101.1781"/>
</g>
<!-- page&#45;header -->
<g id="node16" class="node">
<title>page&#45;header</title>
<ellipse fill="#efefef" stroke="#000000" cx="413.4028" cy="-90" rx="65.5623" ry="18"/>
<text text-anchor="middle" x="413.4028" y="-85.8" font-family="Arial" font-size="14.00" fill="#000000">page&#45;header</text>
</g>
<!-- layout&#45;shell&#45;&gt;page&#45;header -->
<g id="edge13" class="edge">
<title>layout&#45;shell&#45;&gt;page&#45;header</title>
<path fill="none" stroke="#757575" d="M378.0208,-144.2022C383.5004,-135.8079 390.1497,-125.6218 396.1983,-116.3558"/>
<polygon fill="#757575" stroke="#757575" points="399.2202,-118.1295 401.7556,-107.8425 393.3585,-114.3032 399.2202,-118.1295"/>
</g>
<!-- scroll&#45;container -->
<g id="node17" class="node">
<title>scroll&#45;container</title>
<ellipse fill="#efefef" stroke="#000000" cx="324.4028" cy="-18" rx="76.4768" ry="18"/>
<text text-anchor="middle" x="324.4028" y="-13.8" font-family="Arial" font-size="14.00" fill="#000000">scroll&#45;container</text>
</g>
<!-- layout&#45;shell&#45;&gt;scroll&#45;container -->
<g id="edge14" class="edge">
<title>layout&#45;shell&#45;&gt;scroll&#45;container</title>
<path fill="none" stroke="#757575" d="M355.277,-144.1503C349.3898,-133.9248 342.5421,-120.6458 338.4028,-108 331.8542,-87.9936 328.3305,-64.4568 326.4566,-46.4715"/>
<polygon fill="#757575" stroke="#757575" points="329.9246,-45.9647 325.5121,-36.3325 322.9548,-46.614 329.9246,-45.9647"/>
</g>
<!-- page&#45;header&#45;&gt;enhanced&#45;title -->
<g id="edge16" class="edge">
<title>page&#45;header&#45;&gt;enhanced&#45;title</title>
<path fill="none" stroke="#757575" d="M433.4948,-72.5708C444.0197,-63.4408 457.0743,-52.1163 468.5587,-42.1539"/>
<polygon fill="#757575" stroke="#757575" points="470.9477,-44.7149 476.2082,-35.5182 466.3608,-39.4272 470.9477,-44.7149"/>
</g>
<!-- page&#45;header&#45;&gt;scroll&#45;container -->
<g id="edge17" class="edge">
<title>page&#45;header&#45;&gt;scroll&#45;container</title>
<path fill="none" stroke="#757575" d="M392.3111,-72.937C380.8417,-63.6584 366.4721,-52.0336 353.9083,-41.8696"/>
<polygon fill="#757575" stroke="#757575" points="355.9373,-39.0091 345.9614,-35.4407 351.5346,-44.4513 355.9373,-39.0091"/>
</g>
<!-- pipes -->
<g id="node18" class="node">
<title>pipes</title>
<ellipse fill="#efefef" stroke="#000000" cx="1080.4028" cy="-306" rx="34.2259" ry="18"/>
<text text-anchor="middle" x="1080.4028" y="-301.8" font-family="Arial" font-size="14.00" fill="#000000">pipes</text>
</g>
<!-- popup&#45;confirm -->
<g id="node19" class="node">
<title>popup&#45;confirm</title>
<ellipse fill="#efefef" stroke="#000000" cx="1147.4028" cy="-90" rx="72.9857" ry="18"/>
<text text-anchor="middle" x="1147.4028" y="-85.8" font-family="Arial" font-size="14.00" fill="#000000">popup&#45;confirm</text>
</g>
<!-- popups&#45;modals&#45;shell -->
<g id="node20" class="node">
<title>popups&#45;modals&#45;shell</title>
<ellipse fill="#efefef" stroke="#000000" cx="1066.4028" cy="-162" rx="100.2129" ry="18"/>
<text text-anchor="middle" x="1066.4028" y="-157.8" font-family="Arial" font-size="14.00" fill="#000000">popups&#45;modals&#45;shell</text>
</g>
<!-- popups&#45;modals&#45;shell&#45;&gt;gdk -->
<g id="edge18" class="edge">
<title>popups&#45;modals&#45;shell&#45;&gt;gdk</title>
<path fill="none" stroke="#757575" d="M988.8345,-150.5614C898.9162,-137.1044 759.981,-115.6288 736.4028,-108 734.508,-107.3869 732.5889,-106.6873 730.6745,-105.9279"/>
<polygon fill="#757575" stroke="#757575" points="731.8343,-102.6136 721.2741,-101.7579 728.9959,-109.0123 731.8343,-102.6136"/>
</g>
<!-- popups&#45;modals&#45;shell&#45;&gt;countdown&#45;button -->
<g id="edge19" class="edge">
<title>popups&#45;modals&#45;shell&#45;&gt;countdown&#45;button</title>
<path fill="none" stroke="#757575" d="M1121.2244,-146.8186C1162.9668,-135.2592 1220.465,-119.3366 1263.9757,-107.2875"/>
<polygon fill="#757575" stroke="#757575" points="1265.1715,-110.5882 1273.8747,-104.5462 1263.3033,-103.842 1265.1715,-110.5882"/>
</g>
<!-- popups&#45;modals&#45;shell&#45;&gt;popup&#45;confirm -->
<g id="edge20" class="edge">
<title>popups&#45;modals&#45;shell&#45;&gt;popup&#45;confirm</title>
<path fill="none" stroke="#757575" d="M1086.4253,-144.2022C1096.6038,-135.1546 1109.1242,-124.0255 1120.166,-114.2105"/>
<polygon fill="#757575" stroke="#757575" points="1122.7413,-116.6042 1127.8902,-107.3446 1118.0908,-111.3723 1122.7413,-116.6042"/>
</g>
<!-- presentational&#45;shell -->
<g id="node21" class="node">
<title>presentational&#45;shell</title>
<ellipse fill="#efefef" stroke="#000000" cx="836.4028" cy="-162" rx="94.9903" ry="18"/>
<text text-anchor="middle" x="836.4028" y="-157.8" font-family="Arial" font-size="14.00" fill="#000000">presentational&#45;shell</text>
</g>
<!-- presentational&#45;shell&#45;&gt;arrow&#45;variation -->
<g id="edge22" class="edge">
<title>presentational&#45;shell&#45;&gt;arrow&#45;variation</title>
<path fill="none" stroke="#757575" d="M832.3653,-143.8314C830.6541,-136.131 828.6193,-126.9743 826.7176,-118.4166"/>
<polygon fill="#757575" stroke="#757575" points="830.0807,-117.4159 824.4946,-108.4133 823.2474,-118.9344 830.0807,-117.4159"/>
</g>
<!-- presentational&#45;shell&#45;&gt;gdk -->
<g id="edge21" class="edge">
<title>presentational&#45;shell&#45;&gt;gdk</title>
<path fill="none" stroke="#757575" d="M804.1727,-144.937C781.9041,-133.1477 752.4808,-117.5707 730.6536,-106.0151"/>
<polygon fill="#757575" stroke="#757575" points="732.2826,-102.9174 721.8071,-101.3317 729.0074,-109.1039 732.2826,-102.9174"/>
</g>
<!-- presentational&#45;shell&#45;&gt;data&#45;formatter -->
<g id="edge23" class="edge">
<title>presentational&#45;shell&#45;&gt;data&#45;formatter</title>
<path fill="none" stroke="#757575" d="M871.3367,-145.1192C892.807,-134.7443 920.4535,-121.3849 943.1513,-110.4168"/>
<polygon fill="#757575" stroke="#757575" points="944.741,-113.5359 952.2221,-106.0336 941.6954,-107.2332 944.741,-113.5359"/>
</g>
<!-- sort&#45;header -->
<g id="node22" class="node">
<title>sort&#45;header</title>
<ellipse fill="#efefef" stroke="#000000" cx="60.4028" cy="-162" rx="60.3058" ry="18"/>
<text text-anchor="middle" x="60.4028" y="-157.8" font-family="Arial" font-size="14.00" fill="#000000">sort&#45;header</text>
</g>
<!-- sort&#45;header&#45;&gt;icon -->
<g id="edge24" class="edge">
<title>sort&#45;header&#45;&gt;icon</title>
<path fill="none" stroke="#757575" d="M60.4028,-143.8314C60.4028,-136.131 60.4028,-126.9743 60.4028,-118.4166"/>
<polygon fill="#757575" stroke="#757575" points="63.9029,-118.4132 60.4028,-108.4133 56.9029,-118.4133 63.9029,-118.4132"/>
</g>
<!-- widgets&#45;system -->
<g id="node23" class="node">
<title>widgets&#45;system</title>
<polygon fill="none" stroke="#000000" points="892.8497,-252 779.9559,-252 779.9559,-216 892.8497,-216 892.8497,-252"/>
<text text-anchor="middle" x="836.4028" y="-229.8" font-family="Arial" font-size="14.00" fill="#000000">widgets&#45;system</text>
</g>
<!-- widgets&#45;system&#45;&gt;buttons&#45;indicators&#45;shell -->
<g id="edge25" class="edge">
<title>widgets&#45;system&#45;&gt;buttons&#45;indicators&#45;shell</title>
<path fill="none" stroke="#757575" stroke-dasharray="1,5" d="M893.0907,-225.6703C976.6303,-213.3951 1133.7252,-190.3118 1234.0513,-175.57"/>
<polygon fill="#757575" stroke="#757575" points="1234.7969,-178.9981 1244.1818,-174.0815 1233.7792,-172.0725 1234.7969,-178.9981"/>
</g>
<!-- widgets&#45;system&#45;&gt;controls&#45;shell -->
<g id="edge26" class="edge">
<title>widgets&#45;system&#45;&gt;controls&#45;shell</title>
<path fill="none" stroke="#757575" stroke-dasharray="1,5" d="M790.7289,-215.8314C763.7488,-205.099 729.6577,-191.5379 702.4426,-180.712"/>
<polygon fill="#757575" stroke="#757575" points="703.7115,-177.45 693.126,-177.0059 701.1242,-183.9543 703.7115,-177.45"/>
</g>
<!-- widgets&#45;system&#45;&gt;layout&#45;shell -->
<g id="edge27" class="edge">
<title>widgets&#45;system&#45;&gt;layout&#45;shell</title>
<path fill="none" stroke="#757575" stroke-dasharray="1,5" d="M780.1767,-225.3866C692.1063,-211.895 522.1689,-185.862 429.8459,-171.7189"/>
<polygon fill="#757575" stroke="#757575" points="430.2134,-168.2345 419.7986,-170.1798 429.1533,-175.1538 430.2134,-168.2345"/>
</g>
<!-- widgets&#45;system&#45;&gt;popups&#45;modals&#45;shell -->
<g id="edge28" class="edge">
<title>widgets&#45;system&#45;&gt;popups&#45;modals&#45;shell</title>
<path fill="none" stroke="#757575" stroke-dasharray="1,5" d="M892.6671,-216.3868C927.1907,-205.5795 971.368,-191.75 1006.5348,-180.7413"/>
<polygon fill="#757575" stroke="#757575" points="1007.7015,-184.0436 1016.1992,-177.7159 1005.6103,-177.3633 1007.7015,-184.0436"/>
</g>
<!-- widgets&#45;system&#45;&gt;presentational&#45;shell -->
<g id="edge29" class="edge">
<title>widgets&#45;system&#45;&gt;presentational&#45;shell</title>
<path fill="none" stroke="#757575" stroke-dasharray="1,5" d="M836.4028,-215.8314C836.4028,-208.131 836.4028,-198.9743 836.4028,-190.4166"/>
<polygon fill="#757575" stroke="#757575" points="839.9029,-190.4132 836.4028,-180.4133 832.9029,-190.4133 839.9029,-190.4132"/>
</g>
<!-- widgets&#45;system&#45;e2e -->
<g id="node24" class="node">
<title>widgets&#45;system&#45;e2e</title>
<polygon fill="none" stroke="#000000" points="906.8579,-324 765.9477,-324 765.9477,-288 906.8579,-288 906.8579,-324"/>
<text text-anchor="middle" x="836.4028" y="-301.8" font-family="Arial" font-size="14.00" fill="#000000">widgets&#45;system&#45;e2e</text>
</g>
<!-- widgets&#45;system&#45;e2e&#45;&gt;widgets&#45;system -->
<g id="edge30" class="edge">
<title>widgets&#45;system&#45;e2e&#45;&gt;widgets&#45;system</title>
<path fill="none" stroke="#000000" stroke-width="2" d="M836.4028,-287.8314C836.4028,-280.131 836.4028,-270.9743 836.4028,-262.4166"/>
<polygon fill="#000000" stroke="#000000" stroke-width="2" points="839.9029,-262.4132 836.4028,-252.4133 832.9029,-262.4133 839.9029,-262.4132"/>
</g>
</g>
</svg>
