<?xml version="1.0" encoding="UTF-8" standalone="no"?>
<!DOCTYPE svg PUBLIC "-//W3C//DTD SVG 1.1//EN"
 "http://www.w3.org/Graphics/SVG/1.1/DTD/svg11.dtd">
<!-- Generated by graphviz version 2.40.1 (20161225.0304)
 -->
<!-- Title: G Pages: 1 -->
<svg width="2306pt" height="340pt"
 viewBox="0.00 0.00 2305.94 339.98" xmlns="http://www.w3.org/2000/svg" xmlns:xlink="http://www.w3.org/1999/xlink">
<g id="graph0" class="graph" transform="scale(1 1) rotate(0) translate(7.992 331.992)">
<title>G</title>
<polygon fill="#ffffff" stroke="transparent" points="-7.992,7.992 -7.992,-331.992 2297.9502,-331.992 2297.9502,7.992 -7.992,7.992"/>
<!-- arrow&#45;variation -->
<g id="node1" class="node">
<title>arrow&#45;variation</title>
<ellipse fill="#efefef" stroke="#000000" cx="1139.1637" cy="-90" rx="74.7496" ry="18"/>
<text text-anchor="middle" x="1139.1637" y="-85.8" font-family="Arial" font-size="14.00" fill="#000000">arrow&#45;variation</text>
</g>
<!-- button -->
<g id="node2" class="node">
<title>button</title>
<ellipse fill="#efefef" stroke="#000000" cx="228.1637" cy="-18" rx="37.7544" ry="18"/>
<text text-anchor="middle" x="228.1637" y="-13.8" font-family="Arial" font-size="14.00" fill="#000000">button</text>
</g>
<!-- buttons&#45;indicators&#45;shell -->
<g id="node3" class="node">
<title>buttons&#45;indicators&#45;shell</title>
<ellipse fill="#efefef" stroke="#000000" cx="228.1637" cy="-162" rx="110.1008" ry="18"/>
<text text-anchor="middle" x="228.1637" y="-157.8" font-family="Arial" font-size="14.00" fill="#000000">buttons&#45;indicators&#45;shell</text>
</g>
<!-- buttons&#45;indicators&#45;shell&#45;&gt;button -->
<g id="edge2" class="edge">
<title>buttons&#45;indicators&#45;shell&#45;&gt;button</title>
<path fill="none" stroke="#757575" d="M177.4363,-146.011C159.5801,-137.666 141.4192,-125.4467 131.1637,-108 123.0557,-94.2065 123.0557,-85.7935 131.1637,-72 142.9682,-51.9181 165.2465,-38.762 185.4782,-30.4682"/>
<polygon fill="#757575" stroke="#757575" points="186.787,-33.7151 194.8868,-26.8854 184.2958,-27.1734 186.787,-33.7151"/>
</g>
<!-- gdk -->
<g id="node4" class="node">
<title>gdk</title>
<ellipse fill="#efefef" stroke="#000000" cx="635.1637" cy="-90" rx="27" ry="18"/>
<text text-anchor="middle" x="635.1637" y="-85.8" font-family="Arial" font-size="14.00" fill="#000000">gdk</text>
</g>
<!-- buttons&#45;indicators&#45;shell&#45;&gt;gdk -->
<g id="edge1" class="edge">
<title>buttons&#45;indicators&#45;shell&#45;&gt;gdk</title>
<path fill="none" stroke="#757575" d="M332.0895,-155.7706C407.5788,-149.1185 511.4445,-135.5286 599.1637,-108 601.0639,-107.4037 602.9871,-106.7171 604.9047,-105.9676"/>
<polygon fill="#757575" stroke="#757575" points="606.5723,-109.0577 614.3136,-101.8242 603.7511,-102.6514 606.5723,-109.0577"/>
</g>
<!-- countdown&#45;button -->
<g id="node5" class="node">
<title>countdown&#45;button</title>
<ellipse fill="#efefef" stroke="#000000" cx="228.1637" cy="-90" rx="87.5707" ry="18"/>
<text text-anchor="middle" x="228.1637" y="-85.8" font-family="Arial" font-size="14.00" fill="#000000">countdown&#45;button</text>
</g>
<!-- buttons&#45;indicators&#45;shell&#45;&gt;countdown&#45;button -->
<g id="edge3" class="edge">
<title>buttons&#45;indicators&#45;shell&#45;&gt;countdown&#45;button</title>
<path fill="none" stroke="#757575" d="M228.1637,-143.8314C228.1637,-136.131 228.1637,-126.9743 228.1637,-118.4166"/>
<polygon fill="#757575" stroke="#757575" points="231.6638,-118.4132 228.1637,-108.4133 224.6638,-118.4133 231.6638,-118.4132"/>
</g>
<!-- loading -->
<g id="node6" class="node">
<title>loading</title>
<ellipse fill="#efefef" stroke="#000000" cx="42.1637" cy="-90" rx="42.3281" ry="18"/>
<text text-anchor="middle" x="42.1637" y="-85.8" font-family="Arial" font-size="14.00" fill="#000000">loading</text>
</g>
<!-- buttons&#45;indicators&#45;shell&#45;&gt;loading -->
<g id="edge4" class="edge">
<title>buttons&#45;indicators&#45;shell&#45;&gt;loading</title>
<path fill="none" stroke="#757575" d="M185.0241,-145.3008C154.23,-133.3805 113.0809,-117.4518 82.8558,-105.7518"/>
<polygon fill="#757575" stroke="#757575" points="84.0425,-102.4581 73.4533,-102.1121 81.5155,-108.9861 84.0425,-102.4581"/>
</g>
<!-- countdown&#45;button&#45;&gt;button -->
<g id="edge10" class="edge">
<title>countdown&#45;button&#45;&gt;button</title>
<path fill="none" stroke="#757575" d="M228.1637,-71.8314C228.1637,-64.131 228.1637,-54.9743 228.1637,-46.4166"/>
<polygon fill="#757575" stroke="#757575" points="231.6638,-46.4132 228.1637,-36.4133 224.6638,-46.4133 231.6638,-46.4132"/>
</g>
<!-- card&#45;container -->
<g id="node7" class="node">
<title>card&#45;container</title>
<ellipse fill="#efefef" stroke="#000000" cx="1723.1637" cy="-90" rx="72.9857" ry="18"/>
<text text-anchor="middle" x="1723.1637" y="-85.8" font-family="Arial" font-size="14.00" fill="#000000">card&#45;container</text>
</g>
<!-- section&#45;title -->
<g id="node8" class="node">
<title>section&#45;title</title>
<ellipse fill="#efefef" stroke="#000000" cx="1646.1637" cy="-18" rx="59.7224" ry="18"/>
<text text-anchor="middle" x="1646.1637" y="-13.8" font-family="Arial" font-size="14.00" fill="#000000">section&#45;title</text>
</g>
<!-- card&#45;container&#45;&gt;section&#45;title -->
<g id="edge5" class="edge">
<title>card&#45;container&#45;&gt;section&#45;title</title>
<path fill="none" stroke="#757575" d="M1704.5242,-72.5708C1694.7824,-63.4616 1682.7044,-52.1679 1672.0679,-42.2221"/>
<polygon fill="#757575" stroke="#757575" points="1674.3264,-39.5422 1664.6316,-35.2687 1669.5454,-44.6551 1674.3264,-39.5422"/>
</g>
<!-- controls&#45;shell -->
<g id="node9" class="node">
<title>controls&#45;shell</title>
<ellipse fill="#efefef" stroke="#000000" cx="807.1637" cy="-162" rx="67.8107" ry="18"/>
<text text-anchor="middle" x="807.1637" y="-157.8" font-family="Arial" font-size="14.00" fill="#000000">controls&#45;shell</text>
</g>
<!-- controls&#45;shell&#45;&gt;gdk -->
<g id="edge6" class="edge">
<title>controls&#45;shell&#45;&gt;gdk</title>
<path fill="none" stroke="#757575" d="M767.5124,-147.2857C740.1832,-136.894 703.1631,-122.3211 671.1637,-108 669.3938,-107.2079 667.5846,-106.376 665.7654,-105.5223"/>
<polygon fill="#757575" stroke="#757575" points="667.249,-102.352 656.722,-101.1546 664.2046,-108.6553 667.249,-102.352"/>
</g>
<!-- datepicker -->
<g id="node10" class="node">
<title>datepicker</title>
<ellipse fill="#efefef" stroke="#000000" cx="874.1637" cy="-90" rx="55.6526" ry="18"/>
<text text-anchor="middle" x="874.1637" y="-85.8" font-family="Arial" font-size="14.00" fill="#000000">datepicker</text>
</g>
<!-- controls&#45;shell&#45;&gt;datepicker -->
<g id="edge7" class="edge">
<title>controls&#45;shell&#45;&gt;datepicker</title>
<path fill="none" stroke="#757575" d="M823.7255,-144.2022C831.9814,-135.3303 842.0997,-124.4569 851.1011,-114.7837"/>
<polygon fill="#757575" stroke="#757575" points="853.7736,-117.0496 858.0236,-107.3446 848.6491,-112.281 853.7736,-117.0496"/>
</g>
<!-- form&#45;text -->
<g id="node11" class="node">
<title>form&#45;text</title>
<ellipse fill="#efefef" stroke="#000000" cx="997.1637" cy="-90" rx="49.2512" ry="18"/>
<text text-anchor="middle" x="997.1637" y="-85.8" font-family="Arial" font-size="14.00" fill="#000000">form&#45;text</text>
</g>
<!-- controls&#45;shell&#45;&gt;form&#45;text -->
<g id="edge8" class="edge">
<title>controls&#45;shell&#45;&gt;form&#45;text</title>
<path fill="none" stroke="#757575" d="M846.5319,-147.0816C877.6596,-135.2858 921.0907,-118.8277 953.3239,-106.613"/>
<polygon fill="#757575" stroke="#757575" points="954.8309,-109.7848 962.9418,-102.9683 952.3504,-103.2391 954.8309,-109.7848"/>
</g>
<!-- slide&#45;toggle -->
<g id="node12" class="node">
<title>slide&#45;toggle</title>
<ellipse fill="#efefef" stroke="#000000" cx="740.1637" cy="-90" rx="60.3038" ry="18"/>
<text text-anchor="middle" x="740.1637" y="-85.8" font-family="Arial" font-size="14.00" fill="#000000">slide&#45;toggle</text>
</g>
<!-- controls&#45;shell&#45;&gt;slide&#45;toggle -->
<g id="edge9" class="edge">
<title>controls&#45;shell&#45;&gt;slide&#45;toggle</title>
<path fill="none" stroke="#757575" d="M790.6019,-144.2022C782.4073,-135.396 772.3776,-124.6179 763.4266,-114.9989"/>
<polygon fill="#757575" stroke="#757575" points="765.9096,-112.5294 756.535,-107.593 760.7851,-117.2981 765.9096,-112.5294"/>
</g>
<!-- datepicker&#45;&gt;button -->
<g id="edge12" class="edge">
<title>datepicker&#45;&gt;button</title>
<path fill="none" stroke="#757575" d="M833.5055,-77.5515C825.4957,-75.4373 817.1106,-73.4577 809.1637,-72 613.5668,-36.1213 376.3154,-23.515 276.3016,-19.5867"/>
<polygon fill="#757575" stroke="#757575" points="276.3331,-16.0855 266.2069,-19.2016 276.0662,-23.0804 276.3331,-16.0855"/>
</g>
<!-- currency&#45;display -->
<g id="node13" class="node">
<title>currency&#45;display</title>
<ellipse fill="#efefef" stroke="#000000" cx="1513.1637" cy="-90" rx="81.138" ry="18"/>
<text text-anchor="middle" x="1513.1637" y="-85.8" font-family="Arial" font-size="14.00" fill="#000000">currency&#45;display</text>
</g>
<!-- pipes -->
<g id="node14" class="node">
<title>pipes</title>
<ellipse fill="#efefef" stroke="#000000" cx="1458.1637" cy="-18" rx="34.2259" ry="18"/>
<text text-anchor="middle" x="1458.1637" y="-13.8" font-family="Arial" font-size="14.00" fill="#000000">pipes</text>
</g>
<!-- currency&#45;display&#45;&gt;pipes -->
<g id="edge11" class="edge">
<title>currency&#45;display&#45;&gt;pipes</title>
<path fill="none" stroke="#757575" d="M1499.5682,-72.2022C1492.8761,-63.4416 1484.6931,-52.7293 1477.3742,-43.1482"/>
<polygon fill="#757575" stroke="#757575" points="1480.0759,-40.9193 1471.2241,-35.0972 1474.5132,-45.1686 1480.0759,-40.9193"/>
</g>
<!-- data&#45;formatter -->
<g id="node15" class="node">
<title>data&#45;formatter</title>
<ellipse fill="#efefef" stroke="#000000" cx="1304.1637" cy="-90" rx="71.8376" ry="18"/>
<text text-anchor="middle" x="1304.1637" y="-85.8" font-family="Arial" font-size="14.00" fill="#000000">data&#45;formatter</text>
</g>
<!-- directives -->
<g id="node16" class="node">
<title>directives</title>
<ellipse fill="#efefef" stroke="#000000" cx="947.1637" cy="-306" rx="51.6227" ry="18"/>
<text text-anchor="middle" x="947.1637" y="-301.8" font-family="Arial" font-size="14.00" fill="#000000">directives</text>
</g>
<!-- enhanced&#45;title -->
<g id="node17" class="node">
<title>enhanced&#45;title</title>
<ellipse fill="#efefef" stroke="#000000" cx="2006.1637" cy="-18" rx="71.8589" ry="18"/>
<text text-anchor="middle" x="2006.1637" y="-13.8" font-family="Arial" font-size="14.00" fill="#000000">enhanced&#45;title</text>
</g>
<!-- icon -->
<g id="node18" class="node">
<title>icon</title>
<ellipse fill="#efefef" stroke="#000000" cx="2158.1637" cy="-18" rx="28.991" ry="18"/>
<text text-anchor="middle" x="2158.1637" y="-13.8" font-family="Arial" font-size="14.00" fill="#000000">icon</text>
</g>
<!-- layout&#45;shell -->
<g id="node19" class="node">
<title>layout&#45;shell</title>
<ellipse fill="#efefef" stroke="#000000" cx="1824.1637" cy="-162" rx="59.7244" ry="18"/>
<text text-anchor="middle" x="1824.1637" y="-157.8" font-family="Arial" font-size="14.00" fill="#000000">layout&#45;shell</text>
</g>
<!-- layout&#45;shell&#45;&gt;gdk -->
<g id="edge13" class="edge">
<title>layout&#45;shell&#45;&gt;gdk</title>
<path fill="none" stroke="#757575" d="M1764.5585,-159.8943C1535.8334,-151.7254 724.4261,-121.8969 671.1637,-108 669.186,-107.484 667.1903,-106.8509 665.2065,-106.1342"/>
<polygon fill="#757575" stroke="#757575" points="666.0968,-102.7092 655.5251,-102.0095 663.353,-109.1491 666.0968,-102.7092"/>
</g>
<!-- layout&#45;shell&#45;&gt;card&#45;container -->
<g id="edge14" class="edge">
<title>layout&#45;shell&#45;&gt;card&#45;container</title>
<path fill="none" stroke="#757575" d="M1800.7384,-145.3008C1787.2935,-135.7163 1770.2133,-123.5403 1755.5044,-113.0547"/>
<polygon fill="#757575" stroke="#757575" points="1757.3378,-110.0635 1747.1634,-107.1086 1753.2745,-115.7634 1757.3378,-110.0635"/>
</g>
<!-- layout&#45;shell&#45;&gt;section&#45;title -->
<g id="edge20" class="edge">
<title>layout&#45;shell&#45;&gt;section&#45;title</title>
<path fill="none" stroke="#757575" d="M1771.1311,-153.5331C1722.8683,-144.617 1656.8321,-128.9598 1641.1637,-108 1628.0589,-90.4695 1630.7659,-65.2303 1635.9191,-45.9382"/>
<polygon fill="#757575" stroke="#757575" points="1639.3219,-46.7767 1638.857,-36.192 1632.6197,-44.7563 1639.3219,-46.7767"/>
</g>
<!-- layout&#45;shell&#45;&gt;currency&#45;display -->
<g id="edge15" class="edge">
<title>layout&#45;shell&#45;&gt;currency&#45;display</title>
<path fill="none" stroke="#757575" d="M1776.591,-150.9864C1723.9121,-138.7906 1638.6246,-119.0456 1579.4238,-105.34"/>
<polygon fill="#757575" stroke="#757575" points="1579.9544,-101.8703 1569.4226,-103.0246 1578.3755,-108.6899 1579.9544,-101.8703"/>
</g>
<!-- layout&#45;shell&#45;&gt;enhanced&#45;title -->
<g id="edge16" class="edge">
<title>layout&#45;shell&#45;&gt;enhanced&#45;title</title>
<path fill="none" stroke="#757575" d="M1874.2735,-152.1121C1918.2801,-142.378 1977.6406,-126.337 1993.1637,-108 2007.4506,-91.1234 2009.9957,-65.7733 2009.3706,-46.2735"/>
<polygon fill="#757575" stroke="#757575" points="2012.8545,-45.9013 2008.7517,-36.1332 2005.8675,-46.3279 2012.8545,-45.9013"/>
</g>
<!-- layout&#45;shell&#45;&gt;icon -->
<g id="edge17" class="edge">
<title>layout&#45;shell&#45;&gt;icon</title>
<path fill="none" stroke="#757575" d="M1881.827,-157.0392C1975.1441,-148.4222 2150.7374,-129.5349 2169.1637,-108 2183.9595,-90.7083 2178.5354,-64.2432 2171.0105,-44.4808"/>
<polygon fill="#757575" stroke="#757575" points="2174.1839,-42.9969 2167.1041,-35.1149 2167.7233,-45.6916 2174.1839,-42.9969"/>
</g>
<!-- page&#45;header -->
<g id="node20" class="node">
<title>page&#45;header</title>
<ellipse fill="#efefef" stroke="#000000" cx="1918.1637" cy="-90" rx="65.5623" ry="18"/>
<text text-anchor="middle" x="1918.1637" y="-85.8" font-family="Arial" font-size="14.00" fill="#000000">page&#45;header</text>
</g>
<!-- layout&#45;shell&#45;&gt;page&#45;header -->
<g id="edge18" class="edge">
<title>layout&#45;shell&#45;&gt;page&#45;header</title>
<path fill="none" stroke="#757575" d="M1846.4404,-144.937C1858.7594,-135.5012 1874.2463,-123.6389 1887.6736,-113.3541"/>
<polygon fill="#757575" stroke="#757575" points="1889.9107,-116.0494 1895.7212,-107.19 1885.6541,-110.4923 1889.9107,-116.0494"/>
</g>
<!-- scroll&#45;container -->
<g id="node21" class="node">
<title>scroll&#45;container</title>
<ellipse fill="#efefef" stroke="#000000" cx="1829.1637" cy="-18" rx="76.4768" ry="18"/>
<text text-anchor="middle" x="1829.1637" y="-13.8" font-family="Arial" font-size="14.00" fill="#000000">scroll&#45;container</text>
</g>
<!-- layout&#45;shell&#45;&gt;scroll&#45;container -->
<g id="edge19" class="edge">
<title>layout&#45;shell&#45;&gt;scroll&#45;container</title>
<path fill="none" stroke="#757575" d="M1824.797,-143.7623C1825.6498,-119.201 1827.176,-75.2474 1828.1792,-46.3541"/>
<polygon fill="#757575" stroke="#757575" points="1831.6864,-46.2051 1828.5356,-36.0896 1824.6906,-45.9621 1831.6864,-46.2051"/>
</g>
<!-- sort&#45;header -->
<g id="node22" class="node">
<title>sort&#45;header</title>
<ellipse fill="#efefef" stroke="#000000" cx="2100.1637" cy="-90" rx="60.3058" ry="18"/>
<text text-anchor="middle" x="2100.1637" y="-85.8" font-family="Arial" font-size="14.00" fill="#000000">sort&#45;header</text>
</g>
<!-- layout&#45;shell&#45;&gt;sort&#45;header -->
<g id="edge21" class="edge">
<title>layout&#45;shell&#45;&gt;sort&#45;header</title>
<path fill="none" stroke="#757575" d="M1869.4305,-150.1913C1917.3169,-137.6992 1992.9303,-117.9739 2044.4461,-104.535"/>
<polygon fill="#757575" stroke="#757575" points="2045.6199,-107.846 2054.4126,-101.9351 2043.8529,-101.0727 2045.6199,-107.846"/>
</g>
<!-- tooltip -->
<g id="node23" class="node">
<title>tooltip</title>
<ellipse fill="#efefef" stroke="#000000" cx="2253.1637" cy="-90" rx="36.5901" ry="18"/>
<text text-anchor="middle" x="2253.1637" y="-85.8" font-family="Arial" font-size="14.00" fill="#000000">tooltip</text>
</g>
<!-- layout&#45;shell&#45;&gt;tooltip -->
<g id="edge22" class="edge">
<title>layout&#45;shell&#45;&gt;tooltip</title>
<path fill="none" stroke="#757575" d="M1882.1536,-157.2991C1956.9295,-150.424 2090.6222,-135.3664 2202.1637,-108 2206.2673,-106.9932 2210.504,-105.7842 2214.7004,-104.4751"/>
<polygon fill="#757575" stroke="#757575" points="2215.942,-107.751 2224.3367,-101.2872 2213.7435,-101.1052 2215.942,-107.751"/>
</g>
<!-- page&#45;header&#45;&gt;enhanced&#45;title -->
<g id="edge23" class="edge">
<title>page&#45;header&#45;&gt;enhanced&#45;title</title>
<path fill="none" stroke="#757575" d="M1939.4661,-72.5708C1950.8158,-63.2847 1964.9401,-51.7285 1977.2652,-41.6442"/>
<polygon fill="#757575" stroke="#757575" points="1979.5343,-44.31 1985.0576,-35.2687 1975.1016,-38.8922 1979.5343,-44.31"/>
</g>
<!-- page&#45;header&#45;&gt;scroll&#45;container -->
<g id="edge24" class="edge">
<title>page&#45;header&#45;&gt;scroll&#45;container</title>
<path fill="none" stroke="#757575" d="M1897.072,-72.937C1885.6026,-63.6584 1871.233,-52.0336 1858.6692,-41.8696"/>
<polygon fill="#757575" stroke="#757575" points="1860.6982,-39.0091 1850.7223,-35.4407 1856.2955,-44.4513 1860.6982,-39.0091"/>
</g>
<!-- sort&#45;header&#45;&gt;icon -->
<g id="edge33" class="edge">
<title>sort&#45;header&#45;&gt;icon</title>
<path fill="none" stroke="#757575" d="M2114.5008,-72.2022C2121.839,-63.0928 2130.8769,-51.8733 2138.8227,-42.0096"/>
<polygon fill="#757575" stroke="#757575" points="2141.6313,-44.1022 2145.179,-34.119 2136.18,-39.7109 2141.6313,-44.1022"/>
</g>
<!-- popover -->
<g id="node24" class="node">
<title>popover</title>
<ellipse fill="#efefef" stroke="#000000" cx="544.1637" cy="-90" rx="45.8426" ry="18"/>
<text text-anchor="middle" x="544.1637" y="-85.8" font-family="Arial" font-size="14.00" fill="#000000">popover</text>
</g>
<!-- popup&#45;confirm -->
<g id="node25" class="node">
<title>popup&#45;confirm</title>
<ellipse fill="#efefef" stroke="#000000" cx="407.1637" cy="-90" rx="72.9857" ry="18"/>
<text text-anchor="middle" x="407.1637" y="-85.8" font-family="Arial" font-size="14.00" fill="#000000">popup&#45;confirm</text>
</g>
<!-- popups&#45;modals&#45;shell -->
<g id="node26" class="node">
<title>popups&#45;modals&#45;shell</title>
<ellipse fill="#efefef" stroke="#000000" cx="544.1637" cy="-162" rx="100.2129" ry="18"/>
<text text-anchor="middle" x="544.1637" y="-157.8" font-family="Arial" font-size="14.00" fill="#000000">popups&#45;modals&#45;shell</text>
</g>
<!-- popups&#45;modals&#45;shell&#45;&gt;gdk -->
<g id="edge25" class="edge">
<title>popups&#45;modals&#45;shell&#45;&gt;gdk</title>
<path fill="none" stroke="#757575" d="M566.6581,-144.2022C579.6468,-133.9255 596.0296,-120.9632 609.5172,-110.2917"/>
<polygon fill="#757575" stroke="#757575" points="611.8143,-112.9374 617.4848,-103.9877 607.4709,-107.4478 611.8143,-112.9374"/>
</g>
<!-- popups&#45;modals&#45;shell&#45;&gt;countdown&#45;button -->
<g id="edge26" class="edge">
<title>popups&#45;modals&#45;shell&#45;&gt;countdown&#45;button</title>
<path fill="none" stroke="#757575" d="M482.1093,-147.861C428.8929,-135.7358 352.3057,-118.2855 297.1719,-105.7234"/>
<polygon fill="#757575" stroke="#757575" points="297.665,-102.2461 287.1373,-103.437 296.1099,-109.0712 297.665,-102.2461"/>
</g>
<!-- popups&#45;modals&#45;shell&#45;&gt;popover -->
<g id="edge27" class="edge">
<title>popups&#45;modals&#45;shell&#45;&gt;popover</title>
<path fill="none" stroke="#757575" d="M544.1637,-143.8314C544.1637,-136.131 544.1637,-126.9743 544.1637,-118.4166"/>
<polygon fill="#757575" stroke="#757575" points="547.6638,-118.4132 544.1637,-108.4133 540.6638,-118.4133 547.6638,-118.4132"/>
</g>
<!-- popups&#45;modals&#45;shell&#45;&gt;popup&#45;confirm -->
<g id="edge28" class="edge">
<title>popups&#45;modals&#45;shell&#45;&gt;popup&#45;confirm</title>
<path fill="none" stroke="#757575" d="M511.6967,-144.937C492.4838,-134.8397 467.9839,-121.9639 447.5328,-111.2158"/>
<polygon fill="#757575" stroke="#757575" points="448.935,-107.9989 438.4548,-106.4449 445.6785,-114.1953 448.935,-107.9989"/>
</g>
<!-- presentational&#45;shell -->
<g id="node27" class="node">
<title>presentational&#45;shell</title>
<ellipse fill="#efefef" stroke="#000000" cx="1139.1637" cy="-162" rx="94.9903" ry="18"/>
<text text-anchor="middle" x="1139.1637" y="-157.8" font-family="Arial" font-size="14.00" fill="#000000">presentational&#45;shell</text>
</g>
<!-- presentational&#45;shell&#45;&gt;arrow&#45;variation -->
<g id="edge30" class="edge">
<title>presentational&#45;shell&#45;&gt;arrow&#45;variation</title>
<path fill="none" stroke="#757575" d="M1139.1637,-143.8314C1139.1637,-136.131 1139.1637,-126.9743 1139.1637,-118.4166"/>
<polygon fill="#757575" stroke="#757575" points="1142.6638,-118.4132 1139.1637,-108.4133 1135.6638,-118.4133 1142.6638,-118.4132"/>
</g>
<!-- presentational&#45;shell&#45;&gt;gdk -->
<g id="edge29" class="edge">
<title>presentational&#45;shell&#45;&gt;gdk</title>
<path fill="none" stroke="#757575" d="M1050.829,-155.4903C935.482,-146.3549 740.1479,-128.5303 671.1637,-108 669.255,-107.4319 667.325,-106.7673 665.4023,-106.0345"/>
<polygon fill="#757575" stroke="#757575" points="666.5459,-102.7153 655.9798,-101.9359 663.7537,-109.1343 666.5459,-102.7153"/>
</g>
<!-- presentational&#45;shell&#45;&gt;pipes -->
<g id="edge32" class="edge">
<title>presentational&#45;shell&#45;&gt;pipes</title>
<path fill="none" stroke="#757575" d="M1214.5792,-151.0444C1275.994,-141.1082 1356.9734,-125.3886 1385.1637,-108 1398.8128,-99.5809 1423.7721,-66.745 1440.6617,-43.168"/>
<polygon fill="#757575" stroke="#757575" points="1443.5511,-45.1441 1446.4832,-34.963 1437.8421,-41.0935 1443.5511,-45.1441"/>
</g>
<!-- presentational&#45;shell&#45;&gt;data&#45;formatter -->
<g id="edge31" class="edge">
<title>presentational&#45;shell&#45;&gt;data&#45;formatter</title>
<path fill="none" stroke="#757575" d="M1177.0181,-145.4817C1201.4225,-134.8326 1233.2855,-120.9287 1259.009,-109.7039"/>
<polygon fill="#757575" stroke="#757575" points="1260.4176,-112.908 1268.1831,-105.7006 1257.6179,-106.4922 1260.4176,-112.908"/>
</g>
<!-- widgets&#45;system -->
<g id="node28" class="node">
<title>widgets&#45;system</title>
<polygon fill="none" stroke="#000000" points="863.6106,-252 750.7168,-252 750.7168,-216 863.6106,-216 863.6106,-252"/>
<text text-anchor="middle" x="807.1637" y="-229.8" font-family="Arial" font-size="14.00" fill="#000000">widgets&#45;system</text>
</g>
<!-- widgets&#45;system&#45;&gt;buttons&#45;indicators&#45;shell -->
<g id="edge34" class="edge">
<title>widgets&#45;system&#45;&gt;buttons&#45;indicators&#45;shell</title>
<path fill="none" stroke="#757575" stroke-dasharray="1,5" d="M750.8569,-226.9981C652.4556,-214.7617 448.0816,-189.3473 326.0805,-174.1762"/>
<polygon fill="#757575" stroke="#757575" points="326.3463,-170.6824 315.9908,-172.9215 325.4824,-177.6288 326.3463,-170.6824"/>
</g>
<!-- widgets&#45;system&#45;&gt;controls&#45;shell -->
<g id="edge35" class="edge">
<title>widgets&#45;system&#45;&gt;controls&#45;shell</title>
<path fill="none" stroke="#757575" stroke-dasharray="1,5" d="M807.1637,-215.8314C807.1637,-208.131 807.1637,-198.9743 807.1637,-190.4166"/>
<polygon fill="#757575" stroke="#757575" points="810.6638,-190.4132 807.1637,-180.4133 803.6638,-190.4133 810.6638,-190.4132"/>
</g>
<!-- widgets&#45;system&#45;&gt;layout&#45;shell -->
<g id="edge36" class="edge">
<title>widgets&#45;system&#45;&gt;layout&#45;shell</title>
<path fill="none" stroke="#757575" stroke-dasharray="1,5" d="M863.6555,-230.0006C1037.8298,-217.6697 1566.1929,-180.2634 1755.6452,-166.8509"/>
<polygon fill="#757575" stroke="#757575" points="1756.0259,-170.3328 1765.7538,-166.1352 1755.5315,-163.3502 1756.0259,-170.3328"/>
</g>
<!-- widgets&#45;system&#45;&gt;popups&#45;modals&#45;shell -->
<g id="edge37" class="edge">
<title>widgets&#45;system&#45;&gt;popups&#45;modals&#45;shell</title>
<path fill="none" stroke="#757575" stroke-dasharray="1,5" d="M750.7436,-218.5542C709.1558,-207.1689 652.5011,-191.6589 609.0407,-179.761"/>
<polygon fill="#757575" stroke="#757575" points="609.7076,-176.3148 599.1383,-177.0501 607.8592,-183.0664 609.7076,-176.3148"/>
</g>
<!-- widgets&#45;system&#45;&gt;presentational&#45;shell -->
<g id="edge38" class="edge">
<title>widgets&#45;system&#45;&gt;presentational&#45;shell</title>
<path fill="none" stroke="#757575" stroke-dasharray="1,5" d="M863.483,-221.7862C919.4741,-209.6435 1005.5986,-190.9659 1066.6675,-177.7221"/>
<polygon fill="#757575" stroke="#757575" points="1067.5931,-181.1028 1076.6242,-175.5628 1066.1095,-174.2618 1067.5931,-181.1028"/>
</g>
<!-- widgets&#45;system&#45;e2e -->
<g id="node29" class="node">
<title>widgets&#45;system&#45;e2e</title>
<polygon fill="none" stroke="#000000" points="877.6189,-324 736.7086,-324 736.7086,-288 877.6189,-288 877.6189,-324"/>
<text text-anchor="middle" x="807.1637" y="-301.8" font-family="Arial" font-size="14.00" fill="#000000">widgets&#45;system&#45;e2e</text>
</g>
<!-- widgets&#45;system&#45;e2e&#45;&gt;widgets&#45;system -->
<g id="edge39" class="edge">
<title>widgets&#45;system&#45;e2e&#45;&gt;widgets&#45;system</title>
<path fill="none" stroke="#000000" stroke-width="2" d="M807.1637,-287.8314C807.1637,-280.131 807.1637,-270.9743 807.1637,-262.4166"/>
<polygon fill="#000000" stroke="#000000" stroke-width="2" points="810.6638,-262.4132 807.1637,-252.4133 803.6638,-262.4133 810.6638,-262.4132"/>
</g>
</g>
</svg>
