<?xml version="1.0" encoding="UTF-8" standalone="no"?>
<!DOCTYPE svg PUBLIC "-//W3C//DTD SVG 1.1//EN"
 "http://www.w3.org/Graphics/SVG/1.1/DTD/svg11.dtd">
<!-- Generated by graphviz version 2.40.1 (20161225.0304)
 -->
<!-- Title: G Pages: 1 -->
<svg width="2586pt" height="340pt"
 viewBox="0.00 0.00 2585.82 339.98" xmlns="http://www.w3.org/2000/svg" xmlns:xlink="http://www.w3.org/1999/xlink">
<g id="graph0" class="graph" transform="scale(1 1) rotate(0) translate(7.992 331.992)">
<title>G</title>
<polygon fill="#ffffff" stroke="transparent" points="-7.992,7.992 -7.992,-331.992 2577.8309,-331.992 2577.8309,7.992 -7.992,7.992"/>
<!-- arrow&#45;variation -->
<g id="node1" class="node">
<title>arrow&#45;variation</title>
<ellipse fill="#efefef" stroke="#000000" cx="1015.8676" cy="-90" rx="74.7496" ry="18"/>
<text text-anchor="middle" x="1015.8676" y="-85.8" font-family="Arial" font-size="14.00" fill="#000000">arrow&#45;variation</text>
</g>
<!-- button -->
<g id="node2" class="node">
<title>button</title>
<ellipse fill="#efefef" stroke="#000000" cx="103.8676" cy="-18" rx="37.7544" ry="18"/>
<text text-anchor="middle" x="103.8676" y="-13.8" font-family="Arial" font-size="14.00" fill="#000000">button</text>
</g>
<!-- buttons&#45;indicators&#45;shell -->
<g id="node3" class="node">
<title>buttons&#45;indicators&#45;shell</title>
<ellipse fill="#efefef" stroke="#000000" cx="231.8676" cy="-162" rx="110.1008" ry="18"/>
<text text-anchor="middle" x="231.8676" y="-157.8" font-family="Arial" font-size="14.00" fill="#000000">buttons&#45;indicators&#45;shell</text>
</g>
<!-- buttons&#45;indicators&#45;shell&#45;&gt;button -->
<g id="edge2" class="edge">
<title>buttons&#45;indicators&#45;shell&#45;&gt;button</title>
<path fill="none" stroke="#757575" d="M141.0491,-151.6685C86.224,-143.3512 23.7801,-129.4517 6.8676,-108 -3.0384,-95.4353 -1.2404,-85.7935 6.8676,-72 18.6721,-51.9181 40.9504,-38.762 61.1821,-30.4682"/>
<polygon fill="#757575" stroke="#757575" points="62.4909,-33.7151 70.5906,-26.8854 59.9997,-27.1734 62.4909,-33.7151"/>
</g>
<!-- gdk -->
<g id="node4" class="node">
<title>gdk</title>
<ellipse fill="#efefef" stroke="#000000" cx="510.8676" cy="-90" rx="27" ry="18"/>
<text text-anchor="middle" x="510.8676" y="-85.8" font-family="Arial" font-size="14.00" fill="#000000">gdk</text>
</g>
<!-- buttons&#45;indicators&#45;shell&#45;&gt;gdk -->
<g id="edge1" class="edge">
<title>buttons&#45;indicators&#45;shell&#45;&gt;gdk</title>
<path fill="none" stroke="#757575" d="M311.2134,-149.4465C359.3741,-140.5858 421.6184,-126.9056 474.8676,-108 476.7443,-107.3337 478.6494,-106.5926 480.5532,-105.8018"/>
<polygon fill="#757575" stroke="#757575" points="482.266,-108.868 489.9249,-101.5473 479.3724,-102.4941 482.266,-108.868"/>
</g>
<!-- countdown&#45;button -->
<g id="node5" class="node">
<title>countdown&#45;button</title>
<ellipse fill="#efefef" stroke="#000000" cx="103.8676" cy="-90" rx="87.5707" ry="18"/>
<text text-anchor="middle" x="103.8676" y="-85.8" font-family="Arial" font-size="14.00" fill="#000000">countdown&#45;button</text>
</g>
<!-- buttons&#45;indicators&#45;shell&#45;&gt;countdown&#45;button -->
<g id="edge3" class="edge">
<title>buttons&#45;indicators&#45;shell&#45;&gt;countdown&#45;button</title>
<path fill="none" stroke="#757575" d="M200.8824,-144.5708C183.4605,-134.771 161.5438,-122.4429 142.9516,-111.9847"/>
<polygon fill="#757575" stroke="#757575" points="144.5575,-108.8724 134.1258,-107.0202 141.1257,-114.9734 144.5575,-108.8724"/>
</g>
<!-- loading -->
<g id="node6" class="node">
<title>loading</title>
<ellipse fill="#efefef" stroke="#000000" cx="1390.8676" cy="-90" rx="42.3281" ry="18"/>
<text text-anchor="middle" x="1390.8676" y="-85.8" font-family="Arial" font-size="14.00" fill="#000000">loading</text>
</g>
<!-- buttons&#45;indicators&#45;shell&#45;&gt;loading -->
<g id="edge4" class="edge">
<title>buttons&#45;indicators&#45;shell&#45;&gt;loading</title>
<path fill="none" stroke="#757575" d="M308.8496,-149.0834C322.8001,-147.1057 337.243,-145.295 350.8676,-144 755.1386,-105.5737 859.4218,-144.5404 1263.8676,-108 1289.5628,-105.6785 1318.0117,-101.7717 1341.4592,-98.1899"/>
<polygon fill="#757575" stroke="#757575" points="1342.171,-101.6213 1351.515,-96.6273 1341.0961,-94.7044 1342.171,-101.6213"/>
</g>
<!-- countdown&#45;button&#45;&gt;button -->
<g id="edge10" class="edge">
<title>countdown&#45;button&#45;&gt;button</title>
<path fill="none" stroke="#757575" d="M103.8676,-71.8314C103.8676,-64.131 103.8676,-54.9743 103.8676,-46.4166"/>
<polygon fill="#757575" stroke="#757575" points="107.3677,-46.4132 103.8676,-36.4133 100.3677,-46.4133 107.3677,-46.4132"/>
</g>
<!-- card&#45;container -->
<g id="node7" class="node">
<title>card&#45;container</title>
<ellipse fill="#efefef" stroke="#000000" cx="1181.8676" cy="-90" rx="72.9857" ry="18"/>
<text text-anchor="middle" x="1181.8676" y="-85.8" font-family="Arial" font-size="14.00" fill="#000000">card&#45;container</text>
</g>
<!-- section&#45;title -->
<g id="node8" class="node">
<title>section&#45;title</title>
<ellipse fill="#efefef" stroke="#000000" cx="1231.8676" cy="-18" rx="59.7224" ry="18"/>
<text text-anchor="middle" x="1231.8676" y="-13.8" font-family="Arial" font-size="14.00" fill="#000000">section&#45;title</text>
</g>
<!-- card&#45;container&#45;&gt;section&#45;title -->
<g id="edge5" class="edge">
<title>card&#45;container&#45;&gt;section&#45;title</title>
<path fill="none" stroke="#757575" d="M1194.2272,-72.2022C1200.1167,-63.7214 1207.2763,-53.4115 1213.7637,-44.0696"/>
<polygon fill="#757575" stroke="#757575" points="1216.6478,-46.0527 1219.477,-35.8425 1210.8982,-42.0599 1216.6478,-46.0527"/>
</g>
<!-- controls&#45;shell -->
<g id="node9" class="node">
<title>controls&#45;shell</title>
<ellipse fill="#efefef" stroke="#000000" cx="661.8676" cy="-162" rx="67.8107" ry="18"/>
<text text-anchor="middle" x="661.8676" y="-157.8" font-family="Arial" font-size="14.00" fill="#000000">controls&#45;shell</text>
</g>
<!-- controls&#45;shell&#45;&gt;gdk -->
<g id="edge6" class="edge">
<title>controls&#45;shell&#45;&gt;gdk</title>
<path fill="none" stroke="#757575" d="M628.0491,-146.3866C605.0829,-135.7183 574.0597,-121.1798 546.8676,-108 545.1227,-107.1542 543.333,-106.2803 541.5289,-105.3943"/>
<polygon fill="#757575" stroke="#757575" points="543.0417,-102.2379 532.5269,-100.9377 539.9359,-108.5112 543.0417,-102.2379"/>
</g>
<!-- datepicker -->
<g id="node10" class="node">
<title>datepicker</title>
<ellipse fill="#efefef" stroke="#000000" cx="611.8676" cy="-90" rx="55.6526" ry="18"/>
<text text-anchor="middle" x="611.8676" y="-85.8" font-family="Arial" font-size="14.00" fill="#000000">datepicker</text>
</g>
<!-- controls&#45;shell&#45;&gt;datepicker -->
<g id="edge7" class="edge">
<title>controls&#45;shell&#45;&gt;datepicker</title>
<path fill="none" stroke="#757575" d="M649.5081,-144.2022C643.5743,-135.6576 636.3512,-125.2564 629.8253,-115.859"/>
<polygon fill="#757575" stroke="#757575" points="632.6638,-113.8103 624.085,-107.593 626.9142,-117.8031 632.6638,-113.8103"/>
</g>
<!-- form&#45;text -->
<g id="node11" class="node">
<title>form&#45;text</title>
<ellipse fill="#efefef" stroke="#000000" cx="734.8676" cy="-90" rx="49.2512" ry="18"/>
<text text-anchor="middle" x="734.8676" y="-85.8" font-family="Arial" font-size="14.00" fill="#000000">form&#45;text</text>
</g>
<!-- controls&#45;shell&#45;&gt;form&#45;text -->
<g id="edge8" class="edge">
<title>controls&#45;shell&#45;&gt;form&#45;text</title>
<path fill="none" stroke="#757575" d="M679.5389,-144.5708C688.6849,-135.55 700.0031,-124.387 710.0151,-114.5121"/>
<polygon fill="#757575" stroke="#757575" points="712.6972,-116.7827 717.3591,-107.2687 707.7816,-111.799 712.6972,-116.7827"/>
</g>
<!-- slide&#45;toggle -->
<g id="node12" class="node">
<title>slide&#45;toggle</title>
<ellipse fill="#efefef" stroke="#000000" cx="862.8676" cy="-90" rx="60.3038" ry="18"/>
<text text-anchor="middle" x="862.8676" y="-85.8" font-family="Arial" font-size="14.00" fill="#000000">slide&#45;toggle</text>
</g>
<!-- controls&#45;shell&#45;&gt;slide&#45;toggle -->
<g id="edge9" class="edge">
<title>controls&#45;shell&#45;&gt;slide&#45;toggle</title>
<path fill="none" stroke="#757575" d="M702.543,-147.4297C734.8045,-135.8734 779.9976,-119.6848 814.1818,-107.4397"/>
<polygon fill="#757575" stroke="#757575" points="815.7262,-110.6043 823.9602,-103.937 813.3656,-104.0143 815.7262,-110.6043"/>
</g>
<!-- datepicker&#45;&gt;button -->
<g id="edge12" class="edge">
<title>datepicker&#45;&gt;button</title>
<path fill="none" stroke="#757575" d="M571.1747,-77.7333C563.168,-75.6032 554.7929,-73.5713 546.8676,-72 404.6725,-43.8079 233.6964,-27.9803 151.9628,-21.5028"/>
<polygon fill="#757575" stroke="#757575" points="151.7462,-17.9753 141.5042,-20.6866 151.2015,-24.9541 151.7462,-17.9753"/>
</g>
<!-- currency&#45;display -->
<g id="node13" class="node">
<title>currency&#45;display</title>
<ellipse fill="#efefef" stroke="#000000" cx="1731.8676" cy="-90" rx="81.138" ry="18"/>
<text text-anchor="middle" x="1731.8676" y="-85.8" font-family="Arial" font-size="14.00" fill="#000000">currency&#45;display</text>
</g>
<!-- pipes -->
<g id="node14" class="node">
<title>pipes</title>
<ellipse fill="#efefef" stroke="#000000" cx="1622.8676" cy="-18" rx="34.2259" ry="18"/>
<text text-anchor="middle" x="1622.8676" y="-13.8" font-family="Arial" font-size="14.00" fill="#000000">pipes</text>
</g>
<!-- currency&#45;display&#45;&gt;pipes -->
<g id="edge11" class="edge">
<title>currency&#45;display&#45;&gt;pipes</title>
<path fill="none" stroke="#757575" d="M1705.7594,-72.7542C1689.9234,-62.2937 1669.6503,-48.9023 1653.1173,-37.9814"/>
<polygon fill="#757575" stroke="#757575" points="1654.642,-34.794 1644.369,-32.2027 1650.7839,-40.6348 1654.642,-34.794"/>
</g>
<!-- data&#45;formatter -->
<g id="node15" class="node">
<title>data&#45;formatter</title>
<ellipse fill="#efefef" stroke="#000000" cx="1522.8676" cy="-90" rx="71.8376" ry="18"/>
<text text-anchor="middle" x="1522.8676" y="-85.8" font-family="Arial" font-size="14.00" fill="#000000">data&#45;formatter</text>
</g>
<!-- directives -->
<g id="node16" class="node">
<title>directives</title>
<ellipse fill="#efefef" stroke="#000000" cx="801.8676" cy="-306" rx="51.6227" ry="18"/>
<text text-anchor="middle" x="801.8676" y="-301.8" font-family="Arial" font-size="14.00" fill="#000000">directives</text>
</g>
<!-- enhanced&#45;header -->
<g id="node17" class="node">
<title>enhanced&#45;header</title>
<ellipse fill="#efefef" stroke="#000000" cx="2104.8676" cy="-90" rx="86.9288" ry="18"/>
<text text-anchor="middle" x="2104.8676" y="-85.8" font-family="Arial" font-size="14.00" fill="#000000">enhanced&#45;header</text>
</g>
<!-- enhanced&#45;title -->
<g id="node18" class="node">
<title>enhanced&#45;title</title>
<ellipse fill="#efefef" stroke="#000000" cx="1934.8676" cy="-18" rx="71.8589" ry="18"/>
<text text-anchor="middle" x="1934.8676" y="-13.8" font-family="Arial" font-size="14.00" fill="#000000">enhanced&#45;title</text>
</g>
<!-- enhanced&#45;header&#45;&gt;enhanced&#45;title -->
<g id="edge13" class="edge">
<title>enhanced&#45;header&#45;&gt;enhanced&#45;title</title>
<path fill="none" stroke="#757575" d="M2066.292,-73.6621C2040.9899,-62.9459 2007.7711,-48.8768 1981.0616,-37.5645"/>
<polygon fill="#757575" stroke="#757575" points="1982.1157,-34.21 1971.5425,-33.5329 1979.3857,-40.6558 1982.1157,-34.21"/>
</g>
<!-- tooltip -->
<g id="node19" class="node">
<title>tooltip</title>
<ellipse fill="#efefef" stroke="#000000" cx="2250.8676" cy="-18" rx="36.5901" ry="18"/>
<text text-anchor="middle" x="2250.8676" y="-13.8" font-family="Arial" font-size="14.00" fill="#000000">tooltip</text>
</g>
<!-- enhanced&#45;header&#45;&gt;tooltip -->
<g id="edge14" class="edge">
<title>enhanced&#45;header&#45;&gt;tooltip</title>
<path fill="none" stroke="#757575" d="M2138.7299,-73.3008C2161.8296,-61.9092 2192.3523,-46.8569 2215.7206,-35.3328"/>
<polygon fill="#757575" stroke="#757575" points="2217.5133,-38.3512 2224.934,-30.7892 2214.4172,-32.0731 2217.5133,-38.3512"/>
</g>
<!-- icon -->
<g id="node20" class="node">
<title>icon</title>
<ellipse fill="#efefef" stroke="#000000" cx="2358.8676" cy="-18" rx="28.991" ry="18"/>
<text text-anchor="middle" x="2358.8676" y="-13.8" font-family="Arial" font-size="14.00" fill="#000000">icon</text>
</g>
<!-- layout&#45;shell -->
<g id="node21" class="node">
<title>layout&#45;shell</title>
<ellipse fill="#efefef" stroke="#000000" cx="1934.8676" cy="-162" rx="59.7244" ry="18"/>
<text text-anchor="middle" x="1934.8676" y="-157.8" font-family="Arial" font-size="14.00" fill="#000000">layout&#45;shell</text>
</g>
<!-- layout&#45;shell&#45;&gt;gdk -->
<g id="edge15" class="edge">
<title>layout&#45;shell&#45;&gt;gdk</title>
<path fill="none" stroke="#757575" d="M1875.7827,-158.9572C1801.5676,-155.1863 1670.3108,-148.6861 1557.8676,-144 1333.2535,-134.6391 764.709,-163.536 546.8676,-108 544.8871,-107.4951 542.8891,-106.8706 540.9036,-106.1604"/>
<polygon fill="#757575" stroke="#757575" points="541.7907,-102.7349 531.2179,-102.0524 539.0575,-109.1792 541.7907,-102.7349"/>
</g>
<!-- layout&#45;shell&#45;&gt;card&#45;container -->
<g id="edge16" class="edge">
<title>layout&#45;shell&#45;&gt;card&#45;container</title>
<path fill="none" stroke="#757575" d="M1875.345,-159.6346C1758.552,-154.4505 1491.3493,-139.9111 1268.8676,-108 1261.2456,-106.9068 1253.2879,-105.5554 1245.4153,-104.0882"/>
<polygon fill="#757575" stroke="#757575" points="1246.0025,-100.637 1235.5204,-102.1784 1244.6759,-107.5101 1246.0025,-100.637"/>
</g>
<!-- layout&#45;shell&#45;&gt;section&#45;title -->
<g id="edge23" class="edge">
<title>layout&#45;shell&#45;&gt;section&#45;title</title>
<path fill="none" stroke="#757575" d="M1875.952,-158.6504C1735.4188,-150.3765 1388.5915,-128.1778 1339.8676,-108 1305.324,-93.6947 1273.45,-64.2834 1253.4196,-42.967"/>
<polygon fill="#757575" stroke="#757575" points="1255.9312,-40.5273 1246.5928,-35.5228 1250.7721,-45.2585 1255.9312,-40.5273"/>
</g>
<!-- layout&#45;shell&#45;&gt;currency&#45;display -->
<g id="edge17" class="edge">
<title>layout&#45;shell&#45;&gt;currency&#45;display</title>
<path fill="none" stroke="#757575" d="M1895.7272,-148.1177C1864.1334,-136.912 1819.3788,-121.0384 1784.6234,-108.7114"/>
<polygon fill="#757575" stroke="#757575" points="1785.6998,-105.3796 1775.105,-105.3354 1783.3598,-111.9769 1785.6998,-105.3796"/>
</g>
<!-- layout&#45;shell&#45;&gt;enhanced&#45;header -->
<g id="edge18" class="edge">
<title>layout&#45;shell&#45;&gt;enhanced&#45;header</title>
<path fill="none" stroke="#757575" d="M1969.6799,-147.256C1994.8794,-136.5833 2029.2477,-122.0273 2057.0247,-110.2629"/>
<polygon fill="#757575" stroke="#757575" points="2058.7059,-113.3519 2066.5491,-106.229 2055.9759,-106.9062 2058.7059,-113.3519"/>
</g>
<!-- layout&#45;shell&#45;&gt;enhanced&#45;title -->
<g id="edge19" class="edge">
<title>layout&#45;shell&#45;&gt;enhanced&#45;title</title>
<path fill="none" stroke="#757575" d="M1901.2886,-146.981C1885.6735,-138.0726 1868.6454,-125.1363 1859.8676,-108 1852.5732,-93.7595 1852.5732,-86.2405 1859.8676,-72 1866.7618,-58.5409 1878.7455,-47.6726 1891.1367,-39.3119"/>
<polygon fill="#757575" stroke="#757575" points="1893.1132,-42.2037 1899.7227,-33.9233 1889.3921,-36.2746 1893.1132,-42.2037"/>
</g>
<!-- layout&#45;shell&#45;&gt;tooltip -->
<g id="edge25" class="edge">
<title>layout&#45;shell&#45;&gt;tooltip</title>
<path fill="none" stroke="#757575" d="M1993.1637,-157.5973C2065.8779,-150.9898 2184.6957,-136.165 2217.8676,-108 2236.0169,-92.5902 2244.187,-66.2965 2247.8635,-46.0962"/>
<polygon fill="#757575" stroke="#757575" points="2251.3276,-46.597 2249.4055,-36.178 2244.4107,-45.5216 2251.3276,-46.597"/>
</g>
<!-- layout&#45;shell&#45;&gt;icon -->
<g id="edge20" class="edge">
<title>layout&#45;shell&#45;&gt;icon</title>
<path fill="none" stroke="#757575" d="M1990.9181,-155.462C2067.0389,-146.0237 2198.686,-127.5559 2242.8676,-108 2279.4034,-91.8283 2314.6875,-61.7181 2336.5548,-40.8016"/>
<polygon fill="#757575" stroke="#757575" points="2339.269,-43.0434 2343.9817,-33.5544 2334.3802,-38.0335 2339.269,-43.0434"/>
</g>
<!-- page&#45;header -->
<g id="node22" class="node">
<title>page&#45;header</title>
<ellipse fill="#efefef" stroke="#000000" cx="1934.8676" cy="-90" rx="65.5623" ry="18"/>
<text text-anchor="middle" x="1934.8676" y="-85.8" font-family="Arial" font-size="14.00" fill="#000000">page&#45;header</text>
</g>
<!-- layout&#45;shell&#45;&gt;page&#45;header -->
<g id="edge21" class="edge">
<title>layout&#45;shell&#45;&gt;page&#45;header</title>
<path fill="none" stroke="#757575" d="M1934.8676,-143.8314C1934.8676,-136.131 1934.8676,-126.9743 1934.8676,-118.4166"/>
<polygon fill="#757575" stroke="#757575" points="1938.3677,-118.4132 1934.8676,-108.4133 1931.3677,-118.4133 1938.3677,-118.4132"/>
</g>
<!-- scroll&#45;container -->
<g id="node23" class="node">
<title>scroll&#45;container</title>
<ellipse fill="#efefef" stroke="#000000" cx="2113.8676" cy="-18" rx="76.4768" ry="18"/>
<text text-anchor="middle" x="2113.8676" y="-13.8" font-family="Arial" font-size="14.00" fill="#000000">scroll&#45;container</text>
</g>
<!-- layout&#45;shell&#45;&gt;scroll&#45;container -->
<g id="edge22" class="edge">
<title>layout&#45;shell&#45;&gt;scroll&#45;container</title>
<path fill="none" stroke="#757575" d="M1993.7066,-158.5083C2063.9599,-152.9677 2175.2203,-139.3771 2200.8676,-108 2210.9935,-95.6119 2208.6456,-85.9822 2200.8676,-72 2192.7807,-57.4624 2178.981,-46.3375 2164.7257,-38.0729"/>
<polygon fill="#757575" stroke="#757575" points="2166.3027,-34.9469 2155.8379,-33.2916 2162.9864,-41.1115 2166.3027,-34.9469"/>
</g>
<!-- sort&#45;header -->
<g id="node24" class="node">
<title>sort&#45;header</title>
<ellipse fill="#efefef" stroke="#000000" cx="2383.8676" cy="-90" rx="60.3058" ry="18"/>
<text text-anchor="middle" x="2383.8676" y="-85.8" font-family="Arial" font-size="14.00" fill="#000000">sort&#45;header</text>
</g>
<!-- layout&#45;shell&#45;&gt;sort&#45;header -->
<g id="edge24" class="edge">
<title>layout&#45;shell&#45;&gt;sort&#45;header</title>
<path fill="none" stroke="#757575" d="M1991.0564,-155.6093C2064.6383,-146.8522 2197.4951,-129.7062 2309.8676,-108 2315.9163,-106.8316 2322.2146,-105.4922 2328.4712,-104.0829"/>
<polygon fill="#757575" stroke="#757575" points="2329.2736,-107.4898 2338.2269,-101.825 2327.6952,-100.67 2329.2736,-107.4898"/>
</g>
<!-- letterhead -->
<g id="node25" class="node">
<title>letterhead</title>
<ellipse fill="#efefef" stroke="#000000" cx="2515.8676" cy="-90" rx="53.9426" ry="18"/>
<text text-anchor="middle" x="2515.8676" y="-85.8" font-family="Arial" font-size="14.00" fill="#000000">letterhead</text>
</g>
<!-- layout&#45;shell&#45;&gt;letterhead -->
<g id="edge26" class="edge">
<title>layout&#45;shell&#45;&gt;letterhead</title>
<path fill="none" stroke="#757575" d="M1994.0102,-159.1957C2090.7224,-153.8605 2288.4172,-139.8123 2452.8676,-108 2457.3227,-107.1382 2461.919,-106.1079 2466.5044,-104.9826"/>
<polygon fill="#757575" stroke="#757575" points="2467.6669,-108.2969 2476.4662,-102.3957 2465.9075,-101.5216 2467.6669,-108.2969"/>
</g>
<!-- page&#45;header&#45;&gt;enhanced&#45;title -->
<g id="edge29" class="edge">
<title>page&#45;header&#45;&gt;enhanced&#45;title</title>
<path fill="none" stroke="#757575" d="M1934.8676,-71.8314C1934.8676,-64.131 1934.8676,-54.9743 1934.8676,-46.4166"/>
<polygon fill="#757575" stroke="#757575" points="1938.3677,-46.4132 1934.8676,-36.4133 1931.3677,-46.4133 1938.3677,-46.4132"/>
</g>
<!-- page&#45;header&#45;&gt;scroll&#45;container -->
<g id="edge30" class="edge">
<title>page&#45;header&#45;&gt;scroll&#45;container</title>
<path fill="none" stroke="#757575" d="M1971.9565,-75.0816C1999.0053,-64.2016 2035.9151,-49.3552 2065.3123,-37.5306"/>
<polygon fill="#757575" stroke="#757575" points="2066.9972,-40.6255 2074.9687,-33.6465 2064.3849,-34.1312 2066.9972,-40.6255"/>
</g>
<!-- sort&#45;header&#45;&gt;icon -->
<g id="edge39" class="edge">
<title>sort&#45;header&#45;&gt;icon</title>
<path fill="none" stroke="#757575" d="M2377.5591,-71.8314C2374.7845,-63.8406 2371.4655,-54.2819 2368.3994,-45.4514"/>
<polygon fill="#757575" stroke="#757575" points="2371.6741,-44.2121 2365.0876,-35.9134 2365.0614,-46.5082 2371.6741,-44.2121"/>
</g>
<!-- modals -->
<g id="node26" class="node">
<title>modals</title>
<ellipse fill="#efefef" stroke="#000000" cx="1506.8676" cy="-162" rx="42.3126" ry="18"/>
<text text-anchor="middle" x="1506.8676" y="-157.8" font-family="Arial" font-size="14.00" fill="#000000">modals</text>
</g>
<!-- modals&#45;&gt;loading -->
<g id="edge27" class="edge">
<title>modals&#45;&gt;loading</title>
<path fill="none" stroke="#757575" d="M1482.8323,-147.0816C1465.6457,-136.414 1442.3157,-121.9333 1423.4548,-110.2265"/>
<polygon fill="#757575" stroke="#757575" points="1425.2143,-107.1993 1414.8721,-104.8993 1421.5227,-113.1468 1425.2143,-107.1993"/>
</g>
<!-- modals&#45;&gt;pipes -->
<g id="edge28" class="edge">
<title>modals&#45;&gt;pipes</title>
<path fill="none" stroke="#757575" d="M1541.0426,-151.2476C1562.2937,-142.8128 1588.424,-128.9411 1603.8676,-108 1616.9225,-90.2979 1621.4297,-65.5918 1622.8078,-46.5425"/>
<polygon fill="#757575" stroke="#757575" points="1626.3135,-46.5045 1623.2925,-36.3496 1619.3214,-46.172 1626.3135,-46.5045"/>
</g>
<!-- popover -->
<g id="node27" class="node">
<title>popover</title>
<ellipse fill="#efefef" stroke="#000000" cx="255.8676" cy="-90" rx="45.8426" ry="18"/>
<text text-anchor="middle" x="255.8676" y="-85.8" font-family="Arial" font-size="14.00" fill="#000000">popover</text>
</g>
<!-- popup&#45;confirm -->
<g id="node28" class="node">
<title>popup&#45;confirm</title>
<ellipse fill="#efefef" stroke="#000000" cx="392.8676" cy="-90" rx="72.9857" ry="18"/>
<text text-anchor="middle" x="392.8676" y="-85.8" font-family="Arial" font-size="14.00" fill="#000000">popup&#45;confirm</text>
</g>
<!-- popups&#45;modals&#45;shell -->
<g id="node29" class="node">
<title>popups&#45;modals&#45;shell</title>
<ellipse fill="#efefef" stroke="#000000" cx="459.8676" cy="-162" rx="100.2129" ry="18"/>
<text text-anchor="middle" x="459.8676" y="-157.8" font-family="Arial" font-size="14.00" fill="#000000">popups&#45;modals&#45;shell</text>
</g>
<!-- popups&#45;modals&#45;shell&#45;&gt;gdk -->
<g id="edge31" class="edge">
<title>popups&#45;modals&#45;shell&#45;&gt;gdk</title>
<path fill="none" stroke="#757575" d="M472.7371,-143.8314C478.9726,-135.0283 486.5561,-124.3221 493.3128,-114.7832"/>
<polygon fill="#757575" stroke="#757575" points="496.299,-116.6226 499.2231,-106.4393 490.5868,-112.5765 496.299,-116.6226"/>
</g>
<!-- popups&#45;modals&#45;shell&#45;&gt;countdown&#45;button -->
<g id="edge32" class="edge">
<title>popups&#45;modals&#45;shell&#45;&gt;countdown&#45;button</title>
<path fill="none" stroke="#757575" d="M393.3244,-148.5418C331.622,-136.0627 240.0211,-117.5367 176.4554,-104.6807"/>
<polygon fill="#757575" stroke="#757575" points="176.9985,-101.2197 166.5031,-102.6678 175.6108,-108.0808 176.9985,-101.2197"/>
</g>
<!-- popups&#45;modals&#45;shell&#45;&gt;popover -->
<g id="edge33" class="edge">
<title>popups&#45;modals&#45;shell&#45;&gt;popover</title>
<path fill="none" stroke="#757575" d="M414.3399,-145.9314C380.1389,-133.8604 333.5685,-117.4238 299.7684,-105.4944"/>
<polygon fill="#757575" stroke="#757575" points="300.7512,-102.1297 290.1564,-102.1019 298.4214,-108.7307 300.7512,-102.1297"/>
</g>
<!-- popups&#45;modals&#45;shell&#45;&gt;popup&#45;confirm -->
<g id="edge34" class="edge">
<title>popups&#45;modals&#45;shell&#45;&gt;popup&#45;confirm</title>
<path fill="none" stroke="#757575" d="M443.3058,-144.2022C435.1111,-135.396 425.0814,-124.6179 416.1305,-114.9989"/>
<polygon fill="#757575" stroke="#757575" points="418.6135,-112.5294 409.2389,-107.593 413.489,-117.2981 418.6135,-112.5294"/>
</g>
<!-- presentational&#45;shell -->
<g id="node30" class="node">
<title>presentational&#45;shell</title>
<ellipse fill="#efefef" stroke="#000000" cx="1015.8676" cy="-162" rx="94.9903" ry="18"/>
<text text-anchor="middle" x="1015.8676" y="-157.8" font-family="Arial" font-size="14.00" fill="#000000">presentational&#45;shell</text>
</g>
<!-- presentational&#45;shell&#45;&gt;arrow&#45;variation -->
<g id="edge36" class="edge">
<title>presentational&#45;shell&#45;&gt;arrow&#45;variation</title>
<path fill="none" stroke="#757575" d="M1015.8676,-143.8314C1015.8676,-136.131 1015.8676,-126.9743 1015.8676,-118.4166"/>
<polygon fill="#757575" stroke="#757575" points="1019.3677,-118.4132 1015.8676,-108.4133 1012.3677,-118.4133 1019.3677,-118.4132"/>
</g>
<!-- presentational&#45;shell&#45;&gt;gdk -->
<g id="edge35" class="edge">
<title>presentational&#45;shell&#45;&gt;gdk</title>
<path fill="none" stroke="#757575" d="M927.3443,-155.5006C811.751,-146.3767 615.9998,-128.5652 546.8676,-108 544.9588,-107.4322 543.0288,-106.7677 541.106,-106.0351"/>
<polygon fill="#757575" stroke="#757575" points="542.2495,-102.7158 531.6834,-101.9368 539.4576,-109.1349 542.2495,-102.7158"/>
</g>
<!-- presentational&#45;shell&#45;&gt;pipes -->
<g id="edge38" class="edge">
<title>presentational&#45;shell&#45;&gt;pipes</title>
<path fill="none" stroke="#757575" d="M1089.2229,-150.5612C1139.2285,-141.6687 1206.5166,-127.5407 1263.8676,-108 1299.2461,-95.9458 1304.3363,-83.5959 1339.8676,-72 1422.2334,-45.1192 1522.7035,-29.8923 1579.0678,-22.8554"/>
<polygon fill="#757575" stroke="#757575" points="1579.5622,-26.3211 1589.0647,-21.6358 1578.7144,-19.3726 1579.5622,-26.3211"/>
</g>
<!-- presentational&#45;shell&#45;&gt;data&#45;formatter -->
<g id="edge37" class="edge">
<title>presentational&#45;shell&#45;&gt;data&#45;formatter</title>
<path fill="none" stroke="#757575" d="M1099.8716,-153.6731C1186.0419,-144.5882 1323.8043,-128.5556 1441.8676,-108 1447.9214,-106.946 1454.2067,-105.7435 1460.4782,-104.4712"/>
<polygon fill="#757575" stroke="#757575" points="1461.2119,-107.8936 1470.2868,-102.4259 1459.7829,-101.041 1461.2119,-107.8936"/>
</g>
<!-- widgets&#45;system -->
<g id="node31" class="node">
<title>widgets&#45;system</title>
<polygon fill="none" stroke="#000000" points="718.3145,-252 605.4207,-252 605.4207,-216 718.3145,-216 718.3145,-252"/>
<text text-anchor="middle" x="661.8676" y="-229.8" font-family="Arial" font-size="14.00" fill="#000000">widgets&#45;system</text>
</g>
<!-- widgets&#45;system&#45;&gt;buttons&#45;indicators&#45;shell -->
<g id="edge40" class="edge">
<title>widgets&#45;system&#45;&gt;buttons&#45;indicators&#45;shell</title>
<path fill="none" stroke="#757575" stroke-dasharray="1,5" d="M605.2105,-224.5132C532.1608,-212.2817 404.3873,-190.887 318.9543,-176.582"/>
<polygon fill="#757575" stroke="#757575" points="319.4523,-173.1167 309.0115,-174.9171 318.2962,-180.0206 319.4523,-173.1167"/>
</g>
<!-- widgets&#45;system&#45;&gt;controls&#45;shell -->
<g id="edge41" class="edge">
<title>widgets&#45;system&#45;&gt;controls&#45;shell</title>
<path fill="none" stroke="#757575" stroke-dasharray="1,5" d="M661.8676,-215.8314C661.8676,-208.131 661.8676,-198.9743 661.8676,-190.4166"/>
<polygon fill="#757575" stroke="#757575" points="665.3677,-190.4132 661.8676,-180.4133 658.3677,-190.4133 665.3677,-190.4132"/>
</g>
<!-- widgets&#45;system&#45;&gt;layout&#45;shell -->
<g id="edge42" class="edge">
<title>widgets&#45;system&#45;&gt;layout&#45;shell</title>
<path fill="none" stroke="#757575" stroke-dasharray="1,5" d="M718.2094,-230.8133C924.7095,-219.1338 1639.8182,-178.6878 1865.8326,-165.9046"/>
<polygon fill="#757575" stroke="#757575" points="1866.1171,-169.3942 1875.9035,-165.335 1865.7218,-162.4053 1866.1171,-169.3942"/>
</g>
<!-- widgets&#45;system&#45;&gt;popups&#45;modals&#45;shell -->
<g id="edge43" class="edge">
<title>widgets&#45;system&#45;&gt;popups&#45;modals&#45;shell</title>
<path fill="none" stroke="#757575" stroke-dasharray="1,5" d="M611.1552,-215.9243C581.7333,-205.4373 544.6676,-192.2258 514.5887,-181.5045"/>
<polygon fill="#757575" stroke="#757575" points="515.6815,-178.1784 505.0869,-178.1178 513.3313,-184.7721 515.6815,-178.1784"/>
</g>
<!-- widgets&#45;system&#45;&gt;presentational&#45;shell -->
<g id="edge44" class="edge">
<title>widgets&#45;system&#45;&gt;presentational&#45;shell</title>
<path fill="none" stroke="#757575" stroke-dasharray="1,5" d="M718.3514,-222.5118C778.6946,-210.2386 874.6273,-190.7268 941.1762,-177.1915"/>
<polygon fill="#757575" stroke="#757575" points="942.0821,-180.579 951.1839,-175.156 940.6869,-173.7194 942.0821,-180.579"/>
</g>
<!-- widgets&#45;system&#45;e2e -->
<g id="node32" class="node">
<title>widgets&#45;system&#45;e2e</title>
<polygon fill="none" stroke="#000000" points="732.3228,-324 591.4125,-324 591.4125,-288 732.3228,-288 732.3228,-324"/>
<text text-anchor="middle" x="661.8676" y="-301.8" font-family="Arial" font-size="14.00" fill="#000000">widgets&#45;system&#45;e2e</text>
</g>
<!-- widgets&#45;system&#45;e2e&#45;&gt;widgets&#45;system -->
<g id="edge45" class="edge">
<title>widgets&#45;system&#45;e2e&#45;&gt;widgets&#45;system</title>
<path fill="none" stroke="#000000" stroke-width="2" d="M661.8676,-287.8314C661.8676,-280.131 661.8676,-270.9743 661.8676,-262.4166"/>
<polygon fill="#000000" stroke="#000000" stroke-width="2" points="665.3677,-262.4132 661.8676,-252.4133 658.3677,-262.4133 665.3677,-262.4132"/>
</g>
</g>
</svg>
