<?xml version="1.0" encoding="UTF-8" standalone="no"?>
<!DOCTYPE svg PUBLIC "-//W3C//DTD SVG 1.1//EN"
 "http://www.w3.org/Graphics/SVG/1.1/DTD/svg11.dtd">
<!-- Generated by graphviz version 2.40.1 (20161225.0304)
 -->
<!-- Title: G Pages: 1 -->
<svg width="2443pt" height="340pt"
 viewBox="0.00 0.00 2442.77 339.98" xmlns="http://www.w3.org/2000/svg" xmlns:xlink="http://www.w3.org/1999/xlink">
<g id="graph0" class="graph" transform="scale(1 1) rotate(0) translate(7.992 331.992)">
<title>G</title>
<polygon fill="#ffffff" stroke="transparent" points="-7.992,7.992 -7.992,-331.992 2434.7743,-331.992 2434.7743,7.992 -7.992,7.992"/>
<!-- arrow&#45;variation -->
<g id="node1" class="node">
<title>arrow&#45;variation</title>
<ellipse fill="#efefef" stroke="#000000" cx="1138.9213" cy="-90" rx="74.7496" ry="18"/>
<text text-anchor="middle" x="1138.9213" y="-85.8" font-family="Arial" font-size="14.00" fill="#000000">arrow&#45;variation</text>
</g>
<!-- button -->
<g id="node2" class="node">
<title>button</title>
<ellipse fill="#efefef" stroke="#000000" cx="477.9213" cy="-18" rx="37.7544" ry="18"/>
<text text-anchor="middle" x="477.9213" y="-13.8" font-family="Arial" font-size="14.00" fill="#000000">button</text>
</g>
<!-- buttons&#45;indicators&#45;shell -->
<g id="node3" class="node">
<title>buttons&#45;indicators&#45;shell</title>
<ellipse fill="#efefef" stroke="#000000" cx="568.9213" cy="-162" rx="110.1008" ry="18"/>
<text text-anchor="middle" x="568.9213" y="-157.8" font-family="Arial" font-size="14.00" fill="#000000">buttons&#45;indicators&#45;shell</text>
</g>
<!-- buttons&#45;indicators&#45;shell&#45;&gt;button -->
<g id="edge2" class="edge">
<title>buttons&#45;indicators&#45;shell&#45;&gt;button</title>
<path fill="none" stroke="#757575" d="M536.2483,-144.6889C522.0932,-135.5862 506.5826,-123.1504 496.9213,-108 485.167,-89.5676 480.5508,-65.1129 478.7996,-46.3473"/>
<polygon fill="#757575" stroke="#757575" points="482.2865,-46.0378 478.0807,-36.3136 475.3044,-46.5382 482.2865,-46.0378"/>
</g>
<!-- gdk -->
<g id="node4" class="node">
<title>gdk</title>
<ellipse fill="#efefef" stroke="#000000" cx="880.9213" cy="-90" rx="27" ry="18"/>
<text text-anchor="middle" x="880.9213" y="-85.8" font-family="Arial" font-size="14.00" fill="#000000">gdk</text>
</g>
<!-- buttons&#45;indicators&#45;shell&#45;&gt;gdk -->
<g id="edge1" class="edge">
<title>buttons&#45;indicators&#45;shell&#45;&gt;gdk</title>
<path fill="none" stroke="#757575" d="M656.5815,-151.0401C711.6308,-142.6514 783.5702,-128.9067 844.9213,-108 846.8063,-107.3576 848.7178,-106.6352 850.6265,-105.8585"/>
<polygon fill="#757575" stroke="#757575" points="852.3242,-108.9329 860.0115,-101.642 849.4554,-102.5477 852.3242,-108.9329"/>
</g>
<!-- countdown&#45;button -->
<g id="node5" class="node">
<title>countdown&#45;button</title>
<ellipse fill="#efefef" stroke="#000000" cx="361.9213" cy="-90" rx="87.5707" ry="18"/>
<text text-anchor="middle" x="361.9213" y="-85.8" font-family="Arial" font-size="14.00" fill="#000000">countdown&#45;button</text>
</g>
<!-- buttons&#45;indicators&#45;shell&#45;&gt;countdown&#45;button -->
<g id="edge3" class="edge">
<title>buttons&#45;indicators&#45;shell&#45;&gt;countdown&#45;button</title>
<path fill="none" stroke="#757575" d="M521.9498,-145.6621C490.4652,-134.7109 448.9133,-120.2581 416.0412,-108.8243"/>
<polygon fill="#757575" stroke="#757575" points="417.1732,-105.5124 406.5783,-105.5329 414.8735,-112.1239 417.1732,-105.5124"/>
</g>
<!-- loading -->
<g id="node6" class="node">
<title>loading</title>
<ellipse fill="#efefef" stroke="#000000" cx="547.9213" cy="-90" rx="42.3281" ry="18"/>
<text text-anchor="middle" x="547.9213" y="-85.8" font-family="Arial" font-size="14.00" fill="#000000">loading</text>
</g>
<!-- buttons&#45;indicators&#45;shell&#45;&gt;loading -->
<g id="edge4" class="edge">
<title>buttons&#45;indicators&#45;shell&#45;&gt;loading</title>
<path fill="none" stroke="#757575" d="M563.6221,-143.8314C561.3165,-135.9266 558.5634,-126.4872 556.0111,-117.7365"/>
<polygon fill="#757575" stroke="#757575" points="559.3061,-116.5334 553.146,-107.9134 552.5861,-118.4934 559.3061,-116.5334"/>
</g>
<!-- countdown&#45;button&#45;&gt;button -->
<g id="edge10" class="edge">
<title>countdown&#45;button&#45;&gt;button</title>
<path fill="none" stroke="#757575" d="M389.7061,-72.7542C406.601,-62.2677 428.2415,-48.8357 445.8601,-37.9"/>
<polygon fill="#757575" stroke="#757575" points="448.0098,-40.6851 454.6605,-32.4377 444.3183,-34.7377 448.0098,-40.6851"/>
</g>
<!-- card&#45;container -->
<g id="node7" class="node">
<title>card&#45;container</title>
<ellipse fill="#efefef" stroke="#000000" cx="2316.9213" cy="-90" rx="72.9857" ry="18"/>
<text text-anchor="middle" x="2316.9213" y="-85.8" font-family="Arial" font-size="14.00" fill="#000000">card&#45;container</text>
</g>
<!-- section&#45;title -->
<g id="node8" class="node">
<title>section&#45;title</title>
<ellipse fill="#efefef" stroke="#000000" cx="2366.9213" cy="-18" rx="59.7224" ry="18"/>
<text text-anchor="middle" x="2366.9213" y="-13.8" font-family="Arial" font-size="14.00" fill="#000000">section&#45;title</text>
</g>
<!-- card&#45;container&#45;&gt;section&#45;title -->
<g id="edge5" class="edge">
<title>card&#45;container&#45;&gt;section&#45;title</title>
<path fill="none" stroke="#757575" d="M2329.2808,-72.2022C2335.1703,-63.7214 2342.3299,-53.4115 2348.8174,-44.0696"/>
<polygon fill="#757575" stroke="#757575" points="2351.7014,-46.0527 2354.5306,-35.8425 2345.9518,-42.0599 2351.7014,-46.0527"/>
</g>
<!-- controls&#45;shell -->
<g id="node9" class="node">
<title>controls&#45;shell</title>
<ellipse fill="#efefef" stroke="#000000" cx="833.9213" cy="-162" rx="67.8107" ry="18"/>
<text text-anchor="middle" x="833.9213" y="-157.8" font-family="Arial" font-size="14.00" fill="#000000">controls&#45;shell</text>
</g>
<!-- controls&#45;shell&#45;&gt;gdk -->
<g id="edge6" class="edge">
<title>controls&#45;shell&#45;&gt;gdk</title>
<path fill="none" stroke="#757575" d="M845.5392,-144.2022C851.2835,-135.4025 858.3131,-124.6338 864.5886,-115.0202"/>
<polygon fill="#757575" stroke="#757575" points="867.5459,-116.8928 870.0813,-106.6058 861.6842,-113.0664 867.5459,-116.8928"/>
</g>
<!-- datepicker -->
<g id="node10" class="node">
<title>datepicker</title>
<ellipse fill="#efefef" stroke="#000000" cx="663.9213" cy="-90" rx="55.6526" ry="18"/>
<text text-anchor="middle" x="663.9213" y="-85.8" font-family="Arial" font-size="14.00" fill="#000000">datepicker</text>
</g>
<!-- controls&#45;shell&#45;&gt;datepicker -->
<g id="edge7" class="edge">
<title>controls&#45;shell&#45;&gt;datepicker</title>
<path fill="none" stroke="#757575" d="M797.8686,-146.7307C771.4515,-135.5422 735.4658,-120.3012 707.4457,-108.4339"/>
<polygon fill="#757575" stroke="#757575" points="708.4688,-105.0663 697.8956,-104.3891 705.7388,-111.512 708.4688,-105.0663"/>
</g>
<!-- form&#45;text -->
<g id="node11" class="node">
<title>form&#45;text</title>
<ellipse fill="#efefef" stroke="#000000" cx="786.9213" cy="-90" rx="49.2512" ry="18"/>
<text text-anchor="middle" x="786.9213" y="-85.8" font-family="Arial" font-size="14.00" fill="#000000">form&#45;text</text>
</g>
<!-- controls&#45;shell&#45;&gt;form&#45;text -->
<g id="edge8" class="edge">
<title>controls&#45;shell&#45;&gt;form&#45;text</title>
<path fill="none" stroke="#757575" d="M822.3033,-144.2022C816.7824,-135.7448 810.0743,-125.4685 803.9894,-116.147"/>
<polygon fill="#757575" stroke="#757575" points="806.8027,-114.0536 798.4056,-107.593 800.941,-117.88 806.8027,-114.0536"/>
</g>
<!-- slide&#45;toggle -->
<g id="node12" class="node">
<title>slide&#45;toggle</title>
<ellipse fill="#efefef" stroke="#000000" cx="985.9213" cy="-90" rx="60.3038" ry="18"/>
<text text-anchor="middle" x="985.9213" y="-85.8" font-family="Arial" font-size="14.00" fill="#000000">slide&#45;toggle</text>
</g>
<!-- controls&#45;shell&#45;&gt;slide&#45;toggle -->
<g id="edge9" class="edge">
<title>controls&#45;shell&#45;&gt;slide&#45;toggle</title>
<path fill="none" stroke="#757575" d="M867.2783,-146.1993C889.9601,-135.4553 920.1342,-121.1623 944.3758,-109.6794"/>
<polygon fill="#757575" stroke="#757575" points="946.1454,-112.714 953.6845,-105.27 943.1488,-106.3879 946.1454,-112.714"/>
</g>
<!-- datepicker&#45;&gt;button -->
<g id="edge12" class="edge">
<title>datepicker&#45;&gt;button</title>
<path fill="none" stroke="#757575" d="M628.0586,-76.1177C596.2966,-63.8227 550.0176,-45.9083 517.2516,-33.2247"/>
<polygon fill="#757575" stroke="#757575" points="518.1369,-29.8143 507.5477,-29.4683 515.6099,-36.3423 518.1369,-29.8143"/>
</g>
<!-- currency&#45;display -->
<g id="node13" class="node">
<title>currency&#45;display</title>
<ellipse fill="#efefef" stroke="#000000" cx="1512.9213" cy="-90" rx="81.138" ry="18"/>
<text text-anchor="middle" x="1512.9213" y="-85.8" font-family="Arial" font-size="14.00" fill="#000000">currency&#45;display</text>
</g>
<!-- pipes -->
<g id="node14" class="node">
<title>pipes</title>
<ellipse fill="#efefef" stroke="#000000" cx="1447.9213" cy="-18" rx="34.2259" ry="18"/>
<text text-anchor="middle" x="1447.9213" y="-13.8" font-family="Arial" font-size="14.00" fill="#000000">pipes</text>
</g>
<!-- currency&#45;display&#45;&gt;pipes -->
<g id="edge11" class="edge">
<title>currency&#45;display&#45;&gt;pipes</title>
<path fill="none" stroke="#757575" d="M1496.8538,-72.2022C1488.6665,-63.1332 1478.591,-51.9726 1469.7149,-42.1407"/>
<polygon fill="#757575" stroke="#757575" points="1472.2116,-39.6832 1462.9126,-34.6058 1467.0157,-44.3739 1472.2116,-39.6832"/>
</g>
<!-- data&#45;formatter -->
<g id="node15" class="node">
<title>data&#45;formatter</title>
<ellipse fill="#efefef" stroke="#000000" cx="1303.9213" cy="-90" rx="71.8376" ry="18"/>
<text text-anchor="middle" x="1303.9213" y="-85.8" font-family="Arial" font-size="14.00" fill="#000000">data&#45;formatter</text>
</g>
<!-- directives -->
<g id="node16" class="node">
<title>directives</title>
<ellipse fill="#efefef" stroke="#000000" cx="973.9213" cy="-306" rx="51.6227" ry="18"/>
<text text-anchor="middle" x="973.9213" y="-301.8" font-family="Arial" font-size="14.00" fill="#000000">directives</text>
</g>
<!-- enhanced&#45;header -->
<g id="node17" class="node">
<title>enhanced&#45;header</title>
<ellipse fill="#efefef" stroke="#000000" cx="1924.9213" cy="-90" rx="86.9288" ry="18"/>
<text text-anchor="middle" x="1924.9213" y="-85.8" font-family="Arial" font-size="14.00" fill="#000000">enhanced&#45;header</text>
</g>
<!-- enhanced&#45;title -->
<g id="node18" class="node">
<title>enhanced&#45;title</title>
<ellipse fill="#efefef" stroke="#000000" cx="1809.9213" cy="-18" rx="71.8589" ry="18"/>
<text text-anchor="middle" x="1809.9213" y="-13.8" font-family="Arial" font-size="14.00" fill="#000000">enhanced&#45;title</text>
</g>
<!-- enhanced&#45;header&#45;&gt;enhanced&#45;title -->
<g id="edge13" class="edge">
<title>enhanced&#45;header&#45;&gt;enhanced&#45;title</title>
<path fill="none" stroke="#757575" d="M1897.3759,-72.7542C1881.9016,-63.066 1862.4117,-50.8636 1845.7603,-40.4384"/>
<polygon fill="#757575" stroke="#757575" points="1847.1783,-37.1968 1836.8451,-34.8566 1843.4636,-43.1299 1847.1783,-37.1968"/>
</g>
<!-- tooltip -->
<g id="node19" class="node">
<title>tooltip</title>
<ellipse fill="#efefef" stroke="#000000" cx="2001.9213" cy="-18" rx="36.5901" ry="18"/>
<text text-anchor="middle" x="2001.9213" y="-13.8" font-family="Arial" font-size="14.00" fill="#000000">tooltip</text>
</g>
<!-- enhanced&#45;header&#45;&gt;tooltip -->
<g id="edge14" class="edge">
<title>enhanced&#45;header&#45;&gt;tooltip</title>
<path fill="none" stroke="#757575" d="M1943.955,-72.2022C1953.9893,-62.8195 1966.4176,-51.1982 1977.1897,-41.1256"/>
<polygon fill="#757575" stroke="#757575" points="1979.7691,-43.5054 1984.6829,-34.119 1974.9881,-38.3925 1979.7691,-43.5054"/>
</g>
<!-- icon -->
<g id="node20" class="node">
<title>icon</title>
<ellipse fill="#efefef" stroke="#000000" cx="2114.9213" cy="-18" rx="28.991" ry="18"/>
<text text-anchor="middle" x="2114.9213" y="-13.8" font-family="Arial" font-size="14.00" fill="#000000">icon</text>
</g>
<!-- layout&#45;shell -->
<g id="node21" class="node">
<title>layout&#45;shell</title>
<ellipse fill="#efefef" stroke="#000000" cx="1866.9213" cy="-162" rx="59.7244" ry="18"/>
<text text-anchor="middle" x="1866.9213" y="-157.8" font-family="Arial" font-size="14.00" fill="#000000">layout&#45;shell</text>
</g>
<!-- layout&#45;shell&#45;&gt;gdk -->
<g id="edge15" class="edge">
<title>layout&#45;shell&#45;&gt;gdk</title>
<path fill="none" stroke="#757575" d="M1807.2089,-160.0114C1612.3436,-153.3272 1002.5756,-130.8056 916.9213,-108 914.9462,-107.4741 912.9524,-106.8334 910.9701,-106.111"/>
<polygon fill="#757575" stroke="#757575" points="911.8633,-102.6864 901.2927,-101.9713 909.1102,-109.1223 911.8633,-102.6864"/>
</g>
<!-- layout&#45;shell&#45;&gt;card&#45;container -->
<g id="edge16" class="edge">
<title>layout&#45;shell&#45;&gt;card&#45;container</title>
<path fill="none" stroke="#757575" d="M1922.2958,-155.11C1994.4844,-145.8453 2124.5562,-128.1848 2234.9213,-108 2241.037,-106.8815 2247.3913,-105.636 2253.7349,-104.3368"/>
<polygon fill="#757575" stroke="#757575" points="2254.5869,-107.7344 2263.6588,-102.2617 2253.1541,-100.8826 2254.5869,-107.7344"/>
</g>
<!-- layout&#45;shell&#45;&gt;section&#45;title -->
<g id="edge23" class="edge">
<title>layout&#45;shell&#45;&gt;section&#45;title</title>
<path fill="none" stroke="#757575" d="M1926.6938,-160.3546C2059.0611,-156.0942 2367.7225,-142.5259 2398.9213,-108 2415.0954,-90.1011 2402.5544,-63.4824 2388.7103,-43.8337"/>
<polygon fill="#757575" stroke="#757575" points="2391.3594,-41.5318 2382.5675,-35.6195 2385.7535,-45.724 2391.3594,-41.5318"/>
</g>
<!-- layout&#45;shell&#45;&gt;currency&#45;display -->
<g id="edge17" class="edge">
<title>layout&#45;shell&#45;&gt;currency&#45;display</title>
<path fill="none" stroke="#757575" d="M1817.3263,-151.9129C1756.2063,-139.4817 1651.9695,-118.281 1582.7694,-104.2064"/>
<polygon fill="#757575" stroke="#757575" points="1583.3201,-100.7468 1572.8231,-102.1834 1581.9248,-107.6064 1583.3201,-100.7468"/>
</g>
<!-- layout&#45;shell&#45;&gt;enhanced&#45;header -->
<g id="edge18" class="edge">
<title>layout&#45;shell&#45;&gt;enhanced&#45;header</title>
<path fill="none" stroke="#757575" d="M1881.2583,-144.2022C1888.1599,-135.6348 1896.5649,-125.2009 1904.1509,-115.7839"/>
<polygon fill="#757575" stroke="#757575" points="1907.0004,-117.8258 1910.5481,-107.8425 1901.5491,-113.4344 1907.0004,-117.8258"/>
</g>
<!-- layout&#45;shell&#45;&gt;enhanced&#45;title -->
<g id="edge19" class="edge">
<title>layout&#45;shell&#45;&gt;enhanced&#45;title</title>
<path fill="none" stroke="#757575" d="M1851.5569,-144.1301C1843.6885,-134.1099 1834.5957,-121.0332 1828.9213,-108 1820.3417,-88.2941 1815.5317,-64.4331 1812.8991,-46.2324"/>
<polygon fill="#757575" stroke="#757575" points="1816.3599,-45.704 1811.5887,-36.2443 1809.4194,-46.6147 1816.3599,-45.704"/>
</g>
<!-- layout&#45;shell&#45;&gt;tooltip -->
<g id="edge25" class="edge">
<title>layout&#45;shell&#45;&gt;tooltip</title>
<path fill="none" stroke="#757575" d="M1915.5613,-151.396C1955.8257,-141.5158 2008.3849,-125.6806 2020.9213,-108 2034.0382,-89.5006 2026.7562,-63.831 2017.6703,-44.6386"/>
<polygon fill="#757575" stroke="#757575" points="2020.6777,-42.8327 2013.0004,-35.5314 2014.4489,-46.0268 2020.6777,-42.8327"/>
</g>
<!-- layout&#45;shell&#45;&gt;icon -->
<g id="edge20" class="edge">
<title>layout&#45;shell&#45;&gt;icon</title>
<path fill="none" stroke="#757575" d="M1919.5838,-153.2673C1955.1989,-145.5454 2002.0902,-131.7056 2037.9213,-108 2063.3175,-91.198 2085.0978,-63.7191 2098.9475,-43.5378"/>
<polygon fill="#757575" stroke="#757575" points="2101.9269,-45.3783 2104.561,-35.1161 2096.1023,-41.4958 2101.9269,-45.3783"/>
</g>
<!-- page&#45;header -->
<g id="node22" class="node">
<title>page&#45;header</title>
<ellipse fill="#efefef" stroke="#000000" cx="1715.9213" cy="-90" rx="65.5623" ry="18"/>
<text text-anchor="middle" x="1715.9213" y="-85.8" font-family="Arial" font-size="14.00" fill="#000000">page&#45;header</text>
</g>
<!-- layout&#45;shell&#45;&gt;page&#45;header -->
<g id="edge21" class="edge">
<title>layout&#45;shell&#45;&gt;page&#45;header</title>
<path fill="none" stroke="#757575" d="M1834.898,-146.7307C1812.406,-136.006 1782.1048,-121.5577 1757.7114,-109.9264"/>
<polygon fill="#757575" stroke="#757575" points="1759.213,-106.7649 1748.6802,-105.6202 1756.2002,-113.0834 1759.213,-106.7649"/>
</g>
<!-- scroll&#45;container -->
<g id="node23" class="node">
<title>scroll&#45;container</title>
<ellipse fill="#efefef" stroke="#000000" cx="1632.9213" cy="-18" rx="76.4768" ry="18"/>
<text text-anchor="middle" x="1632.9213" y="-13.8" font-family="Arial" font-size="14.00" fill="#000000">scroll&#45;container</text>
</g>
<!-- layout&#45;shell&#45;&gt;scroll&#45;container -->
<g id="edge22" class="edge">
<title>layout&#45;shell&#45;&gt;scroll&#45;container</title>
<path fill="none" stroke="#757575" d="M1810.34,-155.997C1750.8046,-148.4299 1662.7428,-133.262 1640.9213,-108 1626.4924,-91.2962 1625.5083,-65.7644 1627.5483,-46.1558"/>
<polygon fill="#757575" stroke="#757575" points="1631.0173,-46.6201 1628.8808,-36.243 1624.0797,-45.6875 1631.0173,-46.6201"/>
</g>
<!-- sort&#45;header -->
<g id="node24" class="node">
<title>sort&#45;header</title>
<ellipse fill="#efefef" stroke="#000000" cx="2165.9213" cy="-90" rx="60.3058" ry="18"/>
<text text-anchor="middle" x="2165.9213" y="-85.8" font-family="Arial" font-size="14.00" fill="#000000">sort&#45;header</text>
</g>
<!-- layout&#45;shell&#45;&gt;sort&#45;header -->
<g id="edge24" class="edge">
<title>layout&#45;shell&#45;&gt;sort&#45;header</title>
<path fill="none" stroke="#757575" d="M1913.9037,-150.7685C1959.429,-139.8749 2030.4205,-122.8599 2091.9213,-108 2097.5199,-106.6472 2103.3559,-105.2337 2109.1864,-103.8191"/>
<polygon fill="#757575" stroke="#757575" points="2110.0589,-107.2091 2118.9507,-101.4482 2108.4071,-100.4067 2110.0589,-107.2091"/>
</g>
<!-- page&#45;header&#45;&gt;enhanced&#45;title -->
<g id="edge26" class="edge">
<title>page&#45;header&#45;&gt;enhanced&#45;title</title>
<path fill="none" stroke="#757575" d="M1738.1979,-72.937C1750.5169,-63.5012 1766.0038,-51.6389 1779.4312,-41.3541"/>
<polygon fill="#757575" stroke="#757575" points="1781.6682,-44.0494 1787.4787,-35.19 1777.4116,-38.4923 1781.6682,-44.0494"/>
</g>
<!-- page&#45;header&#45;&gt;scroll&#45;container -->
<g id="edge27" class="edge">
<title>page&#45;header&#45;&gt;scroll&#45;container</title>
<path fill="none" stroke="#757575" d="M1695.8293,-72.5708C1685.3044,-63.4408 1672.2497,-52.1163 1660.7654,-42.1539"/>
<polygon fill="#757575" stroke="#757575" points="1662.9633,-39.4272 1653.1159,-35.5182 1658.3763,-44.7149 1662.9633,-39.4272"/>
</g>
<!-- sort&#45;header&#45;&gt;icon -->
<g id="edge36" class="edge">
<title>sort&#45;header&#45;&gt;icon</title>
<path fill="none" stroke="#757575" d="M2153.3145,-72.2022C2147.0814,-63.4025 2139.4535,-52.6338 2132.6439,-43.0202"/>
<polygon fill="#757575" stroke="#757575" points="2135.32,-40.743 2126.6837,-34.6058 2129.6078,-44.7892 2135.32,-40.743"/>
</g>
<!-- popover -->
<g id="node25" class="node">
<title>popover</title>
<ellipse fill="#efefef" stroke="#000000" cx="45.9213" cy="-90" rx="45.8426" ry="18"/>
<text text-anchor="middle" x="45.9213" y="-85.8" font-family="Arial" font-size="14.00" fill="#000000">popover</text>
</g>
<!-- popup&#45;confirm -->
<g id="node26" class="node">
<title>popup&#45;confirm</title>
<ellipse fill="#efefef" stroke="#000000" cx="182.9213" cy="-90" rx="72.9857" ry="18"/>
<text text-anchor="middle" x="182.9213" y="-85.8" font-family="Arial" font-size="14.00" fill="#000000">popup&#45;confirm</text>
</g>
<!-- popups&#45;modals&#45;shell -->
<g id="node27" class="node">
<title>popups&#45;modals&#45;shell</title>
<ellipse fill="#efefef" stroke="#000000" cx="340.9213" cy="-162" rx="100.2129" ry="18"/>
<text text-anchor="middle" x="340.9213" y="-157.8" font-family="Arial" font-size="14.00" fill="#000000">popups&#45;modals&#45;shell</text>
</g>
<!-- popups&#45;modals&#45;shell&#45;&gt;gdk -->
<g id="edge28" class="edge">
<title>popups&#45;modals&#45;shell&#45;&gt;gdk</title>
<path fill="none" stroke="#757575" d="M412.6363,-149.3954C425.0465,-147.4324 437.8405,-145.5459 449.9213,-144 624.7786,-121.6242 675.3709,-156.2538 844.9213,-108 847.0509,-107.3939 849.2049,-106.6621 851.3446,-105.8449"/>
<polygon fill="#757575" stroke="#757575" points="852.75,-109.0504 860.5141,-101.8413 849.949,-102.6352 852.75,-109.0504"/>
</g>
<!-- popups&#45;modals&#45;shell&#45;&gt;countdown&#45;button -->
<g id="edge29" class="edge">
<title>popups&#45;modals&#45;shell&#45;&gt;countdown&#45;button</title>
<path fill="none" stroke="#757575" d="M346.2204,-143.8314C348.4911,-136.0463 351.1958,-126.7729 353.7153,-118.1347"/>
<polygon fill="#757575" stroke="#757575" points="357.1106,-118.9933 356.5507,-108.4133 350.3906,-117.0332 357.1106,-118.9933"/>
</g>
<!-- popups&#45;modals&#45;shell&#45;&gt;popover -->
<g id="edge30" class="edge">
<title>popups&#45;modals&#45;shell&#45;&gt;popover</title>
<path fill="none" stroke="#757575" d="M273.5126,-148.6205C225.1761,-138.5928 158.6688,-123.9075 100.9213,-108 97.525,-107.0645 94.0274,-106.0475 90.5198,-104.989"/>
<polygon fill="#757575" stroke="#757575" points="91.2727,-101.5579 80.6844,-101.9291 89.1932,-108.2419 91.2727,-101.5579"/>
</g>
<!-- popups&#45;modals&#45;shell&#45;&gt;popup&#45;confirm -->
<g id="edge31" class="edge">
<title>popups&#45;modals&#45;shell&#45;&gt;popup&#45;confirm</title>
<path fill="none" stroke="#757575" d="M303.8773,-145.1192C280.9284,-134.6615 251.3253,-121.1715 227.1496,-110.1547"/>
<polygon fill="#757575" stroke="#757575" points="228.3884,-106.873 217.8373,-105.9111 225.4856,-113.2428 228.3884,-106.873"/>
</g>
<!-- presentational&#45;shell -->
<g id="node28" class="node">
<title>presentational&#45;shell</title>
<ellipse fill="#efefef" stroke="#000000" cx="1138.9213" cy="-162" rx="94.9903" ry="18"/>
<text text-anchor="middle" x="1138.9213" y="-157.8" font-family="Arial" font-size="14.00" fill="#000000">presentational&#45;shell</text>
</g>
<!-- presentational&#45;shell&#45;&gt;arrow&#45;variation -->
<g id="edge33" class="edge">
<title>presentational&#45;shell&#45;&gt;arrow&#45;variation</title>
<path fill="none" stroke="#757575" d="M1138.9213,-143.8314C1138.9213,-136.131 1138.9213,-126.9743 1138.9213,-118.4166"/>
<polygon fill="#757575" stroke="#757575" points="1142.4214,-118.4132 1138.9213,-108.4133 1135.4214,-118.4133 1142.4214,-118.4132"/>
</g>
<!-- presentational&#45;shell&#45;&gt;gdk -->
<g id="edge32" class="edge">
<title>presentational&#45;shell&#45;&gt;gdk</title>
<path fill="none" stroke="#757575" d="M1070.2213,-149.4552C1025.7521,-140.3242 967.0162,-126.3502 916.9213,-108 915.0513,-107.315 913.1515,-106.5594 911.2517,-105.7575"/>
<polygon fill="#757575" stroke="#757575" points="912.4402,-102.4524 901.8906,-101.4735 909.5272,-108.8175 912.4402,-102.4524"/>
</g>
<!-- presentational&#45;shell&#45;&gt;pipes -->
<g id="edge35" class="edge">
<title>presentational&#45;shell&#45;&gt;pipes</title>
<path fill="none" stroke="#757575" d="M1215.5695,-151.394C1277.0696,-141.7594 1357.5,-126.2838 1384.9213,-108 1408.0728,-92.5631 1425.2977,-65.4904 1435.8319,-45.0581"/>
<polygon fill="#757575" stroke="#757575" points="1439.0526,-46.4402 1440.3304,-35.9227 1432.7727,-43.3478 1439.0526,-46.4402"/>
</g>
<!-- presentational&#45;shell&#45;&gt;data&#45;formatter -->
<g id="edge34" class="edge">
<title>presentational&#45;shell&#45;&gt;data&#45;formatter</title>
<path fill="none" stroke="#757575" d="M1176.7756,-145.4817C1201.18,-134.8326 1233.043,-120.9287 1258.7665,-109.7039"/>
<polygon fill="#757575" stroke="#757575" points="1260.1751,-112.908 1267.9407,-105.7006 1257.3754,-106.4922 1260.1751,-112.908"/>
</g>
<!-- widgets&#45;system -->
<g id="node29" class="node">
<title>widgets&#45;system</title>
<polygon fill="none" stroke="#000000" points="890.3681,-252 777.4744,-252 777.4744,-216 890.3681,-216 890.3681,-252"/>
<text text-anchor="middle" x="833.9213" y="-229.8" font-family="Arial" font-size="14.00" fill="#000000">widgets&#45;system</text>
</g>
<!-- widgets&#45;system&#45;&gt;buttons&#45;indicators&#45;shell -->
<g id="edge37" class="edge">
<title>widgets&#45;system&#45;&gt;buttons&#45;indicators&#45;shell</title>
<path fill="none" stroke="#757575" stroke-dasharray="1,5" d="M777.3971,-218.6425C735.8493,-207.354 679.2482,-191.9756 635.5067,-180.0911"/>
<polygon fill="#757575" stroke="#757575" points="636.3827,-176.7023 625.8149,-177.4579 634.5473,-183.4575 636.3827,-176.7023"/>
</g>
<!-- widgets&#45;system&#45;&gt;controls&#45;shell -->
<g id="edge38" class="edge">
<title>widgets&#45;system&#45;&gt;controls&#45;shell</title>
<path fill="none" stroke="#757575" stroke-dasharray="1,5" d="M833.9213,-215.8314C833.9213,-208.131 833.9213,-198.9743 833.9213,-190.4166"/>
<polygon fill="#757575" stroke="#757575" points="837.4214,-190.4132 833.9213,-180.4133 830.4214,-190.4133 837.4214,-190.4132"/>
</g>
<!-- widgets&#45;system&#45;&gt;layout&#45;shell -->
<g id="edge39" class="edge">
<title>widgets&#45;system&#45;&gt;layout&#45;shell</title>
<path fill="none" stroke="#757575" stroke-dasharray="1,5" d="M890.1934,-230.0778C1066.2057,-217.8098 1605.9721,-180.1881 1798.1194,-166.7955"/>
<polygon fill="#757575" stroke="#757575" points="1798.6353,-170.2681 1808.3678,-166.0812 1798.1486,-163.285 1798.6353,-170.2681"/>
</g>
<!-- widgets&#45;system&#45;&gt;popups&#45;modals&#45;shell -->
<g id="edge40" class="edge">
<title>widgets&#45;system&#45;&gt;popups&#45;modals&#45;shell</title>
<path fill="none" stroke="#757575" stroke-dasharray="1,5" d="M777.5755,-226.5063C702.6726,-216.4463 566.2167,-197.7768 449.9213,-180 441.6086,-178.7293 432.9462,-177.366 424.2975,-175.9789"/>
<polygon fill="#757575" stroke="#757575" points="424.6031,-172.4829 414.1729,-174.3438 423.487,-179.3934 424.6031,-172.4829"/>
</g>
<!-- widgets&#45;system&#45;&gt;presentational&#45;shell -->
<g id="edge41" class="edge">
<title>widgets&#45;system&#45;&gt;presentational&#45;shell</title>
<path fill="none" stroke="#757575" stroke-dasharray="1,5" d="M890.2184,-220.7102C940.7747,-208.7756 1015.1731,-191.2127 1069.4207,-178.4067"/>
<polygon fill="#757575" stroke="#757575" points="1070.3768,-181.7773 1079.3051,-176.0733 1068.7684,-174.9645 1070.3768,-181.7773"/>
</g>
<!-- widgets&#45;system&#45;e2e -->
<g id="node30" class="node">
<title>widgets&#45;system&#45;e2e</title>
<polygon fill="none" stroke="#000000" points="904.3764,-324 763.4661,-324 763.4661,-288 904.3764,-288 904.3764,-324"/>
<text text-anchor="middle" x="833.9213" y="-301.8" font-family="Arial" font-size="14.00" fill="#000000">widgets&#45;system&#45;e2e</text>
</g>
<!-- widgets&#45;system&#45;e2e&#45;&gt;widgets&#45;system -->
<g id="edge42" class="edge">
<title>widgets&#45;system&#45;e2e&#45;&gt;widgets&#45;system</title>
<path fill="none" stroke="#000000" stroke-width="2" d="M833.9213,-287.8314C833.9213,-280.131 833.9213,-270.9743 833.9213,-262.4166"/>
<polygon fill="#000000" stroke="#000000" stroke-width="2" points="837.4214,-262.4132 833.9213,-252.4133 830.4214,-262.4133 837.4214,-262.4132"/>
</g>
</g>
</svg>
