<?xml version="1.0" encoding="UTF-8" standalone="no"?>
<!DOCTYPE svg PUBLIC "-//W3C//DTD SVG 1.1//EN"
 "http://www.w3.org/Graphics/SVG/1.1/DTD/svg11.dtd">
<!-- Generated by graphviz version 2.40.1 (20161225.0304)
 -->
<!-- Title: G Pages: 1 -->
<svg width="1994pt" height="340pt"
 viewBox="0.00 0.00 1994.10 339.98" xmlns="http://www.w3.org/2000/svg" xmlns:xlink="http://www.w3.org/1999/xlink">
<g id="graph0" class="graph" transform="scale(1 1) rotate(0) translate(7.992 331.992)">
<title>G</title>
<polygon fill="#ffffff" stroke="transparent" points="-7.992,7.992 -7.992,-331.992 1986.1108,-331.992 1986.1108,7.992 -7.992,7.992"/>
<!-- arrow&#45;variation -->
<g id="node1" class="node">
<title>arrow&#45;variation</title>
<ellipse fill="#efefef" stroke="#000000" cx="987.716" cy="-90" rx="74.7496" ry="18"/>
<text text-anchor="middle" x="987.716" y="-85.8" font-family="Arial" font-size="14.00" fill="#000000">arrow&#45;variation</text>
</g>
<!-- button -->
<g id="node2" class="node">
<title>button</title>
<ellipse fill="#efefef" stroke="#000000" cx="96.716" cy="-18" rx="37.7544" ry="18"/>
<text text-anchor="middle" x="96.716" y="-13.8" font-family="Arial" font-size="14.00" fill="#000000">button</text>
</g>
<!-- buttons&#45;indicators&#45;shell -->
<g id="node3" class="node">
<title>buttons&#45;indicators&#45;shell</title>
<ellipse fill="#efefef" stroke="#000000" cx="205.716" cy="-162" rx="110.1008" ry="18"/>
<text text-anchor="middle" x="205.716" y="-157.8" font-family="Arial" font-size="14.00" fill="#000000">buttons&#45;indicators&#45;shell</text>
</g>
<!-- buttons&#45;indicators&#45;shell&#45;&gt;button -->
<g id="edge2" class="edge">
<title>buttons&#45;indicators&#45;shell&#45;&gt;button</title>
<path fill="none" stroke="#757575" d="M123.4031,-149.9274C75.3281,-141.0056 21.3139,-127.087 6.716,-108 -3.004,-95.2909 -1.1672,-85.9232 6.716,-72 17.2663,-53.3661 37.0956,-40.4608 55.4616,-31.9513"/>
<polygon fill="#757575" stroke="#757575" points="57.0768,-35.0664 64.8756,-27.895 54.3068,-28.6378 57.0768,-35.0664"/>
</g>
<!-- gdk -->
<g id="node4" class="node">
<title>gdk</title>
<ellipse fill="#efefef" stroke="#000000" cx="612.716" cy="-90" rx="27" ry="18"/>
<text text-anchor="middle" x="612.716" y="-85.8" font-family="Arial" font-size="14.00" fill="#000000">gdk</text>
</g>
<!-- buttons&#45;indicators&#45;shell&#45;&gt;gdk -->
<g id="edge1" class="edge">
<title>buttons&#45;indicators&#45;shell&#45;&gt;gdk</title>
<path fill="none" stroke="#757575" d="M297.8423,-151.9887C390.372,-141.3251 526.258,-123.835 576.716,-108 578.6161,-107.4037 580.5394,-106.7171 582.457,-105.9676"/>
<polygon fill="#757575" stroke="#757575" points="584.1245,-109.0577 591.8658,-101.8242 581.3033,-102.6514 584.1245,-109.0577"/>
</g>
<!-- countdown&#45;button -->
<g id="node5" class="node">
<title>countdown&#45;button</title>
<ellipse fill="#efefef" stroke="#000000" cx="205.716" cy="-90" rx="87.5707" ry="18"/>
<text text-anchor="middle" x="205.716" y="-85.8" font-family="Arial" font-size="14.00" fill="#000000">countdown&#45;button</text>
</g>
<!-- buttons&#45;indicators&#45;shell&#45;&gt;countdown&#45;button -->
<g id="edge3" class="edge">
<title>buttons&#45;indicators&#45;shell&#45;&gt;countdown&#45;button</title>
<path fill="none" stroke="#757575" d="M205.716,-143.8314C205.716,-136.131 205.716,-126.9743 205.716,-118.4166"/>
<polygon fill="#757575" stroke="#757575" points="209.2161,-118.4132 205.716,-108.4133 202.2161,-118.4133 209.2161,-118.4132"/>
</g>
<!-- loading -->
<g id="node6" class="node">
<title>loading</title>
<ellipse fill="#efefef" stroke="#000000" cx="57.716" cy="-90" rx="42.3281" ry="18"/>
<text text-anchor="middle" x="57.716" y="-85.8" font-family="Arial" font-size="14.00" fill="#000000">loading</text>
</g>
<!-- buttons&#45;indicators&#45;shell&#45;&gt;loading -->
<g id="edge4" class="edge">
<title>buttons&#45;indicators&#45;shell&#45;&gt;loading</title>
<path fill="none" stroke="#757575" d="M170.2663,-144.7542C147.5677,-133.7116 118.1551,-119.4028 95.0903,-108.1821"/>
<polygon fill="#757575" stroke="#757575" points="96.476,-104.9641 85.9525,-103.7367 93.4137,-111.2587 96.476,-104.9641"/>
</g>
<!-- countdown&#45;button&#45;&gt;button -->
<g id="edge9" class="edge">
<title>countdown&#45;button&#45;&gt;button</title>
<path fill="none" stroke="#757575" d="M179.6078,-72.7542C163.9844,-62.4341 144.0421,-49.2613 127.6334,-38.4225"/>
<polygon fill="#757575" stroke="#757575" points="129.2039,-35.2653 118.9308,-32.674 125.3458,-41.1061 129.2039,-35.2653"/>
</g>
<!-- card&#45;container -->
<g id="node7" class="node">
<title>card&#45;container</title>
<ellipse fill="#efefef" stroke="#000000" cx="1153.716" cy="-90" rx="72.9857" ry="18"/>
<text text-anchor="middle" x="1153.716" y="-85.8" font-family="Arial" font-size="14.00" fill="#000000">card&#45;container</text>
</g>
<!-- section&#45;title -->
<g id="node8" class="node">
<title>section&#45;title</title>
<ellipse fill="#efefef" stroke="#000000" cx="1166.716" cy="-18" rx="59.7224" ry="18"/>
<text text-anchor="middle" x="1166.716" y="-13.8" font-family="Arial" font-size="14.00" fill="#000000">section&#45;title</text>
</g>
<!-- card&#45;container&#45;&gt;section&#45;title -->
<g id="edge5" class="edge">
<title>card&#45;container&#45;&gt;section&#45;title</title>
<path fill="none" stroke="#757575" d="M1156.9964,-71.8314C1158.3868,-64.131 1160.0401,-54.9743 1161.5852,-46.4166"/>
<polygon fill="#757575" stroke="#757575" points="1165.0588,-46.8761 1163.3914,-36.4133 1158.1702,-45.6322 1165.0588,-46.8761"/>
</g>
<!-- controls&#45;shell -->
<g id="node9" class="node">
<title>controls&#45;shell</title>
<ellipse fill="#efefef" stroke="#000000" cx="717.716" cy="-162" rx="67.8107" ry="18"/>
<text text-anchor="middle" x="717.716" y="-157.8" font-family="Arial" font-size="14.00" fill="#000000">controls&#45;shell</text>
</g>
<!-- controls&#45;shell&#45;&gt;gdk -->
<g id="edge6" class="edge">
<title>controls&#45;shell&#45;&gt;gdk</title>
<path fill="none" stroke="#757575" d="M693.0982,-145.1192C677.2436,-134.2475 656.6097,-120.0986 640.2175,-108.8582"/>
<polygon fill="#757575" stroke="#757575" points="641.8311,-105.7208 631.6044,-102.9521 637.8724,-111.4939 641.8311,-105.7208"/>
</g>
<!-- slide&#45;toggle -->
<g id="node10" class="node">
<title>slide&#45;toggle</title>
<ellipse fill="#efefef" stroke="#000000" cx="717.716" cy="-90" rx="60.3038" ry="18"/>
<text text-anchor="middle" x="717.716" y="-85.8" font-family="Arial" font-size="14.00" fill="#000000">slide&#45;toggle</text>
</g>
<!-- controls&#45;shell&#45;&gt;slide&#45;toggle -->
<g id="edge7" class="edge">
<title>controls&#45;shell&#45;&gt;slide&#45;toggle</title>
<path fill="none" stroke="#757575" d="M717.716,-143.8314C717.716,-136.131 717.716,-126.9743 717.716,-118.4166"/>
<polygon fill="#757575" stroke="#757575" points="721.2161,-118.4132 717.716,-108.4133 714.2161,-118.4133 721.2161,-118.4132"/>
</g>
<!-- form&#45;text -->
<g id="node11" class="node">
<title>form&#45;text</title>
<ellipse fill="#efefef" stroke="#000000" cx="845.716" cy="-90" rx="49.2512" ry="18"/>
<text text-anchor="middle" x="845.716" y="-85.8" font-family="Arial" font-size="14.00" fill="#000000">form&#45;text</text>
</g>
<!-- controls&#45;shell&#45;&gt;form&#45;text -->
<g id="edge8" class="edge">
<title>controls&#45;shell&#45;&gt;form&#45;text</title>
<path fill="none" stroke="#757575" d="M746.7612,-145.6621C765.4387,-135.156 789.8457,-121.427 809.7465,-110.2328"/>
<polygon fill="#757575" stroke="#757575" points="811.5364,-113.2418 818.5362,-105.2886 808.1045,-107.1408 811.5364,-113.2418"/>
</g>
<!-- currency&#45;display -->
<g id="node12" class="node">
<title>currency&#45;display</title>
<ellipse fill="#efefef" stroke="#000000" cx="1563.716" cy="-90" rx="81.138" ry="18"/>
<text text-anchor="middle" x="1563.716" y="-85.8" font-family="Arial" font-size="14.00" fill="#000000">currency&#45;display</text>
</g>
<!-- pipes -->
<g id="node13" class="node">
<title>pipes</title>
<ellipse fill="#efefef" stroke="#000000" cx="1420.716" cy="-18" rx="34.2259" ry="18"/>
<text text-anchor="middle" x="1420.716" y="-13.8" font-family="Arial" font-size="14.00" fill="#000000">pipes</text>
</g>
<!-- currency&#45;display&#45;&gt;pipes -->
<g id="edge10" class="edge">
<title>currency&#45;display&#45;&gt;pipes</title>
<path fill="none" stroke="#757575" d="M1530.9089,-73.4817C1508.1524,-62.0239 1477.9129,-46.7984 1454.8689,-35.1958"/>
<polygon fill="#757575" stroke="#757575" points="1456.2979,-31.9968 1445.7922,-30.6258 1453.1499,-38.249 1456.2979,-31.9968"/>
</g>
<!-- data&#45;formatter -->
<g id="node14" class="node">
<title>data&#45;formatter</title>
<ellipse fill="#efefef" stroke="#000000" cx="1392.716" cy="-90" rx="71.8376" ry="18"/>
<text text-anchor="middle" x="1392.716" y="-85.8" font-family="Arial" font-size="14.00" fill="#000000">data&#45;formatter</text>
</g>
<!-- directives -->
<g id="node15" class="node">
<title>directives</title>
<ellipse fill="#efefef" stroke="#000000" cx="857.716" cy="-306" rx="51.6227" ry="18"/>
<text text-anchor="middle" x="857.716" y="-301.8" font-family="Arial" font-size="14.00" fill="#000000">directives</text>
</g>
<!-- enhanced&#45;title -->
<g id="node16" class="node">
<title>enhanced&#45;title</title>
<ellipse fill="#efefef" stroke="#000000" cx="1677.716" cy="-18" rx="71.8589" ry="18"/>
<text text-anchor="middle" x="1677.716" y="-13.8" font-family="Arial" font-size="14.00" fill="#000000">enhanced&#45;title</text>
</g>
<!-- icon -->
<g id="node17" class="node">
<title>icon</title>
<ellipse fill="#efefef" stroke="#000000" cx="1917.716" cy="-90" rx="28.991" ry="18"/>
<text text-anchor="middle" x="1917.716" y="-85.8" font-family="Arial" font-size="14.00" fill="#000000">icon</text>
</g>
<!-- layout&#45;shell -->
<g id="node18" class="node">
<title>layout&#45;shell</title>
<ellipse fill="#efefef" stroke="#000000" cx="1563.716" cy="-162" rx="59.7244" ry="18"/>
<text text-anchor="middle" x="1563.716" y="-157.8" font-family="Arial" font-size="14.00" fill="#000000">layout&#45;shell</text>
</g>
<!-- layout&#45;shell&#45;&gt;gdk -->
<g id="edge11" class="edge">
<title>layout&#45;shell&#45;&gt;gdk</title>
<path fill="none" stroke="#757575" d="M1504.2203,-159.8802C1314.4146,-152.9245 730.913,-129.9804 648.716,-108 646.7415,-107.472 644.7482,-106.8296 642.7662,-106.106"/>
<polygon fill="#757575" stroke="#757575" points="643.6601,-102.6815 633.0896,-101.963 640.9049,-109.1165 643.6601,-102.6815"/>
</g>
<!-- layout&#45;shell&#45;&gt;card&#45;container -->
<g id="edge12" class="edge">
<title>layout&#45;shell&#45;&gt;card&#45;container</title>
<path fill="none" stroke="#757575" d="M1510.451,-153.737C1446.3304,-143.6417 1335.4432,-125.711 1240.716,-108 1233.6281,-106.6748 1226.2275,-105.2333 1218.8649,-103.7622"/>
<polygon fill="#757575" stroke="#757575" points="1219.3765,-100.2949 1208.8815,-101.746 1217.9907,-107.1564 1219.3765,-100.2949"/>
</g>
<!-- layout&#45;shell&#45;&gt;section&#45;title -->
<g id="edge18" class="edge">
<title>layout&#45;shell&#45;&gt;section&#45;title</title>
<path fill="none" stroke="#757575" d="M1507.531,-155.5976C1455.3581,-148.3534 1376.2431,-134.0197 1311.716,-108 1269.1327,-90.8288 1224.9702,-61.4667 1196.7449,-40.9654"/>
<polygon fill="#757575" stroke="#757575" points="1198.6453,-38.0183 1188.5164,-34.9107 1194.4966,-43.6564 1198.6453,-38.0183"/>
</g>
<!-- layout&#45;shell&#45;&gt;currency&#45;display -->
<g id="edge13" class="edge">
<title>layout&#45;shell&#45;&gt;currency&#45;display</title>
<path fill="none" stroke="#757575" d="M1563.716,-143.8314C1563.716,-136.131 1563.716,-126.9743 1563.716,-118.4166"/>
<polygon fill="#757575" stroke="#757575" points="1567.2161,-118.4132 1563.716,-108.4133 1560.2161,-118.4133 1567.2161,-118.4132"/>
</g>
<!-- layout&#45;shell&#45;&gt;enhanced&#45;title -->
<g id="edge14" class="edge">
<title>layout&#45;shell&#45;&gt;enhanced&#45;title</title>
<path fill="none" stroke="#757575" d="M1600.8851,-147.6992C1619.2754,-138.8543 1640.3424,-125.7578 1653.716,-108 1667.1152,-90.2082 1673.0435,-65.5089 1675.6613,-46.4851"/>
<polygon fill="#757575" stroke="#757575" points="1679.1662,-46.6414 1676.8266,-36.3082 1672.2116,-45.8451 1679.1662,-46.6414"/>
</g>
<!-- layout&#45;shell&#45;&gt;icon -->
<g id="edge15" class="edge">
<title>layout&#45;shell&#45;&gt;icon</title>
<path fill="none" stroke="#757575" d="M1620.4821,-156.0253C1683.499,-148.5018 1787.7896,-133.39 1874.716,-108 1878.0807,-107.0172 1881.5377,-105.8518 1884.9595,-104.5935"/>
<polygon fill="#757575" stroke="#757575" points="1886.3802,-107.7958 1894.4038,-100.8767 1883.8167,-101.282 1886.3802,-107.7958"/>
</g>
<!-- page&#45;header -->
<g id="node19" class="node">
<title>page&#45;header</title>
<ellipse fill="#efefef" stroke="#000000" cx="1766.716" cy="-90" rx="65.5623" ry="18"/>
<text text-anchor="middle" x="1766.716" y="-85.8" font-family="Arial" font-size="14.00" fill="#000000">page&#45;header</text>
</g>
<!-- layout&#45;shell&#45;&gt;page&#45;header -->
<g id="edge16" class="edge">
<title>layout&#45;shell&#45;&gt;page&#45;header</title>
<path fill="none" stroke="#757575" d="M1602.8564,-148.1177C1635.2927,-136.6132 1681.6011,-120.1885 1716.7188,-107.733"/>
<polygon fill="#757575" stroke="#757575" points="1718.0515,-110.974 1726.3063,-104.3325 1715.7115,-104.3767 1718.0515,-110.974"/>
</g>
<!-- scroll&#45;container -->
<g id="node20" class="node">
<title>scroll&#45;container</title>
<ellipse fill="#efefef" stroke="#000000" cx="1854.716" cy="-18" rx="76.4768" ry="18"/>
<text text-anchor="middle" x="1854.716" y="-13.8" font-family="Arial" font-size="14.00" fill="#000000">scroll&#45;container</text>
</g>
<!-- layout&#45;shell&#45;&gt;scroll&#45;container -->
<g id="edge17" class="edge">
<title>layout&#45;shell&#45;&gt;scroll&#45;container</title>
<path fill="none" stroke="#757575" d="M1622.556,-158.4113C1695.0615,-152.7067 1812.2955,-138.8802 1841.716,-108 1857.1314,-91.8197 1859.4735,-66.0145 1858.4869,-46.1762"/>
<polygon fill="#757575" stroke="#757575" points="1861.9712,-45.8395 1857.6889,-36.1487 1854.9933,-46.3949 1861.9712,-45.8395"/>
</g>
<!-- page&#45;header&#45;&gt;enhanced&#45;title -->
<g id="edge19" class="edge">
<title>page&#45;header&#45;&gt;enhanced&#45;title</title>
<path fill="none" stroke="#757575" d="M1745.6242,-72.937C1734.1549,-63.6584 1719.7853,-52.0336 1707.2215,-41.8696"/>
<polygon fill="#757575" stroke="#757575" points="1709.2504,-39.0091 1699.2746,-35.4407 1704.8478,-44.4513 1709.2504,-39.0091"/>
</g>
<!-- page&#45;header&#45;&gt;scroll&#45;container -->
<g id="edge20" class="edge">
<title>page&#45;header&#45;&gt;scroll&#45;container</title>
<path fill="none" stroke="#757575" d="M1788.0183,-72.5708C1799.2846,-63.353 1813.2848,-51.8983 1825.5453,-41.8669"/>
<polygon fill="#757575" stroke="#757575" points="1827.7816,-44.5595 1833.3048,-35.5182 1823.3489,-39.1418 1827.7816,-44.5595"/>
</g>
<!-- popover -->
<g id="node21" class="node">
<title>popover</title>
<ellipse fill="#efefef" stroke="#000000" cx="357.716" cy="-90" rx="45.8426" ry="18"/>
<text text-anchor="middle" x="357.716" y="-85.8" font-family="Arial" font-size="14.00" fill="#000000">popover</text>
</g>
<!-- popup&#45;confirm -->
<g id="node22" class="node">
<title>popup&#45;confirm</title>
<ellipse fill="#efefef" stroke="#000000" cx="494.716" cy="-90" rx="72.9857" ry="18"/>
<text text-anchor="middle" x="494.716" y="-85.8" font-family="Arial" font-size="14.00" fill="#000000">popup&#45;confirm</text>
</g>
<!-- popups&#45;modals&#45;shell -->
<g id="node23" class="node">
<title>popups&#45;modals&#45;shell</title>
<ellipse fill="#efefef" stroke="#000000" cx="494.716" cy="-162" rx="100.2129" ry="18"/>
<text text-anchor="middle" x="494.716" y="-157.8" font-family="Arial" font-size="14.00" fill="#000000">popups&#45;modals&#45;shell</text>
</g>
<!-- popups&#45;modals&#45;shell&#45;&gt;gdk -->
<g id="edge21" class="edge">
<title>popups&#45;modals&#45;shell&#45;&gt;gdk</title>
<path fill="none" stroke="#757575" d="M523.2805,-144.5708C541.686,-133.3404 565.5331,-118.7895 583.9735,-107.5378"/>
<polygon fill="#757575" stroke="#757575" points="585.8309,-110.5046 592.5442,-102.3082 582.1848,-104.5292 585.8309,-110.5046"/>
</g>
<!-- popups&#45;modals&#45;shell&#45;&gt;countdown&#45;button -->
<g id="edge22" class="edge">
<title>popups&#45;modals&#45;shell&#45;&gt;countdown&#45;button</title>
<path fill="none" stroke="#757575" d="M435.8842,-147.3429C388.1744,-135.4568 320.9643,-118.7124 271.4837,-106.385"/>
<polygon fill="#757575" stroke="#757575" points="272.0712,-102.9245 261.5217,-103.9032 270.379,-109.7169 272.0712,-102.9245"/>
</g>
<!-- popups&#45;modals&#45;shell&#45;&gt;popover -->
<g id="edge23" class="edge">
<title>popups&#45;modals&#45;shell&#45;&gt;popover</title>
<path fill="none" stroke="#757575" d="M462.2489,-144.937C441.8466,-134.2146 415.4826,-120.3591 394.3357,-109.2454"/>
<polygon fill="#757575" stroke="#757575" points="395.8069,-106.0647 385.3267,-104.5107 392.5504,-112.2611 395.8069,-106.0647"/>
</g>
<!-- popups&#45;modals&#45;shell&#45;&gt;popup&#45;confirm -->
<g id="edge24" class="edge">
<title>popups&#45;modals&#45;shell&#45;&gt;popup&#45;confirm</title>
<path fill="none" stroke="#757575" d="M494.716,-143.8314C494.716,-136.131 494.716,-126.9743 494.716,-118.4166"/>
<polygon fill="#757575" stroke="#757575" points="498.2161,-118.4132 494.716,-108.4133 491.2161,-118.4133 498.2161,-118.4132"/>
</g>
<!-- presentational&#45;shell -->
<g id="node24" class="node">
<title>presentational&#45;shell</title>
<ellipse fill="#efefef" stroke="#000000" cx="987.716" cy="-162" rx="94.9903" ry="18"/>
<text text-anchor="middle" x="987.716" y="-157.8" font-family="Arial" font-size="14.00" fill="#000000">presentational&#45;shell</text>
</g>
<!-- presentational&#45;shell&#45;&gt;arrow&#45;variation -->
<g id="edge26" class="edge">
<title>presentational&#45;shell&#45;&gt;arrow&#45;variation</title>
<path fill="none" stroke="#757575" d="M987.716,-143.8314C987.716,-136.131 987.716,-126.9743 987.716,-118.4166"/>
<polygon fill="#757575" stroke="#757575" points="991.2161,-118.4132 987.716,-108.4133 984.2161,-118.4133 991.2161,-118.4132"/>
</g>
<!-- presentational&#45;shell&#45;&gt;gdk -->
<g id="edge25" class="edge">
<title>presentational&#45;shell&#45;&gt;gdk</title>
<path fill="none" stroke="#757575" d="M899.2626,-155.3611C829.8322,-148.3845 731.4157,-134.5645 648.716,-108 646.8199,-107.3909 644.8998,-106.6944 642.9846,-105.9374"/>
<polygon fill="#757575" stroke="#757575" points="644.143,-102.6226 633.5822,-101.7738 641.3086,-109.0231 644.143,-102.6226"/>
</g>
<!-- presentational&#45;shell&#45;&gt;pipes -->
<g id="edge28" class="edge">
<title>presentational&#45;shell&#45;&gt;pipes</title>
<path fill="none" stroke="#757575" d="M1061.6836,-150.6565C1111.661,-141.842 1178.6756,-127.7666 1235.716,-108 1243.4601,-105.3164 1335.2273,-60.2023 1386.5318,-34.8904"/>
<polygon fill="#757575" stroke="#757575" points="1388.193,-37.9737 1395.6112,-30.4092 1385.0948,-31.6966 1388.193,-37.9737"/>
</g>
<!-- presentational&#45;shell&#45;&gt;data&#45;formatter -->
<g id="edge27" class="edge">
<title>presentational&#45;shell&#45;&gt;data&#45;formatter</title>
<path fill="none" stroke="#757575" d="M1060.7092,-150.4667C1125.4592,-140.0399 1222.5504,-123.9256 1306.716,-108 1313.723,-106.6742 1321.0387,-105.2323 1328.3169,-103.761"/>
<polygon fill="#757575" stroke="#757575" points="1329.0889,-107.1756 1338.1858,-101.7445 1327.6875,-100.3173 1329.0889,-107.1756"/>
</g>
<!-- sort&#45;header -->
<g id="node25" class="node">
<title>sort&#45;header</title>
<ellipse fill="#efefef" stroke="#000000" cx="1917.716" cy="-162" rx="60.3058" ry="18"/>
<text text-anchor="middle" x="1917.716" y="-157.8" font-family="Arial" font-size="14.00" fill="#000000">sort&#45;header</text>
</g>
<!-- sort&#45;header&#45;&gt;icon -->
<g id="edge29" class="edge">
<title>sort&#45;header&#45;&gt;icon</title>
<path fill="none" stroke="#757575" d="M1917.716,-143.8314C1917.716,-136.131 1917.716,-126.9743 1917.716,-118.4166"/>
<polygon fill="#757575" stroke="#757575" points="1921.2161,-118.4132 1917.716,-108.4133 1914.2161,-118.4133 1921.2161,-118.4132"/>
</g>
<!-- widgets&#45;system -->
<g id="node26" class="node">
<title>widgets&#45;system</title>
<polygon fill="none" stroke="#000000" points="774.1629,-252 661.2691,-252 661.2691,-216 774.1629,-216 774.1629,-252"/>
<text text-anchor="middle" x="717.716" y="-229.8" font-family="Arial" font-size="14.00" fill="#000000">widgets&#45;system</text>
</g>
<!-- widgets&#45;system&#45;&gt;buttons&#45;indicators&#45;shell -->
<g id="edge30" class="edge">
<title>widgets&#45;system&#45;&gt;buttons&#45;indicators&#45;shell</title>
<path fill="none" stroke="#757575" stroke-dasharray="1,5" d="M661.4584,-226.0888C574.26,-213.8265 405.509,-190.0959 299.6186,-175.2051"/>
<polygon fill="#757575" stroke="#757575" points="299.9622,-171.719 289.5722,-173.7923 298.9874,-178.6508 299.9622,-171.719"/>
</g>
<!-- widgets&#45;system&#45;&gt;controls&#45;shell -->
<g id="edge31" class="edge">
<title>widgets&#45;system&#45;&gt;controls&#45;shell</title>
<path fill="none" stroke="#757575" stroke-dasharray="1,5" d="M717.716,-215.8314C717.716,-208.131 717.716,-198.9743 717.716,-190.4166"/>
<polygon fill="#757575" stroke="#757575" points="721.2161,-190.4132 717.716,-180.4133 714.2161,-190.4133 721.2161,-190.4132"/>
</g>
<!-- widgets&#45;system&#45;&gt;layout&#45;shell -->
<g id="edge32" class="edge">
<title>widgets&#45;system&#45;&gt;layout&#45;shell</title>
<path fill="none" stroke="#757575" stroke-dasharray="1,5" d="M774.2084,-229.1921C924.3625,-216.4131 1332.9797,-181.6371 1495.613,-167.796"/>
<polygon fill="#757575" stroke="#757575" points="1496.2971,-171.2505 1505.9642,-166.915 1495.7034,-164.2757 1496.2971,-171.2505"/>
</g>
<!-- widgets&#45;system&#45;&gt;popups&#45;modals&#45;shell -->
<g id="edge33" class="edge">
<title>widgets&#45;system&#45;&gt;popups&#45;modals&#45;shell</title>
<path fill="none" stroke="#757575" stroke-dasharray="1,5" d="M661.7315,-215.9243C628.6174,-205.2327 586.7325,-191.7094 553.1919,-180.8801"/>
<polygon fill="#757575" stroke="#757575" points="554.1114,-177.4991 543.5197,-177.7572 551.9606,-184.1605 554.1114,-177.4991"/>
</g>
<!-- widgets&#45;system&#45;&gt;presentational&#45;shell -->
<g id="edge34" class="edge">
<title>widgets&#45;system&#45;&gt;presentational&#45;shell</title>
<path fill="none" stroke="#757575" stroke-dasharray="1,5" d="M773.9882,-218.9941C817.3275,-207.4369 877.3064,-191.4426 922.6969,-179.3384"/>
<polygon fill="#757575" stroke="#757575" points="923.6801,-182.6986 932.4406,-176.7401 921.8764,-175.935 923.6801,-182.6986"/>
</g>
<!-- widgets&#45;system&#45;e2e -->
<g id="node27" class="node">
<title>widgets&#45;system&#45;e2e</title>
<polygon fill="none" stroke="#000000" points="788.1711,-324 647.2609,-324 647.2609,-288 788.1711,-288 788.1711,-324"/>
<text text-anchor="middle" x="717.716" y="-301.8" font-family="Arial" font-size="14.00" fill="#000000">widgets&#45;system&#45;e2e</text>
</g>
<!-- widgets&#45;system&#45;e2e&#45;&gt;widgets&#45;system -->
<g id="edge35" class="edge">
<title>widgets&#45;system&#45;e2e&#45;&gt;widgets&#45;system</title>
<path fill="none" stroke="#000000" stroke-width="2" d="M717.716,-287.8314C717.716,-280.131 717.716,-270.9743 717.716,-262.4166"/>
<polygon fill="#000000" stroke="#000000" stroke-width="2" points="721.2161,-262.4132 717.716,-252.4133 714.2161,-262.4133 721.2161,-262.4132"/>
</g>
</g>
</svg>
