<?xml version="1.0" encoding="UTF-8" standalone="no"?>
<!DOCTYPE svg PUBLIC "-//W3C//DTD SVG 1.1//EN"
 "http://www.w3.org/Graphics/SVG/1.1/DTD/svg11.dtd">
<!-- Generated by graphviz version 2.40.1 (20161225.0304)
 -->
<!-- Title: G Pages: 1 -->
<svg width="1595pt" height="340pt"
 viewBox="0.00 0.00 1595.07 339.98" xmlns="http://www.w3.org/2000/svg" xmlns:xlink="http://www.w3.org/1999/xlink">
<g id="graph0" class="graph" transform="scale(1 1) rotate(0) translate(7.992 331.992)">
<title>G</title>
<polygon fill="#ffffff" stroke="transparent" points="-7.992,7.992 -7.992,-331.992 1587.0731,-331.992 1587.0731,7.992 -7.992,7.992"/>
<!-- arrow&#45;variation -->
<g id="node1" class="node">
<title>arrow&#45;variation</title>
<ellipse fill="#efefef" stroke="#000000" cx="213.4018" cy="-90" rx="74.7496" ry="18"/>
<text text-anchor="middle" x="213.4018" y="-85.8" font-family="Arial" font-size="14.00" fill="#000000">arrow&#45;variation</text>
</g>
<!-- button -->
<g id="node2" class="node">
<title>button</title>
<ellipse fill="#efefef" stroke="#000000" cx="710.4018" cy="-18" rx="37.7544" ry="18"/>
<text text-anchor="middle" x="710.4018" y="-13.8" font-family="Arial" font-size="14.00" fill="#000000">button</text>
</g>
<!-- buttons&#45;indicators&#45;shell -->
<g id="node3" class="node">
<title>buttons&#45;indicators&#45;shell</title>
<ellipse fill="#efefef" stroke="#000000" cx="601.4018" cy="-162" rx="110.1008" ry="18"/>
<text text-anchor="middle" x="601.4018" y="-157.8" font-family="Arial" font-size="14.00" fill="#000000">buttons&#45;indicators&#45;shell</text>
</g>
<!-- buttons&#45;indicators&#45;shell&#45;&gt;button -->
<g id="edge2" class="edge">
<title>buttons&#45;indicators&#45;shell&#45;&gt;button</title>
<path fill="none" stroke="#757575" d="M614.9864,-144.0535C634.2048,-118.6639 669.4198,-72.1415 691.2744,-43.2693"/>
<polygon fill="#757575" stroke="#757575" points="694.0828,-45.3583 697.3275,-35.2725 688.5014,-41.1335 694.0828,-45.3583"/>
</g>
<!-- gdk -->
<g id="node4" class="node">
<title>gdk</title>
<ellipse fill="#efefef" stroke="#000000" cx="495.4018" cy="-90" rx="27" ry="18"/>
<text text-anchor="middle" x="495.4018" y="-85.8" font-family="Arial" font-size="14.00" fill="#000000">gdk</text>
</g>
<!-- buttons&#45;indicators&#45;shell&#45;&gt;gdk -->
<g id="edge1" class="edge">
<title>buttons&#45;indicators&#45;shell&#45;&gt;gdk</title>
<path fill="none" stroke="#757575" d="M575.4713,-144.3868C559.5432,-133.5677 539.1564,-119.7201 522.9405,-108.7055"/>
<polygon fill="#757575" stroke="#757575" points="524.6544,-105.6386 514.4156,-102.915 520.7212,-111.4291 524.6544,-105.6386"/>
</g>
<!-- countdown&#45;button -->
<g id="node5" class="node">
<title>countdown&#45;button</title>
<ellipse fill="#efefef" stroke="#000000" cx="768.4018" cy="-90" rx="87.5707" ry="18"/>
<text text-anchor="middle" x="768.4018" y="-85.8" font-family="Arial" font-size="14.00" fill="#000000">countdown&#45;button</text>
</g>
<!-- buttons&#45;indicators&#45;shell&#45;&gt;countdown&#45;button -->
<g id="edge3" class="edge">
<title>buttons&#45;indicators&#45;shell&#45;&gt;countdown&#45;button</title>
<path fill="none" stroke="#757575" d="M640.5559,-145.1192C664.6628,-134.7258 695.7169,-121.3372 721.1822,-110.3582"/>
<polygon fill="#757575" stroke="#757575" points="722.8451,-113.4527 730.6423,-106.2796 720.0737,-107.0247 722.8451,-113.4527"/>
</g>
<!-- loading -->
<g id="node6" class="node">
<title>loading</title>
<ellipse fill="#efefef" stroke="#000000" cx="582.4018" cy="-90" rx="42.3281" ry="18"/>
<text text-anchor="middle" x="582.4018" y="-85.8" font-family="Arial" font-size="14.00" fill="#000000">loading</text>
</g>
<!-- buttons&#45;indicators&#45;shell&#45;&gt;loading -->
<g id="edge4" class="edge">
<title>buttons&#45;indicators&#45;shell&#45;&gt;loading</title>
<path fill="none" stroke="#757575" d="M596.6073,-143.8314C594.5214,-135.9266 592.0304,-126.4872 589.7212,-117.7365"/>
<polygon fill="#757575" stroke="#757575" points="593.0648,-116.6894 587.129,-107.9134 586.2965,-118.4755 593.0648,-116.6894"/>
</g>
<!-- countdown&#45;button&#45;&gt;button -->
<g id="edge8" class="edge">
<title>countdown&#45;button&#45;&gt;button</title>
<path fill="none" stroke="#757575" d="M754.0648,-72.2022C747.0076,-63.4416 738.3782,-52.7293 730.6601,-43.1482"/>
<polygon fill="#757575" stroke="#757575" points="733.1736,-40.6891 724.1746,-35.0972 727.7223,-45.0805 733.1736,-40.6891"/>
</g>
<!-- card&#45;container -->
<g id="node7" class="node">
<title>card&#45;container</title>
<ellipse fill="#efefef" stroke="#000000" cx="1224.4018" cy="-90" rx="72.9857" ry="18"/>
<text text-anchor="middle" x="1224.4018" y="-85.8" font-family="Arial" font-size="14.00" fill="#000000">card&#45;container</text>
</g>
<!-- section&#45;title -->
<g id="node8" class="node">
<title>section&#45;title</title>
<ellipse fill="#efefef" stroke="#000000" cx="1109.4018" cy="-18" rx="59.7224" ry="18"/>
<text text-anchor="middle" x="1109.4018" y="-13.8" font-family="Arial" font-size="14.00" fill="#000000">section&#45;title</text>
</g>
<!-- card&#45;container&#45;&gt;section&#45;title -->
<g id="edge5" class="edge">
<title>card&#45;container&#45;&gt;section&#45;title</title>
<path fill="none" stroke="#757575" d="M1197.4395,-73.1192C1181.4971,-63.1379 1161.1425,-50.3942 1144.0218,-39.6751"/>
<polygon fill="#757575" stroke="#757575" points="1145.7371,-36.6197 1135.404,-34.2796 1142.0225,-42.5528 1145.7371,-36.6197"/>
</g>
<!-- controls&#45;shell -->
<g id="node9" class="node">
<title>controls&#45;shell</title>
<ellipse fill="#efefef" stroke="#000000" cx="197.4018" cy="-162" rx="67.8107" ry="18"/>
<text text-anchor="middle" x="197.4018" y="-157.8" font-family="Arial" font-size="14.00" fill="#000000">controls&#45;shell</text>
</g>
<!-- controls&#45;shell&#45;&gt;gdk -->
<g id="edge6" class="edge">
<title>controls&#45;shell&#45;&gt;gdk</title>
<path fill="none" stroke="#757575" d="M247.8724,-149.9166C256.7021,-147.8842 265.8103,-145.8395 274.4018,-144 356.3101,-126.4633 380.1008,-134.9784 459.4018,-108 461.2872,-107.3586 463.199,-106.6369 465.1079,-105.8608"/>
<polygon fill="#757575" stroke="#757575" points="466.8049,-108.9355 474.4933,-101.6458 463.9371,-102.5498 466.8049,-108.9355"/>
</g>
<!-- slide&#45;toggle -->
<g id="node10" class="node">
<title>slide&#45;toggle</title>
<ellipse fill="#efefef" stroke="#000000" cx="60.4018" cy="-90" rx="60.3038" ry="18"/>
<text text-anchor="middle" x="60.4018" y="-85.8" font-family="Arial" font-size="14.00" fill="#000000">slide&#45;toggle</text>
</g>
<!-- controls&#45;shell&#45;&gt;slide&#45;toggle -->
<g id="edge7" class="edge">
<title>controls&#45;shell&#45;&gt;slide&#45;toggle</title>
<path fill="none" stroke="#757575" d="M166.6564,-145.8418C146.8646,-135.4403 120.9577,-121.825 99.6802,-110.6426"/>
<polygon fill="#757575" stroke="#757575" points="101.0533,-107.4104 90.573,-105.8564 97.7968,-113.6068 101.0533,-107.4104"/>
</g>
<!-- data&#45;formatter -->
<g id="node11" class="node">
<title>data&#45;formatter</title>
<ellipse fill="#efefef" stroke="#000000" cx="378.4018" cy="-90" rx="71.8376" ry="18"/>
<text text-anchor="middle" x="378.4018" y="-85.8" font-family="Arial" font-size="14.00" fill="#000000">data&#45;formatter</text>
</g>
<!-- directives -->
<g id="node12" class="node">
<title>directives</title>
<ellipse fill="#efefef" stroke="#000000" cx="741.4018" cy="-306" rx="51.6227" ry="18"/>
<text text-anchor="middle" x="741.4018" y="-301.8" font-family="Arial" font-size="14.00" fill="#000000">directives</text>
</g>
<!-- enhanced&#45;title -->
<g id="node13" class="node">
<title>enhanced&#45;title</title>
<ellipse fill="#efefef" stroke="#000000" cx="1507.4018" cy="-18" rx="71.8589" ry="18"/>
<text text-anchor="middle" x="1507.4018" y="-13.8" font-family="Arial" font-size="14.00" fill="#000000">enhanced&#45;title</text>
</g>
<!-- icon -->
<g id="node14" class="node">
<title>icon</title>
<ellipse fill="#efefef" stroke="#000000" cx="1105.4018" cy="-90" rx="28.991" ry="18"/>
<text text-anchor="middle" x="1105.4018" y="-85.8" font-family="Arial" font-size="14.00" fill="#000000">icon</text>
</g>
<!-- layout&#45;shell -->
<g id="node15" class="node">
<title>layout&#45;shell</title>
<ellipse fill="#efefef" stroke="#000000" cx="1164.4018" cy="-162" rx="59.7244" ry="18"/>
<text text-anchor="middle" x="1164.4018" y="-157.8" font-family="Arial" font-size="14.00" fill="#000000">layout&#45;shell</text>
</g>
<!-- layout&#45;shell&#45;&gt;gdk -->
<g id="edge9" class="edge">
<title>layout&#45;shell&#45;&gt;gdk</title>
<path fill="none" stroke="#757575" d="M1106.3333,-157.3371C952.4912,-144.9457 545.1707,-111.8756 531.4018,-108 529.2704,-107.4001 527.1151,-106.6729 524.9744,-105.8591"/>
<polygon fill="#757575" stroke="#757575" points="526.3685,-102.6487 515.8028,-101.8634 523.5726,-109.0662 526.3685,-102.6487"/>
</g>
<!-- layout&#45;shell&#45;&gt;card&#45;container -->
<g id="edge10" class="edge">
<title>layout&#45;shell&#45;&gt;card&#45;container</title>
<path fill="none" stroke="#757575" d="M1179.2333,-144.2022C1186.3728,-135.6348 1195.0677,-125.2009 1202.9153,-115.7839"/>
<polygon fill="#757575" stroke="#757575" points="1205.82,-117.7654 1209.5331,-107.8425 1200.4424,-113.2841 1205.82,-117.7654"/>
</g>
<!-- layout&#45;shell&#45;&gt;section&#45;title -->
<g id="edge15" class="edge">
<title>layout&#45;shell&#45;&gt;section&#45;title</title>
<path fill="none" stroke="#757575" d="M1121.2844,-149.3541C1101.1684,-141.0506 1079.1224,-127.9391 1067.4018,-108 1055.0509,-86.9884 1069.144,-61.7414 1084.2442,-43.3421"/>
<polygon fill="#757575" stroke="#757575" points="1087.2268,-45.2471 1091.1616,-35.41 1081.9511,-40.6463 1087.2268,-45.2471"/>
</g>
<!-- layout&#45;shell&#45;&gt;enhanced&#45;title -->
<g id="edge11" class="edge">
<title>layout&#45;shell&#45;&gt;enhanced&#45;title</title>
<path fill="none" stroke="#757575" d="M1224.3569,-160.4224C1309.1132,-156.8696 1457.7538,-145.3416 1494.4018,-108 1510.0555,-92.0501 1512.3724,-66.2205 1511.3155,-46.3143"/>
<polygon fill="#757575" stroke="#757575" points="1514.7951,-45.922 1510.4767,-36.2473 1507.8193,-46.5034 1514.7951,-45.922"/>
</g>
<!-- layout&#45;shell&#45;&gt;icon -->
<g id="edge12" class="edge">
<title>layout&#45;shell&#45;&gt;icon</title>
<path fill="none" stroke="#757575" d="M1149.8176,-144.2022C1142.3529,-135.0928 1133.1591,-123.8733 1125.0763,-114.0096"/>
<polygon fill="#757575" stroke="#757575" points="1127.6559,-111.6354 1118.6105,-106.119 1122.2415,-116.0722 1127.6559,-111.6354"/>
</g>
<!-- page&#45;header -->
<g id="node16" class="node">
<title>page&#45;header</title>
<ellipse fill="#efefef" stroke="#000000" cx="1419.4018" cy="-90" rx="65.5623" ry="18"/>
<text text-anchor="middle" x="1419.4018" y="-85.8" font-family="Arial" font-size="14.00" fill="#000000">page&#45;header</text>
</g>
<!-- layout&#45;shell&#45;&gt;page&#45;header -->
<g id="edge13" class="edge">
<title>layout&#45;shell&#45;&gt;page&#45;header</title>
<path fill="none" stroke="#757575" d="M1208.2379,-149.6228C1251.3114,-137.4608 1317.1932,-118.8589 1363.8995,-105.6713"/>
<polygon fill="#757575" stroke="#757575" points="1364.8872,-109.0293 1373.5599,-102.9436 1362.9851,-102.2927 1364.8872,-109.0293"/>
</g>
<!-- scroll&#45;container -->
<g id="node17" class="node">
<title>scroll&#45;container</title>
<ellipse fill="#efefef" stroke="#000000" cx="1330.4018" cy="-18" rx="76.4768" ry="18"/>
<text text-anchor="middle" x="1330.4018" y="-13.8" font-family="Arial" font-size="14.00" fill="#000000">scroll&#45;container</text>
</g>
<!-- layout&#45;shell&#45;&gt;scroll&#45;container -->
<g id="edge14" class="edge">
<title>layout&#45;shell&#45;&gt;scroll&#45;container</title>
<path fill="none" stroke="#757575" d="M1218.0917,-153.8847C1248.0101,-146.6722 1283.6993,-133.1649 1306.4018,-108 1321.5736,-91.1827 1327.328,-65.827 1329.4283,-46.31"/>
<polygon fill="#757575" stroke="#757575" points="1332.9316,-46.4106 1330.2559,-36.1593 1325.9548,-45.8418 1332.9316,-46.4106"/>
</g>
<!-- page&#45;header&#45;&gt;enhanced&#45;title -->
<g id="edge16" class="edge">
<title>page&#45;header&#45;&gt;enhanced&#45;title</title>
<path fill="none" stroke="#757575" d="M1440.7042,-72.5708C1452.0539,-63.2847 1466.1782,-51.7285 1478.5033,-41.6442"/>
<polygon fill="#757575" stroke="#757575" points="1480.7724,-44.31 1486.2957,-35.2687 1476.3397,-38.8922 1480.7724,-44.31"/>
</g>
<!-- page&#45;header&#45;&gt;scroll&#45;container -->
<g id="edge17" class="edge">
<title>page&#45;header&#45;&gt;scroll&#45;container</title>
<path fill="none" stroke="#757575" d="M1398.3101,-72.937C1386.8407,-63.6584 1372.4711,-52.0336 1359.9073,-41.8696"/>
<polygon fill="#757575" stroke="#757575" points="1361.9363,-39.0091 1351.9605,-35.4407 1357.5336,-44.4513 1361.9363,-39.0091"/>
</g>
<!-- pipes -->
<g id="node18" class="node">
<title>pipes</title>
<ellipse fill="#efefef" stroke="#000000" cx="845.4018" cy="-306" rx="34.2259" ry="18"/>
<text text-anchor="middle" x="845.4018" y="-301.8" font-family="Arial" font-size="14.00" fill="#000000">pipes</text>
</g>
<!-- popup&#45;confirm -->
<g id="node19" class="node">
<title>popup&#45;confirm</title>
<ellipse fill="#efefef" stroke="#000000" cx="947.4018" cy="-90" rx="72.9857" ry="18"/>
<text text-anchor="middle" x="947.4018" y="-85.8" font-family="Arial" font-size="14.00" fill="#000000">popup&#45;confirm</text>
</g>
<!-- popups&#45;modals&#45;shell -->
<g id="node20" class="node">
<title>popups&#45;modals&#45;shell</title>
<ellipse fill="#efefef" stroke="#000000" cx="829.4018" cy="-162" rx="100.2129" ry="18"/>
<text text-anchor="middle" x="829.4018" y="-157.8" font-family="Arial" font-size="14.00" fill="#000000">popups&#45;modals&#45;shell</text>
</g>
<!-- popups&#45;modals&#45;shell&#45;&gt;gdk -->
<g id="edge18" class="edge">
<title>popups&#45;modals&#45;shell&#45;&gt;gdk</title>
<path fill="none" stroke="#757575" d="M755.7618,-149.7785C674.5068,-136.1154 552.3849,-114.9875 531.4018,-108 529.5124,-107.3708 527.5974,-106.6586 525.686,-105.8897"/>
<polygon fill="#757575" stroke="#757575" points="526.8521,-102.5772 516.2941,-101.6941 523.9969,-108.9685 526.8521,-102.5772"/>
</g>
<!-- popups&#45;modals&#45;shell&#45;&gt;countdown&#45;button -->
<g id="edge19" class="edge">
<title>popups&#45;modals&#45;shell&#45;&gt;countdown&#45;button</title>
<path fill="none" stroke="#757575" d="M814.3232,-144.2022C806.9914,-135.5483 798.0461,-124.99 790.005,-115.4988"/>
<polygon fill="#757575" stroke="#757575" points="792.6531,-113.2099 783.5184,-107.8425 787.3122,-117.7349 792.6531,-113.2099"/>
</g>
<!-- popups&#45;modals&#45;shell&#45;&gt;popup&#45;confirm -->
<g id="edge20" class="edge">
<title>popups&#45;modals&#45;shell&#45;&gt;popup&#45;confirm</title>
<path fill="none" stroke="#757575" d="M857.9664,-144.5708C873.9973,-134.7892 894.1565,-122.4887 911.2757,-112.0431"/>
<polygon fill="#757575" stroke="#757575" points="913.1995,-114.9693 919.9129,-106.7729 909.5535,-108.9939 913.1995,-114.9693"/>
</g>
<!-- presentational&#45;shell -->
<g id="node21" class="node">
<title>presentational&#45;shell</title>
<ellipse fill="#efefef" stroke="#000000" cx="378.4018" cy="-162" rx="94.9903" ry="18"/>
<text text-anchor="middle" x="378.4018" y="-157.8" font-family="Arial" font-size="14.00" fill="#000000">presentational&#45;shell</text>
</g>
<!-- presentational&#45;shell&#45;&gt;arrow&#45;variation -->
<g id="edge22" class="edge">
<title>presentational&#45;shell&#45;&gt;arrow&#45;variation</title>
<path fill="none" stroke="#757575" d="M340.5475,-145.4817C316.3345,-134.9161 284.7794,-121.1466 259.1629,-109.9685"/>
<polygon fill="#757575" stroke="#757575" points="260.2288,-106.6149 249.6636,-105.8233 257.4292,-113.0307 260.2288,-106.6149"/>
</g>
<!-- presentational&#45;shell&#45;&gt;gdk -->
<g id="edge21" class="edge">
<title>presentational&#45;shell&#45;&gt;gdk</title>
<path fill="none" stroke="#757575" d="M406.4263,-144.7542C424.6689,-133.528 448.3971,-118.926 466.7614,-107.6249"/>
<polygon fill="#757575" stroke="#757575" points="468.6159,-110.5933 475.2982,-102.3715 464.9472,-104.6317 468.6159,-110.5933"/>
</g>
<!-- presentational&#45;shell&#45;&gt;data&#45;formatter -->
<g id="edge23" class="edge">
<title>presentational&#45;shell&#45;&gt;data&#45;formatter</title>
<path fill="none" stroke="#757575" d="M378.4018,-143.8314C378.4018,-136.131 378.4018,-126.9743 378.4018,-118.4166"/>
<polygon fill="#757575" stroke="#757575" points="381.9019,-118.4132 378.4018,-108.4133 374.9019,-118.4133 381.9019,-118.4132"/>
</g>
<!-- widgets&#45;system -->
<g id="node22" class="node">
<title>widgets&#45;system</title>
<polygon fill="none" stroke="#000000" points="657.8487,-252 544.955,-252 544.955,-216 657.8487,-216 657.8487,-252"/>
<text text-anchor="middle" x="601.4018" y="-229.8" font-family="Arial" font-size="14.00" fill="#000000">widgets&#45;system</text>
</g>
<!-- widgets&#45;system&#45;&gt;buttons&#45;indicators&#45;shell -->
<g id="edge24" class="edge">
<title>widgets&#45;system&#45;&gt;buttons&#45;indicators&#45;shell</title>
<path fill="none" stroke="#757575" stroke-dasharray="1,5" d="M601.4018,-215.8314C601.4018,-208.131 601.4018,-198.9743 601.4018,-190.4166"/>
<polygon fill="#757575" stroke="#757575" points="604.9019,-190.4132 601.4018,-180.4133 597.9019,-190.4133 604.9019,-190.4132"/>
</g>
<!-- widgets&#45;system&#45;&gt;controls&#45;shell -->
<g id="edge25" class="edge">
<title>widgets&#45;system&#45;&gt;controls&#45;shell</title>
<path fill="none" stroke="#757575" stroke-dasharray="1,5" d="M545.071,-225.8529C479.7447,-216.1376 368.9233,-198.8312 274.4018,-180 268.9322,-178.9103 263.2594,-177.7131 257.5857,-176.4701"/>
<polygon fill="#757575" stroke="#757575" points="257.9385,-172.9626 247.4157,-174.1963 256.4111,-179.794 257.9385,-172.9626"/>
</g>
<!-- widgets&#45;system&#45;&gt;layout&#45;shell -->
<g id="edge26" class="edge">
<title>widgets&#45;system&#45;&gt;layout&#45;shell</title>
<path fill="none" stroke="#757575" stroke-dasharray="1,5" d="M657.7022,-226.8C762.6203,-213.3824 987.4785,-184.6261 1098.9631,-170.3687"/>
<polygon fill="#757575" stroke="#757575" points="1099.5905,-173.8171 1109.0657,-169.0767 1098.7025,-166.8736 1099.5905,-173.8171"/>
</g>
<!-- widgets&#45;system&#45;&gt;popups&#45;modals&#45;shell -->
<g id="edge27" class="edge">
<title>widgets&#45;system&#45;&gt;popups&#45;modals&#45;shell</title>
<path fill="none" stroke="#757575" stroke-dasharray="1,5" d="M657.7614,-216.2022C691.7277,-205.4761 734.9583,-191.8243 769.5356,-180.9051"/>
<polygon fill="#757575" stroke="#757575" points="771.0232,-184.1058 779.505,-177.7569 768.9152,-177.4307 771.0232,-184.1058"/>
</g>
<!-- widgets&#45;system&#45;&gt;presentational&#45;shell -->
<g id="edge28" class="edge">
<title>widgets&#45;system&#45;&gt;presentational&#45;shell</title>
<path fill="none" stroke="#757575" stroke-dasharray="1,5" d="M545.4174,-215.9243C512.0684,-205.1569 469.8238,-191.5174 436.1654,-180.6501"/>
<polygon fill="#757575" stroke="#757575" points="437.0574,-177.2603 426.4657,-177.5184 434.9066,-183.9217 437.0574,-177.2603"/>
</g>
<!-- widgets&#45;system&#45;e2e -->
<g id="node23" class="node">
<title>widgets&#45;system&#45;e2e</title>
<polygon fill="none" stroke="#000000" points="671.857,-324 530.9467,-324 530.9467,-288 671.857,-288 671.857,-324"/>
<text text-anchor="middle" x="601.4018" y="-301.8" font-family="Arial" font-size="14.00" fill="#000000">widgets&#45;system&#45;e2e</text>
</g>
<!-- widgets&#45;system&#45;e2e&#45;&gt;widgets&#45;system -->
<g id="edge29" class="edge">
<title>widgets&#45;system&#45;e2e&#45;&gt;widgets&#45;system</title>
<path fill="none" stroke="#000000" stroke-width="2" d="M601.4018,-287.8314C601.4018,-280.131 601.4018,-270.9743 601.4018,-262.4166"/>
<polygon fill="#000000" stroke="#000000" stroke-width="2" points="604.9019,-262.4132 601.4018,-252.4133 597.9019,-262.4133 604.9019,-262.4132"/>
</g>
</g>
</svg>
