<?xml version="1.0" encoding="UTF-8" standalone="no"?>
<!DOCTYPE svg PUBLIC "-//W3C//DTD SVG 1.1//EN"
 "http://www.w3.org/Graphics/SVG/1.1/DTD/svg11.dtd">
<!-- Generated by graphviz version 2.40.1 (20161225.0304)
 -->
<!-- Title: G Pages: 1 -->
<svg width="1547pt" height="340pt"
 viewBox="0.00 0.00 1547.00 339.98" xmlns="http://www.w3.org/2000/svg" xmlns:xlink="http://www.w3.org/1999/xlink">
<g id="graph0" class="graph" transform="scale(1 1) rotate(0) translate(7.992 331.992)">
<title>G</title>
<polygon fill="#ffffff" stroke="transparent" points="-7.992,7.992 -7.992,-331.992 1539.0041,-331.992 1539.0041,7.992 -7.992,7.992"/>
<!-- arrow&#45;variation -->
<g id="node1" class="node">
<title>arrow&#45;variation</title>
<ellipse fill="#efefef" stroke="#000000" cx="922.5238" cy="-90" rx="74.7496" ry="18"/>
<text text-anchor="middle" x="922.5238" y="-85.8" font-family="Arial" font-size="14.00" fill="#000000">arrow&#45;variation</text>
</g>
<!-- button -->
<g id="node2" class="node">
<title>button</title>
<ellipse fill="#efefef" stroke="#000000" cx="96.5238" cy="-18" rx="37.7544" ry="18"/>
<text text-anchor="middle" x="96.5238" y="-13.8" font-family="Arial" font-size="14.00" fill="#000000">button</text>
</g>
<!-- buttons&#45;indicators&#45;shell -->
<g id="node3" class="node">
<title>buttons&#45;indicators&#45;shell</title>
<ellipse fill="#efefef" stroke="#000000" cx="162.5238" cy="-162" rx="110.1008" ry="18"/>
<text text-anchor="middle" x="162.5238" y="-157.8" font-family="Arial" font-size="14.00" fill="#000000">buttons&#45;indicators&#45;shell</text>
</g>
<!-- buttons&#45;indicators&#45;shell&#45;&gt;button -->
<g id="edge2" class="edge">
<title>buttons&#45;indicators&#45;shell&#45;&gt;button</title>
<path fill="none" stroke="#757575" d="M97.1705,-147.444C59.567,-137.599 17.6202,-123.5836 6.5238,-108 -2.7569,-94.9666 -1.3594,-85.9232 6.5238,-72 17.0741,-53.3661 36.9033,-40.4608 55.2694,-31.9513"/>
<polygon fill="#757575" stroke="#757575" points="56.8846,-35.0664 64.6834,-27.895 54.1146,-28.6378 56.8846,-35.0664"/>
</g>
<!-- gdk -->
<g id="node4" class="node">
<title>gdk</title>
<ellipse fill="#efefef" stroke="#000000" cx="502.5238" cy="-90" rx="27" ry="18"/>
<text text-anchor="middle" x="502.5238" y="-85.8" font-family="Arial" font-size="14.00" fill="#000000">gdk</text>
</g>
<!-- buttons&#45;indicators&#45;shell&#45;&gt;gdk -->
<g id="edge1" class="edge">
<title>buttons&#45;indicators&#45;shell&#45;&gt;gdk</title>
<path fill="none" stroke="#757575" d="M240.9944,-149.2627C323.8517,-135.6216 445.4055,-114.9919 466.5238,-108 468.4143,-107.3741 470.3301,-106.6644 472.2421,-105.8974"/>
<polygon fill="#757575" stroke="#757575" points="473.9291,-108.9774 481.6358,-101.707 471.0774,-102.5846 473.9291,-108.9774"/>
</g>
<!-- countdown&#45;button -->
<g id="node5" class="node">
<title>countdown&#45;button</title>
<ellipse fill="#efefef" stroke="#000000" cx="205.5238" cy="-90" rx="87.5707" ry="18"/>
<text text-anchor="middle" x="205.5238" y="-85.8" font-family="Arial" font-size="14.00" fill="#000000">countdown&#45;button</text>
</g>
<!-- buttons&#45;indicators&#45;shell&#45;&gt;countdown&#45;button -->
<g id="edge3" class="edge">
<title>buttons&#45;indicators&#45;shell&#45;&gt;countdown&#45;button</title>
<path fill="none" stroke="#757575" d="M173.3745,-143.8314C178.3007,-135.5829 184.2247,-125.6635 189.6381,-116.5992"/>
<polygon fill="#757575" stroke="#757575" points="192.7029,-118.2935 194.8255,-107.9134 186.6931,-114.7042 192.7029,-118.2935"/>
</g>
<!-- loading -->
<g id="node6" class="node">
<title>loading</title>
<ellipse fill="#efefef" stroke="#000000" cx="57.5238" cy="-90" rx="42.3281" ry="18"/>
<text text-anchor="middle" x="57.5238" y="-85.8" font-family="Arial" font-size="14.00" fill="#000000">loading</text>
</g>
<!-- buttons&#45;indicators&#45;shell&#45;&gt;loading -->
<g id="edge4" class="edge">
<title>buttons&#45;indicators&#45;shell&#45;&gt;loading</title>
<path fill="none" stroke="#757575" d="M136.8379,-144.3868C122.3227,-134.4336 104.0694,-121.917 88.734,-111.4013"/>
<polygon fill="#757575" stroke="#757575" points="90.3189,-108.2443 80.0922,-105.4755 86.3602,-114.0174 90.3189,-108.2443"/>
</g>
<!-- countdown&#45;button&#45;&gt;button -->
<g id="edge8" class="edge">
<title>countdown&#45;button&#45;&gt;button</title>
<path fill="none" stroke="#757575" d="M179.4155,-72.7542C163.7921,-62.4341 143.8499,-49.2613 127.4412,-38.4225"/>
<polygon fill="#757575" stroke="#757575" points="129.0117,-35.2653 118.7386,-32.674 125.1535,-41.1061 129.0117,-35.2653"/>
</g>
<!-- card&#45;container -->
<g id="node7" class="node">
<title>card&#45;container</title>
<ellipse fill="#efefef" stroke="#000000" cx="1126.5238" cy="-90" rx="72.9857" ry="18"/>
<text text-anchor="middle" x="1126.5238" y="-85.8" font-family="Arial" font-size="14.00" fill="#000000">card&#45;container</text>
</g>
<!-- section&#45;title -->
<g id="node8" class="node">
<title>section&#45;title</title>
<ellipse fill="#efefef" stroke="#000000" cx="1075.5238" cy="-18" rx="59.7224" ry="18"/>
<text text-anchor="middle" x="1075.5238" y="-13.8" font-family="Arial" font-size="14.00" fill="#000000">section&#45;title</text>
</g>
<!-- card&#45;container&#45;&gt;section&#45;title -->
<g id="edge5" class="edge">
<title>card&#45;container&#45;&gt;section&#45;title</title>
<path fill="none" stroke="#757575" d="M1113.917,-72.2022C1107.9097,-63.7214 1100.6069,-53.4115 1093.9897,-44.0696"/>
<polygon fill="#757575" stroke="#757575" points="1096.7985,-41.9797 1088.1622,-35.8425 1091.0864,-46.0259 1096.7985,-41.9797"/>
</g>
<!-- controls&#45;shell -->
<g id="node9" class="node">
<title>controls&#45;shell</title>
<ellipse fill="#efefef" stroke="#000000" cx="576.5238" cy="-162" rx="67.8107" ry="18"/>
<text text-anchor="middle" x="576.5238" y="-157.8" font-family="Arial" font-size="14.00" fill="#000000">controls&#45;shell</text>
</g>
<!-- controls&#45;shell&#45;&gt;gdk -->
<g id="edge6" class="edge">
<title>controls&#45;shell&#45;&gt;gdk</title>
<path fill="none" stroke="#757575" d="M558.6104,-144.5708C548.6975,-134.9258 536.2674,-122.8316 525.6299,-112.4816"/>
<polygon fill="#757575" stroke="#757575" points="527.8706,-109.7784 518.2625,-105.3134 522.9891,-114.7955 527.8706,-109.7784"/>
</g>
<!-- slide&#45;toggle -->
<g id="node10" class="node">
<title>slide&#45;toggle</title>
<ellipse fill="#efefef" stroke="#000000" cx="607.5238" cy="-90" rx="60.3038" ry="18"/>
<text text-anchor="middle" x="607.5238" y="-85.8" font-family="Arial" font-size="14.00" fill="#000000">slide&#45;toggle</text>
</g>
<!-- controls&#45;shell&#45;&gt;slide&#45;toggle -->
<g id="edge7" class="edge">
<title>controls&#45;shell&#45;&gt;slide&#45;toggle</title>
<path fill="none" stroke="#757575" d="M584.3464,-143.8314C587.8238,-135.7547 591.991,-126.0761 595.8269,-117.1668"/>
<polygon fill="#757575" stroke="#757575" points="599.0711,-118.4824 599.811,-107.9134 592.6417,-115.7141 599.0711,-118.4824"/>
</g>
<!-- data&#45;formatter -->
<g id="node11" class="node">
<title>data&#45;formatter</title>
<ellipse fill="#efefef" stroke="#000000" cx="757.5238" cy="-90" rx="71.8376" ry="18"/>
<text text-anchor="middle" x="757.5238" y="-85.8" font-family="Arial" font-size="14.00" fill="#000000">data&#45;formatter</text>
</g>
<!-- directives -->
<g id="node12" class="node">
<title>directives</title>
<ellipse fill="#efefef" stroke="#000000" cx="716.5238" cy="-306" rx="51.6227" ry="18"/>
<text text-anchor="middle" x="716.5238" y="-301.8" font-family="Arial" font-size="14.00" fill="#000000">directives</text>
</g>
<!-- enhanced&#45;title -->
<g id="node13" class="node">
<title>enhanced&#45;title</title>
<ellipse fill="#efefef" stroke="#000000" cx="1288.5238" cy="-90" rx="71.8589" ry="18"/>
<text text-anchor="middle" x="1288.5238" y="-85.8" font-family="Arial" font-size="14.00" fill="#000000">enhanced&#45;title</text>
</g>
<!-- layout&#45;shell -->
<g id="node14" class="node">
<title>layout&#45;shell</title>
<ellipse fill="#efefef" stroke="#000000" cx="1075.5238" cy="-162" rx="59.7244" ry="18"/>
<text text-anchor="middle" x="1075.5238" y="-157.8" font-family="Arial" font-size="14.00" fill="#000000">layout&#45;shell</text>
</g>
<!-- layout&#45;shell&#45;&gt;gdk -->
<g id="edge9" class="edge">
<title>layout&#45;shell&#45;&gt;gdk</title>
<path fill="none" stroke="#757575" d="M1017.9518,-156.7751C884.0496,-144.5461 561.305,-114.5986 538.5238,-108 536.397,-107.384 534.2451,-106.6447 532.1069,-105.822"/>
<polygon fill="#757575" stroke="#757575" points="533.5052,-102.6135 522.9411,-101.8059 530.6958,-109.025 533.5052,-102.6135"/>
</g>
<!-- layout&#45;shell&#45;&gt;card&#45;container -->
<g id="edge10" class="edge">
<title>layout&#45;shell&#45;&gt;card&#45;container</title>
<path fill="none" stroke="#757575" d="M1088.1305,-144.2022C1094.1378,-135.7214 1101.4406,-125.4115 1108.0578,-116.0696"/>
<polygon fill="#757575" stroke="#757575" points="1110.9612,-118.0259 1113.8853,-107.8425 1105.249,-113.9797 1110.9612,-118.0259"/>
</g>
<!-- layout&#45;shell&#45;&gt;section&#45;title -->
<g id="edge13" class="edge">
<title>layout&#45;shell&#45;&gt;section&#45;title</title>
<path fill="none" stroke="#757575" d="M1062.0519,-144.0653C1055.3583,-134.0261 1047.9771,-120.9519 1044.5238,-108 1040.4017,-92.5401 1040.4017,-87.4599 1044.5238,-72 1047.0598,-62.4884 1051.7142,-52.9109 1056.6589,-44.5179"/>
<polygon fill="#757575" stroke="#757575" points="1059.6952,-46.2641 1062.0519,-35.9347 1053.7681,-42.5399 1059.6952,-46.2641"/>
</g>
<!-- layout&#45;shell&#45;&gt;enhanced&#45;title -->
<g id="edge11" class="edge">
<title>layout&#45;shell&#45;&gt;enhanced&#45;title</title>
<path fill="none" stroke="#757575" d="M1115.5874,-148.4574C1149.6596,-136.94 1198.837,-120.3167 1236.0469,-107.7387"/>
<polygon fill="#757575" stroke="#757575" points="1237.3637,-110.9882 1245.7162,-104.4701 1235.122,-104.3568 1237.3637,-110.9882"/>
</g>
<!-- scroll&#45;container -->
<g id="node15" class="node">
<title>scroll&#45;container</title>
<ellipse fill="#efefef" stroke="#000000" cx="1454.5238" cy="-90" rx="76.4768" ry="18"/>
<text text-anchor="middle" x="1454.5238" y="-85.8" font-family="Arial" font-size="14.00" fill="#000000">scroll&#45;container</text>
</g>
<!-- layout&#45;shell&#45;&gt;scroll&#45;container -->
<g id="edge12" class="edge">
<title>layout&#45;shell&#45;&gt;scroll&#45;container</title>
<path fill="none" stroke="#757575" d="M1127.3847,-152.9117C1186.1866,-142.5055 1284.8854,-124.7314 1369.5238,-108 1375.5446,-106.8098 1381.7988,-105.5432 1388.06,-104.2546"/>
<polygon fill="#757575" stroke="#757575" points="1388.7915,-107.6775 1397.8723,-102.2194 1387.3698,-100.8234 1388.7915,-107.6775"/>
</g>
<!-- page&#45;header -->
<g id="node16" class="node">
<title>page&#45;header</title>
<ellipse fill="#efefef" stroke="#000000" cx="1371.5238" cy="-162" rx="65.5623" ry="18"/>
<text text-anchor="middle" x="1371.5238" y="-157.8" font-family="Arial" font-size="14.00" fill="#000000">page&#45;header</text>
</g>
<!-- page&#45;header&#45;&gt;enhanced&#45;title -->
<g id="edge14" class="edge">
<title>page&#45;header&#45;&gt;enhanced&#45;title</title>
<path fill="none" stroke="#757575" d="M1351.4318,-144.5708C1340.9069,-135.4408 1327.8522,-124.1163 1316.3679,-114.1539"/>
<polygon fill="#757575" stroke="#757575" points="1318.5658,-111.4272 1308.7184,-107.5182 1313.9788,-116.7149 1318.5658,-111.4272"/>
</g>
<!-- page&#45;header&#45;&gt;scroll&#45;container -->
<g id="edge15" class="edge">
<title>page&#45;header&#45;&gt;scroll&#45;container</title>
<path fill="none" stroke="#757575" d="M1391.6157,-144.5708C1402.1406,-135.4408 1415.1953,-124.1163 1426.6797,-114.1539"/>
<polygon fill="#757575" stroke="#757575" points="1429.0687,-116.7149 1434.3291,-107.5182 1424.4817,-111.4272 1429.0687,-116.7149"/>
</g>
<!-- popup&#45;confirm -->
<g id="node17" class="node">
<title>popup&#45;confirm</title>
<ellipse fill="#efefef" stroke="#000000" cx="384.5238" cy="-90" rx="72.9857" ry="18"/>
<text text-anchor="middle" x="384.5238" y="-85.8" font-family="Arial" font-size="14.00" fill="#000000">popup&#45;confirm</text>
</g>
<!-- popups&#45;modals&#45;shell -->
<g id="node18" class="node">
<title>popups&#45;modals&#45;shell</title>
<ellipse fill="#efefef" stroke="#000000" cx="390.5238" cy="-162" rx="100.2129" ry="18"/>
<text text-anchor="middle" x="390.5238" y="-157.8" font-family="Arial" font-size="14.00" fill="#000000">popups&#45;modals&#45;shell</text>
</g>
<!-- popups&#45;modals&#45;shell&#45;&gt;gdk -->
<g id="edge16" class="edge">
<title>popups&#45;modals&#45;shell&#45;&gt;gdk</title>
<path fill="none" stroke="#757575" d="M417.6358,-144.5708C434.8364,-133.5133 457.044,-119.237 474.4304,-108.06"/>
<polygon fill="#757575" stroke="#757575" points="476.5117,-110.8829 483.0309,-102.5312 472.7264,-104.9946 476.5117,-110.8829"/>
</g>
<!-- popups&#45;modals&#45;shell&#45;&gt;countdown&#45;button -->
<g id="edge17" class="edge">
<title>popups&#45;modals&#45;shell&#45;&gt;countdown&#45;button</title>
<path fill="none" stroke="#757575" d="M348.081,-145.4817C320.6702,-134.8137 284.8671,-120.8796 255.999,-109.6444"/>
<polygon fill="#757575" stroke="#757575" points="257.0855,-106.3116 246.497,-105.9463 254.5466,-112.835 257.0855,-106.3116"/>
</g>
<!-- popups&#45;modals&#45;shell&#45;&gt;popup&#45;confirm -->
<g id="edge18" class="edge">
<title>popups&#45;modals&#45;shell&#45;&gt;popup&#45;confirm</title>
<path fill="none" stroke="#757575" d="M389.0097,-143.8314C388.368,-136.131 387.605,-126.9743 386.8918,-118.4166"/>
<polygon fill="#757575" stroke="#757575" points="390.3767,-118.088 386.0582,-108.4133 383.4008,-118.6694 390.3767,-118.088"/>
</g>
<!-- presentational&#45;shell -->
<g id="node19" class="node">
<title>presentational&#45;shell</title>
<ellipse fill="#efefef" stroke="#000000" cx="757.5238" cy="-162" rx="94.9903" ry="18"/>
<text text-anchor="middle" x="757.5238" y="-157.8" font-family="Arial" font-size="14.00" fill="#000000">presentational&#45;shell</text>
</g>
<!-- presentational&#45;shell&#45;&gt;arrow&#45;variation -->
<g id="edge20" class="edge">
<title>presentational&#45;shell&#45;&gt;arrow&#45;variation</title>
<path fill="none" stroke="#757575" d="M795.3781,-145.4817C819.5911,-134.9161 851.1462,-121.1466 876.7627,-109.9685"/>
<polygon fill="#757575" stroke="#757575" points="878.4964,-113.0307 886.262,-105.8233 875.6968,-106.6149 878.4964,-113.0307"/>
</g>
<!-- presentational&#45;shell&#45;&gt;gdk -->
<g id="edge19" class="edge">
<title>presentational&#45;shell&#45;&gt;gdk</title>
<path fill="none" stroke="#757575" d="M689.7586,-149.3496C645.893,-140.1758 587.9513,-126.1938 538.5238,-108 536.6549,-107.3121 534.7559,-106.5542 532.8567,-105.7505"/>
<polygon fill="#757575" stroke="#757575" points="534.0465,-102.4458 523.4974,-101.4618 531.1304,-108.8095 534.0465,-102.4458"/>
</g>
<!-- presentational&#45;shell&#45;&gt;data&#45;formatter -->
<g id="edge21" class="edge">
<title>presentational&#45;shell&#45;&gt;data&#45;formatter</title>
<path fill="none" stroke="#757575" d="M757.5238,-143.8314C757.5238,-136.131 757.5238,-126.9743 757.5238,-118.4166"/>
<polygon fill="#757575" stroke="#757575" points="761.0239,-118.4132 757.5238,-108.4133 754.0239,-118.4133 761.0239,-118.4132"/>
</g>
<!-- widgets&#45;system -->
<g id="node20" class="node">
<title>widgets&#45;system</title>
<polygon fill="none" stroke="#000000" points="632.9707,-252 520.0769,-252 520.0769,-216 632.9707,-216 632.9707,-252"/>
<text text-anchor="middle" x="576.5238" y="-229.8" font-family="Arial" font-size="14.00" fill="#000000">widgets&#45;system</text>
</g>
<!-- widgets&#45;system&#45;&gt;buttons&#45;indicators&#45;shell -->
<g id="edge22" class="edge">
<title>widgets&#45;system&#45;&gt;buttons&#45;indicators&#45;shell</title>
<path fill="none" stroke="#757575" stroke-dasharray="1,5" d="M520.259,-224.2148C450.2935,-212.0469 330.1489,-191.1522 248.5858,-176.9673"/>
<polygon fill="#757575" stroke="#757575" points="248.791,-173.4505 238.3392,-175.1853 247.5916,-180.347 248.791,-173.4505"/>
</g>
<!-- widgets&#45;system&#45;&gt;controls&#45;shell -->
<g id="edge23" class="edge">
<title>widgets&#45;system&#45;&gt;controls&#45;shell</title>
<path fill="none" stroke="#757575" stroke-dasharray="1,5" d="M576.5238,-215.8314C576.5238,-208.131 576.5238,-198.9743 576.5238,-190.4166"/>
<polygon fill="#757575" stroke="#757575" points="580.0239,-190.4132 576.5238,-180.4133 573.0239,-190.4133 580.0239,-190.4132"/>
</g>
<!-- widgets&#45;system&#45;&gt;layout&#45;shell -->
<g id="edge24" class="edge">
<title>widgets&#45;system&#45;&gt;layout&#45;shell</title>
<path fill="none" stroke="#757575" stroke-dasharray="1,5" d="M632.7954,-225.8806C726.2182,-212.4008 912.7717,-185.4833 1011.2385,-171.2756"/>
<polygon fill="#757575" stroke="#757575" points="1011.9559,-174.7085 1021.3535,-169.8161 1010.9562,-167.7802 1011.9559,-174.7085"/>
</g>
<!-- widgets&#45;system&#45;&gt;popups&#45;modals&#45;shell -->
<g id="edge25" class="edge">
<title>widgets&#45;system&#45;&gt;popups&#45;modals&#45;shell</title>
<path fill="none" stroke="#757575" stroke-dasharray="1,5" d="M529.5881,-215.8314C503.018,-205.5461 469.7366,-192.663 442.3946,-182.079"/>
<polygon fill="#757575" stroke="#757575" points="443.5811,-178.7853 432.9919,-178.4393 441.0541,-185.3133 443.5811,-178.7853"/>
</g>
<!-- widgets&#45;system&#45;&gt;presentational&#45;shell -->
<g id="edge26" class="edge">
<title>widgets&#45;system&#45;&gt;presentational&#45;shell</title>
<path fill="none" stroke="#757575" stroke-dasharray="1,5" d="M622.1977,-215.8314C648.034,-205.554 680.3911,-192.6826 706.9866,-182.1032"/>
<polygon fill="#757575" stroke="#757575" points="708.5034,-185.2666 716.5016,-178.3182 705.916,-178.7623 708.5034,-185.2666"/>
</g>
<!-- widgets&#45;system&#45;e2e -->
<g id="node21" class="node">
<title>widgets&#45;system&#45;e2e</title>
<polygon fill="none" stroke="#000000" points="646.9789,-324 506.0686,-324 506.0686,-288 646.9789,-288 646.9789,-324"/>
<text text-anchor="middle" x="576.5238" y="-301.8" font-family="Arial" font-size="14.00" fill="#000000">widgets&#45;system&#45;e2e</text>
</g>
<!-- widgets&#45;system&#45;e2e&#45;&gt;widgets&#45;system -->
<g id="edge27" class="edge">
<title>widgets&#45;system&#45;e2e&#45;&gt;widgets&#45;system</title>
<path fill="none" stroke="#000000" stroke-width="2" d="M576.5238,-287.8314C576.5238,-280.131 576.5238,-270.9743 576.5238,-262.4166"/>
<polygon fill="#000000" stroke="#000000" stroke-width="2" points="580.0239,-262.4132 576.5238,-252.4133 573.0239,-262.4133 580.0239,-262.4132"/>
</g>
</g>
</svg>
