<?xml version="1.0" encoding="UTF-8" standalone="no"?>
<!DOCTYPE svg PUBLIC "-//W3C//DTD SVG 1.1//EN"
 "http://www.w3.org/Graphics/SVG/1.1/DTD/svg11.dtd">
<!-- Generated by graphviz version 2.40.1 (20161225.0304)
 -->
<!-- Title: G Pages: 1 -->
<svg width="1570pt" height="340pt"
 viewBox="0.00 0.00 1569.87 339.98" xmlns="http://www.w3.org/2000/svg" xmlns:xlink="http://www.w3.org/1999/xlink">
<g id="graph0" class="graph" transform="scale(1 1) rotate(0) translate(7.992 331.992)">
<title>G</title>
<polygon fill="#ffffff" stroke="transparent" points="-7.992,7.992 -7.992,-331.992 1561.8822,-331.992 1561.8822,7.992 -7.992,7.992"/>
<!-- arrow&#45;variation -->
<g id="node1" class="node">
<title>arrow&#45;variation</title>
<ellipse fill="#efefef" stroke="#000000" cx="213.4018" cy="-90" rx="74.7496" ry="18"/>
<text text-anchor="middle" x="213.4018" y="-85.8" font-family="Arial" font-size="14.00" fill="#000000">arrow&#45;variation</text>
</g>
<!-- button -->
<g id="node2" class="node">
<title>button</title>
<ellipse fill="#efefef" stroke="#000000" cx="659.4018" cy="-18" rx="37.7544" ry="18"/>
<text text-anchor="middle" x="659.4018" y="-13.8" font-family="Arial" font-size="14.00" fill="#000000">button</text>
</g>
<!-- buttons&#45;indicators&#45;shell -->
<g id="node3" class="node">
<title>buttons&#45;indicators&#45;shell</title>
<ellipse fill="#efefef" stroke="#000000" cx="601.4018" cy="-162" rx="110.1008" ry="18"/>
<text text-anchor="middle" x="601.4018" y="-157.8" font-family="Arial" font-size="14.00" fill="#000000">buttons&#45;indicators&#45;shell</text>
</g>
<!-- buttons&#45;indicators&#45;shell&#45;&gt;button -->
<g id="edge2" class="edge">
<title>buttons&#45;indicators&#45;shell&#45;&gt;button</title>
<path fill="none" stroke="#757575" d="M586.2731,-143.9639C572.4959,-125.2087 556.1655,-95.3778 569.4018,-72 579.9522,-53.3661 599.7814,-40.4608 618.1474,-31.9513"/>
<polygon fill="#757575" stroke="#757575" points="619.7627,-35.0664 627.5614,-27.895 616.9927,-28.6378 619.7627,-35.0664"/>
</g>
<!-- gdk -->
<g id="node4" class="node">
<title>gdk</title>
<ellipse fill="#efefef" stroke="#000000" cx="495.4018" cy="-90" rx="27" ry="18"/>
<text text-anchor="middle" x="495.4018" y="-85.8" font-family="Arial" font-size="14.00" fill="#000000">gdk</text>
</g>
<!-- buttons&#45;indicators&#45;shell&#45;&gt;gdk -->
<g id="edge1" class="edge">
<title>buttons&#45;indicators&#45;shell&#45;&gt;gdk</title>
<path fill="none" stroke="#757575" d="M575.4713,-144.3868C559.5432,-133.5677 539.1564,-119.7201 522.9405,-108.7055"/>
<polygon fill="#757575" stroke="#757575" points="524.6544,-105.6386 514.4156,-102.915 520.7212,-111.4291 524.6544,-105.6386"/>
</g>
<!-- countdown&#45;button -->
<g id="node5" class="node">
<title>countdown&#45;button</title>
<ellipse fill="#efefef" stroke="#000000" cx="768.4018" cy="-90" rx="87.5707" ry="18"/>
<text text-anchor="middle" x="768.4018" y="-85.8" font-family="Arial" font-size="14.00" fill="#000000">countdown&#45;button</text>
</g>
<!-- buttons&#45;indicators&#45;shell&#45;&gt;countdown&#45;button -->
<g id="edge3" class="edge">
<title>buttons&#45;indicators&#45;shell&#45;&gt;countdown&#45;button</title>
<path fill="none" stroke="#757575" d="M640.5559,-145.1192C664.6628,-134.7258 695.7169,-121.3372 721.1822,-110.3582"/>
<polygon fill="#757575" stroke="#757575" points="722.8451,-113.4527 730.6423,-106.2796 720.0737,-107.0247 722.8451,-113.4527"/>
</g>
<!-- loading -->
<g id="node6" class="node">
<title>loading</title>
<ellipse fill="#efefef" stroke="#000000" cx="620.4018" cy="-90" rx="42.3281" ry="18"/>
<text text-anchor="middle" x="620.4018" y="-85.8" font-family="Arial" font-size="14.00" fill="#000000">loading</text>
</g>
<!-- buttons&#45;indicators&#45;shell&#45;&gt;loading -->
<g id="edge4" class="edge">
<title>buttons&#45;indicators&#45;shell&#45;&gt;loading</title>
<path fill="none" stroke="#757575" d="M606.1963,-143.8314C608.2823,-135.9266 610.7733,-126.4872 613.0825,-117.7365"/>
<polygon fill="#757575" stroke="#757575" points="616.5072,-118.4755 615.6747,-107.9134 609.7389,-116.6894 616.5072,-118.4755"/>
</g>
<!-- countdown&#45;button&#45;&gt;button -->
<g id="edge8" class="edge">
<title>countdown&#45;button&#45;&gt;button</title>
<path fill="none" stroke="#757575" d="M742.2936,-72.7542C726.6702,-62.4341 706.728,-49.2613 690.3193,-38.4225"/>
<polygon fill="#757575" stroke="#757575" points="691.8898,-35.2653 681.6167,-32.674 688.0316,-41.1061 691.8898,-35.2653"/>
</g>
<!-- card&#45;container -->
<g id="node7" class="node">
<title>card&#45;container</title>
<ellipse fill="#efefef" stroke="#000000" cx="1110.4018" cy="-90" rx="72.9857" ry="18"/>
<text text-anchor="middle" x="1110.4018" y="-85.8" font-family="Arial" font-size="14.00" fill="#000000">card&#45;container</text>
</g>
<!-- section&#45;title -->
<g id="node8" class="node">
<title>section&#45;title</title>
<ellipse fill="#efefef" stroke="#000000" cx="1160.4018" cy="-18" rx="59.7224" ry="18"/>
<text text-anchor="middle" x="1160.4018" y="-13.8" font-family="Arial" font-size="14.00" fill="#000000">section&#45;title</text>
</g>
<!-- card&#45;container&#45;&gt;section&#45;title -->
<g id="edge5" class="edge">
<title>card&#45;container&#45;&gt;section&#45;title</title>
<path fill="none" stroke="#757575" d="M1122.7614,-72.2022C1128.6509,-63.7214 1135.8105,-53.4115 1142.298,-44.0696"/>
<polygon fill="#757575" stroke="#757575" points="1145.182,-46.0527 1148.0112,-35.8425 1139.4324,-42.0599 1145.182,-46.0527"/>
</g>
<!-- controls&#45;shell -->
<g id="node9" class="node">
<title>controls&#45;shell</title>
<ellipse fill="#efefef" stroke="#000000" cx="197.4018" cy="-162" rx="67.8107" ry="18"/>
<text text-anchor="middle" x="197.4018" y="-157.8" font-family="Arial" font-size="14.00" fill="#000000">controls&#45;shell</text>
</g>
<!-- controls&#45;shell&#45;&gt;gdk -->
<g id="edge6" class="edge">
<title>controls&#45;shell&#45;&gt;gdk</title>
<path fill="none" stroke="#757575" d="M247.8724,-149.9166C256.7021,-147.8842 265.8103,-145.8395 274.4018,-144 356.3101,-126.4633 380.1008,-134.9784 459.4018,-108 461.2872,-107.3586 463.199,-106.6369 465.1079,-105.8608"/>
<polygon fill="#757575" stroke="#757575" points="466.8049,-108.9355 474.4933,-101.6458 463.9371,-102.5498 466.8049,-108.9355"/>
</g>
<!-- slide&#45;toggle -->
<g id="node10" class="node">
<title>slide&#45;toggle</title>
<ellipse fill="#efefef" stroke="#000000" cx="60.4018" cy="-90" rx="60.3038" ry="18"/>
<text text-anchor="middle" x="60.4018" y="-85.8" font-family="Arial" font-size="14.00" fill="#000000">slide&#45;toggle</text>
</g>
<!-- controls&#45;shell&#45;&gt;slide&#45;toggle -->
<g id="edge7" class="edge">
<title>controls&#45;shell&#45;&gt;slide&#45;toggle</title>
<path fill="none" stroke="#757575" d="M166.6564,-145.8418C146.8646,-135.4403 120.9577,-121.825 99.6802,-110.6426"/>
<polygon fill="#757575" stroke="#757575" points="101.0533,-107.4104 90.573,-105.8564 97.7968,-113.6068 101.0533,-107.4104"/>
</g>
<!-- data&#45;formatter -->
<g id="node11" class="node">
<title>data&#45;formatter</title>
<ellipse fill="#efefef" stroke="#000000" cx="378.4018" cy="-90" rx="71.8376" ry="18"/>
<text text-anchor="middle" x="378.4018" y="-85.8" font-family="Arial" font-size="14.00" fill="#000000">data&#45;formatter</text>
</g>
<!-- directives -->
<g id="node12" class="node">
<title>directives</title>
<ellipse fill="#efefef" stroke="#000000" cx="741.4018" cy="-306" rx="51.6227" ry="18"/>
<text text-anchor="middle" x="741.4018" y="-301.8" font-family="Arial" font-size="14.00" fill="#000000">directives</text>
</g>
<!-- enhanced&#45;title -->
<g id="node13" class="node">
<title>enhanced&#45;title</title>
<ellipse fill="#efefef" stroke="#000000" cx="1311.4018" cy="-90" rx="71.8589" ry="18"/>
<text text-anchor="middle" x="1311.4018" y="-85.8" font-family="Arial" font-size="14.00" fill="#000000">enhanced&#45;title</text>
</g>
<!-- layout&#45;shell -->
<g id="node14" class="node">
<title>layout&#45;shell</title>
<ellipse fill="#efefef" stroke="#000000" cx="1160.4018" cy="-162" rx="59.7244" ry="18"/>
<text text-anchor="middle" x="1160.4018" y="-157.8" font-family="Arial" font-size="14.00" fill="#000000">layout&#45;shell</text>
</g>
<!-- layout&#45;shell&#45;&gt;gdk -->
<g id="edge9" class="edge">
<title>layout&#45;shell&#45;&gt;gdk</title>
<path fill="none" stroke="#757575" d="M1102.5533,-157.2037C964.063,-145.6511 621.1084,-116.6026 569.4018,-108 556.5631,-105.864 542.6565,-102.7092 530.4015,-99.635"/>
<polygon fill="#757575" stroke="#757575" points="531.1128,-96.204 520.5556,-97.0958 529.3647,-102.9822 531.1128,-96.204"/>
</g>
<!-- layout&#45;shell&#45;&gt;card&#45;container -->
<g id="edge10" class="edge">
<title>layout&#45;shell&#45;&gt;card&#45;container</title>
<path fill="none" stroke="#757575" d="M1148.0423,-144.2022C1142.1528,-135.7214 1134.9932,-125.4115 1128.5057,-116.0696"/>
<polygon fill="#757575" stroke="#757575" points="1131.3713,-114.0599 1122.7925,-107.8425 1125.6217,-118.0527 1131.3713,-114.0599"/>
</g>
<!-- layout&#45;shell&#45;&gt;section&#45;title -->
<g id="edge13" class="edge">
<title>layout&#45;shell&#45;&gt;section&#45;title</title>
<path fill="none" stroke="#757575" d="M1174.303,-144.1295C1181.211,-134.109 1188.8304,-121.0324 1192.4018,-108 1196.6306,-92.5689 1196.6306,-87.4311 1192.4018,-72 1189.7791,-62.4294 1184.9732,-52.8348 1179.8692,-44.4444"/>
<polygon fill="#757575" stroke="#757575" points="1182.6839,-42.3522 1174.303,-35.8705 1176.8126,-46.1638 1182.6839,-42.3522"/>
</g>
<!-- layout&#45;shell&#45;&gt;enhanced&#45;title -->
<g id="edge11" class="edge">
<title>layout&#45;shell&#45;&gt;enhanced&#45;title</title>
<path fill="none" stroke="#757575" d="M1192.4251,-146.7307C1214.5888,-136.1625 1244.3352,-121.9788 1268.5396,-110.4376"/>
<polygon fill="#757575" stroke="#757575" points="1270.3349,-113.4592 1277.8549,-105.9959 1267.3221,-107.1407 1270.3349,-113.4592"/>
</g>
<!-- scroll&#45;container -->
<g id="node15" class="node">
<title>scroll&#45;container</title>
<ellipse fill="#efefef" stroke="#000000" cx="1477.4018" cy="-90" rx="76.4768" ry="18"/>
<text text-anchor="middle" x="1477.4018" y="-85.8" font-family="Arial" font-size="14.00" fill="#000000">scroll&#45;container</text>
</g>
<!-- layout&#45;shell&#45;&gt;scroll&#45;container -->
<g id="edge12" class="edge">
<title>layout&#45;shell&#45;&gt;scroll&#45;container</title>
<path fill="none" stroke="#757575" d="M1208.2032,-151.1429C1262.5985,-138.7881 1351.737,-118.5422 1412.4142,-104.7606"/>
<polygon fill="#757575" stroke="#757575" points="1413.296,-108.1495 1422.2724,-102.5215 1411.7455,-101.3234 1413.296,-108.1495"/>
</g>
<!-- popup&#45;confirm -->
<g id="node16" class="node">
<title>popup&#45;confirm</title>
<ellipse fill="#efefef" stroke="#000000" cx="947.4018" cy="-90" rx="72.9857" ry="18"/>
<text text-anchor="middle" x="947.4018" y="-85.8" font-family="Arial" font-size="14.00" fill="#000000">popup&#45;confirm</text>
</g>
<!-- popups&#45;modals&#45;shell -->
<g id="node17" class="node">
<title>popups&#45;modals&#45;shell</title>
<ellipse fill="#efefef" stroke="#000000" cx="829.4018" cy="-162" rx="100.2129" ry="18"/>
<text text-anchor="middle" x="829.4018" y="-157.8" font-family="Arial" font-size="14.00" fill="#000000">popups&#45;modals&#45;shell</text>
</g>
<!-- popups&#45;modals&#45;shell&#45;&gt;gdk -->
<g id="edge14" class="edge">
<title>popups&#45;modals&#45;shell&#45;&gt;gdk</title>
<path fill="none" stroke="#757575" d="M761.9283,-148.6376C709.3651,-138.0707 634.614,-122.6988 569.4018,-108 556.7051,-105.1382 542.8313,-101.8158 530.563,-98.8102"/>
<polygon fill="#757575" stroke="#757575" points="531.2434,-95.3732 520.6962,-96.377 529.5674,-102.1696 531.2434,-95.3732"/>
</g>
<!-- popups&#45;modals&#45;shell&#45;&gt;countdown&#45;button -->
<g id="edge15" class="edge">
<title>popups&#45;modals&#45;shell&#45;&gt;countdown&#45;button</title>
<path fill="none" stroke="#757575" d="M814.3232,-144.2022C806.9914,-135.5483 798.0461,-124.99 790.005,-115.4988"/>
<polygon fill="#757575" stroke="#757575" points="792.6531,-113.2099 783.5184,-107.8425 787.3122,-117.7349 792.6531,-113.2099"/>
</g>
<!-- popups&#45;modals&#45;shell&#45;&gt;popup&#45;confirm -->
<g id="edge16" class="edge">
<title>popups&#45;modals&#45;shell&#45;&gt;popup&#45;confirm</title>
<path fill="none" stroke="#757575" d="M857.9664,-144.5708C873.9973,-134.7892 894.1565,-122.4887 911.2757,-112.0431"/>
<polygon fill="#757575" stroke="#757575" points="913.1995,-114.9693 919.9129,-106.7729 909.5535,-108.9939 913.1995,-114.9693"/>
</g>
<!-- presentational&#45;shell -->
<g id="node18" class="node">
<title>presentational&#45;shell</title>
<ellipse fill="#efefef" stroke="#000000" cx="378.4018" cy="-162" rx="94.9903" ry="18"/>
<text text-anchor="middle" x="378.4018" y="-157.8" font-family="Arial" font-size="14.00" fill="#000000">presentational&#45;shell</text>
</g>
<!-- presentational&#45;shell&#45;&gt;arrow&#45;variation -->
<g id="edge18" class="edge">
<title>presentational&#45;shell&#45;&gt;arrow&#45;variation</title>
<path fill="none" stroke="#757575" d="M340.5475,-145.4817C316.3345,-134.9161 284.7794,-121.1466 259.1629,-109.9685"/>
<polygon fill="#757575" stroke="#757575" points="260.2288,-106.6149 249.6636,-105.8233 257.4292,-113.0307 260.2288,-106.6149"/>
</g>
<!-- presentational&#45;shell&#45;&gt;gdk -->
<g id="edge17" class="edge">
<title>presentational&#45;shell&#45;&gt;gdk</title>
<path fill="none" stroke="#757575" d="M406.4263,-144.7542C424.6689,-133.528 448.3971,-118.926 466.7614,-107.6249"/>
<polygon fill="#757575" stroke="#757575" points="468.6159,-110.5933 475.2982,-102.3715 464.9472,-104.6317 468.6159,-110.5933"/>
</g>
<!-- presentational&#45;shell&#45;&gt;data&#45;formatter -->
<g id="edge19" class="edge">
<title>presentational&#45;shell&#45;&gt;data&#45;formatter</title>
<path fill="none" stroke="#757575" d="M378.4018,-143.8314C378.4018,-136.131 378.4018,-126.9743 378.4018,-118.4166"/>
<polygon fill="#757575" stroke="#757575" points="381.9019,-118.4132 378.4018,-108.4133 374.9019,-118.4133 381.9019,-118.4132"/>
</g>
<!-- widgets&#45;system -->
<g id="node19" class="node">
<title>widgets&#45;system</title>
<polygon fill="none" stroke="#000000" points="657.8487,-252 544.955,-252 544.955,-216 657.8487,-216 657.8487,-252"/>
<text text-anchor="middle" x="601.4018" y="-229.8" font-family="Arial" font-size="14.00" fill="#000000">widgets&#45;system</text>
</g>
<!-- widgets&#45;system&#45;&gt;buttons&#45;indicators&#45;shell -->
<g id="edge20" class="edge">
<title>widgets&#45;system&#45;&gt;buttons&#45;indicators&#45;shell</title>
<path fill="none" stroke="#757575" stroke-dasharray="1,5" d="M601.4018,-215.8314C601.4018,-208.131 601.4018,-198.9743 601.4018,-190.4166"/>
<polygon fill="#757575" stroke="#757575" points="604.9019,-190.4132 601.4018,-180.4133 597.9019,-190.4133 604.9019,-190.4132"/>
</g>
<!-- widgets&#45;system&#45;&gt;controls&#45;shell -->
<g id="edge21" class="edge">
<title>widgets&#45;system&#45;&gt;controls&#45;shell</title>
<path fill="none" stroke="#757575" stroke-dasharray="1,5" d="M545.071,-225.8529C479.7447,-216.1376 368.9233,-198.8312 274.4018,-180 268.9322,-178.9103 263.2594,-177.7131 257.5857,-176.4701"/>
<polygon fill="#757575" stroke="#757575" points="257.9385,-172.9626 247.4157,-174.1963 256.4111,-179.794 257.9385,-172.9626"/>
</g>
<!-- widgets&#45;system&#45;&gt;layout&#45;shell -->
<g id="edge22" class="edge">
<title>widgets&#45;system&#45;&gt;layout&#45;shell</title>
<path fill="none" stroke="#757575" stroke-dasharray="1,5" d="M657.8189,-226.7334C762.1227,-213.2989 984.5393,-184.6513 1095.1457,-170.4051"/>
<polygon fill="#757575" stroke="#757575" points="1095.6998,-173.8627 1105.1707,-169.1138 1094.8055,-166.9201 1095.6998,-173.8627"/>
</g>
<!-- widgets&#45;system&#45;&gt;popups&#45;modals&#45;shell -->
<g id="edge23" class="edge">
<title>widgets&#45;system&#45;&gt;popups&#45;modals&#45;shell</title>
<path fill="none" stroke="#757575" stroke-dasharray="1,5" d="M657.7614,-216.2022C691.7277,-205.4761 734.9583,-191.8243 769.5356,-180.9051"/>
<polygon fill="#757575" stroke="#757575" points="771.0232,-184.1058 779.505,-177.7569 768.9152,-177.4307 771.0232,-184.1058"/>
</g>
<!-- widgets&#45;system&#45;&gt;presentational&#45;shell -->
<g id="edge24" class="edge">
<title>widgets&#45;system&#45;&gt;presentational&#45;shell</title>
<path fill="none" stroke="#757575" stroke-dasharray="1,5" d="M545.4174,-215.9243C512.0684,-205.1569 469.8238,-191.5174 436.1654,-180.6501"/>
<polygon fill="#757575" stroke="#757575" points="437.0574,-177.2603 426.4657,-177.5184 434.9066,-183.9217 437.0574,-177.2603"/>
</g>
<!-- widgets&#45;system&#45;e2e -->
<g id="node20" class="node">
<title>widgets&#45;system&#45;e2e</title>
<polygon fill="none" stroke="#000000" points="671.857,-324 530.9467,-324 530.9467,-288 671.857,-288 671.857,-324"/>
<text text-anchor="middle" x="601.4018" y="-301.8" font-family="Arial" font-size="14.00" fill="#000000">widgets&#45;system&#45;e2e</text>
</g>
<!-- widgets&#45;system&#45;e2e&#45;&gt;widgets&#45;system -->
<g id="edge25" class="edge">
<title>widgets&#45;system&#45;e2e&#45;&gt;widgets&#45;system</title>
<path fill="none" stroke="#000000" stroke-width="2" d="M601.4018,-287.8314C601.4018,-280.131 601.4018,-270.9743 601.4018,-262.4166"/>
<polygon fill="#000000" stroke="#000000" stroke-width="2" points="604.9019,-262.4132 601.4018,-252.4133 597.9019,-262.4133 604.9019,-262.4132"/>
</g>
</g>
</svg>
